%TF.GenerationSoftware,KiCad,Pcbnew,(5.1.9)-1*%
%TF.CreationDate,2021-08-09T15:54:16+01:00*%
%TF.ProjectId,OpenFlopsShort,4f70656e-466c-46f7-9073-53686f72742e,rev?*%
%TF.SameCoordinates,Original*%
%TF.FileFunction,Copper,L2,Bot*%
%TF.FilePolarity,Positive*%
%FSLAX46Y46*%
G04 Gerber Fmt 4.6, Leading zero omitted, Abs format (unit mm)*
G04 Created by KiCad (PCBNEW (5.1.9)-1) date 2021-08-09 15:54:16*
%MOMM*%
%LPD*%
G01*
G04 APERTURE LIST*
%TA.AperFunction,ComponentPad*%
%ADD10O,1.700000X1.700000*%
%TD*%
%TA.AperFunction,ComponentPad*%
%ADD11R,1.700000X1.700000*%
%TD*%
%TA.AperFunction,ComponentPad*%
%ADD12C,1.700000*%
%TD*%
%TA.AperFunction,ComponentPad*%
%ADD13O,1.600000X1.600000*%
%TD*%
%TA.AperFunction,ComponentPad*%
%ADD14R,1.600000X1.600000*%
%TD*%
%TA.AperFunction,ComponentPad*%
%ADD15C,1.500000*%
%TD*%
%TA.AperFunction,ComponentPad*%
%ADD16C,5.000000*%
%TD*%
%TA.AperFunction,ComponentPad*%
%ADD17C,1.600000*%
%TD*%
%TA.AperFunction,ViaPad*%
%ADD18C,0.800000*%
%TD*%
%TA.AperFunction,ViaPad*%
%ADD19C,0.500000*%
%TD*%
%TA.AperFunction,Conductor*%
%ADD20C,0.500000*%
%TD*%
%TA.AperFunction,Conductor*%
%ADD21C,0.200000*%
%TD*%
%TA.AperFunction,Conductor*%
%ADD22C,0.250000*%
%TD*%
%TA.AperFunction,Conductor*%
%ADD23C,0.254000*%
%TD*%
%TA.AperFunction,Conductor*%
%ADD24C,0.100000*%
%TD*%
G04 APERTURE END LIST*
D10*
%TO.P,J1,2*%
%TO.N,Net-(J1-Pad2)*%
X166624000Y-68643500D03*
D11*
%TO.P,J1,1*%
%TO.N,GND*%
X169164000Y-68643500D03*
%TD*%
D10*
%TO.P,J2,2*%
%TO.N,GND*%
X169164000Y-66167000D03*
D11*
%TO.P,J2,1*%
%TO.N,Net-(J2-Pad1)*%
X166624000Y-66167000D03*
%TD*%
D10*
%TO.P,P9,2*%
%TO.N,/spk+*%
X166624000Y-104203500D03*
D11*
%TO.P,P9,1*%
%TO.N,/spk-*%
X169164000Y-104203500D03*
%TD*%
D10*
%TO.P,J4,2*%
%TO.N,Net-(J4-Pad2)*%
X166624000Y-101663500D03*
D11*
%TO.P,J4,1*%
%TO.N,/~selx*%
X169164000Y-101663500D03*
%TD*%
D10*
%TO.P,J3,2*%
%TO.N,Net-(J3-Pad2)*%
X166624000Y-99123500D03*
D11*
%TO.P,J3,1*%
%TO.N,/~sely*%
X169164000Y-99123500D03*
%TD*%
D10*
%TO.P,P6,5*%
%TO.N,/enc_clk*%
X166624000Y-81978500D03*
%TO.P,P6,4*%
%TO.N,/enc_dt*%
X166624000Y-79438500D03*
%TO.P,P6,3*%
%TO.N,/ja*%
X166624000Y-76898500D03*
%TO.P,P6,2*%
%TO.N,+3V3*%
X166624000Y-74358500D03*
D12*
%TO.P,P6,1*%
%TO.N,GND*%
X166624000Y-71818500D03*
%TD*%
D10*
%TO.P,P7,4*%
%TO.N,/disp_dio*%
X169164000Y-79438500D03*
%TO.P,P7,3*%
%TO.N,/disp_clk*%
X169164000Y-76898500D03*
%TO.P,P7,2*%
%TO.N,+3V3*%
X169164000Y-74358500D03*
D12*
%TO.P,P7,1*%
%TO.N,GND*%
X169164000Y-71818500D03*
%TD*%
D13*
%TO.P,RN2,9*%
%TO.N,/~rdy*%
X114554000Y-109283500D03*
%TO.P,RN2,8*%
%TO.N,/~side*%
X114554000Y-106743500D03*
%TO.P,RN2,7*%
%TO.N,/~rdata*%
X114554000Y-104203500D03*
%TO.P,RN2,6*%
%TO.N,/~wprot*%
X114554000Y-101663500D03*
%TO.P,RN2,5*%
%TO.N,/~trk0*%
X114554000Y-99123500D03*
%TO.P,RN2,4*%
%TO.N,/~wgate*%
X114554000Y-96583500D03*
%TO.P,RN2,3*%
%TO.N,/~wdata*%
X114554000Y-94043500D03*
%TO.P,RN2,2*%
%TO.N,/~step*%
X114554000Y-91503500D03*
D14*
%TO.P,RN2,1*%
%TO.N,+5V*%
X114554000Y-88963500D03*
%TD*%
D13*
%TO.P,RN1,9*%
%TO.N,/dir*%
X114554000Y-85153500D03*
%TO.P,RN1,8*%
%TO.N,/~mtron*%
X114554000Y-82613500D03*
%TO.P,RN1,7*%
%TO.N,/~sel2*%
X114554000Y-80073500D03*
%TO.P,RN1,6*%
%TO.N,/~sel1*%
X114554000Y-77533500D03*
%TO.P,RN1,5*%
%TO.N,/~sel0*%
X114554000Y-74993500D03*
%TO.P,RN1,4*%
%TO.N,/~index*%
X114554000Y-72453500D03*
%TO.P,RN1,3*%
%TO.N,/~inuse*%
X114554000Y-69913500D03*
%TO.P,RN1,2*%
%TO.N,/~dskchg*%
X114554000Y-67373500D03*
D14*
%TO.P,RN1,1*%
%TO.N,+5V*%
X114554000Y-64833500D03*
%TD*%
D10*
%TO.P,P8,4*%
%TO.N,GND*%
X169164000Y-94043500D03*
%TO.P,P8,3*%
%TO.N,/usb+r*%
X169164000Y-91503500D03*
%TO.P,P8,2*%
%TO.N,/usb-r*%
X169164000Y-88963500D03*
D11*
%TO.P,P8,1*%
%TO.N,+5V*%
X169164000Y-86423500D03*
%TD*%
D15*
%TO.P,Y1,2*%
%TO.N,Net-(C5-Pad1)*%
X157988000Y-80781500D03*
%TO.P,Y1,1*%
%TO.N,Net-(C3-Pad1)*%
X157988000Y-85661500D03*
%TD*%
D10*
%TO.P,P5,2*%
%TO.N,GND*%
X143852900Y-58496200D03*
D12*
%TO.P,P5,1*%
%TO.N,/jc*%
X143852900Y-61036200D03*
%TD*%
D10*
%TO.P,P4,10*%
%TO.N,+3V3*%
X159004000Y-58483500D03*
%TO.P,P4,9*%
%TO.N,/boot0*%
X159004000Y-61023500D03*
%TO.P,P4,8*%
%TO.N,GND*%
X156464000Y-58483500D03*
%TO.P,P4,7*%
%TO.N,+3V3*%
X156464000Y-61023500D03*
%TO.P,P4,6*%
%TO.N,GND*%
X153924000Y-58483500D03*
%TO.P,P4,5*%
%TO.N,/tx*%
X153924000Y-61023500D03*
%TO.P,P4,4*%
%TO.N,+5V*%
X151384000Y-58483500D03*
%TO.P,P4,3*%
%TO.N,/rx*%
X151384000Y-61023500D03*
%TO.P,P4,2*%
%TO.N,GND*%
X148844000Y-58483500D03*
D12*
%TO.P,P4,1*%
%TO.N,/nrst*%
X148844000Y-61023500D03*
%TD*%
D10*
%TO.P,P2,4*%
%TO.N,Net-(P2-Pad4)*%
X115768120Y-115994180D03*
%TO.P,P2,3*%
%TO.N,GND*%
X115768120Y-118534180D03*
%TO.P,P2,2*%
X115768120Y-121074180D03*
D12*
%TO.P,P2,1*%
%TO.N,+5V*%
X115768120Y-123614180D03*
%TD*%
D10*
%TO.P,P1,34*%
%TO.N,/~rdy*%
X110744000Y-109283500D03*
%TO.P,P1,33*%
%TO.N,GND*%
X108204000Y-109283500D03*
%TO.P,P1,32*%
%TO.N,/~side*%
X110744000Y-106743500D03*
%TO.P,P1,31*%
%TO.N,GND*%
X108204000Y-106743500D03*
%TO.P,P1,30*%
%TO.N,/~rdata*%
X110744000Y-104203500D03*
%TO.P,P1,29*%
%TO.N,GND*%
X108204000Y-104203500D03*
%TO.P,P1,28*%
%TO.N,/~wprot*%
X110744000Y-101663500D03*
%TO.P,P1,27*%
%TO.N,GND*%
X108204000Y-101663500D03*
%TO.P,P1,26*%
%TO.N,/~trk0*%
X110744000Y-99123500D03*
%TO.P,P1,25*%
%TO.N,GND*%
X108204000Y-99123500D03*
%TO.P,P1,24*%
%TO.N,/~wgate*%
X110744000Y-96583500D03*
%TO.P,P1,23*%
%TO.N,GND*%
X108204000Y-96583500D03*
%TO.P,P1,22*%
%TO.N,/~wdata*%
X110744000Y-94043500D03*
%TO.P,P1,21*%
%TO.N,GND*%
X108204000Y-94043500D03*
%TO.P,P1,20*%
%TO.N,/~step*%
X110744000Y-91503500D03*
%TO.P,P1,19*%
%TO.N,GND*%
X108204000Y-91503500D03*
%TO.P,P1,18*%
%TO.N,/dir*%
X110744000Y-88963500D03*
%TO.P,P1,17*%
%TO.N,GND*%
X108204000Y-88963500D03*
%TO.P,P1,16*%
%TO.N,/~mtron*%
X110744000Y-86423500D03*
%TO.P,P1,15*%
%TO.N,GND*%
X108204000Y-86423500D03*
%TO.P,P1,14*%
%TO.N,/~sel2*%
X110744000Y-83883500D03*
%TO.P,P1,13*%
%TO.N,GND*%
X108204000Y-83883500D03*
%TO.P,P1,12*%
%TO.N,/~sel1*%
X110744000Y-81343500D03*
%TO.P,P1,11*%
%TO.N,GND*%
X108204000Y-81343500D03*
%TO.P,P1,10*%
%TO.N,/~sel0*%
X110744000Y-78803500D03*
%TO.P,P1,9*%
%TO.N,GND*%
X108204000Y-78803500D03*
%TO.P,P1,8*%
%TO.N,/~index*%
X110744000Y-76263500D03*
%TO.P,P1,7*%
%TO.N,GND*%
X108204000Y-76263500D03*
%TO.P,P1,6*%
%TO.N,/~sel3*%
X110744000Y-73723500D03*
%TO.P,P1,5*%
%TO.N,GND*%
X108204000Y-73723500D03*
%TO.P,P1,4*%
%TO.N,/~inuse*%
X110744000Y-71183500D03*
%TO.P,P1,3*%
%TO.N,GND*%
X108204000Y-71183500D03*
%TO.P,P1,2*%
%TO.N,/~dskchg*%
X110744000Y-68643500D03*
D11*
%TO.P,P1,1*%
%TO.N,GND*%
X108204000Y-68643500D03*
%TD*%
D16*
%TO.P,H5,1*%
%TO.N,GND*%
X169164000Y-128079500D03*
%TD*%
%TO.P,H4,1*%
%TO.N,GND*%
X110744000Y-128079500D03*
%TD*%
%TO.P,H3,1*%
%TO.N,GND*%
X110744000Y-58483500D03*
%TD*%
%TO.P,H2,1*%
%TO.N,GND*%
X169164000Y-58483500D03*
%TD*%
D17*
%TO.P,C19,2*%
%TO.N,GND*%
X152781000Y-123848500D03*
D14*
%TO.P,C19,1*%
%TO.N,+5V*%
X152781000Y-121348500D03*
%TD*%
D17*
%TO.P,C17,2*%
%TO.N,GND*%
X152654000Y-115657000D03*
D14*
%TO.P,C17,1*%
%TO.N,+3V3*%
X152654000Y-113157000D03*
%TD*%
D17*
%TO.P,C1,2*%
%TO.N,GND*%
X128016000Y-117959500D03*
D14*
%TO.P,C1,1*%
%TO.N,+5V*%
X128016000Y-120459500D03*
%TD*%
D18*
%TO.N,GND*%
X140119100Y-101803200D03*
X140970000Y-75450700D03*
X123926600Y-85661500D03*
X122720100Y-97358200D03*
X126504700Y-92443300D03*
X125069600Y-108889800D03*
X122301000Y-67665600D03*
X152298400Y-77978000D03*
X122656600Y-102577900D03*
X155168600Y-100393500D03*
X157683200Y-93190060D03*
X138557000Y-86382860D03*
X138585000Y-90068340D03*
X154096720Y-81480660D03*
X154172920Y-89801700D03*
X135382000Y-77025500D03*
X120904000Y-73977500D03*
X162293300Y-60261500D03*
D19*
%TO.N,/nrst*%
X145440400Y-79565500D03*
X149148800Y-66078100D03*
X144043400Y-85813900D03*
X149098000Y-72961500D03*
D18*
%TO.N,+3V3*%
X160167320Y-104213660D03*
X160223200Y-99123500D03*
X149108160Y-92138500D03*
X131330700Y-91528900D03*
X130924300Y-80175100D03*
X144236440Y-76969620D03*
X149021800Y-79738220D03*
X146545300Y-56553100D03*
X141782800Y-119646700D03*
X142011400Y-125996700D03*
X144858740Y-92275660D03*
D19*
%TO.N,Net-(J1-Pad2)*%
X132829300Y-68529200D03*
X127977900Y-85090000D03*
%TO.N,Net-(J2-Pad1)*%
X132194300Y-67894200D03*
X127482600Y-85623400D03*
D18*
%TO.N,/~selx*%
X118170960Y-76268580D03*
X118165880Y-80083660D03*
X118176040Y-83888580D03*
X118170960Y-87683340D03*
D19*
X129743200Y-77635100D03*
X123520200Y-80124300D03*
D18*
X163499800Y-89255600D03*
D19*
X143840200Y-84035900D03*
D18*
%TO.N,/~sely*%
X164566600Y-89217500D03*
D19*
%TO.N,/~side*%
X122047000Y-106972100D03*
X138969750Y-97542350D03*
%TO.N,/~wgate*%
X143649700Y-96964500D03*
X118757700Y-93675200D03*
%TO.N,/~step*%
X137718800Y-83172300D03*
X144500600Y-83159600D03*
%TO.N,/boot0*%
X141803120Y-90197940D03*
X146532600Y-79502000D03*
X158750000Y-72961500D03*
%TO.N,/tx*%
X126212600Y-87617300D03*
X131292600Y-67144900D03*
%TO.N,/rx*%
X125755400Y-88760300D03*
X130632200Y-66662300D03*
%TO.N,/jc*%
X139090400Y-74891900D03*
X142163800Y-62166500D03*
%TO.N,/enc_clk*%
X149288500Y-96189800D03*
X138925300Y-94767400D03*
%TO.N,/enc_dt*%
X149288500Y-95313500D03*
X137787435Y-94444765D03*
%TO.N,/ja*%
X132384800Y-71005700D03*
X128460500Y-84569300D03*
%TO.N,/disp_dio*%
X137121900Y-71526400D03*
X137287000Y-77317600D03*
%TO.N,/disp_clk*%
X137769600Y-69215000D03*
X137782300Y-76644500D03*
%TO.N,/jb*%
X150613000Y-104702500D03*
X148234400Y-93088460D03*
X147949920Y-91132660D03*
X147568920Y-81846420D03*
%TO.N,/~rdata_3v3*%
X140119100Y-106743500D03*
X141071600Y-84632800D03*
%TO.N,/~rdy_3v3*%
X138163300Y-97447100D03*
X137629900Y-106019600D03*
%TO.N,Net-(R1-Pad2)*%
X157495189Y-70385940D03*
X142335250Y-95307150D03*
X149275800Y-97066100D03*
X157365700Y-97243900D03*
%TO.N,Net-(R6-Pad2)*%
X156756100Y-69608700D03*
X141605000Y-106451400D03*
X149237700Y-97955100D03*
X158051500Y-97955100D03*
%TD*%
D20*
%TO.N,GND*%
X157764001Y-57183499D02*
X156464000Y-58483500D01*
X160304001Y-72443501D02*
X160304001Y-57859499D01*
X158049999Y-73297501D02*
X158413999Y-73661501D01*
X159086001Y-73661501D02*
X160304001Y-72443501D01*
X158049999Y-72625499D02*
X158049999Y-73297501D01*
X158413999Y-73661501D02*
X159086001Y-73661501D01*
X158205763Y-64937867D02*
X158205763Y-72469735D01*
X158205763Y-72469735D02*
X158049999Y-72625499D01*
X158181699Y-64913803D02*
X158205763Y-64937867D01*
X159628001Y-57183499D02*
X157764001Y-57183499D01*
X149434001Y-73661501D02*
X158181699Y-64913803D01*
X148761999Y-73661501D02*
X149434001Y-73661501D01*
X160304001Y-57859499D02*
X159628001Y-57183499D01*
X147543999Y-72443501D02*
X148761999Y-73661501D01*
X147543999Y-59783501D02*
X147543999Y-72443501D01*
X148844000Y-58483500D02*
X147543999Y-59783501D01*
%TO.N,+5V*%
X113303999Y-87713499D02*
X114554000Y-88963500D01*
X113303999Y-66083501D02*
X113303999Y-87713499D01*
X114554000Y-64833500D02*
X113303999Y-66083501D01*
X153784300Y-56083200D02*
X151384000Y-58483500D01*
X159956500Y-56083200D02*
X153784300Y-56083200D01*
X161884360Y-56070500D02*
X159969200Y-56070500D01*
X170642280Y-64828420D02*
X161884360Y-56070500D01*
X159969200Y-56070500D02*
X159956500Y-56083200D01*
X170952160Y-84635340D02*
X170947080Y-65173860D01*
X169164000Y-86423500D02*
X170952160Y-84635340D01*
X170642280Y-64869060D02*
X170947080Y-65173860D01*
X170642280Y-64828420D02*
X170642280Y-64869060D01*
X113303999Y-121150059D02*
X115768120Y-123614180D01*
X113303999Y-90213501D02*
X113303999Y-121150059D01*
X114554000Y-88963500D02*
X113303999Y-90213501D01*
X167106600Y-95516700D02*
X167309800Y-87718900D01*
X170723560Y-98173058D02*
X167106600Y-95516700D01*
X154529002Y-121348500D02*
X170723560Y-105153942D01*
X170723560Y-105153942D02*
X170723560Y-98173058D01*
X152781000Y-121348500D02*
X154529002Y-121348500D01*
X168605200Y-86423500D02*
X167309800Y-87718900D01*
X169164000Y-86423500D02*
X168605200Y-86423500D01*
D21*
%TO.N,/nrst*%
X148844000Y-61023500D02*
X148844000Y-65265300D01*
X148844000Y-65265300D02*
X148844000Y-65773300D01*
X148844000Y-65773300D02*
X149148800Y-66078100D01*
X149148800Y-66078100D02*
X149148800Y-66078100D01*
X145625370Y-84231930D02*
X144043400Y-85813900D01*
X145625370Y-80804570D02*
X145625370Y-84231930D01*
X145440400Y-80619600D02*
X145625370Y-80804570D01*
X145440400Y-79565500D02*
X145440400Y-80619600D01*
X149110700Y-66116200D02*
X149148800Y-66078100D01*
X149098000Y-72961500D02*
X149110700Y-66116200D01*
D20*
%TO.N,+3V3*%
X152654000Y-113157000D02*
X152260300Y-113157000D01*
X142011400Y-119875300D02*
X141782800Y-119646700D01*
X142011400Y-125996700D02*
X142011400Y-119875300D01*
X146253200Y-76969620D02*
X149021800Y-79738220D01*
X144236440Y-76969620D02*
X146253200Y-76969620D01*
X149021800Y-92052140D02*
X149108160Y-92138500D01*
X149021800Y-79738220D02*
X149021800Y-92052140D01*
X152654000Y-95684340D02*
X149108160Y-92138500D01*
X148971000Y-92275660D02*
X149108160Y-92138500D01*
X133334760Y-92275660D02*
X144858740Y-92275660D01*
X132588000Y-91528900D02*
X133334760Y-92275660D01*
X131330700Y-91528900D02*
X132588000Y-91528900D01*
X131330700Y-80581500D02*
X130924300Y-80175100D01*
X131330700Y-91528900D02*
X131330700Y-80581500D01*
X144236440Y-76969620D02*
X144236440Y-64729360D01*
X146545300Y-62420500D02*
X146545300Y-56553100D01*
X144236440Y-64729360D02*
X146545300Y-62420500D01*
X156464000Y-61023500D02*
X159004000Y-58483500D01*
X152666700Y-105283000D02*
X152654000Y-105270300D01*
X152654000Y-113157000D02*
X152654000Y-105270300D01*
X144858740Y-92275660D02*
X148971000Y-92275660D01*
X160223200Y-104157780D02*
X160167320Y-104213660D01*
X160223200Y-99123500D02*
X160223200Y-104157780D01*
X160167320Y-104213660D02*
X152760680Y-104213660D01*
X152760680Y-104213660D02*
X152654000Y-104106980D01*
X152654000Y-104106980D02*
X152654000Y-95684340D01*
X152654000Y-105270300D02*
X152654000Y-104106980D01*
D21*
%TO.N,Net-(J1-Pad2)*%
X127727901Y-73630599D02*
X132829300Y-68529200D01*
X127727901Y-84840001D02*
X127727901Y-73630599D01*
X127977900Y-85090000D02*
X127727901Y-84840001D01*
%TO.N,Net-(J2-Pad1)*%
X127482600Y-85623400D02*
X127241300Y-85382100D01*
X127241300Y-72847200D02*
X132194300Y-67894200D01*
X127241300Y-85382100D02*
X127241300Y-72847200D01*
D22*
%TO.N,/~selx*%
X118170960Y-80078580D02*
X118165880Y-80083660D01*
X118170960Y-76268580D02*
X118170960Y-80078580D01*
X118165880Y-83878420D02*
X118176040Y-83888580D01*
X118165880Y-80083660D02*
X118165880Y-83878420D01*
X118176040Y-87678260D02*
X118170960Y-87683340D01*
X118176040Y-83888580D02*
X118176040Y-87678260D01*
D21*
X129743200Y-77635100D02*
X129743200Y-77635100D01*
X123479560Y-80083660D02*
X123520200Y-80124300D01*
X118165880Y-80083660D02*
X123479560Y-80083660D01*
X163499800Y-89255600D02*
X163499800Y-98437700D01*
X168013999Y-100513499D02*
X169164000Y-101663500D01*
X165575599Y-100513499D02*
X168013999Y-100513499D01*
X163499800Y-98437700D02*
X165575599Y-100513499D01*
X131253298Y-77635100D02*
X129743200Y-77635100D01*
X137312400Y-84074000D02*
X131253298Y-77635100D01*
X143840200Y-84035900D02*
X137312400Y-84074000D01*
%TO.N,/~sely*%
X164566600Y-89217500D02*
X164566600Y-96202500D01*
X164566600Y-96202500D02*
X165735000Y-97370900D01*
X167411400Y-97370900D02*
X169164000Y-99123500D01*
X165735000Y-97370900D02*
X167411400Y-97370900D01*
%TO.N,/~side*%
X135928100Y-106972100D02*
X136194800Y-106972100D01*
X122047000Y-106972100D02*
X135928100Y-106972100D01*
X137491402Y-106972100D02*
X135928100Y-106972100D01*
X138963400Y-105752900D02*
X137491402Y-106972100D01*
X138969750Y-97542350D02*
X138963400Y-105752900D01*
%TO.N,/~wgate*%
X135205402Y-93675200D02*
X118757700Y-93675200D01*
X138494702Y-96964500D02*
X135205402Y-93675200D01*
X143649700Y-96964500D02*
X138494702Y-96964500D01*
%TO.N,/~step*%
X144483999Y-83142999D02*
X144500600Y-83159600D01*
X143868299Y-83142999D02*
X144483999Y-83142999D01*
X143718308Y-83292990D02*
X143868299Y-83142999D01*
X137991890Y-83292990D02*
X143718308Y-83292990D01*
X137871200Y-83172300D02*
X137991890Y-83292990D01*
X137718800Y-83172300D02*
X137871200Y-83172300D01*
%TO.N,/boot0*%
X146532600Y-79502000D02*
X146532600Y-79502000D01*
X146025380Y-80009220D02*
X146532600Y-79502000D01*
X146025380Y-86511620D02*
X146025380Y-80009220D01*
X141803120Y-90197940D02*
X146025380Y-86511620D01*
X158889700Y-61137800D02*
X159004000Y-61023500D01*
X158750000Y-72961500D02*
X158889700Y-61137800D01*
%TO.N,/tx*%
X126212600Y-87617300D02*
X126212600Y-72224900D01*
X126212600Y-72224900D02*
X131292600Y-67144900D01*
X131292600Y-67144900D02*
X131292600Y-67144900D01*
%TO.N,/rx*%
X125662599Y-88667499D02*
X125662599Y-71631901D01*
X125755400Y-88760300D02*
X125662599Y-88667499D01*
X125662599Y-71631901D02*
X130632200Y-66662300D01*
X130632200Y-66662300D02*
X130632200Y-66662300D01*
%TO.N,/jc*%
X139090400Y-65239900D02*
X142163800Y-62166500D01*
X139090400Y-74891900D02*
X139090400Y-65239900D01*
%TO.N,/enc_clk*%
X147789900Y-94691200D02*
X149288500Y-96189800D01*
X139175299Y-94517401D02*
X147616101Y-94517401D01*
X147616101Y-94517401D02*
X147789900Y-94691200D01*
X138925300Y-94767400D02*
X139175299Y-94517401D01*
%TO.N,/enc_dt*%
X148116199Y-94141199D02*
X149288500Y-95313500D01*
X137787435Y-94444765D02*
X138114809Y-94117391D01*
X148092391Y-94117391D02*
X148116199Y-94141199D01*
X138114809Y-94117391D02*
X148092391Y-94117391D01*
%TO.N,/ja*%
X128460500Y-84569300D02*
X128460500Y-74333100D01*
X128460500Y-74333100D02*
X128473200Y-74333100D01*
X131800600Y-71005700D02*
X132384800Y-71005700D01*
X128473200Y-74333100D02*
X131800600Y-71005700D01*
%TO.N,/disp_dio*%
X137232299Y-71636799D02*
X137121900Y-71526400D01*
X137232299Y-77262899D02*
X137232299Y-71636799D01*
X137287000Y-77317600D02*
X137232299Y-77262899D01*
%TO.N,/disp_clk*%
X137782300Y-76644500D02*
X137782300Y-70726300D01*
X137782300Y-70726300D02*
X137782300Y-70167500D01*
X137782300Y-69227700D02*
X137769600Y-69215000D01*
X137782300Y-70167500D02*
X137782300Y-69227700D01*
%TO.N,/jb*%
X150613000Y-104702500D02*
X150613000Y-95309800D01*
X150613000Y-95187660D02*
X148513800Y-93088460D01*
X150613000Y-95309800D02*
X150613000Y-95187660D01*
X148513800Y-93088460D02*
X148234400Y-93088460D01*
X148234400Y-93088460D02*
X148234400Y-93088460D01*
X147949920Y-91132660D02*
X147949920Y-82227420D01*
X147949920Y-82227420D02*
X147568920Y-81846420D01*
X147568920Y-81846420D02*
X147568920Y-81846420D01*
%TO.N,/~rdata_3v3*%
X140119100Y-106743500D02*
X140119100Y-106743500D01*
X140817600Y-105206800D02*
X140817600Y-106045000D01*
X144348200Y-101676200D02*
X140817600Y-105206800D01*
X140817600Y-106045000D02*
X140119100Y-106743500D01*
X144348200Y-96812100D02*
X144348200Y-101676200D01*
X143916400Y-96367600D02*
X144348200Y-96812100D01*
X135280400Y-93184499D02*
X138557000Y-96380300D01*
X135280400Y-93179900D02*
X135280400Y-93184499D01*
X133070600Y-93179900D02*
X135280400Y-93179900D01*
X129819400Y-91053602D02*
X131285298Y-92519500D01*
X129819400Y-79438500D02*
X129819400Y-91053602D01*
X130467100Y-78790800D02*
X129819400Y-79438500D01*
X132410200Y-92519500D02*
X133070600Y-93179900D01*
X131025900Y-78790800D02*
X130467100Y-78790800D01*
X131285298Y-92519500D02*
X132410200Y-92519500D01*
X136690100Y-84594700D02*
X131025900Y-78790800D01*
X141071600Y-84632800D02*
X136690100Y-84594700D01*
X142062200Y-96367600D02*
X143916400Y-96367600D01*
X142049500Y-96380300D02*
X142062200Y-96367600D01*
X138557000Y-96380300D02*
X142049500Y-96380300D01*
%TO.N,/~rdy_3v3*%
X137629900Y-97980500D02*
X138163300Y-97447100D01*
X137629900Y-106019600D02*
X137629900Y-97980500D01*
%TO.N,Net-(R1-Pad2)*%
X147516850Y-95307150D02*
X149275800Y-97066100D01*
X142335250Y-95307150D02*
X147516850Y-95307150D01*
X162001200Y-77052102D02*
X162001200Y-92608400D01*
X161212598Y-76263500D02*
X162001200Y-77052102D01*
X158750000Y-76263500D02*
X161212598Y-76263500D01*
X162001200Y-92608400D02*
X157365700Y-97243900D01*
X157988000Y-75501500D02*
X158750000Y-76263500D01*
X157495189Y-74978311D02*
X157988000Y-75471122D01*
X157988000Y-75471122D02*
X157988000Y-75501500D01*
X157495189Y-70385940D02*
X157495189Y-74978311D01*
%TO.N,Net-(R6-Pad2)*%
X141605000Y-106451400D02*
X141605000Y-105333800D01*
X141605000Y-105333800D02*
X145097500Y-101841300D01*
X145097500Y-101841300D02*
X145097500Y-98196400D01*
X145097500Y-98196400D02*
X145338800Y-97955100D01*
X145338800Y-97955100D02*
X149237700Y-97955100D01*
X149237700Y-97955100D02*
X149237700Y-97955100D01*
X157350003Y-96693899D02*
X157101699Y-96693899D01*
X161601190Y-92442712D02*
X157350003Y-96693899D01*
X161601190Y-92436990D02*
X161601190Y-92442712D01*
X156815699Y-97507901D02*
X157262898Y-97955100D01*
X156815699Y-96979899D02*
X156815699Y-97507901D01*
X157101699Y-96693899D02*
X156815699Y-96979899D01*
X161582100Y-92417900D02*
X161601190Y-92436990D01*
X161582100Y-77198700D02*
X161582100Y-92417900D01*
X161154900Y-76771500D02*
X161582100Y-77198700D01*
X157262898Y-97955100D02*
X158051500Y-97955100D01*
X158572200Y-76771500D02*
X161154900Y-76771500D01*
X156756100Y-74955400D02*
X158572200Y-76771500D01*
X156756100Y-69608700D02*
X156756100Y-74955400D01*
%TD*%
D23*
%TO.N,GND*%
X173559001Y-132474500D02*
X106349000Y-132474500D01*
X106349000Y-109640390D01*
X106762524Y-109640390D01*
X106807175Y-109787599D01*
X106932359Y-110050420D01*
X107106412Y-110283769D01*
X107322645Y-110478678D01*
X107572748Y-110627657D01*
X107847109Y-110724981D01*
X108077000Y-110604314D01*
X108077000Y-109410500D01*
X106883845Y-109410500D01*
X106762524Y-109640390D01*
X106349000Y-109640390D01*
X106349000Y-107100390D01*
X106762524Y-107100390D01*
X106807175Y-107247599D01*
X106932359Y-107510420D01*
X107106412Y-107743769D01*
X107322645Y-107938678D01*
X107448255Y-108013500D01*
X107322645Y-108088322D01*
X107106412Y-108283231D01*
X106932359Y-108516580D01*
X106807175Y-108779401D01*
X106762524Y-108926610D01*
X106883845Y-109156500D01*
X108077000Y-109156500D01*
X108077000Y-106870500D01*
X106883845Y-106870500D01*
X106762524Y-107100390D01*
X106349000Y-107100390D01*
X106349000Y-104560390D01*
X106762524Y-104560390D01*
X106807175Y-104707599D01*
X106932359Y-104970420D01*
X107106412Y-105203769D01*
X107322645Y-105398678D01*
X107448255Y-105473500D01*
X107322645Y-105548322D01*
X107106412Y-105743231D01*
X106932359Y-105976580D01*
X106807175Y-106239401D01*
X106762524Y-106386610D01*
X106883845Y-106616500D01*
X108077000Y-106616500D01*
X108077000Y-104330500D01*
X106883845Y-104330500D01*
X106762524Y-104560390D01*
X106349000Y-104560390D01*
X106349000Y-102020390D01*
X106762524Y-102020390D01*
X106807175Y-102167599D01*
X106932359Y-102430420D01*
X107106412Y-102663769D01*
X107322645Y-102858678D01*
X107448255Y-102933500D01*
X107322645Y-103008322D01*
X107106412Y-103203231D01*
X106932359Y-103436580D01*
X106807175Y-103699401D01*
X106762524Y-103846610D01*
X106883845Y-104076500D01*
X108077000Y-104076500D01*
X108077000Y-101790500D01*
X106883845Y-101790500D01*
X106762524Y-102020390D01*
X106349000Y-102020390D01*
X106349000Y-99480390D01*
X106762524Y-99480390D01*
X106807175Y-99627599D01*
X106932359Y-99890420D01*
X107106412Y-100123769D01*
X107322645Y-100318678D01*
X107448255Y-100393500D01*
X107322645Y-100468322D01*
X107106412Y-100663231D01*
X106932359Y-100896580D01*
X106807175Y-101159401D01*
X106762524Y-101306610D01*
X106883845Y-101536500D01*
X108077000Y-101536500D01*
X108077000Y-99250500D01*
X106883845Y-99250500D01*
X106762524Y-99480390D01*
X106349000Y-99480390D01*
X106349000Y-96940390D01*
X106762524Y-96940390D01*
X106807175Y-97087599D01*
X106932359Y-97350420D01*
X107106412Y-97583769D01*
X107322645Y-97778678D01*
X107448255Y-97853500D01*
X107322645Y-97928322D01*
X107106412Y-98123231D01*
X106932359Y-98356580D01*
X106807175Y-98619401D01*
X106762524Y-98766610D01*
X106883845Y-98996500D01*
X108077000Y-98996500D01*
X108077000Y-96710500D01*
X106883845Y-96710500D01*
X106762524Y-96940390D01*
X106349000Y-96940390D01*
X106349000Y-94400390D01*
X106762524Y-94400390D01*
X106807175Y-94547599D01*
X106932359Y-94810420D01*
X107106412Y-95043769D01*
X107322645Y-95238678D01*
X107448255Y-95313500D01*
X107322645Y-95388322D01*
X107106412Y-95583231D01*
X106932359Y-95816580D01*
X106807175Y-96079401D01*
X106762524Y-96226610D01*
X106883845Y-96456500D01*
X108077000Y-96456500D01*
X108077000Y-94170500D01*
X106883845Y-94170500D01*
X106762524Y-94400390D01*
X106349000Y-94400390D01*
X106349000Y-91860390D01*
X106762524Y-91860390D01*
X106807175Y-92007599D01*
X106932359Y-92270420D01*
X107106412Y-92503769D01*
X107322645Y-92698678D01*
X107448255Y-92773500D01*
X107322645Y-92848322D01*
X107106412Y-93043231D01*
X106932359Y-93276580D01*
X106807175Y-93539401D01*
X106762524Y-93686610D01*
X106883845Y-93916500D01*
X108077000Y-93916500D01*
X108077000Y-91630500D01*
X106883845Y-91630500D01*
X106762524Y-91860390D01*
X106349000Y-91860390D01*
X106349000Y-89320390D01*
X106762524Y-89320390D01*
X106807175Y-89467599D01*
X106932359Y-89730420D01*
X107106412Y-89963769D01*
X107322645Y-90158678D01*
X107448255Y-90233500D01*
X107322645Y-90308322D01*
X107106412Y-90503231D01*
X106932359Y-90736580D01*
X106807175Y-90999401D01*
X106762524Y-91146610D01*
X106883845Y-91376500D01*
X108077000Y-91376500D01*
X108077000Y-89090500D01*
X106883845Y-89090500D01*
X106762524Y-89320390D01*
X106349000Y-89320390D01*
X106349000Y-86780390D01*
X106762524Y-86780390D01*
X106807175Y-86927599D01*
X106932359Y-87190420D01*
X107106412Y-87423769D01*
X107322645Y-87618678D01*
X107448255Y-87693500D01*
X107322645Y-87768322D01*
X107106412Y-87963231D01*
X106932359Y-88196580D01*
X106807175Y-88459401D01*
X106762524Y-88606610D01*
X106883845Y-88836500D01*
X108077000Y-88836500D01*
X108077000Y-86550500D01*
X106883845Y-86550500D01*
X106762524Y-86780390D01*
X106349000Y-86780390D01*
X106349000Y-84240390D01*
X106762524Y-84240390D01*
X106807175Y-84387599D01*
X106932359Y-84650420D01*
X107106412Y-84883769D01*
X107322645Y-85078678D01*
X107448255Y-85153500D01*
X107322645Y-85228322D01*
X107106412Y-85423231D01*
X106932359Y-85656580D01*
X106807175Y-85919401D01*
X106762524Y-86066610D01*
X106883845Y-86296500D01*
X108077000Y-86296500D01*
X108077000Y-84010500D01*
X106883845Y-84010500D01*
X106762524Y-84240390D01*
X106349000Y-84240390D01*
X106349000Y-81700390D01*
X106762524Y-81700390D01*
X106807175Y-81847599D01*
X106932359Y-82110420D01*
X107106412Y-82343769D01*
X107322645Y-82538678D01*
X107448255Y-82613500D01*
X107322645Y-82688322D01*
X107106412Y-82883231D01*
X106932359Y-83116580D01*
X106807175Y-83379401D01*
X106762524Y-83526610D01*
X106883845Y-83756500D01*
X108077000Y-83756500D01*
X108077000Y-81470500D01*
X106883845Y-81470500D01*
X106762524Y-81700390D01*
X106349000Y-81700390D01*
X106349000Y-79160390D01*
X106762524Y-79160390D01*
X106807175Y-79307599D01*
X106932359Y-79570420D01*
X107106412Y-79803769D01*
X107322645Y-79998678D01*
X107448255Y-80073500D01*
X107322645Y-80148322D01*
X107106412Y-80343231D01*
X106932359Y-80576580D01*
X106807175Y-80839401D01*
X106762524Y-80986610D01*
X106883845Y-81216500D01*
X108077000Y-81216500D01*
X108077000Y-78930500D01*
X106883845Y-78930500D01*
X106762524Y-79160390D01*
X106349000Y-79160390D01*
X106349000Y-76620390D01*
X106762524Y-76620390D01*
X106807175Y-76767599D01*
X106932359Y-77030420D01*
X107106412Y-77263769D01*
X107322645Y-77458678D01*
X107448255Y-77533500D01*
X107322645Y-77608322D01*
X107106412Y-77803231D01*
X106932359Y-78036580D01*
X106807175Y-78299401D01*
X106762524Y-78446610D01*
X106883845Y-78676500D01*
X108077000Y-78676500D01*
X108077000Y-76390500D01*
X106883845Y-76390500D01*
X106762524Y-76620390D01*
X106349000Y-76620390D01*
X106349000Y-74080390D01*
X106762524Y-74080390D01*
X106807175Y-74227599D01*
X106932359Y-74490420D01*
X107106412Y-74723769D01*
X107322645Y-74918678D01*
X107448255Y-74993500D01*
X107322645Y-75068322D01*
X107106412Y-75263231D01*
X106932359Y-75496580D01*
X106807175Y-75759401D01*
X106762524Y-75906610D01*
X106883845Y-76136500D01*
X108077000Y-76136500D01*
X108077000Y-73850500D01*
X106883845Y-73850500D01*
X106762524Y-74080390D01*
X106349000Y-74080390D01*
X106349000Y-71540390D01*
X106762524Y-71540390D01*
X106807175Y-71687599D01*
X106932359Y-71950420D01*
X107106412Y-72183769D01*
X107322645Y-72378678D01*
X107448255Y-72453500D01*
X107322645Y-72528322D01*
X107106412Y-72723231D01*
X106932359Y-72956580D01*
X106807175Y-73219401D01*
X106762524Y-73366610D01*
X106883845Y-73596500D01*
X108077000Y-73596500D01*
X108077000Y-71310500D01*
X106883845Y-71310500D01*
X106762524Y-71540390D01*
X106349000Y-71540390D01*
X106349000Y-69493500D01*
X106715928Y-69493500D01*
X106728188Y-69617982D01*
X106764498Y-69737680D01*
X106823463Y-69847994D01*
X106902815Y-69944685D01*
X106999506Y-70024037D01*
X107109820Y-70083002D01*
X107190466Y-70107466D01*
X107106412Y-70183231D01*
X106932359Y-70416580D01*
X106807175Y-70679401D01*
X106762524Y-70826610D01*
X106883845Y-71056500D01*
X108077000Y-71056500D01*
X108077000Y-68770500D01*
X106877750Y-68770500D01*
X106719000Y-68929250D01*
X106715928Y-69493500D01*
X106349000Y-69493500D01*
X106349000Y-67793500D01*
X106715928Y-67793500D01*
X106719000Y-68357750D01*
X106877750Y-68516500D01*
X108077000Y-68516500D01*
X108077000Y-67317250D01*
X108331000Y-67317250D01*
X108331000Y-68516500D01*
X108351000Y-68516500D01*
X108351000Y-68770500D01*
X108331000Y-68770500D01*
X108331000Y-71056500D01*
X108351000Y-71056500D01*
X108351000Y-71310500D01*
X108331000Y-71310500D01*
X108331000Y-73596500D01*
X108351000Y-73596500D01*
X108351000Y-73850500D01*
X108331000Y-73850500D01*
X108331000Y-76136500D01*
X108351000Y-76136500D01*
X108351000Y-76390500D01*
X108331000Y-76390500D01*
X108331000Y-78676500D01*
X108351000Y-78676500D01*
X108351000Y-78930500D01*
X108331000Y-78930500D01*
X108331000Y-81216500D01*
X108351000Y-81216500D01*
X108351000Y-81470500D01*
X108331000Y-81470500D01*
X108331000Y-83756500D01*
X108351000Y-83756500D01*
X108351000Y-84010500D01*
X108331000Y-84010500D01*
X108331000Y-86296500D01*
X108351000Y-86296500D01*
X108351000Y-86550500D01*
X108331000Y-86550500D01*
X108331000Y-88836500D01*
X108351000Y-88836500D01*
X108351000Y-89090500D01*
X108331000Y-89090500D01*
X108331000Y-91376500D01*
X108351000Y-91376500D01*
X108351000Y-91630500D01*
X108331000Y-91630500D01*
X108331000Y-93916500D01*
X108351000Y-93916500D01*
X108351000Y-94170500D01*
X108331000Y-94170500D01*
X108331000Y-96456500D01*
X108351000Y-96456500D01*
X108351000Y-96710500D01*
X108331000Y-96710500D01*
X108331000Y-98996500D01*
X108351000Y-98996500D01*
X108351000Y-99250500D01*
X108331000Y-99250500D01*
X108331000Y-101536500D01*
X108351000Y-101536500D01*
X108351000Y-101790500D01*
X108331000Y-101790500D01*
X108331000Y-104076500D01*
X108351000Y-104076500D01*
X108351000Y-104330500D01*
X108331000Y-104330500D01*
X108331000Y-106616500D01*
X108351000Y-106616500D01*
X108351000Y-106870500D01*
X108331000Y-106870500D01*
X108331000Y-109156500D01*
X108351000Y-109156500D01*
X108351000Y-109410500D01*
X108331000Y-109410500D01*
X108331000Y-110604314D01*
X108560891Y-110724981D01*
X108835252Y-110627657D01*
X109085355Y-110478678D01*
X109301588Y-110283769D01*
X109472900Y-110054094D01*
X109590525Y-110230132D01*
X109797368Y-110436975D01*
X110040589Y-110599490D01*
X110310842Y-110711432D01*
X110597740Y-110768500D01*
X110890260Y-110768500D01*
X111177158Y-110711432D01*
X111447411Y-110599490D01*
X111690632Y-110436975D01*
X111897475Y-110230132D01*
X112059990Y-109986911D01*
X112171932Y-109716658D01*
X112229000Y-109429760D01*
X112229000Y-109137240D01*
X112171932Y-108850342D01*
X112059990Y-108580089D01*
X111897475Y-108336868D01*
X111690632Y-108130025D01*
X111516240Y-108013500D01*
X111690632Y-107896975D01*
X111897475Y-107690132D01*
X112059990Y-107446911D01*
X112171932Y-107176658D01*
X112229000Y-106889760D01*
X112229000Y-106597240D01*
X112171932Y-106310342D01*
X112059990Y-106040089D01*
X111897475Y-105796868D01*
X111690632Y-105590025D01*
X111516240Y-105473500D01*
X111690632Y-105356975D01*
X111897475Y-105150132D01*
X112059990Y-104906911D01*
X112171932Y-104636658D01*
X112229000Y-104349760D01*
X112229000Y-104057240D01*
X112171932Y-103770342D01*
X112059990Y-103500089D01*
X111897475Y-103256868D01*
X111690632Y-103050025D01*
X111516240Y-102933500D01*
X111690632Y-102816975D01*
X111897475Y-102610132D01*
X112059990Y-102366911D01*
X112171932Y-102096658D01*
X112229000Y-101809760D01*
X112229000Y-101517240D01*
X112171932Y-101230342D01*
X112059990Y-100960089D01*
X111897475Y-100716868D01*
X111690632Y-100510025D01*
X111516240Y-100393500D01*
X111690632Y-100276975D01*
X111897475Y-100070132D01*
X112059990Y-99826911D01*
X112171932Y-99556658D01*
X112229000Y-99269760D01*
X112229000Y-98977240D01*
X112171932Y-98690342D01*
X112059990Y-98420089D01*
X111897475Y-98176868D01*
X111690632Y-97970025D01*
X111516240Y-97853500D01*
X111690632Y-97736975D01*
X111897475Y-97530132D01*
X112059990Y-97286911D01*
X112171932Y-97016658D01*
X112229000Y-96729760D01*
X112229000Y-96437240D01*
X112171932Y-96150342D01*
X112059990Y-95880089D01*
X111897475Y-95636868D01*
X111690632Y-95430025D01*
X111516240Y-95313500D01*
X111690632Y-95196975D01*
X111897475Y-94990132D01*
X112059990Y-94746911D01*
X112171932Y-94476658D01*
X112229000Y-94189760D01*
X112229000Y-93897240D01*
X112171932Y-93610342D01*
X112059990Y-93340089D01*
X111897475Y-93096868D01*
X111690632Y-92890025D01*
X111516240Y-92773500D01*
X111690632Y-92656975D01*
X111897475Y-92450132D01*
X112059990Y-92206911D01*
X112171932Y-91936658D01*
X112229000Y-91649760D01*
X112229000Y-91357240D01*
X112171932Y-91070342D01*
X112059990Y-90800089D01*
X111897475Y-90556868D01*
X111690632Y-90350025D01*
X111516240Y-90233500D01*
X111690632Y-90116975D01*
X111897475Y-89910132D01*
X112059990Y-89666911D01*
X112171932Y-89396658D01*
X112229000Y-89109760D01*
X112229000Y-88817240D01*
X112171932Y-88530342D01*
X112059990Y-88260089D01*
X111897475Y-88016868D01*
X111690632Y-87810025D01*
X111516240Y-87693500D01*
X111690632Y-87576975D01*
X111897475Y-87370132D01*
X112059990Y-87126911D01*
X112171932Y-86856658D01*
X112229000Y-86569760D01*
X112229000Y-86277240D01*
X112171932Y-85990342D01*
X112059990Y-85720089D01*
X111897475Y-85476868D01*
X111690632Y-85270025D01*
X111516240Y-85153500D01*
X111690632Y-85036975D01*
X111897475Y-84830132D01*
X112059990Y-84586911D01*
X112171932Y-84316658D01*
X112229000Y-84029760D01*
X112229000Y-83737240D01*
X112171932Y-83450342D01*
X112059990Y-83180089D01*
X111897475Y-82936868D01*
X111690632Y-82730025D01*
X111516240Y-82613500D01*
X111690632Y-82496975D01*
X111897475Y-82290132D01*
X112059990Y-82046911D01*
X112171932Y-81776658D01*
X112229000Y-81489760D01*
X112229000Y-81197240D01*
X112171932Y-80910342D01*
X112059990Y-80640089D01*
X111897475Y-80396868D01*
X111690632Y-80190025D01*
X111516240Y-80073500D01*
X111690632Y-79956975D01*
X111897475Y-79750132D01*
X112059990Y-79506911D01*
X112171932Y-79236658D01*
X112229000Y-78949760D01*
X112229000Y-78657240D01*
X112171932Y-78370342D01*
X112059990Y-78100089D01*
X111897475Y-77856868D01*
X111690632Y-77650025D01*
X111516240Y-77533500D01*
X111690632Y-77416975D01*
X111897475Y-77210132D01*
X112059990Y-76966911D01*
X112171932Y-76696658D01*
X112229000Y-76409760D01*
X112229000Y-76117240D01*
X112171932Y-75830342D01*
X112059990Y-75560089D01*
X111897475Y-75316868D01*
X111690632Y-75110025D01*
X111516240Y-74993500D01*
X111690632Y-74876975D01*
X111897475Y-74670132D01*
X112059990Y-74426911D01*
X112171932Y-74156658D01*
X112229000Y-73869760D01*
X112229000Y-73577240D01*
X112171932Y-73290342D01*
X112059990Y-73020089D01*
X111897475Y-72776868D01*
X111690632Y-72570025D01*
X111516240Y-72453500D01*
X111690632Y-72336975D01*
X111897475Y-72130132D01*
X112059990Y-71886911D01*
X112171932Y-71616658D01*
X112229000Y-71329760D01*
X112229000Y-71037240D01*
X112171932Y-70750342D01*
X112059990Y-70480089D01*
X111897475Y-70236868D01*
X111690632Y-70030025D01*
X111516240Y-69913500D01*
X111690632Y-69796975D01*
X111897475Y-69590132D01*
X112059990Y-69346911D01*
X112171932Y-69076658D01*
X112229000Y-68789760D01*
X112229000Y-68497240D01*
X112171932Y-68210342D01*
X112059990Y-67940089D01*
X111897475Y-67696868D01*
X111690632Y-67490025D01*
X111447411Y-67327510D01*
X111177158Y-67215568D01*
X110890260Y-67158500D01*
X110597740Y-67158500D01*
X110310842Y-67215568D01*
X110040589Y-67327510D01*
X109797368Y-67490025D01*
X109665513Y-67621880D01*
X109643502Y-67549320D01*
X109584537Y-67439006D01*
X109505185Y-67342315D01*
X109408494Y-67262963D01*
X109298180Y-67203998D01*
X109178482Y-67167688D01*
X109054000Y-67155428D01*
X108489750Y-67158500D01*
X108331000Y-67317250D01*
X108077000Y-67317250D01*
X107918250Y-67158500D01*
X107354000Y-67155428D01*
X107229518Y-67167688D01*
X107109820Y-67203998D01*
X106999506Y-67262963D01*
X106902815Y-67342315D01*
X106823463Y-67439006D01*
X106764498Y-67549320D01*
X106728188Y-67669018D01*
X106715928Y-67793500D01*
X106349000Y-67793500D01*
X106349000Y-66083501D01*
X112414718Y-66083501D01*
X112418999Y-66126970D01*
X112419000Y-87670020D01*
X112414718Y-87713499D01*
X112431804Y-87886989D01*
X112482411Y-88053812D01*
X112564589Y-88207558D01*
X112647467Y-88308545D01*
X112647470Y-88308548D01*
X112675183Y-88342316D01*
X112708950Y-88370028D01*
X113115928Y-88777006D01*
X113115928Y-89149994D01*
X112708955Y-89556967D01*
X112675182Y-89584684D01*
X112564588Y-89719443D01*
X112482410Y-89873189D01*
X112431804Y-90040012D01*
X112418999Y-90170025D01*
X112418999Y-90170032D01*
X112414718Y-90213501D01*
X112418999Y-90256970D01*
X112419000Y-121106580D01*
X112414718Y-121150059D01*
X112431804Y-121323549D01*
X112482411Y-121490372D01*
X112564589Y-121644118D01*
X112647467Y-121745105D01*
X112647470Y-121745108D01*
X112675183Y-121778876D01*
X112708950Y-121806588D01*
X114297581Y-123395220D01*
X114283120Y-123467920D01*
X114283120Y-123760440D01*
X114340188Y-124047338D01*
X114452130Y-124317591D01*
X114614645Y-124560812D01*
X114821488Y-124767655D01*
X115064709Y-124930170D01*
X115334962Y-125042112D01*
X115621860Y-125099180D01*
X115914380Y-125099180D01*
X116201278Y-125042112D01*
X116471531Y-124930170D01*
X116714752Y-124767655D01*
X116921595Y-124560812D01*
X117084110Y-124317591D01*
X117196052Y-124047338D01*
X117253120Y-123760440D01*
X117253120Y-123467920D01*
X117196052Y-123181022D01*
X117084110Y-122910769D01*
X116921595Y-122667548D01*
X116714752Y-122460705D01*
X116532586Y-122338985D01*
X116649475Y-122269358D01*
X116865708Y-122074449D01*
X117039761Y-121841100D01*
X117164945Y-121578279D01*
X117209596Y-121431070D01*
X117088275Y-121201180D01*
X115895120Y-121201180D01*
X115895120Y-121221180D01*
X115641120Y-121221180D01*
X115641120Y-121201180D01*
X115621120Y-121201180D01*
X115621120Y-120947180D01*
X115641120Y-120947180D01*
X115641120Y-118661180D01*
X115895120Y-118661180D01*
X115895120Y-120947180D01*
X117088275Y-120947180D01*
X117209596Y-120717290D01*
X117164945Y-120570081D01*
X117039761Y-120307260D01*
X116865708Y-120073911D01*
X116649475Y-119879002D01*
X116523865Y-119804180D01*
X116649475Y-119729358D01*
X116726975Y-119659500D01*
X126577928Y-119659500D01*
X126577928Y-121259500D01*
X126590188Y-121383982D01*
X126626498Y-121503680D01*
X126685463Y-121613994D01*
X126764815Y-121710685D01*
X126861506Y-121790037D01*
X126971820Y-121849002D01*
X127091518Y-121885312D01*
X127216000Y-121897572D01*
X128816000Y-121897572D01*
X128940482Y-121885312D01*
X129060180Y-121849002D01*
X129170494Y-121790037D01*
X129267185Y-121710685D01*
X129346537Y-121613994D01*
X129405502Y-121503680D01*
X129441812Y-121383982D01*
X129454072Y-121259500D01*
X129454072Y-119659500D01*
X129442772Y-119544761D01*
X140747800Y-119544761D01*
X140747800Y-119748639D01*
X140787574Y-119948598D01*
X140865595Y-120136956D01*
X140978863Y-120306474D01*
X141123026Y-120450637D01*
X141126401Y-120452892D01*
X141126400Y-125458246D01*
X141094195Y-125506444D01*
X141016174Y-125694802D01*
X140976400Y-125894761D01*
X140976400Y-126098639D01*
X141016174Y-126298598D01*
X141094195Y-126486956D01*
X141207463Y-126656474D01*
X141351626Y-126800637D01*
X141521144Y-126913905D01*
X141709502Y-126991926D01*
X141909461Y-127031700D01*
X142113339Y-127031700D01*
X142313298Y-126991926D01*
X142501656Y-126913905D01*
X142671174Y-126800637D01*
X142815337Y-126656474D01*
X142928605Y-126486956D01*
X143006626Y-126298598D01*
X143046400Y-126098639D01*
X143046400Y-125894761D01*
X143006626Y-125694802D01*
X142928605Y-125506444D01*
X142896400Y-125458246D01*
X142896400Y-124841202D01*
X151967903Y-124841202D01*
X152039486Y-125085171D01*
X152294996Y-125206071D01*
X152569184Y-125274800D01*
X152851512Y-125288717D01*
X153131130Y-125247287D01*
X153397292Y-125152103D01*
X153522514Y-125085171D01*
X153594097Y-124841202D01*
X152781000Y-124028105D01*
X151967903Y-124841202D01*
X142896400Y-124841202D01*
X142896400Y-123919012D01*
X151340783Y-123919012D01*
X151382213Y-124198630D01*
X151477397Y-124464792D01*
X151544329Y-124590014D01*
X151788298Y-124661597D01*
X152601395Y-123848500D01*
X152960605Y-123848500D01*
X153773702Y-124661597D01*
X154017671Y-124590014D01*
X154138571Y-124334504D01*
X154207300Y-124060316D01*
X154221217Y-123777988D01*
X154179787Y-123498370D01*
X154084603Y-123232208D01*
X154017671Y-123106986D01*
X153773702Y-123035403D01*
X152960605Y-123848500D01*
X152601395Y-123848500D01*
X151788298Y-123035403D01*
X151544329Y-123106986D01*
X151423429Y-123362496D01*
X151354700Y-123636684D01*
X151340783Y-123919012D01*
X142896400Y-123919012D01*
X142896400Y-119918765D01*
X142900681Y-119875299D01*
X142896400Y-119831833D01*
X142896400Y-119831823D01*
X142883595Y-119701810D01*
X142832989Y-119534987D01*
X142805701Y-119483934D01*
X142778026Y-119344802D01*
X142700005Y-119156444D01*
X142586737Y-118986926D01*
X142442574Y-118842763D01*
X142273056Y-118729495D01*
X142084698Y-118651474D01*
X141884739Y-118611700D01*
X141680861Y-118611700D01*
X141480902Y-118651474D01*
X141292544Y-118729495D01*
X141123026Y-118842763D01*
X140978863Y-118986926D01*
X140865595Y-119156444D01*
X140787574Y-119344802D01*
X140747800Y-119544761D01*
X129442772Y-119544761D01*
X129441812Y-119535018D01*
X129405502Y-119415320D01*
X129346537Y-119305006D01*
X129267185Y-119208315D01*
X129170494Y-119128963D01*
X129060180Y-119069998D01*
X128940482Y-119033688D01*
X128816000Y-119021428D01*
X128808785Y-119021428D01*
X128829097Y-118952202D01*
X128016000Y-118139105D01*
X127202903Y-118952202D01*
X127223215Y-119021428D01*
X127216000Y-119021428D01*
X127091518Y-119033688D01*
X126971820Y-119069998D01*
X126861506Y-119128963D01*
X126764815Y-119208315D01*
X126685463Y-119305006D01*
X126626498Y-119415320D01*
X126590188Y-119535018D01*
X126577928Y-119659500D01*
X116726975Y-119659500D01*
X116865708Y-119534449D01*
X117039761Y-119301100D01*
X117164945Y-119038279D01*
X117209596Y-118891070D01*
X117088275Y-118661180D01*
X115895120Y-118661180D01*
X115641120Y-118661180D01*
X114447965Y-118661180D01*
X114326644Y-118891070D01*
X114371295Y-119038279D01*
X114496479Y-119301100D01*
X114670532Y-119534449D01*
X114886765Y-119729358D01*
X115012375Y-119804180D01*
X114886765Y-119879002D01*
X114670532Y-120073911D01*
X114496479Y-120307260D01*
X114371295Y-120570081D01*
X114326644Y-120717290D01*
X114447964Y-120947178D01*
X114352696Y-120947178D01*
X114188999Y-120783481D01*
X114188999Y-115847920D01*
X114283120Y-115847920D01*
X114283120Y-116140440D01*
X114340188Y-116427338D01*
X114452130Y-116697591D01*
X114614645Y-116940812D01*
X114821488Y-117147655D01*
X115003654Y-117269375D01*
X114886765Y-117339002D01*
X114670532Y-117533911D01*
X114496479Y-117767260D01*
X114371295Y-118030081D01*
X114326644Y-118177290D01*
X114447965Y-118407180D01*
X115641120Y-118407180D01*
X115641120Y-118387180D01*
X115895120Y-118387180D01*
X115895120Y-118407180D01*
X117088275Y-118407180D01*
X117209596Y-118177290D01*
X117164945Y-118030081D01*
X117164913Y-118030012D01*
X126575783Y-118030012D01*
X126617213Y-118309630D01*
X126712397Y-118575792D01*
X126779329Y-118701014D01*
X127023298Y-118772597D01*
X127836395Y-117959500D01*
X128195605Y-117959500D01*
X129008702Y-118772597D01*
X129252671Y-118701014D01*
X129373571Y-118445504D01*
X129442300Y-118171316D01*
X129456217Y-117888988D01*
X129414787Y-117609370D01*
X129319603Y-117343208D01*
X129252671Y-117217986D01*
X129008702Y-117146403D01*
X128195605Y-117959500D01*
X127836395Y-117959500D01*
X127023298Y-117146403D01*
X126779329Y-117217986D01*
X126658429Y-117473496D01*
X126589700Y-117747684D01*
X126575783Y-118030012D01*
X117164913Y-118030012D01*
X117039761Y-117767260D01*
X116865708Y-117533911D01*
X116649475Y-117339002D01*
X116532586Y-117269375D01*
X116714752Y-117147655D01*
X116895609Y-116966798D01*
X127202903Y-116966798D01*
X128016000Y-117779895D01*
X128829097Y-116966798D01*
X128757514Y-116722829D01*
X128602968Y-116649702D01*
X151840903Y-116649702D01*
X151912486Y-116893671D01*
X152167996Y-117014571D01*
X152442184Y-117083300D01*
X152724512Y-117097217D01*
X153004130Y-117055787D01*
X153270292Y-116960603D01*
X153395514Y-116893671D01*
X153467097Y-116649702D01*
X152654000Y-115836605D01*
X151840903Y-116649702D01*
X128602968Y-116649702D01*
X128502004Y-116601929D01*
X128227816Y-116533200D01*
X127945488Y-116519283D01*
X127665870Y-116560713D01*
X127399708Y-116655897D01*
X127274486Y-116722829D01*
X127202903Y-116966798D01*
X116895609Y-116966798D01*
X116921595Y-116940812D01*
X117084110Y-116697591D01*
X117196052Y-116427338D01*
X117253120Y-116140440D01*
X117253120Y-115847920D01*
X117229170Y-115727512D01*
X151213783Y-115727512D01*
X151255213Y-116007130D01*
X151350397Y-116273292D01*
X151417329Y-116398514D01*
X151661298Y-116470097D01*
X152474395Y-115657000D01*
X152833605Y-115657000D01*
X153646702Y-116470097D01*
X153890671Y-116398514D01*
X154011571Y-116143004D01*
X154080300Y-115868816D01*
X154094217Y-115586488D01*
X154052787Y-115306870D01*
X153957603Y-115040708D01*
X153890671Y-114915486D01*
X153646702Y-114843903D01*
X152833605Y-115657000D01*
X152474395Y-115657000D01*
X151661298Y-114843903D01*
X151417329Y-114915486D01*
X151296429Y-115170996D01*
X151227700Y-115445184D01*
X151213783Y-115727512D01*
X117229170Y-115727512D01*
X117196052Y-115561022D01*
X117084110Y-115290769D01*
X116921595Y-115047548D01*
X116714752Y-114840705D01*
X116471531Y-114678190D01*
X116201278Y-114566248D01*
X115914380Y-114509180D01*
X115621860Y-114509180D01*
X115334962Y-114566248D01*
X115064709Y-114678190D01*
X114821488Y-114840705D01*
X114614645Y-115047548D01*
X114452130Y-115290769D01*
X114340188Y-115561022D01*
X114283120Y-115847920D01*
X114188999Y-115847920D01*
X114188999Y-110674009D01*
X114412665Y-110718500D01*
X114695335Y-110718500D01*
X114972574Y-110663353D01*
X115233727Y-110555180D01*
X115468759Y-110398137D01*
X115668637Y-110198259D01*
X115825680Y-109963227D01*
X115933853Y-109702074D01*
X115989000Y-109424835D01*
X115989000Y-109142165D01*
X115933853Y-108864926D01*
X115825680Y-108603773D01*
X115668637Y-108368741D01*
X115468759Y-108168863D01*
X115236241Y-108013500D01*
X115468759Y-107858137D01*
X115668637Y-107658259D01*
X115825680Y-107423227D01*
X115933853Y-107162074D01*
X115989000Y-106884835D01*
X115989000Y-106602165D01*
X115933853Y-106324926D01*
X115825680Y-106063773D01*
X115668637Y-105828741D01*
X115468759Y-105628863D01*
X115236241Y-105473500D01*
X115468759Y-105318137D01*
X115668637Y-105118259D01*
X115825680Y-104883227D01*
X115933853Y-104622074D01*
X115989000Y-104344835D01*
X115989000Y-104062165D01*
X115933853Y-103784926D01*
X115825680Y-103523773D01*
X115668637Y-103288741D01*
X115468759Y-103088863D01*
X115236241Y-102933500D01*
X115468759Y-102778137D01*
X115668637Y-102578259D01*
X115825680Y-102343227D01*
X115933853Y-102082074D01*
X115989000Y-101804835D01*
X115989000Y-101522165D01*
X115933853Y-101244926D01*
X115825680Y-100983773D01*
X115668637Y-100748741D01*
X115468759Y-100548863D01*
X115236241Y-100393500D01*
X115468759Y-100238137D01*
X115668637Y-100038259D01*
X115825680Y-99803227D01*
X115933853Y-99542074D01*
X115989000Y-99264835D01*
X115989000Y-98982165D01*
X115933853Y-98704926D01*
X115825680Y-98443773D01*
X115668637Y-98208741D01*
X115468759Y-98008863D01*
X115236241Y-97853500D01*
X115468759Y-97698137D01*
X115668637Y-97498259D01*
X115825680Y-97263227D01*
X115933853Y-97002074D01*
X115989000Y-96724835D01*
X115989000Y-96442165D01*
X115933853Y-96164926D01*
X115825680Y-95903773D01*
X115668637Y-95668741D01*
X115468759Y-95468863D01*
X115236241Y-95313500D01*
X115468759Y-95158137D01*
X115668637Y-94958259D01*
X115825680Y-94723227D01*
X115933853Y-94462074D01*
X115989000Y-94184835D01*
X115989000Y-93902165D01*
X115933853Y-93624926D01*
X115918573Y-93588035D01*
X117872700Y-93588035D01*
X117872700Y-93762365D01*
X117906710Y-93933345D01*
X117973423Y-94094405D01*
X118070276Y-94239355D01*
X118193545Y-94362624D01*
X118338495Y-94459477D01*
X118499555Y-94526190D01*
X118670535Y-94560200D01*
X118844865Y-94560200D01*
X119015845Y-94526190D01*
X119176905Y-94459477D01*
X119250653Y-94410200D01*
X134900956Y-94410200D01*
X137434950Y-96944195D01*
X137379023Y-97027895D01*
X137312310Y-97188955D01*
X137295006Y-97275948D01*
X137135708Y-97435246D01*
X137107663Y-97458262D01*
X137015814Y-97570180D01*
X136974840Y-97646837D01*
X136947564Y-97697867D01*
X136905535Y-97836415D01*
X136891344Y-97980500D01*
X136894901Y-98016615D01*
X136894900Y-105526647D01*
X136845623Y-105600395D01*
X136778910Y-105761455D01*
X136744900Y-105932435D01*
X136744900Y-106106765D01*
X136770825Y-106237100D01*
X122539953Y-106237100D01*
X122466205Y-106187823D01*
X122305145Y-106121110D01*
X122134165Y-106087100D01*
X121959835Y-106087100D01*
X121788855Y-106121110D01*
X121627795Y-106187823D01*
X121482845Y-106284676D01*
X121359576Y-106407945D01*
X121262723Y-106552895D01*
X121196010Y-106713955D01*
X121162000Y-106884935D01*
X121162000Y-107059265D01*
X121196010Y-107230245D01*
X121262723Y-107391305D01*
X121359576Y-107536255D01*
X121482845Y-107659524D01*
X121627795Y-107756377D01*
X121788855Y-107823090D01*
X121959835Y-107857100D01*
X122134165Y-107857100D01*
X122305145Y-107823090D01*
X122466205Y-107756377D01*
X122539953Y-107707100D01*
X137420688Y-107707100D01*
X137422330Y-107707419D01*
X137492949Y-107707100D01*
X137527507Y-107707100D01*
X137529168Y-107706936D01*
X137567110Y-107706765D01*
X137601030Y-107699859D01*
X137635487Y-107696465D01*
X137671801Y-107685449D01*
X137708982Y-107677879D01*
X137740904Y-107664487D01*
X137774035Y-107654437D01*
X137807507Y-107636546D01*
X137842492Y-107621869D01*
X137871183Y-107602510D01*
X137901722Y-107586187D01*
X137931061Y-107562109D01*
X137932435Y-107561182D01*
X137958897Y-107539264D01*
X138013640Y-107494338D01*
X138014703Y-107493042D01*
X139287316Y-106438986D01*
X139268110Y-106485355D01*
X139234100Y-106656335D01*
X139234100Y-106830665D01*
X139268110Y-107001645D01*
X139334823Y-107162705D01*
X139431676Y-107307655D01*
X139554945Y-107430924D01*
X139699895Y-107527777D01*
X139860955Y-107594490D01*
X140031935Y-107628500D01*
X140206265Y-107628500D01*
X140377245Y-107594490D01*
X140538305Y-107527777D01*
X140683255Y-107430924D01*
X140806524Y-107307655D01*
X140903377Y-107162705D01*
X140950635Y-107048614D01*
X141040845Y-107138824D01*
X141185795Y-107235677D01*
X141346855Y-107302390D01*
X141517835Y-107336400D01*
X141692165Y-107336400D01*
X141863145Y-107302390D01*
X142024205Y-107235677D01*
X142169155Y-107138824D01*
X142292424Y-107015555D01*
X142389277Y-106870605D01*
X142455990Y-106709545D01*
X142490000Y-106538565D01*
X142490000Y-106364235D01*
X142455990Y-106193255D01*
X142389277Y-106032195D01*
X142340000Y-105958447D01*
X142340000Y-105638246D01*
X145591697Y-102386550D01*
X145619737Y-102363538D01*
X145642750Y-102335497D01*
X145642753Y-102335494D01*
X145679853Y-102290287D01*
X145711587Y-102251620D01*
X145779837Y-102123933D01*
X145821865Y-101985385D01*
X145832500Y-101877405D01*
X145832500Y-101877404D01*
X145836056Y-101841300D01*
X145832500Y-101805195D01*
X145832500Y-98690100D01*
X148744747Y-98690100D01*
X148818495Y-98739377D01*
X148979555Y-98806090D01*
X149150535Y-98840100D01*
X149324865Y-98840100D01*
X149495845Y-98806090D01*
X149656905Y-98739377D01*
X149801855Y-98642524D01*
X149878001Y-98566378D01*
X149878000Y-104209547D01*
X149828723Y-104283295D01*
X149762010Y-104444355D01*
X149728000Y-104615335D01*
X149728000Y-104789665D01*
X149762010Y-104960645D01*
X149828723Y-105121705D01*
X149925576Y-105266655D01*
X150048845Y-105389924D01*
X150193795Y-105486777D01*
X150354855Y-105553490D01*
X150525835Y-105587500D01*
X150700165Y-105587500D01*
X150871145Y-105553490D01*
X151032205Y-105486777D01*
X151177155Y-105389924D01*
X151300424Y-105266655D01*
X151397277Y-105121705D01*
X151463990Y-104960645D01*
X151498000Y-104789665D01*
X151498000Y-104615335D01*
X151463990Y-104444355D01*
X151397277Y-104283295D01*
X151348000Y-104209547D01*
X151348000Y-95629919D01*
X151769001Y-96050920D01*
X151769000Y-104063511D01*
X151764719Y-104106980D01*
X151769000Y-104150449D01*
X151769000Y-104150456D01*
X151769001Y-104150465D01*
X151769000Y-105226830D01*
X151764719Y-105270300D01*
X151769000Y-105313769D01*
X151769000Y-105313776D01*
X151769001Y-105313786D01*
X151769000Y-111727299D01*
X151729518Y-111731188D01*
X151609820Y-111767498D01*
X151499506Y-111826463D01*
X151402815Y-111905815D01*
X151323463Y-112002506D01*
X151264498Y-112112820D01*
X151228188Y-112232518D01*
X151215928Y-112357000D01*
X151215928Y-113957000D01*
X151228188Y-114081482D01*
X151264498Y-114201180D01*
X151323463Y-114311494D01*
X151402815Y-114408185D01*
X151499506Y-114487537D01*
X151609820Y-114546502D01*
X151729518Y-114582812D01*
X151854000Y-114595072D01*
X151861215Y-114595072D01*
X151840903Y-114664298D01*
X152654000Y-115477395D01*
X153467097Y-114664298D01*
X153446785Y-114595072D01*
X153454000Y-114595072D01*
X153578482Y-114582812D01*
X153698180Y-114546502D01*
X153808494Y-114487537D01*
X153905185Y-114408185D01*
X153984537Y-114311494D01*
X154043502Y-114201180D01*
X154079812Y-114081482D01*
X154092072Y-113957000D01*
X154092072Y-112357000D01*
X154079812Y-112232518D01*
X154043502Y-112112820D01*
X153984537Y-112002506D01*
X153905185Y-111905815D01*
X153808494Y-111826463D01*
X153698180Y-111767498D01*
X153578482Y-111731188D01*
X153539000Y-111727299D01*
X153539000Y-105455424D01*
X153555981Y-105283000D01*
X153539000Y-105110577D01*
X153539000Y-105098660D01*
X159628866Y-105098660D01*
X159677064Y-105130865D01*
X159865422Y-105208886D01*
X160065381Y-105248660D01*
X160269259Y-105248660D01*
X160469218Y-105208886D01*
X160657576Y-105130865D01*
X160827094Y-105017597D01*
X160971257Y-104873434D01*
X161084525Y-104703916D01*
X161162546Y-104515558D01*
X161202320Y-104315599D01*
X161202320Y-104111721D01*
X161162546Y-103911762D01*
X161108200Y-103780560D01*
X161108200Y-99661954D01*
X161140405Y-99613756D01*
X161218426Y-99425398D01*
X161258200Y-99225439D01*
X161258200Y-99021561D01*
X161218426Y-98821602D01*
X161140405Y-98633244D01*
X161027137Y-98463726D01*
X160882974Y-98319563D01*
X160713456Y-98206295D01*
X160525098Y-98128274D01*
X160325139Y-98088500D01*
X160121261Y-98088500D01*
X159921302Y-98128274D01*
X159732944Y-98206295D01*
X159563426Y-98319563D01*
X159419263Y-98463726D01*
X159305995Y-98633244D01*
X159227974Y-98821602D01*
X159188200Y-99021561D01*
X159188200Y-99225439D01*
X159227974Y-99425398D01*
X159305995Y-99613756D01*
X159338200Y-99661954D01*
X159338201Y-103328660D01*
X153539000Y-103328660D01*
X153539000Y-95727806D01*
X153543281Y-95684339D01*
X153539000Y-95640873D01*
X153539000Y-95640863D01*
X153526195Y-95510850D01*
X153475589Y-95344027D01*
X153393411Y-95190281D01*
X153345736Y-95132189D01*
X153310532Y-95089293D01*
X153310530Y-95089291D01*
X153282817Y-95055523D01*
X153249049Y-95027810D01*
X150114695Y-91893457D01*
X150103386Y-91836602D01*
X150025365Y-91648244D01*
X149912097Y-91478726D01*
X149906800Y-91473429D01*
X149906800Y-87946853D01*
X155242571Y-87910103D01*
X155240990Y-88925202D01*
X155243358Y-88949811D01*
X155250515Y-88973656D01*
X155262187Y-88995647D01*
X155277924Y-89014939D01*
X155297123Y-89030789D01*
X155319045Y-89042590D01*
X155342848Y-89049887D01*
X155367617Y-89052399D01*
X160561917Y-89067639D01*
X160587150Y-89065183D01*
X160610969Y-89057940D01*
X160632918Y-89046190D01*
X160652152Y-89030383D01*
X160667934Y-89011127D01*
X160679655Y-88989162D01*
X160686866Y-88965333D01*
X160689290Y-88940555D01*
X160681670Y-77525795D01*
X160679792Y-77506500D01*
X160847100Y-77506500D01*
X160847101Y-92157354D01*
X157043368Y-95961088D01*
X156957613Y-95969534D01*
X156931525Y-95977448D01*
X156819066Y-96011562D01*
X156691379Y-96079812D01*
X156579461Y-96171661D01*
X156556440Y-96199712D01*
X156321507Y-96434645D01*
X156293461Y-96457662D01*
X156201612Y-96569580D01*
X156133362Y-96697267D01*
X156109480Y-96775995D01*
X156091334Y-96835814D01*
X156077143Y-96979899D01*
X156080699Y-97016004D01*
X156080699Y-97471796D01*
X156077143Y-97507901D01*
X156080699Y-97544006D01*
X156091334Y-97651986D01*
X156133362Y-97790534D01*
X156201612Y-97918221D01*
X156293462Y-98030139D01*
X156321507Y-98053155D01*
X156717639Y-98449287D01*
X156740660Y-98477338D01*
X156852578Y-98569187D01*
X156980265Y-98637437D01*
X157118813Y-98679465D01*
X157262898Y-98693656D01*
X157299003Y-98690100D01*
X157558547Y-98690100D01*
X157632295Y-98739377D01*
X157793355Y-98806090D01*
X157964335Y-98840100D01*
X158138665Y-98840100D01*
X158309645Y-98806090D01*
X158470705Y-98739377D01*
X158615655Y-98642524D01*
X158738924Y-98519255D01*
X158835777Y-98374305D01*
X158902490Y-98213245D01*
X158936500Y-98042265D01*
X158936500Y-97867935D01*
X158902490Y-97696955D01*
X158835777Y-97535895D01*
X158738924Y-97390945D01*
X158615655Y-97267676D01*
X158475212Y-97173834D01*
X162495393Y-93153654D01*
X162523438Y-93130638D01*
X162615287Y-93018720D01*
X162683537Y-92891033D01*
X162712816Y-92794514D01*
X162725565Y-92752486D01*
X162739756Y-92608400D01*
X162736200Y-92572295D01*
X162736200Y-89955711D01*
X162764800Y-89984311D01*
X162764801Y-98401585D01*
X162761244Y-98437700D01*
X162775435Y-98581785D01*
X162812772Y-98704865D01*
X162817464Y-98720333D01*
X162885714Y-98848020D01*
X162977563Y-98959938D01*
X163005608Y-98982954D01*
X165030345Y-101007692D01*
X165053361Y-101035737D01*
X165165279Y-101127586D01*
X165225334Y-101159686D01*
X165196068Y-101230342D01*
X165139000Y-101517240D01*
X165139000Y-101809760D01*
X165196068Y-102096658D01*
X165308010Y-102366911D01*
X165470525Y-102610132D01*
X165677368Y-102816975D01*
X165851760Y-102933500D01*
X165677368Y-103050025D01*
X165470525Y-103256868D01*
X165308010Y-103500089D01*
X165196068Y-103770342D01*
X165139000Y-104057240D01*
X165139000Y-104349760D01*
X165196068Y-104636658D01*
X165308010Y-104906911D01*
X165470525Y-105150132D01*
X165677368Y-105356975D01*
X165920589Y-105519490D01*
X166190842Y-105631432D01*
X166477740Y-105688500D01*
X166770260Y-105688500D01*
X167057158Y-105631432D01*
X167327411Y-105519490D01*
X167570632Y-105356975D01*
X167702487Y-105225120D01*
X167724498Y-105297680D01*
X167783463Y-105407994D01*
X167862815Y-105504685D01*
X167959506Y-105584037D01*
X168069820Y-105643002D01*
X168189518Y-105679312D01*
X168314000Y-105691572D01*
X168934351Y-105691572D01*
X154205670Y-120420254D01*
X154170502Y-120304320D01*
X154111537Y-120194006D01*
X154032185Y-120097315D01*
X153935494Y-120017963D01*
X153825180Y-119958998D01*
X153705482Y-119922688D01*
X153581000Y-119910428D01*
X151981000Y-119910428D01*
X151856518Y-119922688D01*
X151736820Y-119958998D01*
X151626506Y-120017963D01*
X151529815Y-120097315D01*
X151450463Y-120194006D01*
X151391498Y-120304320D01*
X151355188Y-120424018D01*
X151342928Y-120548500D01*
X151342928Y-122148500D01*
X151355188Y-122272982D01*
X151391498Y-122392680D01*
X151450463Y-122502994D01*
X151529815Y-122599685D01*
X151626506Y-122679037D01*
X151736820Y-122738002D01*
X151856518Y-122774312D01*
X151981000Y-122786572D01*
X151988215Y-122786572D01*
X151967903Y-122855798D01*
X152781000Y-123668895D01*
X153594097Y-122855798D01*
X153573785Y-122786572D01*
X153581000Y-122786572D01*
X153705482Y-122774312D01*
X153825180Y-122738002D01*
X153935494Y-122679037D01*
X154032185Y-122599685D01*
X154111537Y-122502994D01*
X154170502Y-122392680D01*
X154206812Y-122272982D01*
X154210701Y-122233500D01*
X154485533Y-122233500D01*
X154529002Y-122237781D01*
X154572471Y-122233500D01*
X154572479Y-122233500D01*
X154702492Y-122220695D01*
X154869315Y-122170089D01*
X155023061Y-122087911D01*
X155157819Y-121977317D01*
X155185536Y-121943544D01*
X171318611Y-105810470D01*
X171352377Y-105782759D01*
X171384089Y-105744119D01*
X171462971Y-105648001D01*
X171545149Y-105494256D01*
X171595755Y-105327432D01*
X171603513Y-105248660D01*
X171608560Y-105197419D01*
X171608560Y-105197411D01*
X171612841Y-105153942D01*
X171608560Y-105110473D01*
X171608560Y-98236250D01*
X171611965Y-98212532D01*
X171608560Y-98149273D01*
X171608560Y-98129581D01*
X171606223Y-98105848D01*
X171602595Y-98038455D01*
X171597696Y-98019280D01*
X171595755Y-97999568D01*
X171576155Y-97934955D01*
X171559446Y-97869550D01*
X171550896Y-97851689D01*
X171545149Y-97832745D01*
X171513322Y-97773199D01*
X171484172Y-97712308D01*
X171472307Y-97696465D01*
X171462971Y-97678999D01*
X171420137Y-97626806D01*
X171379670Y-97572773D01*
X171364936Y-97559544D01*
X171352377Y-97544241D01*
X171300199Y-97501419D01*
X171282461Y-97485493D01*
X171266593Y-97473839D01*
X171217619Y-97433647D01*
X171196485Y-97422351D01*
X168003352Y-95077260D01*
X168006324Y-94963210D01*
X168066412Y-95043769D01*
X168282645Y-95238678D01*
X168532748Y-95387657D01*
X168807109Y-95484981D01*
X169037000Y-95364314D01*
X169037000Y-94170500D01*
X169291000Y-94170500D01*
X169291000Y-95364314D01*
X169520891Y-95484981D01*
X169795252Y-95387657D01*
X170045355Y-95238678D01*
X170261588Y-95043769D01*
X170435641Y-94810420D01*
X170560825Y-94547599D01*
X170605476Y-94400390D01*
X170484155Y-94170500D01*
X169291000Y-94170500D01*
X169037000Y-94170500D01*
X169017000Y-94170500D01*
X169017000Y-93916500D01*
X169037000Y-93916500D01*
X169037000Y-93896500D01*
X169291000Y-93896500D01*
X169291000Y-93916500D01*
X170484155Y-93916500D01*
X170605476Y-93686610D01*
X170560825Y-93539401D01*
X170435641Y-93276580D01*
X170261588Y-93043231D01*
X170045355Y-92848322D01*
X169928466Y-92778695D01*
X170110632Y-92656975D01*
X170317475Y-92450132D01*
X170479990Y-92206911D01*
X170591932Y-91936658D01*
X170649000Y-91649760D01*
X170649000Y-91357240D01*
X170591932Y-91070342D01*
X170479990Y-90800089D01*
X170317475Y-90556868D01*
X170110632Y-90350025D01*
X169936240Y-90233500D01*
X170110632Y-90116975D01*
X170317475Y-89910132D01*
X170479990Y-89666911D01*
X170591932Y-89396658D01*
X170649000Y-89109760D01*
X170649000Y-88817240D01*
X170591932Y-88530342D01*
X170479990Y-88260089D01*
X170317475Y-88016868D01*
X170185620Y-87885013D01*
X170258180Y-87863002D01*
X170368494Y-87804037D01*
X170465185Y-87724685D01*
X170544537Y-87627994D01*
X170603502Y-87517680D01*
X170639812Y-87397982D01*
X170652072Y-87273500D01*
X170652072Y-86187006D01*
X171547292Y-85291787D01*
X171581141Y-85263993D01*
X171635067Y-85198249D01*
X171691570Y-85129400D01*
X171691626Y-85129295D01*
X171691699Y-85129206D01*
X171731858Y-85054026D01*
X171773748Y-84975654D01*
X171773783Y-84975540D01*
X171773837Y-84975438D01*
X171799123Y-84892005D01*
X171824354Y-84808831D01*
X171824365Y-84808717D01*
X171824400Y-84808602D01*
X171833142Y-84719608D01*
X171841441Y-84635341D01*
X171837148Y-84591756D01*
X171832091Y-65217216D01*
X171836361Y-65173859D01*
X171832068Y-65130271D01*
X171832068Y-65130152D01*
X171827708Y-65086000D01*
X171819274Y-65000369D01*
X171819240Y-65000258D01*
X171819229Y-65000143D01*
X171793646Y-64915888D01*
X171768668Y-64833547D01*
X171768615Y-64833447D01*
X171768580Y-64833333D01*
X171726670Y-64754973D01*
X171686490Y-64679801D01*
X171686417Y-64679712D01*
X171686362Y-64679609D01*
X171631655Y-64612985D01*
X171603612Y-64578814D01*
X171603527Y-64578729D01*
X171575732Y-64544879D01*
X171542048Y-64517250D01*
X171407563Y-64382765D01*
X171381691Y-64334361D01*
X171271097Y-64199603D01*
X171237331Y-64171892D01*
X162540894Y-55475456D01*
X162513177Y-55441683D01*
X162378419Y-55331089D01*
X162224673Y-55248911D01*
X162057850Y-55198305D01*
X161927837Y-55185500D01*
X161927829Y-55185500D01*
X161884360Y-55181219D01*
X161840891Y-55185500D01*
X160012669Y-55185500D01*
X159969200Y-55181219D01*
X159925731Y-55185500D01*
X159925723Y-55185500D01*
X159796776Y-55198200D01*
X153827769Y-55198200D01*
X153784300Y-55193919D01*
X153740831Y-55198200D01*
X153740823Y-55198200D01*
X153610810Y-55211005D01*
X153443987Y-55261611D01*
X153290241Y-55343789D01*
X153189253Y-55426668D01*
X153189251Y-55426670D01*
X153155483Y-55454383D01*
X153127770Y-55488151D01*
X151602961Y-57012961D01*
X151530260Y-56998500D01*
X151237740Y-56998500D01*
X150950842Y-57055568D01*
X150680589Y-57167510D01*
X150437368Y-57330025D01*
X150230525Y-57536868D01*
X150108805Y-57719034D01*
X150039178Y-57602145D01*
X149844269Y-57385912D01*
X149610920Y-57211859D01*
X149348099Y-57086675D01*
X149200890Y-57042024D01*
X148971000Y-57163345D01*
X148971000Y-58356500D01*
X148991000Y-58356500D01*
X148991000Y-58610500D01*
X148971000Y-58610500D01*
X148971000Y-58630500D01*
X148717000Y-58630500D01*
X148717000Y-58610500D01*
X148697000Y-58610500D01*
X148697000Y-58356500D01*
X148717000Y-58356500D01*
X148717000Y-57163345D01*
X148487110Y-57042024D01*
X148339901Y-57086675D01*
X148077080Y-57211859D01*
X147843731Y-57385912D01*
X147648822Y-57602145D01*
X147499843Y-57852248D01*
X147430300Y-58048293D01*
X147430300Y-57091554D01*
X147462505Y-57043356D01*
X147540526Y-56854998D01*
X147580300Y-56655039D01*
X147580300Y-56451161D01*
X147540526Y-56251202D01*
X147462505Y-56062844D01*
X147349237Y-55893326D01*
X147205074Y-55749163D01*
X147035556Y-55635895D01*
X146847198Y-55557874D01*
X146647239Y-55518100D01*
X146443361Y-55518100D01*
X146243402Y-55557874D01*
X146055044Y-55635895D01*
X145885526Y-55749163D01*
X145741363Y-55893326D01*
X145628095Y-56062844D01*
X145550074Y-56251202D01*
X145510300Y-56451161D01*
X145510300Y-56655039D01*
X145550074Y-56854998D01*
X145628095Y-57043356D01*
X145660301Y-57091556D01*
X145660300Y-62053921D01*
X143641391Y-64072831D01*
X143607624Y-64100543D01*
X143579911Y-64134311D01*
X143579908Y-64134314D01*
X143497030Y-64235301D01*
X143414852Y-64389047D01*
X143364245Y-64555870D01*
X143347159Y-64729360D01*
X143351441Y-64772839D01*
X143351440Y-76431166D01*
X143319235Y-76479364D01*
X143241214Y-76667722D01*
X143201440Y-76867681D01*
X143201440Y-77071559D01*
X143241214Y-77271518D01*
X143319235Y-77459876D01*
X143432503Y-77629394D01*
X143576666Y-77773557D01*
X143746184Y-77886825D01*
X143934542Y-77964846D01*
X144134501Y-78004620D01*
X144338379Y-78004620D01*
X144538338Y-77964846D01*
X144726696Y-77886825D01*
X144774894Y-77854620D01*
X145886622Y-77854620D01*
X146656261Y-78624260D01*
X146619765Y-78617000D01*
X146445435Y-78617000D01*
X146274455Y-78651010D01*
X146113395Y-78717723D01*
X145968445Y-78814576D01*
X145944843Y-78838178D01*
X145859605Y-78781223D01*
X145698545Y-78714510D01*
X145527565Y-78680500D01*
X145353235Y-78680500D01*
X145182255Y-78714510D01*
X145021195Y-78781223D01*
X144876245Y-78878076D01*
X144752976Y-79001345D01*
X144656123Y-79146295D01*
X144589410Y-79307355D01*
X144555400Y-79478335D01*
X144555400Y-79652665D01*
X144589410Y-79823645D01*
X144656123Y-79984705D01*
X144705400Y-80058454D01*
X144705401Y-80583485D01*
X144701844Y-80619600D01*
X144716035Y-80763685D01*
X144741411Y-80847336D01*
X144758064Y-80902233D01*
X144826314Y-81029920D01*
X144890370Y-81107972D01*
X144890370Y-82363131D01*
X144758745Y-82308610D01*
X144587765Y-82274600D01*
X144413435Y-82274600D01*
X144242455Y-82308610D01*
X144081395Y-82375323D01*
X144032492Y-82407999D01*
X143904393Y-82407999D01*
X143868298Y-82404444D01*
X143832203Y-82407999D01*
X143832194Y-82407999D01*
X143724214Y-82418634D01*
X143585666Y-82460662D01*
X143457979Y-82528912D01*
X143422547Y-82557990D01*
X138356069Y-82557990D01*
X138282955Y-82484876D01*
X138138005Y-82388023D01*
X137976945Y-82321310D01*
X137805965Y-82287300D01*
X137631635Y-82287300D01*
X137460655Y-82321310D01*
X137299595Y-82388023D01*
X137154645Y-82484876D01*
X137031376Y-82608145D01*
X136994375Y-82663521D01*
X131805649Y-77149554D01*
X131775536Y-77112862D01*
X131728199Y-77074014D01*
X131682081Y-77033760D01*
X131672322Y-77028156D01*
X131663618Y-77021013D01*
X131609608Y-76992144D01*
X131556526Y-76961663D01*
X131545861Y-76958070D01*
X131535931Y-76952763D01*
X131477327Y-76934986D01*
X131419318Y-76915446D01*
X131408157Y-76914003D01*
X131397383Y-76910735D01*
X131336442Y-76904733D01*
X131275731Y-76896885D01*
X131228382Y-76900100D01*
X130236153Y-76900100D01*
X130162405Y-76850823D01*
X130001345Y-76784110D01*
X129830365Y-76750100D01*
X129656035Y-76750100D01*
X129485055Y-76784110D01*
X129323995Y-76850823D01*
X129195500Y-76936681D01*
X129195500Y-74650246D01*
X132029358Y-71816389D01*
X132126655Y-71856690D01*
X132297635Y-71890700D01*
X132471965Y-71890700D01*
X132642945Y-71856690D01*
X132804005Y-71789977D01*
X132948955Y-71693124D01*
X133072224Y-71569855D01*
X133159501Y-71439235D01*
X136236900Y-71439235D01*
X136236900Y-71613565D01*
X136270910Y-71784545D01*
X136337623Y-71945605D01*
X136434476Y-72090555D01*
X136497300Y-72153379D01*
X136497299Y-76911490D01*
X136436010Y-77059455D01*
X136402000Y-77230435D01*
X136402000Y-77404765D01*
X136436010Y-77575745D01*
X136502723Y-77736805D01*
X136599576Y-77881755D01*
X136722845Y-78005024D01*
X136867795Y-78101877D01*
X137028855Y-78168590D01*
X137199835Y-78202600D01*
X137374165Y-78202600D01*
X137545145Y-78168590D01*
X137706205Y-78101877D01*
X137851155Y-78005024D01*
X137974424Y-77881755D01*
X138071277Y-77736805D01*
X138137990Y-77575745D01*
X138164146Y-77444252D01*
X138201505Y-77428777D01*
X138346455Y-77331924D01*
X138469724Y-77208655D01*
X138566577Y-77063705D01*
X138633290Y-76902645D01*
X138667300Y-76731665D01*
X138667300Y-76557335D01*
X138633290Y-76386355D01*
X138566577Y-76225295D01*
X138517300Y-76151547D01*
X138517300Y-75570379D01*
X138526245Y-75579324D01*
X138671195Y-75676177D01*
X138832255Y-75742890D01*
X139003235Y-75776900D01*
X139177565Y-75776900D01*
X139348545Y-75742890D01*
X139509605Y-75676177D01*
X139654555Y-75579324D01*
X139777824Y-75456055D01*
X139874677Y-75311105D01*
X139941390Y-75150045D01*
X139975400Y-74979065D01*
X139975400Y-74804735D01*
X139941390Y-74633755D01*
X139874677Y-74472695D01*
X139825400Y-74398947D01*
X139825400Y-65544346D01*
X142334953Y-63034794D01*
X142421945Y-63017490D01*
X142583005Y-62950777D01*
X142727955Y-62853924D01*
X142851224Y-62730655D01*
X142948077Y-62585705D01*
X143014790Y-62424645D01*
X143043314Y-62281246D01*
X143149489Y-62352190D01*
X143419742Y-62464132D01*
X143706640Y-62521200D01*
X143999160Y-62521200D01*
X144286058Y-62464132D01*
X144556311Y-62352190D01*
X144799532Y-62189675D01*
X145006375Y-61982832D01*
X145168890Y-61739611D01*
X145280832Y-61469358D01*
X145337900Y-61182460D01*
X145337900Y-60889940D01*
X145280832Y-60603042D01*
X145168890Y-60332789D01*
X145006375Y-60089568D01*
X144799532Y-59882725D01*
X144617366Y-59761005D01*
X144734255Y-59691378D01*
X144950488Y-59496469D01*
X145124541Y-59263120D01*
X145249725Y-59000299D01*
X145294376Y-58853090D01*
X145173055Y-58623200D01*
X143979900Y-58623200D01*
X143979900Y-58643200D01*
X143725900Y-58643200D01*
X143725900Y-58623200D01*
X142532745Y-58623200D01*
X142411424Y-58853090D01*
X142456075Y-59000299D01*
X142581259Y-59263120D01*
X142755312Y-59496469D01*
X142971545Y-59691378D01*
X143088434Y-59761005D01*
X142906268Y-59882725D01*
X142699425Y-60089568D01*
X142536910Y-60332789D01*
X142424968Y-60603042D01*
X142367900Y-60889940D01*
X142367900Y-61182460D01*
X142393229Y-61309798D01*
X142250965Y-61281500D01*
X142076635Y-61281500D01*
X141905655Y-61315510D01*
X141744595Y-61382223D01*
X141599645Y-61479076D01*
X141476376Y-61602345D01*
X141379523Y-61747295D01*
X141312810Y-61908355D01*
X141295506Y-61995347D01*
X138596208Y-64694646D01*
X138568163Y-64717662D01*
X138476314Y-64829580D01*
X138431973Y-64912536D01*
X138408064Y-64957267D01*
X138366035Y-65095815D01*
X138351844Y-65239900D01*
X138355401Y-65276015D01*
X138355401Y-68549222D01*
X138333755Y-68527576D01*
X138188805Y-68430723D01*
X138027745Y-68364010D01*
X137856765Y-68330000D01*
X137682435Y-68330000D01*
X137511455Y-68364010D01*
X137350395Y-68430723D01*
X137205445Y-68527576D01*
X137082176Y-68650845D01*
X136985323Y-68795795D01*
X136918610Y-68956855D01*
X136884600Y-69127835D01*
X136884600Y-69302165D01*
X136918610Y-69473145D01*
X136985323Y-69634205D01*
X137047300Y-69726960D01*
X137047300Y-70641400D01*
X137034735Y-70641400D01*
X136863755Y-70675410D01*
X136702695Y-70742123D01*
X136557745Y-70838976D01*
X136434476Y-70962245D01*
X136337623Y-71107195D01*
X136270910Y-71268255D01*
X136236900Y-71439235D01*
X133159501Y-71439235D01*
X133169077Y-71424905D01*
X133235790Y-71263845D01*
X133269800Y-71092865D01*
X133269800Y-70918535D01*
X133235790Y-70747555D01*
X133169077Y-70586495D01*
X133072224Y-70441545D01*
X132948955Y-70318276D01*
X132804005Y-70221423D01*
X132642945Y-70154710D01*
X132471965Y-70120700D01*
X132297635Y-70120700D01*
X132272184Y-70125762D01*
X133000453Y-69397494D01*
X133087445Y-69380190D01*
X133248505Y-69313477D01*
X133393455Y-69216624D01*
X133516724Y-69093355D01*
X133613577Y-68948405D01*
X133680290Y-68787345D01*
X133714300Y-68616365D01*
X133714300Y-68442035D01*
X133680290Y-68271055D01*
X133613577Y-68109995D01*
X133516724Y-67965045D01*
X133393455Y-67841776D01*
X133248505Y-67744923D01*
X133087445Y-67678210D01*
X133052284Y-67671216D01*
X133045290Y-67636055D01*
X132978577Y-67474995D01*
X132881724Y-67330045D01*
X132758455Y-67206776D01*
X132613505Y-67109923D01*
X132452445Y-67043210D01*
X132281465Y-67009200D01*
X132167946Y-67009200D01*
X132143590Y-66886755D01*
X132076877Y-66725695D01*
X131980024Y-66580745D01*
X131856755Y-66457476D01*
X131711805Y-66360623D01*
X131550745Y-66293910D01*
X131427359Y-66269367D01*
X131416477Y-66243095D01*
X131319624Y-66098145D01*
X131196355Y-65974876D01*
X131051405Y-65878023D01*
X130890345Y-65811310D01*
X130719365Y-65777300D01*
X130545035Y-65777300D01*
X130374055Y-65811310D01*
X130212995Y-65878023D01*
X130068045Y-65974876D01*
X129944776Y-66098145D01*
X129847923Y-66243095D01*
X129781210Y-66404155D01*
X129763906Y-66491147D01*
X125168407Y-71086647D01*
X125140362Y-71109663D01*
X125048513Y-71221581D01*
X125012833Y-71288334D01*
X124980263Y-71349268D01*
X124938234Y-71487816D01*
X124924043Y-71631901D01*
X124927600Y-71668016D01*
X124927599Y-88446172D01*
X124904410Y-88502155D01*
X124870400Y-88673135D01*
X124870400Y-88847465D01*
X124904410Y-89018445D01*
X124971123Y-89179505D01*
X125067976Y-89324455D01*
X125191245Y-89447724D01*
X125336195Y-89544577D01*
X125497255Y-89611290D01*
X125668235Y-89645300D01*
X125842565Y-89645300D01*
X126013545Y-89611290D01*
X126174605Y-89544577D01*
X126319555Y-89447724D01*
X126442824Y-89324455D01*
X126539677Y-89179505D01*
X126606390Y-89018445D01*
X126640400Y-88847465D01*
X126640400Y-88673135D01*
X126606390Y-88502155D01*
X126574552Y-88425292D01*
X126631805Y-88401577D01*
X126776755Y-88304724D01*
X126900024Y-88181455D01*
X126996877Y-88036505D01*
X127063590Y-87875445D01*
X127097600Y-87704465D01*
X127097600Y-87530135D01*
X127063590Y-87359155D01*
X126996877Y-87198095D01*
X126947600Y-87124347D01*
X126947600Y-86330305D01*
X127063395Y-86407677D01*
X127224455Y-86474390D01*
X127395435Y-86508400D01*
X127569765Y-86508400D01*
X127740745Y-86474390D01*
X127901805Y-86407677D01*
X128046755Y-86310824D01*
X128170024Y-86187555D01*
X128266877Y-86042605D01*
X128324070Y-85904529D01*
X128397105Y-85874277D01*
X128542055Y-85777424D01*
X128665324Y-85654155D01*
X128762177Y-85509205D01*
X128815650Y-85380109D01*
X128879705Y-85353577D01*
X129024655Y-85256724D01*
X129084400Y-85196979D01*
X129084401Y-91017487D01*
X129080844Y-91053602D01*
X129095035Y-91197687D01*
X129119018Y-91276745D01*
X129137064Y-91336235D01*
X129205314Y-91463922D01*
X129297163Y-91575840D01*
X129325208Y-91598856D01*
X130666551Y-92940200D01*
X119250653Y-92940200D01*
X119176905Y-92890923D01*
X119015845Y-92824210D01*
X118844865Y-92790200D01*
X118670535Y-92790200D01*
X118499555Y-92824210D01*
X118338495Y-92890923D01*
X118193545Y-92987776D01*
X118070276Y-93111045D01*
X117973423Y-93255995D01*
X117906710Y-93417055D01*
X117872700Y-93588035D01*
X115918573Y-93588035D01*
X115825680Y-93363773D01*
X115668637Y-93128741D01*
X115468759Y-92928863D01*
X115236241Y-92773500D01*
X115468759Y-92618137D01*
X115668637Y-92418259D01*
X115825680Y-92183227D01*
X115933853Y-91922074D01*
X115989000Y-91644835D01*
X115989000Y-91362165D01*
X115933853Y-91084926D01*
X115825680Y-90823773D01*
X115668637Y-90588741D01*
X115470039Y-90390143D01*
X115478482Y-90389312D01*
X115598180Y-90353002D01*
X115708494Y-90294037D01*
X115805185Y-90214685D01*
X115884537Y-90117994D01*
X115943502Y-90007680D01*
X115979812Y-89887982D01*
X115992072Y-89763500D01*
X115992072Y-88163500D01*
X115979812Y-88039018D01*
X115943502Y-87919320D01*
X115884537Y-87809006D01*
X115805185Y-87712315D01*
X115708494Y-87632963D01*
X115598180Y-87573998D01*
X115478482Y-87537688D01*
X115354000Y-87525428D01*
X114367506Y-87525428D01*
X114188999Y-87346921D01*
X114188999Y-86544009D01*
X114412665Y-86588500D01*
X114695335Y-86588500D01*
X114972574Y-86533353D01*
X115233727Y-86425180D01*
X115468759Y-86268137D01*
X115668637Y-86068259D01*
X115825680Y-85833227D01*
X115933853Y-85572074D01*
X115989000Y-85294835D01*
X115989000Y-85012165D01*
X115933853Y-84734926D01*
X115825680Y-84473773D01*
X115668637Y-84238741D01*
X115468759Y-84038863D01*
X115236241Y-83883500D01*
X115468759Y-83728137D01*
X115668637Y-83528259D01*
X115825680Y-83293227D01*
X115933853Y-83032074D01*
X115989000Y-82754835D01*
X115989000Y-82472165D01*
X115933853Y-82194926D01*
X115825680Y-81933773D01*
X115668637Y-81698741D01*
X115468759Y-81498863D01*
X115236241Y-81343500D01*
X115468759Y-81188137D01*
X115668637Y-80988259D01*
X115825680Y-80753227D01*
X115933853Y-80492074D01*
X115989000Y-80214835D01*
X115989000Y-79981721D01*
X117130880Y-79981721D01*
X117130880Y-80185599D01*
X117170654Y-80385558D01*
X117248675Y-80573916D01*
X117361943Y-80743434D01*
X117405880Y-80787371D01*
X117405881Y-83195028D01*
X117372103Y-83228806D01*
X117258835Y-83398324D01*
X117180814Y-83586682D01*
X117141040Y-83786641D01*
X117141040Y-83990519D01*
X117180814Y-84190478D01*
X117258835Y-84378836D01*
X117372103Y-84548354D01*
X117416040Y-84592291D01*
X117416041Y-86974548D01*
X117367023Y-87023566D01*
X117253755Y-87193084D01*
X117175734Y-87381442D01*
X117135960Y-87581401D01*
X117135960Y-87785279D01*
X117175734Y-87985238D01*
X117253755Y-88173596D01*
X117367023Y-88343114D01*
X117511186Y-88487277D01*
X117680704Y-88600545D01*
X117869062Y-88678566D01*
X118069021Y-88718340D01*
X118272899Y-88718340D01*
X118472858Y-88678566D01*
X118661216Y-88600545D01*
X118830734Y-88487277D01*
X118974897Y-88343114D01*
X119088165Y-88173596D01*
X119166186Y-87985238D01*
X119205960Y-87785279D01*
X119205960Y-87581401D01*
X119166186Y-87381442D01*
X119088165Y-87193084D01*
X118974897Y-87023566D01*
X118936040Y-86984709D01*
X118936040Y-84592291D01*
X118979977Y-84548354D01*
X119093245Y-84378836D01*
X119171266Y-84190478D01*
X119211040Y-83990519D01*
X119211040Y-83786641D01*
X119171266Y-83586682D01*
X119093245Y-83398324D01*
X118979977Y-83228806D01*
X118925880Y-83174709D01*
X118925880Y-80818660D01*
X122966425Y-80818660D01*
X123100995Y-80908577D01*
X123262055Y-80975290D01*
X123433035Y-81009300D01*
X123607365Y-81009300D01*
X123778345Y-80975290D01*
X123939405Y-80908577D01*
X124084355Y-80811724D01*
X124207624Y-80688455D01*
X124304477Y-80543505D01*
X124371190Y-80382445D01*
X124405200Y-80211465D01*
X124405200Y-80037135D01*
X124371190Y-79866155D01*
X124304477Y-79705095D01*
X124207624Y-79560145D01*
X124084355Y-79436876D01*
X123939405Y-79340023D01*
X123778345Y-79273310D01*
X123607365Y-79239300D01*
X123433035Y-79239300D01*
X123262055Y-79273310D01*
X123100995Y-79340023D01*
X123088069Y-79348660D01*
X118930960Y-79348660D01*
X118930960Y-76972291D01*
X118974897Y-76928354D01*
X119088165Y-76758836D01*
X119166186Y-76570478D01*
X119205960Y-76370519D01*
X119205960Y-76166641D01*
X119166186Y-75966682D01*
X119088165Y-75778324D01*
X118974897Y-75608806D01*
X118830734Y-75464643D01*
X118661216Y-75351375D01*
X118472858Y-75273354D01*
X118272899Y-75233580D01*
X118069021Y-75233580D01*
X117869062Y-75273354D01*
X117680704Y-75351375D01*
X117511186Y-75464643D01*
X117367023Y-75608806D01*
X117253755Y-75778324D01*
X117175734Y-75966682D01*
X117135960Y-76166641D01*
X117135960Y-76370519D01*
X117175734Y-76570478D01*
X117253755Y-76758836D01*
X117367023Y-76928354D01*
X117410960Y-76972291D01*
X117410961Y-79374868D01*
X117361943Y-79423886D01*
X117248675Y-79593404D01*
X117170654Y-79781762D01*
X117130880Y-79981721D01*
X115989000Y-79981721D01*
X115989000Y-79932165D01*
X115933853Y-79654926D01*
X115825680Y-79393773D01*
X115668637Y-79158741D01*
X115468759Y-78958863D01*
X115236241Y-78803500D01*
X115468759Y-78648137D01*
X115668637Y-78448259D01*
X115825680Y-78213227D01*
X115933853Y-77952074D01*
X115989000Y-77674835D01*
X115989000Y-77392165D01*
X115933853Y-77114926D01*
X115825680Y-76853773D01*
X115668637Y-76618741D01*
X115468759Y-76418863D01*
X115236241Y-76263500D01*
X115468759Y-76108137D01*
X115668637Y-75908259D01*
X115825680Y-75673227D01*
X115933853Y-75412074D01*
X115989000Y-75134835D01*
X115989000Y-74852165D01*
X115933853Y-74574926D01*
X115825680Y-74313773D01*
X115668637Y-74078741D01*
X115468759Y-73878863D01*
X115236241Y-73723500D01*
X115468759Y-73568137D01*
X115668637Y-73368259D01*
X115825680Y-73133227D01*
X115933853Y-72872074D01*
X115989000Y-72594835D01*
X115989000Y-72312165D01*
X115933853Y-72034926D01*
X115825680Y-71773773D01*
X115668637Y-71538741D01*
X115468759Y-71338863D01*
X115236241Y-71183500D01*
X115468759Y-71028137D01*
X115668637Y-70828259D01*
X115825680Y-70593227D01*
X115933853Y-70332074D01*
X115989000Y-70054835D01*
X115989000Y-69772165D01*
X115933853Y-69494926D01*
X115825680Y-69233773D01*
X115668637Y-68998741D01*
X115468759Y-68798863D01*
X115236241Y-68643500D01*
X115468759Y-68488137D01*
X115668637Y-68288259D01*
X115825680Y-68053227D01*
X115933853Y-67792074D01*
X115989000Y-67514835D01*
X115989000Y-67232165D01*
X115933853Y-66954926D01*
X115825680Y-66693773D01*
X115668637Y-66458741D01*
X115470039Y-66260143D01*
X115478482Y-66259312D01*
X115598180Y-66223002D01*
X115708494Y-66164037D01*
X115805185Y-66084685D01*
X115884537Y-65987994D01*
X115943502Y-65877680D01*
X115979812Y-65757982D01*
X115992072Y-65633500D01*
X115992072Y-64033500D01*
X115979812Y-63909018D01*
X115943502Y-63789320D01*
X115884537Y-63679006D01*
X115805185Y-63582315D01*
X115708494Y-63502963D01*
X115598180Y-63443998D01*
X115478482Y-63407688D01*
X115354000Y-63395428D01*
X113754000Y-63395428D01*
X113629518Y-63407688D01*
X113509820Y-63443998D01*
X113399506Y-63502963D01*
X113302815Y-63582315D01*
X113223463Y-63679006D01*
X113164498Y-63789320D01*
X113128188Y-63909018D01*
X113115928Y-64033500D01*
X113115928Y-65019994D01*
X112708955Y-65426967D01*
X112675182Y-65454684D01*
X112564588Y-65589443D01*
X112482410Y-65743189D01*
X112431804Y-65910012D01*
X112418999Y-66040025D01*
X112418999Y-66040032D01*
X112414718Y-66083501D01*
X106349000Y-66083501D01*
X106349000Y-58139310D01*
X142411424Y-58139310D01*
X142532745Y-58369200D01*
X143725900Y-58369200D01*
X143725900Y-57175386D01*
X143979900Y-57175386D01*
X143979900Y-58369200D01*
X145173055Y-58369200D01*
X145294376Y-58139310D01*
X145249725Y-57992101D01*
X145124541Y-57729280D01*
X144950488Y-57495931D01*
X144734255Y-57301022D01*
X144484152Y-57152043D01*
X144209791Y-57054719D01*
X143979900Y-57175386D01*
X143725900Y-57175386D01*
X143496009Y-57054719D01*
X143221648Y-57152043D01*
X142971545Y-57301022D01*
X142755312Y-57495931D01*
X142581259Y-57729280D01*
X142456075Y-57992101D01*
X142411424Y-58139310D01*
X106349000Y-58139310D01*
X106349000Y-54088500D01*
X173559000Y-54088500D01*
X173559001Y-132474500D01*
%TA.AperFunction,Conductor*%
D24*
G36*
X173559001Y-132474500D02*
G01*
X106349000Y-132474500D01*
X106349000Y-109640390D01*
X106762524Y-109640390D01*
X106807175Y-109787599D01*
X106932359Y-110050420D01*
X107106412Y-110283769D01*
X107322645Y-110478678D01*
X107572748Y-110627657D01*
X107847109Y-110724981D01*
X108077000Y-110604314D01*
X108077000Y-109410500D01*
X106883845Y-109410500D01*
X106762524Y-109640390D01*
X106349000Y-109640390D01*
X106349000Y-107100390D01*
X106762524Y-107100390D01*
X106807175Y-107247599D01*
X106932359Y-107510420D01*
X107106412Y-107743769D01*
X107322645Y-107938678D01*
X107448255Y-108013500D01*
X107322645Y-108088322D01*
X107106412Y-108283231D01*
X106932359Y-108516580D01*
X106807175Y-108779401D01*
X106762524Y-108926610D01*
X106883845Y-109156500D01*
X108077000Y-109156500D01*
X108077000Y-106870500D01*
X106883845Y-106870500D01*
X106762524Y-107100390D01*
X106349000Y-107100390D01*
X106349000Y-104560390D01*
X106762524Y-104560390D01*
X106807175Y-104707599D01*
X106932359Y-104970420D01*
X107106412Y-105203769D01*
X107322645Y-105398678D01*
X107448255Y-105473500D01*
X107322645Y-105548322D01*
X107106412Y-105743231D01*
X106932359Y-105976580D01*
X106807175Y-106239401D01*
X106762524Y-106386610D01*
X106883845Y-106616500D01*
X108077000Y-106616500D01*
X108077000Y-104330500D01*
X106883845Y-104330500D01*
X106762524Y-104560390D01*
X106349000Y-104560390D01*
X106349000Y-102020390D01*
X106762524Y-102020390D01*
X106807175Y-102167599D01*
X106932359Y-102430420D01*
X107106412Y-102663769D01*
X107322645Y-102858678D01*
X107448255Y-102933500D01*
X107322645Y-103008322D01*
X107106412Y-103203231D01*
X106932359Y-103436580D01*
X106807175Y-103699401D01*
X106762524Y-103846610D01*
X106883845Y-104076500D01*
X108077000Y-104076500D01*
X108077000Y-101790500D01*
X106883845Y-101790500D01*
X106762524Y-102020390D01*
X106349000Y-102020390D01*
X106349000Y-99480390D01*
X106762524Y-99480390D01*
X106807175Y-99627599D01*
X106932359Y-99890420D01*
X107106412Y-100123769D01*
X107322645Y-100318678D01*
X107448255Y-100393500D01*
X107322645Y-100468322D01*
X107106412Y-100663231D01*
X106932359Y-100896580D01*
X106807175Y-101159401D01*
X106762524Y-101306610D01*
X106883845Y-101536500D01*
X108077000Y-101536500D01*
X108077000Y-99250500D01*
X106883845Y-99250500D01*
X106762524Y-99480390D01*
X106349000Y-99480390D01*
X106349000Y-96940390D01*
X106762524Y-96940390D01*
X106807175Y-97087599D01*
X106932359Y-97350420D01*
X107106412Y-97583769D01*
X107322645Y-97778678D01*
X107448255Y-97853500D01*
X107322645Y-97928322D01*
X107106412Y-98123231D01*
X106932359Y-98356580D01*
X106807175Y-98619401D01*
X106762524Y-98766610D01*
X106883845Y-98996500D01*
X108077000Y-98996500D01*
X108077000Y-96710500D01*
X106883845Y-96710500D01*
X106762524Y-96940390D01*
X106349000Y-96940390D01*
X106349000Y-94400390D01*
X106762524Y-94400390D01*
X106807175Y-94547599D01*
X106932359Y-94810420D01*
X107106412Y-95043769D01*
X107322645Y-95238678D01*
X107448255Y-95313500D01*
X107322645Y-95388322D01*
X107106412Y-95583231D01*
X106932359Y-95816580D01*
X106807175Y-96079401D01*
X106762524Y-96226610D01*
X106883845Y-96456500D01*
X108077000Y-96456500D01*
X108077000Y-94170500D01*
X106883845Y-94170500D01*
X106762524Y-94400390D01*
X106349000Y-94400390D01*
X106349000Y-91860390D01*
X106762524Y-91860390D01*
X106807175Y-92007599D01*
X106932359Y-92270420D01*
X107106412Y-92503769D01*
X107322645Y-92698678D01*
X107448255Y-92773500D01*
X107322645Y-92848322D01*
X107106412Y-93043231D01*
X106932359Y-93276580D01*
X106807175Y-93539401D01*
X106762524Y-93686610D01*
X106883845Y-93916500D01*
X108077000Y-93916500D01*
X108077000Y-91630500D01*
X106883845Y-91630500D01*
X106762524Y-91860390D01*
X106349000Y-91860390D01*
X106349000Y-89320390D01*
X106762524Y-89320390D01*
X106807175Y-89467599D01*
X106932359Y-89730420D01*
X107106412Y-89963769D01*
X107322645Y-90158678D01*
X107448255Y-90233500D01*
X107322645Y-90308322D01*
X107106412Y-90503231D01*
X106932359Y-90736580D01*
X106807175Y-90999401D01*
X106762524Y-91146610D01*
X106883845Y-91376500D01*
X108077000Y-91376500D01*
X108077000Y-89090500D01*
X106883845Y-89090500D01*
X106762524Y-89320390D01*
X106349000Y-89320390D01*
X106349000Y-86780390D01*
X106762524Y-86780390D01*
X106807175Y-86927599D01*
X106932359Y-87190420D01*
X107106412Y-87423769D01*
X107322645Y-87618678D01*
X107448255Y-87693500D01*
X107322645Y-87768322D01*
X107106412Y-87963231D01*
X106932359Y-88196580D01*
X106807175Y-88459401D01*
X106762524Y-88606610D01*
X106883845Y-88836500D01*
X108077000Y-88836500D01*
X108077000Y-86550500D01*
X106883845Y-86550500D01*
X106762524Y-86780390D01*
X106349000Y-86780390D01*
X106349000Y-84240390D01*
X106762524Y-84240390D01*
X106807175Y-84387599D01*
X106932359Y-84650420D01*
X107106412Y-84883769D01*
X107322645Y-85078678D01*
X107448255Y-85153500D01*
X107322645Y-85228322D01*
X107106412Y-85423231D01*
X106932359Y-85656580D01*
X106807175Y-85919401D01*
X106762524Y-86066610D01*
X106883845Y-86296500D01*
X108077000Y-86296500D01*
X108077000Y-84010500D01*
X106883845Y-84010500D01*
X106762524Y-84240390D01*
X106349000Y-84240390D01*
X106349000Y-81700390D01*
X106762524Y-81700390D01*
X106807175Y-81847599D01*
X106932359Y-82110420D01*
X107106412Y-82343769D01*
X107322645Y-82538678D01*
X107448255Y-82613500D01*
X107322645Y-82688322D01*
X107106412Y-82883231D01*
X106932359Y-83116580D01*
X106807175Y-83379401D01*
X106762524Y-83526610D01*
X106883845Y-83756500D01*
X108077000Y-83756500D01*
X108077000Y-81470500D01*
X106883845Y-81470500D01*
X106762524Y-81700390D01*
X106349000Y-81700390D01*
X106349000Y-79160390D01*
X106762524Y-79160390D01*
X106807175Y-79307599D01*
X106932359Y-79570420D01*
X107106412Y-79803769D01*
X107322645Y-79998678D01*
X107448255Y-80073500D01*
X107322645Y-80148322D01*
X107106412Y-80343231D01*
X106932359Y-80576580D01*
X106807175Y-80839401D01*
X106762524Y-80986610D01*
X106883845Y-81216500D01*
X108077000Y-81216500D01*
X108077000Y-78930500D01*
X106883845Y-78930500D01*
X106762524Y-79160390D01*
X106349000Y-79160390D01*
X106349000Y-76620390D01*
X106762524Y-76620390D01*
X106807175Y-76767599D01*
X106932359Y-77030420D01*
X107106412Y-77263769D01*
X107322645Y-77458678D01*
X107448255Y-77533500D01*
X107322645Y-77608322D01*
X107106412Y-77803231D01*
X106932359Y-78036580D01*
X106807175Y-78299401D01*
X106762524Y-78446610D01*
X106883845Y-78676500D01*
X108077000Y-78676500D01*
X108077000Y-76390500D01*
X106883845Y-76390500D01*
X106762524Y-76620390D01*
X106349000Y-76620390D01*
X106349000Y-74080390D01*
X106762524Y-74080390D01*
X106807175Y-74227599D01*
X106932359Y-74490420D01*
X107106412Y-74723769D01*
X107322645Y-74918678D01*
X107448255Y-74993500D01*
X107322645Y-75068322D01*
X107106412Y-75263231D01*
X106932359Y-75496580D01*
X106807175Y-75759401D01*
X106762524Y-75906610D01*
X106883845Y-76136500D01*
X108077000Y-76136500D01*
X108077000Y-73850500D01*
X106883845Y-73850500D01*
X106762524Y-74080390D01*
X106349000Y-74080390D01*
X106349000Y-71540390D01*
X106762524Y-71540390D01*
X106807175Y-71687599D01*
X106932359Y-71950420D01*
X107106412Y-72183769D01*
X107322645Y-72378678D01*
X107448255Y-72453500D01*
X107322645Y-72528322D01*
X107106412Y-72723231D01*
X106932359Y-72956580D01*
X106807175Y-73219401D01*
X106762524Y-73366610D01*
X106883845Y-73596500D01*
X108077000Y-73596500D01*
X108077000Y-71310500D01*
X106883845Y-71310500D01*
X106762524Y-71540390D01*
X106349000Y-71540390D01*
X106349000Y-69493500D01*
X106715928Y-69493500D01*
X106728188Y-69617982D01*
X106764498Y-69737680D01*
X106823463Y-69847994D01*
X106902815Y-69944685D01*
X106999506Y-70024037D01*
X107109820Y-70083002D01*
X107190466Y-70107466D01*
X107106412Y-70183231D01*
X106932359Y-70416580D01*
X106807175Y-70679401D01*
X106762524Y-70826610D01*
X106883845Y-71056500D01*
X108077000Y-71056500D01*
X108077000Y-68770500D01*
X106877750Y-68770500D01*
X106719000Y-68929250D01*
X106715928Y-69493500D01*
X106349000Y-69493500D01*
X106349000Y-67793500D01*
X106715928Y-67793500D01*
X106719000Y-68357750D01*
X106877750Y-68516500D01*
X108077000Y-68516500D01*
X108077000Y-67317250D01*
X108331000Y-67317250D01*
X108331000Y-68516500D01*
X108351000Y-68516500D01*
X108351000Y-68770500D01*
X108331000Y-68770500D01*
X108331000Y-71056500D01*
X108351000Y-71056500D01*
X108351000Y-71310500D01*
X108331000Y-71310500D01*
X108331000Y-73596500D01*
X108351000Y-73596500D01*
X108351000Y-73850500D01*
X108331000Y-73850500D01*
X108331000Y-76136500D01*
X108351000Y-76136500D01*
X108351000Y-76390500D01*
X108331000Y-76390500D01*
X108331000Y-78676500D01*
X108351000Y-78676500D01*
X108351000Y-78930500D01*
X108331000Y-78930500D01*
X108331000Y-81216500D01*
X108351000Y-81216500D01*
X108351000Y-81470500D01*
X108331000Y-81470500D01*
X108331000Y-83756500D01*
X108351000Y-83756500D01*
X108351000Y-84010500D01*
X108331000Y-84010500D01*
X108331000Y-86296500D01*
X108351000Y-86296500D01*
X108351000Y-86550500D01*
X108331000Y-86550500D01*
X108331000Y-88836500D01*
X108351000Y-88836500D01*
X108351000Y-89090500D01*
X108331000Y-89090500D01*
X108331000Y-91376500D01*
X108351000Y-91376500D01*
X108351000Y-91630500D01*
X108331000Y-91630500D01*
X108331000Y-93916500D01*
X108351000Y-93916500D01*
X108351000Y-94170500D01*
X108331000Y-94170500D01*
X108331000Y-96456500D01*
X108351000Y-96456500D01*
X108351000Y-96710500D01*
X108331000Y-96710500D01*
X108331000Y-98996500D01*
X108351000Y-98996500D01*
X108351000Y-99250500D01*
X108331000Y-99250500D01*
X108331000Y-101536500D01*
X108351000Y-101536500D01*
X108351000Y-101790500D01*
X108331000Y-101790500D01*
X108331000Y-104076500D01*
X108351000Y-104076500D01*
X108351000Y-104330500D01*
X108331000Y-104330500D01*
X108331000Y-106616500D01*
X108351000Y-106616500D01*
X108351000Y-106870500D01*
X108331000Y-106870500D01*
X108331000Y-109156500D01*
X108351000Y-109156500D01*
X108351000Y-109410500D01*
X108331000Y-109410500D01*
X108331000Y-110604314D01*
X108560891Y-110724981D01*
X108835252Y-110627657D01*
X109085355Y-110478678D01*
X109301588Y-110283769D01*
X109472900Y-110054094D01*
X109590525Y-110230132D01*
X109797368Y-110436975D01*
X110040589Y-110599490D01*
X110310842Y-110711432D01*
X110597740Y-110768500D01*
X110890260Y-110768500D01*
X111177158Y-110711432D01*
X111447411Y-110599490D01*
X111690632Y-110436975D01*
X111897475Y-110230132D01*
X112059990Y-109986911D01*
X112171932Y-109716658D01*
X112229000Y-109429760D01*
X112229000Y-109137240D01*
X112171932Y-108850342D01*
X112059990Y-108580089D01*
X111897475Y-108336868D01*
X111690632Y-108130025D01*
X111516240Y-108013500D01*
X111690632Y-107896975D01*
X111897475Y-107690132D01*
X112059990Y-107446911D01*
X112171932Y-107176658D01*
X112229000Y-106889760D01*
X112229000Y-106597240D01*
X112171932Y-106310342D01*
X112059990Y-106040089D01*
X111897475Y-105796868D01*
X111690632Y-105590025D01*
X111516240Y-105473500D01*
X111690632Y-105356975D01*
X111897475Y-105150132D01*
X112059990Y-104906911D01*
X112171932Y-104636658D01*
X112229000Y-104349760D01*
X112229000Y-104057240D01*
X112171932Y-103770342D01*
X112059990Y-103500089D01*
X111897475Y-103256868D01*
X111690632Y-103050025D01*
X111516240Y-102933500D01*
X111690632Y-102816975D01*
X111897475Y-102610132D01*
X112059990Y-102366911D01*
X112171932Y-102096658D01*
X112229000Y-101809760D01*
X112229000Y-101517240D01*
X112171932Y-101230342D01*
X112059990Y-100960089D01*
X111897475Y-100716868D01*
X111690632Y-100510025D01*
X111516240Y-100393500D01*
X111690632Y-100276975D01*
X111897475Y-100070132D01*
X112059990Y-99826911D01*
X112171932Y-99556658D01*
X112229000Y-99269760D01*
X112229000Y-98977240D01*
X112171932Y-98690342D01*
X112059990Y-98420089D01*
X111897475Y-98176868D01*
X111690632Y-97970025D01*
X111516240Y-97853500D01*
X111690632Y-97736975D01*
X111897475Y-97530132D01*
X112059990Y-97286911D01*
X112171932Y-97016658D01*
X112229000Y-96729760D01*
X112229000Y-96437240D01*
X112171932Y-96150342D01*
X112059990Y-95880089D01*
X111897475Y-95636868D01*
X111690632Y-95430025D01*
X111516240Y-95313500D01*
X111690632Y-95196975D01*
X111897475Y-94990132D01*
X112059990Y-94746911D01*
X112171932Y-94476658D01*
X112229000Y-94189760D01*
X112229000Y-93897240D01*
X112171932Y-93610342D01*
X112059990Y-93340089D01*
X111897475Y-93096868D01*
X111690632Y-92890025D01*
X111516240Y-92773500D01*
X111690632Y-92656975D01*
X111897475Y-92450132D01*
X112059990Y-92206911D01*
X112171932Y-91936658D01*
X112229000Y-91649760D01*
X112229000Y-91357240D01*
X112171932Y-91070342D01*
X112059990Y-90800089D01*
X111897475Y-90556868D01*
X111690632Y-90350025D01*
X111516240Y-90233500D01*
X111690632Y-90116975D01*
X111897475Y-89910132D01*
X112059990Y-89666911D01*
X112171932Y-89396658D01*
X112229000Y-89109760D01*
X112229000Y-88817240D01*
X112171932Y-88530342D01*
X112059990Y-88260089D01*
X111897475Y-88016868D01*
X111690632Y-87810025D01*
X111516240Y-87693500D01*
X111690632Y-87576975D01*
X111897475Y-87370132D01*
X112059990Y-87126911D01*
X112171932Y-86856658D01*
X112229000Y-86569760D01*
X112229000Y-86277240D01*
X112171932Y-85990342D01*
X112059990Y-85720089D01*
X111897475Y-85476868D01*
X111690632Y-85270025D01*
X111516240Y-85153500D01*
X111690632Y-85036975D01*
X111897475Y-84830132D01*
X112059990Y-84586911D01*
X112171932Y-84316658D01*
X112229000Y-84029760D01*
X112229000Y-83737240D01*
X112171932Y-83450342D01*
X112059990Y-83180089D01*
X111897475Y-82936868D01*
X111690632Y-82730025D01*
X111516240Y-82613500D01*
X111690632Y-82496975D01*
X111897475Y-82290132D01*
X112059990Y-82046911D01*
X112171932Y-81776658D01*
X112229000Y-81489760D01*
X112229000Y-81197240D01*
X112171932Y-80910342D01*
X112059990Y-80640089D01*
X111897475Y-80396868D01*
X111690632Y-80190025D01*
X111516240Y-80073500D01*
X111690632Y-79956975D01*
X111897475Y-79750132D01*
X112059990Y-79506911D01*
X112171932Y-79236658D01*
X112229000Y-78949760D01*
X112229000Y-78657240D01*
X112171932Y-78370342D01*
X112059990Y-78100089D01*
X111897475Y-77856868D01*
X111690632Y-77650025D01*
X111516240Y-77533500D01*
X111690632Y-77416975D01*
X111897475Y-77210132D01*
X112059990Y-76966911D01*
X112171932Y-76696658D01*
X112229000Y-76409760D01*
X112229000Y-76117240D01*
X112171932Y-75830342D01*
X112059990Y-75560089D01*
X111897475Y-75316868D01*
X111690632Y-75110025D01*
X111516240Y-74993500D01*
X111690632Y-74876975D01*
X111897475Y-74670132D01*
X112059990Y-74426911D01*
X112171932Y-74156658D01*
X112229000Y-73869760D01*
X112229000Y-73577240D01*
X112171932Y-73290342D01*
X112059990Y-73020089D01*
X111897475Y-72776868D01*
X111690632Y-72570025D01*
X111516240Y-72453500D01*
X111690632Y-72336975D01*
X111897475Y-72130132D01*
X112059990Y-71886911D01*
X112171932Y-71616658D01*
X112229000Y-71329760D01*
X112229000Y-71037240D01*
X112171932Y-70750342D01*
X112059990Y-70480089D01*
X111897475Y-70236868D01*
X111690632Y-70030025D01*
X111516240Y-69913500D01*
X111690632Y-69796975D01*
X111897475Y-69590132D01*
X112059990Y-69346911D01*
X112171932Y-69076658D01*
X112229000Y-68789760D01*
X112229000Y-68497240D01*
X112171932Y-68210342D01*
X112059990Y-67940089D01*
X111897475Y-67696868D01*
X111690632Y-67490025D01*
X111447411Y-67327510D01*
X111177158Y-67215568D01*
X110890260Y-67158500D01*
X110597740Y-67158500D01*
X110310842Y-67215568D01*
X110040589Y-67327510D01*
X109797368Y-67490025D01*
X109665513Y-67621880D01*
X109643502Y-67549320D01*
X109584537Y-67439006D01*
X109505185Y-67342315D01*
X109408494Y-67262963D01*
X109298180Y-67203998D01*
X109178482Y-67167688D01*
X109054000Y-67155428D01*
X108489750Y-67158500D01*
X108331000Y-67317250D01*
X108077000Y-67317250D01*
X107918250Y-67158500D01*
X107354000Y-67155428D01*
X107229518Y-67167688D01*
X107109820Y-67203998D01*
X106999506Y-67262963D01*
X106902815Y-67342315D01*
X106823463Y-67439006D01*
X106764498Y-67549320D01*
X106728188Y-67669018D01*
X106715928Y-67793500D01*
X106349000Y-67793500D01*
X106349000Y-66083501D01*
X112414718Y-66083501D01*
X112418999Y-66126970D01*
X112419000Y-87670020D01*
X112414718Y-87713499D01*
X112431804Y-87886989D01*
X112482411Y-88053812D01*
X112564589Y-88207558D01*
X112647467Y-88308545D01*
X112647470Y-88308548D01*
X112675183Y-88342316D01*
X112708950Y-88370028D01*
X113115928Y-88777006D01*
X113115928Y-89149994D01*
X112708955Y-89556967D01*
X112675182Y-89584684D01*
X112564588Y-89719443D01*
X112482410Y-89873189D01*
X112431804Y-90040012D01*
X112418999Y-90170025D01*
X112418999Y-90170032D01*
X112414718Y-90213501D01*
X112418999Y-90256970D01*
X112419000Y-121106580D01*
X112414718Y-121150059D01*
X112431804Y-121323549D01*
X112482411Y-121490372D01*
X112564589Y-121644118D01*
X112647467Y-121745105D01*
X112647470Y-121745108D01*
X112675183Y-121778876D01*
X112708950Y-121806588D01*
X114297581Y-123395220D01*
X114283120Y-123467920D01*
X114283120Y-123760440D01*
X114340188Y-124047338D01*
X114452130Y-124317591D01*
X114614645Y-124560812D01*
X114821488Y-124767655D01*
X115064709Y-124930170D01*
X115334962Y-125042112D01*
X115621860Y-125099180D01*
X115914380Y-125099180D01*
X116201278Y-125042112D01*
X116471531Y-124930170D01*
X116714752Y-124767655D01*
X116921595Y-124560812D01*
X117084110Y-124317591D01*
X117196052Y-124047338D01*
X117253120Y-123760440D01*
X117253120Y-123467920D01*
X117196052Y-123181022D01*
X117084110Y-122910769D01*
X116921595Y-122667548D01*
X116714752Y-122460705D01*
X116532586Y-122338985D01*
X116649475Y-122269358D01*
X116865708Y-122074449D01*
X117039761Y-121841100D01*
X117164945Y-121578279D01*
X117209596Y-121431070D01*
X117088275Y-121201180D01*
X115895120Y-121201180D01*
X115895120Y-121221180D01*
X115641120Y-121221180D01*
X115641120Y-121201180D01*
X115621120Y-121201180D01*
X115621120Y-120947180D01*
X115641120Y-120947180D01*
X115641120Y-118661180D01*
X115895120Y-118661180D01*
X115895120Y-120947180D01*
X117088275Y-120947180D01*
X117209596Y-120717290D01*
X117164945Y-120570081D01*
X117039761Y-120307260D01*
X116865708Y-120073911D01*
X116649475Y-119879002D01*
X116523865Y-119804180D01*
X116649475Y-119729358D01*
X116726975Y-119659500D01*
X126577928Y-119659500D01*
X126577928Y-121259500D01*
X126590188Y-121383982D01*
X126626498Y-121503680D01*
X126685463Y-121613994D01*
X126764815Y-121710685D01*
X126861506Y-121790037D01*
X126971820Y-121849002D01*
X127091518Y-121885312D01*
X127216000Y-121897572D01*
X128816000Y-121897572D01*
X128940482Y-121885312D01*
X129060180Y-121849002D01*
X129170494Y-121790037D01*
X129267185Y-121710685D01*
X129346537Y-121613994D01*
X129405502Y-121503680D01*
X129441812Y-121383982D01*
X129454072Y-121259500D01*
X129454072Y-119659500D01*
X129442772Y-119544761D01*
X140747800Y-119544761D01*
X140747800Y-119748639D01*
X140787574Y-119948598D01*
X140865595Y-120136956D01*
X140978863Y-120306474D01*
X141123026Y-120450637D01*
X141126401Y-120452892D01*
X141126400Y-125458246D01*
X141094195Y-125506444D01*
X141016174Y-125694802D01*
X140976400Y-125894761D01*
X140976400Y-126098639D01*
X141016174Y-126298598D01*
X141094195Y-126486956D01*
X141207463Y-126656474D01*
X141351626Y-126800637D01*
X141521144Y-126913905D01*
X141709502Y-126991926D01*
X141909461Y-127031700D01*
X142113339Y-127031700D01*
X142313298Y-126991926D01*
X142501656Y-126913905D01*
X142671174Y-126800637D01*
X142815337Y-126656474D01*
X142928605Y-126486956D01*
X143006626Y-126298598D01*
X143046400Y-126098639D01*
X143046400Y-125894761D01*
X143006626Y-125694802D01*
X142928605Y-125506444D01*
X142896400Y-125458246D01*
X142896400Y-124841202D01*
X151967903Y-124841202D01*
X152039486Y-125085171D01*
X152294996Y-125206071D01*
X152569184Y-125274800D01*
X152851512Y-125288717D01*
X153131130Y-125247287D01*
X153397292Y-125152103D01*
X153522514Y-125085171D01*
X153594097Y-124841202D01*
X152781000Y-124028105D01*
X151967903Y-124841202D01*
X142896400Y-124841202D01*
X142896400Y-123919012D01*
X151340783Y-123919012D01*
X151382213Y-124198630D01*
X151477397Y-124464792D01*
X151544329Y-124590014D01*
X151788298Y-124661597D01*
X152601395Y-123848500D01*
X152960605Y-123848500D01*
X153773702Y-124661597D01*
X154017671Y-124590014D01*
X154138571Y-124334504D01*
X154207300Y-124060316D01*
X154221217Y-123777988D01*
X154179787Y-123498370D01*
X154084603Y-123232208D01*
X154017671Y-123106986D01*
X153773702Y-123035403D01*
X152960605Y-123848500D01*
X152601395Y-123848500D01*
X151788298Y-123035403D01*
X151544329Y-123106986D01*
X151423429Y-123362496D01*
X151354700Y-123636684D01*
X151340783Y-123919012D01*
X142896400Y-123919012D01*
X142896400Y-119918765D01*
X142900681Y-119875299D01*
X142896400Y-119831833D01*
X142896400Y-119831823D01*
X142883595Y-119701810D01*
X142832989Y-119534987D01*
X142805701Y-119483934D01*
X142778026Y-119344802D01*
X142700005Y-119156444D01*
X142586737Y-118986926D01*
X142442574Y-118842763D01*
X142273056Y-118729495D01*
X142084698Y-118651474D01*
X141884739Y-118611700D01*
X141680861Y-118611700D01*
X141480902Y-118651474D01*
X141292544Y-118729495D01*
X141123026Y-118842763D01*
X140978863Y-118986926D01*
X140865595Y-119156444D01*
X140787574Y-119344802D01*
X140747800Y-119544761D01*
X129442772Y-119544761D01*
X129441812Y-119535018D01*
X129405502Y-119415320D01*
X129346537Y-119305006D01*
X129267185Y-119208315D01*
X129170494Y-119128963D01*
X129060180Y-119069998D01*
X128940482Y-119033688D01*
X128816000Y-119021428D01*
X128808785Y-119021428D01*
X128829097Y-118952202D01*
X128016000Y-118139105D01*
X127202903Y-118952202D01*
X127223215Y-119021428D01*
X127216000Y-119021428D01*
X127091518Y-119033688D01*
X126971820Y-119069998D01*
X126861506Y-119128963D01*
X126764815Y-119208315D01*
X126685463Y-119305006D01*
X126626498Y-119415320D01*
X126590188Y-119535018D01*
X126577928Y-119659500D01*
X116726975Y-119659500D01*
X116865708Y-119534449D01*
X117039761Y-119301100D01*
X117164945Y-119038279D01*
X117209596Y-118891070D01*
X117088275Y-118661180D01*
X115895120Y-118661180D01*
X115641120Y-118661180D01*
X114447965Y-118661180D01*
X114326644Y-118891070D01*
X114371295Y-119038279D01*
X114496479Y-119301100D01*
X114670532Y-119534449D01*
X114886765Y-119729358D01*
X115012375Y-119804180D01*
X114886765Y-119879002D01*
X114670532Y-120073911D01*
X114496479Y-120307260D01*
X114371295Y-120570081D01*
X114326644Y-120717290D01*
X114447964Y-120947178D01*
X114352696Y-120947178D01*
X114188999Y-120783481D01*
X114188999Y-115847920D01*
X114283120Y-115847920D01*
X114283120Y-116140440D01*
X114340188Y-116427338D01*
X114452130Y-116697591D01*
X114614645Y-116940812D01*
X114821488Y-117147655D01*
X115003654Y-117269375D01*
X114886765Y-117339002D01*
X114670532Y-117533911D01*
X114496479Y-117767260D01*
X114371295Y-118030081D01*
X114326644Y-118177290D01*
X114447965Y-118407180D01*
X115641120Y-118407180D01*
X115641120Y-118387180D01*
X115895120Y-118387180D01*
X115895120Y-118407180D01*
X117088275Y-118407180D01*
X117209596Y-118177290D01*
X117164945Y-118030081D01*
X117164913Y-118030012D01*
X126575783Y-118030012D01*
X126617213Y-118309630D01*
X126712397Y-118575792D01*
X126779329Y-118701014D01*
X127023298Y-118772597D01*
X127836395Y-117959500D01*
X128195605Y-117959500D01*
X129008702Y-118772597D01*
X129252671Y-118701014D01*
X129373571Y-118445504D01*
X129442300Y-118171316D01*
X129456217Y-117888988D01*
X129414787Y-117609370D01*
X129319603Y-117343208D01*
X129252671Y-117217986D01*
X129008702Y-117146403D01*
X128195605Y-117959500D01*
X127836395Y-117959500D01*
X127023298Y-117146403D01*
X126779329Y-117217986D01*
X126658429Y-117473496D01*
X126589700Y-117747684D01*
X126575783Y-118030012D01*
X117164913Y-118030012D01*
X117039761Y-117767260D01*
X116865708Y-117533911D01*
X116649475Y-117339002D01*
X116532586Y-117269375D01*
X116714752Y-117147655D01*
X116895609Y-116966798D01*
X127202903Y-116966798D01*
X128016000Y-117779895D01*
X128829097Y-116966798D01*
X128757514Y-116722829D01*
X128602968Y-116649702D01*
X151840903Y-116649702D01*
X151912486Y-116893671D01*
X152167996Y-117014571D01*
X152442184Y-117083300D01*
X152724512Y-117097217D01*
X153004130Y-117055787D01*
X153270292Y-116960603D01*
X153395514Y-116893671D01*
X153467097Y-116649702D01*
X152654000Y-115836605D01*
X151840903Y-116649702D01*
X128602968Y-116649702D01*
X128502004Y-116601929D01*
X128227816Y-116533200D01*
X127945488Y-116519283D01*
X127665870Y-116560713D01*
X127399708Y-116655897D01*
X127274486Y-116722829D01*
X127202903Y-116966798D01*
X116895609Y-116966798D01*
X116921595Y-116940812D01*
X117084110Y-116697591D01*
X117196052Y-116427338D01*
X117253120Y-116140440D01*
X117253120Y-115847920D01*
X117229170Y-115727512D01*
X151213783Y-115727512D01*
X151255213Y-116007130D01*
X151350397Y-116273292D01*
X151417329Y-116398514D01*
X151661298Y-116470097D01*
X152474395Y-115657000D01*
X152833605Y-115657000D01*
X153646702Y-116470097D01*
X153890671Y-116398514D01*
X154011571Y-116143004D01*
X154080300Y-115868816D01*
X154094217Y-115586488D01*
X154052787Y-115306870D01*
X153957603Y-115040708D01*
X153890671Y-114915486D01*
X153646702Y-114843903D01*
X152833605Y-115657000D01*
X152474395Y-115657000D01*
X151661298Y-114843903D01*
X151417329Y-114915486D01*
X151296429Y-115170996D01*
X151227700Y-115445184D01*
X151213783Y-115727512D01*
X117229170Y-115727512D01*
X117196052Y-115561022D01*
X117084110Y-115290769D01*
X116921595Y-115047548D01*
X116714752Y-114840705D01*
X116471531Y-114678190D01*
X116201278Y-114566248D01*
X115914380Y-114509180D01*
X115621860Y-114509180D01*
X115334962Y-114566248D01*
X115064709Y-114678190D01*
X114821488Y-114840705D01*
X114614645Y-115047548D01*
X114452130Y-115290769D01*
X114340188Y-115561022D01*
X114283120Y-115847920D01*
X114188999Y-115847920D01*
X114188999Y-110674009D01*
X114412665Y-110718500D01*
X114695335Y-110718500D01*
X114972574Y-110663353D01*
X115233727Y-110555180D01*
X115468759Y-110398137D01*
X115668637Y-110198259D01*
X115825680Y-109963227D01*
X115933853Y-109702074D01*
X115989000Y-109424835D01*
X115989000Y-109142165D01*
X115933853Y-108864926D01*
X115825680Y-108603773D01*
X115668637Y-108368741D01*
X115468759Y-108168863D01*
X115236241Y-108013500D01*
X115468759Y-107858137D01*
X115668637Y-107658259D01*
X115825680Y-107423227D01*
X115933853Y-107162074D01*
X115989000Y-106884835D01*
X115989000Y-106602165D01*
X115933853Y-106324926D01*
X115825680Y-106063773D01*
X115668637Y-105828741D01*
X115468759Y-105628863D01*
X115236241Y-105473500D01*
X115468759Y-105318137D01*
X115668637Y-105118259D01*
X115825680Y-104883227D01*
X115933853Y-104622074D01*
X115989000Y-104344835D01*
X115989000Y-104062165D01*
X115933853Y-103784926D01*
X115825680Y-103523773D01*
X115668637Y-103288741D01*
X115468759Y-103088863D01*
X115236241Y-102933500D01*
X115468759Y-102778137D01*
X115668637Y-102578259D01*
X115825680Y-102343227D01*
X115933853Y-102082074D01*
X115989000Y-101804835D01*
X115989000Y-101522165D01*
X115933853Y-101244926D01*
X115825680Y-100983773D01*
X115668637Y-100748741D01*
X115468759Y-100548863D01*
X115236241Y-100393500D01*
X115468759Y-100238137D01*
X115668637Y-100038259D01*
X115825680Y-99803227D01*
X115933853Y-99542074D01*
X115989000Y-99264835D01*
X115989000Y-98982165D01*
X115933853Y-98704926D01*
X115825680Y-98443773D01*
X115668637Y-98208741D01*
X115468759Y-98008863D01*
X115236241Y-97853500D01*
X115468759Y-97698137D01*
X115668637Y-97498259D01*
X115825680Y-97263227D01*
X115933853Y-97002074D01*
X115989000Y-96724835D01*
X115989000Y-96442165D01*
X115933853Y-96164926D01*
X115825680Y-95903773D01*
X115668637Y-95668741D01*
X115468759Y-95468863D01*
X115236241Y-95313500D01*
X115468759Y-95158137D01*
X115668637Y-94958259D01*
X115825680Y-94723227D01*
X115933853Y-94462074D01*
X115989000Y-94184835D01*
X115989000Y-93902165D01*
X115933853Y-93624926D01*
X115918573Y-93588035D01*
X117872700Y-93588035D01*
X117872700Y-93762365D01*
X117906710Y-93933345D01*
X117973423Y-94094405D01*
X118070276Y-94239355D01*
X118193545Y-94362624D01*
X118338495Y-94459477D01*
X118499555Y-94526190D01*
X118670535Y-94560200D01*
X118844865Y-94560200D01*
X119015845Y-94526190D01*
X119176905Y-94459477D01*
X119250653Y-94410200D01*
X134900956Y-94410200D01*
X137434950Y-96944195D01*
X137379023Y-97027895D01*
X137312310Y-97188955D01*
X137295006Y-97275948D01*
X137135708Y-97435246D01*
X137107663Y-97458262D01*
X137015814Y-97570180D01*
X136974840Y-97646837D01*
X136947564Y-97697867D01*
X136905535Y-97836415D01*
X136891344Y-97980500D01*
X136894901Y-98016615D01*
X136894900Y-105526647D01*
X136845623Y-105600395D01*
X136778910Y-105761455D01*
X136744900Y-105932435D01*
X136744900Y-106106765D01*
X136770825Y-106237100D01*
X122539953Y-106237100D01*
X122466205Y-106187823D01*
X122305145Y-106121110D01*
X122134165Y-106087100D01*
X121959835Y-106087100D01*
X121788855Y-106121110D01*
X121627795Y-106187823D01*
X121482845Y-106284676D01*
X121359576Y-106407945D01*
X121262723Y-106552895D01*
X121196010Y-106713955D01*
X121162000Y-106884935D01*
X121162000Y-107059265D01*
X121196010Y-107230245D01*
X121262723Y-107391305D01*
X121359576Y-107536255D01*
X121482845Y-107659524D01*
X121627795Y-107756377D01*
X121788855Y-107823090D01*
X121959835Y-107857100D01*
X122134165Y-107857100D01*
X122305145Y-107823090D01*
X122466205Y-107756377D01*
X122539953Y-107707100D01*
X137420688Y-107707100D01*
X137422330Y-107707419D01*
X137492949Y-107707100D01*
X137527507Y-107707100D01*
X137529168Y-107706936D01*
X137567110Y-107706765D01*
X137601030Y-107699859D01*
X137635487Y-107696465D01*
X137671801Y-107685449D01*
X137708982Y-107677879D01*
X137740904Y-107664487D01*
X137774035Y-107654437D01*
X137807507Y-107636546D01*
X137842492Y-107621869D01*
X137871183Y-107602510D01*
X137901722Y-107586187D01*
X137931061Y-107562109D01*
X137932435Y-107561182D01*
X137958897Y-107539264D01*
X138013640Y-107494338D01*
X138014703Y-107493042D01*
X139287316Y-106438986D01*
X139268110Y-106485355D01*
X139234100Y-106656335D01*
X139234100Y-106830665D01*
X139268110Y-107001645D01*
X139334823Y-107162705D01*
X139431676Y-107307655D01*
X139554945Y-107430924D01*
X139699895Y-107527777D01*
X139860955Y-107594490D01*
X140031935Y-107628500D01*
X140206265Y-107628500D01*
X140377245Y-107594490D01*
X140538305Y-107527777D01*
X140683255Y-107430924D01*
X140806524Y-107307655D01*
X140903377Y-107162705D01*
X140950635Y-107048614D01*
X141040845Y-107138824D01*
X141185795Y-107235677D01*
X141346855Y-107302390D01*
X141517835Y-107336400D01*
X141692165Y-107336400D01*
X141863145Y-107302390D01*
X142024205Y-107235677D01*
X142169155Y-107138824D01*
X142292424Y-107015555D01*
X142389277Y-106870605D01*
X142455990Y-106709545D01*
X142490000Y-106538565D01*
X142490000Y-106364235D01*
X142455990Y-106193255D01*
X142389277Y-106032195D01*
X142340000Y-105958447D01*
X142340000Y-105638246D01*
X145591697Y-102386550D01*
X145619737Y-102363538D01*
X145642750Y-102335497D01*
X145642753Y-102335494D01*
X145679853Y-102290287D01*
X145711587Y-102251620D01*
X145779837Y-102123933D01*
X145821865Y-101985385D01*
X145832500Y-101877405D01*
X145832500Y-101877404D01*
X145836056Y-101841300D01*
X145832500Y-101805195D01*
X145832500Y-98690100D01*
X148744747Y-98690100D01*
X148818495Y-98739377D01*
X148979555Y-98806090D01*
X149150535Y-98840100D01*
X149324865Y-98840100D01*
X149495845Y-98806090D01*
X149656905Y-98739377D01*
X149801855Y-98642524D01*
X149878001Y-98566378D01*
X149878000Y-104209547D01*
X149828723Y-104283295D01*
X149762010Y-104444355D01*
X149728000Y-104615335D01*
X149728000Y-104789665D01*
X149762010Y-104960645D01*
X149828723Y-105121705D01*
X149925576Y-105266655D01*
X150048845Y-105389924D01*
X150193795Y-105486777D01*
X150354855Y-105553490D01*
X150525835Y-105587500D01*
X150700165Y-105587500D01*
X150871145Y-105553490D01*
X151032205Y-105486777D01*
X151177155Y-105389924D01*
X151300424Y-105266655D01*
X151397277Y-105121705D01*
X151463990Y-104960645D01*
X151498000Y-104789665D01*
X151498000Y-104615335D01*
X151463990Y-104444355D01*
X151397277Y-104283295D01*
X151348000Y-104209547D01*
X151348000Y-95629919D01*
X151769001Y-96050920D01*
X151769000Y-104063511D01*
X151764719Y-104106980D01*
X151769000Y-104150449D01*
X151769000Y-104150456D01*
X151769001Y-104150465D01*
X151769000Y-105226830D01*
X151764719Y-105270300D01*
X151769000Y-105313769D01*
X151769000Y-105313776D01*
X151769001Y-105313786D01*
X151769000Y-111727299D01*
X151729518Y-111731188D01*
X151609820Y-111767498D01*
X151499506Y-111826463D01*
X151402815Y-111905815D01*
X151323463Y-112002506D01*
X151264498Y-112112820D01*
X151228188Y-112232518D01*
X151215928Y-112357000D01*
X151215928Y-113957000D01*
X151228188Y-114081482D01*
X151264498Y-114201180D01*
X151323463Y-114311494D01*
X151402815Y-114408185D01*
X151499506Y-114487537D01*
X151609820Y-114546502D01*
X151729518Y-114582812D01*
X151854000Y-114595072D01*
X151861215Y-114595072D01*
X151840903Y-114664298D01*
X152654000Y-115477395D01*
X153467097Y-114664298D01*
X153446785Y-114595072D01*
X153454000Y-114595072D01*
X153578482Y-114582812D01*
X153698180Y-114546502D01*
X153808494Y-114487537D01*
X153905185Y-114408185D01*
X153984537Y-114311494D01*
X154043502Y-114201180D01*
X154079812Y-114081482D01*
X154092072Y-113957000D01*
X154092072Y-112357000D01*
X154079812Y-112232518D01*
X154043502Y-112112820D01*
X153984537Y-112002506D01*
X153905185Y-111905815D01*
X153808494Y-111826463D01*
X153698180Y-111767498D01*
X153578482Y-111731188D01*
X153539000Y-111727299D01*
X153539000Y-105455424D01*
X153555981Y-105283000D01*
X153539000Y-105110577D01*
X153539000Y-105098660D01*
X159628866Y-105098660D01*
X159677064Y-105130865D01*
X159865422Y-105208886D01*
X160065381Y-105248660D01*
X160269259Y-105248660D01*
X160469218Y-105208886D01*
X160657576Y-105130865D01*
X160827094Y-105017597D01*
X160971257Y-104873434D01*
X161084525Y-104703916D01*
X161162546Y-104515558D01*
X161202320Y-104315599D01*
X161202320Y-104111721D01*
X161162546Y-103911762D01*
X161108200Y-103780560D01*
X161108200Y-99661954D01*
X161140405Y-99613756D01*
X161218426Y-99425398D01*
X161258200Y-99225439D01*
X161258200Y-99021561D01*
X161218426Y-98821602D01*
X161140405Y-98633244D01*
X161027137Y-98463726D01*
X160882974Y-98319563D01*
X160713456Y-98206295D01*
X160525098Y-98128274D01*
X160325139Y-98088500D01*
X160121261Y-98088500D01*
X159921302Y-98128274D01*
X159732944Y-98206295D01*
X159563426Y-98319563D01*
X159419263Y-98463726D01*
X159305995Y-98633244D01*
X159227974Y-98821602D01*
X159188200Y-99021561D01*
X159188200Y-99225439D01*
X159227974Y-99425398D01*
X159305995Y-99613756D01*
X159338200Y-99661954D01*
X159338201Y-103328660D01*
X153539000Y-103328660D01*
X153539000Y-95727806D01*
X153543281Y-95684339D01*
X153539000Y-95640873D01*
X153539000Y-95640863D01*
X153526195Y-95510850D01*
X153475589Y-95344027D01*
X153393411Y-95190281D01*
X153345736Y-95132189D01*
X153310532Y-95089293D01*
X153310530Y-95089291D01*
X153282817Y-95055523D01*
X153249049Y-95027810D01*
X150114695Y-91893457D01*
X150103386Y-91836602D01*
X150025365Y-91648244D01*
X149912097Y-91478726D01*
X149906800Y-91473429D01*
X149906800Y-87946853D01*
X155242571Y-87910103D01*
X155240990Y-88925202D01*
X155243358Y-88949811D01*
X155250515Y-88973656D01*
X155262187Y-88995647D01*
X155277924Y-89014939D01*
X155297123Y-89030789D01*
X155319045Y-89042590D01*
X155342848Y-89049887D01*
X155367617Y-89052399D01*
X160561917Y-89067639D01*
X160587150Y-89065183D01*
X160610969Y-89057940D01*
X160632918Y-89046190D01*
X160652152Y-89030383D01*
X160667934Y-89011127D01*
X160679655Y-88989162D01*
X160686866Y-88965333D01*
X160689290Y-88940555D01*
X160681670Y-77525795D01*
X160679792Y-77506500D01*
X160847100Y-77506500D01*
X160847101Y-92157354D01*
X157043368Y-95961088D01*
X156957613Y-95969534D01*
X156931525Y-95977448D01*
X156819066Y-96011562D01*
X156691379Y-96079812D01*
X156579461Y-96171661D01*
X156556440Y-96199712D01*
X156321507Y-96434645D01*
X156293461Y-96457662D01*
X156201612Y-96569580D01*
X156133362Y-96697267D01*
X156109480Y-96775995D01*
X156091334Y-96835814D01*
X156077143Y-96979899D01*
X156080699Y-97016004D01*
X156080699Y-97471796D01*
X156077143Y-97507901D01*
X156080699Y-97544006D01*
X156091334Y-97651986D01*
X156133362Y-97790534D01*
X156201612Y-97918221D01*
X156293462Y-98030139D01*
X156321507Y-98053155D01*
X156717639Y-98449287D01*
X156740660Y-98477338D01*
X156852578Y-98569187D01*
X156980265Y-98637437D01*
X157118813Y-98679465D01*
X157262898Y-98693656D01*
X157299003Y-98690100D01*
X157558547Y-98690100D01*
X157632295Y-98739377D01*
X157793355Y-98806090D01*
X157964335Y-98840100D01*
X158138665Y-98840100D01*
X158309645Y-98806090D01*
X158470705Y-98739377D01*
X158615655Y-98642524D01*
X158738924Y-98519255D01*
X158835777Y-98374305D01*
X158902490Y-98213245D01*
X158936500Y-98042265D01*
X158936500Y-97867935D01*
X158902490Y-97696955D01*
X158835777Y-97535895D01*
X158738924Y-97390945D01*
X158615655Y-97267676D01*
X158475212Y-97173834D01*
X162495393Y-93153654D01*
X162523438Y-93130638D01*
X162615287Y-93018720D01*
X162683537Y-92891033D01*
X162712816Y-92794514D01*
X162725565Y-92752486D01*
X162739756Y-92608400D01*
X162736200Y-92572295D01*
X162736200Y-89955711D01*
X162764800Y-89984311D01*
X162764801Y-98401585D01*
X162761244Y-98437700D01*
X162775435Y-98581785D01*
X162812772Y-98704865D01*
X162817464Y-98720333D01*
X162885714Y-98848020D01*
X162977563Y-98959938D01*
X163005608Y-98982954D01*
X165030345Y-101007692D01*
X165053361Y-101035737D01*
X165165279Y-101127586D01*
X165225334Y-101159686D01*
X165196068Y-101230342D01*
X165139000Y-101517240D01*
X165139000Y-101809760D01*
X165196068Y-102096658D01*
X165308010Y-102366911D01*
X165470525Y-102610132D01*
X165677368Y-102816975D01*
X165851760Y-102933500D01*
X165677368Y-103050025D01*
X165470525Y-103256868D01*
X165308010Y-103500089D01*
X165196068Y-103770342D01*
X165139000Y-104057240D01*
X165139000Y-104349760D01*
X165196068Y-104636658D01*
X165308010Y-104906911D01*
X165470525Y-105150132D01*
X165677368Y-105356975D01*
X165920589Y-105519490D01*
X166190842Y-105631432D01*
X166477740Y-105688500D01*
X166770260Y-105688500D01*
X167057158Y-105631432D01*
X167327411Y-105519490D01*
X167570632Y-105356975D01*
X167702487Y-105225120D01*
X167724498Y-105297680D01*
X167783463Y-105407994D01*
X167862815Y-105504685D01*
X167959506Y-105584037D01*
X168069820Y-105643002D01*
X168189518Y-105679312D01*
X168314000Y-105691572D01*
X168934351Y-105691572D01*
X154205670Y-120420254D01*
X154170502Y-120304320D01*
X154111537Y-120194006D01*
X154032185Y-120097315D01*
X153935494Y-120017963D01*
X153825180Y-119958998D01*
X153705482Y-119922688D01*
X153581000Y-119910428D01*
X151981000Y-119910428D01*
X151856518Y-119922688D01*
X151736820Y-119958998D01*
X151626506Y-120017963D01*
X151529815Y-120097315D01*
X151450463Y-120194006D01*
X151391498Y-120304320D01*
X151355188Y-120424018D01*
X151342928Y-120548500D01*
X151342928Y-122148500D01*
X151355188Y-122272982D01*
X151391498Y-122392680D01*
X151450463Y-122502994D01*
X151529815Y-122599685D01*
X151626506Y-122679037D01*
X151736820Y-122738002D01*
X151856518Y-122774312D01*
X151981000Y-122786572D01*
X151988215Y-122786572D01*
X151967903Y-122855798D01*
X152781000Y-123668895D01*
X153594097Y-122855798D01*
X153573785Y-122786572D01*
X153581000Y-122786572D01*
X153705482Y-122774312D01*
X153825180Y-122738002D01*
X153935494Y-122679037D01*
X154032185Y-122599685D01*
X154111537Y-122502994D01*
X154170502Y-122392680D01*
X154206812Y-122272982D01*
X154210701Y-122233500D01*
X154485533Y-122233500D01*
X154529002Y-122237781D01*
X154572471Y-122233500D01*
X154572479Y-122233500D01*
X154702492Y-122220695D01*
X154869315Y-122170089D01*
X155023061Y-122087911D01*
X155157819Y-121977317D01*
X155185536Y-121943544D01*
X171318611Y-105810470D01*
X171352377Y-105782759D01*
X171384089Y-105744119D01*
X171462971Y-105648001D01*
X171545149Y-105494256D01*
X171595755Y-105327432D01*
X171603513Y-105248660D01*
X171608560Y-105197419D01*
X171608560Y-105197411D01*
X171612841Y-105153942D01*
X171608560Y-105110473D01*
X171608560Y-98236250D01*
X171611965Y-98212532D01*
X171608560Y-98149273D01*
X171608560Y-98129581D01*
X171606223Y-98105848D01*
X171602595Y-98038455D01*
X171597696Y-98019280D01*
X171595755Y-97999568D01*
X171576155Y-97934955D01*
X171559446Y-97869550D01*
X171550896Y-97851689D01*
X171545149Y-97832745D01*
X171513322Y-97773199D01*
X171484172Y-97712308D01*
X171472307Y-97696465D01*
X171462971Y-97678999D01*
X171420137Y-97626806D01*
X171379670Y-97572773D01*
X171364936Y-97559544D01*
X171352377Y-97544241D01*
X171300199Y-97501419D01*
X171282461Y-97485493D01*
X171266593Y-97473839D01*
X171217619Y-97433647D01*
X171196485Y-97422351D01*
X168003352Y-95077260D01*
X168006324Y-94963210D01*
X168066412Y-95043769D01*
X168282645Y-95238678D01*
X168532748Y-95387657D01*
X168807109Y-95484981D01*
X169037000Y-95364314D01*
X169037000Y-94170500D01*
X169291000Y-94170500D01*
X169291000Y-95364314D01*
X169520891Y-95484981D01*
X169795252Y-95387657D01*
X170045355Y-95238678D01*
X170261588Y-95043769D01*
X170435641Y-94810420D01*
X170560825Y-94547599D01*
X170605476Y-94400390D01*
X170484155Y-94170500D01*
X169291000Y-94170500D01*
X169037000Y-94170500D01*
X169017000Y-94170500D01*
X169017000Y-93916500D01*
X169037000Y-93916500D01*
X169037000Y-93896500D01*
X169291000Y-93896500D01*
X169291000Y-93916500D01*
X170484155Y-93916500D01*
X170605476Y-93686610D01*
X170560825Y-93539401D01*
X170435641Y-93276580D01*
X170261588Y-93043231D01*
X170045355Y-92848322D01*
X169928466Y-92778695D01*
X170110632Y-92656975D01*
X170317475Y-92450132D01*
X170479990Y-92206911D01*
X170591932Y-91936658D01*
X170649000Y-91649760D01*
X170649000Y-91357240D01*
X170591932Y-91070342D01*
X170479990Y-90800089D01*
X170317475Y-90556868D01*
X170110632Y-90350025D01*
X169936240Y-90233500D01*
X170110632Y-90116975D01*
X170317475Y-89910132D01*
X170479990Y-89666911D01*
X170591932Y-89396658D01*
X170649000Y-89109760D01*
X170649000Y-88817240D01*
X170591932Y-88530342D01*
X170479990Y-88260089D01*
X170317475Y-88016868D01*
X170185620Y-87885013D01*
X170258180Y-87863002D01*
X170368494Y-87804037D01*
X170465185Y-87724685D01*
X170544537Y-87627994D01*
X170603502Y-87517680D01*
X170639812Y-87397982D01*
X170652072Y-87273500D01*
X170652072Y-86187006D01*
X171547292Y-85291787D01*
X171581141Y-85263993D01*
X171635067Y-85198249D01*
X171691570Y-85129400D01*
X171691626Y-85129295D01*
X171691699Y-85129206D01*
X171731858Y-85054026D01*
X171773748Y-84975654D01*
X171773783Y-84975540D01*
X171773837Y-84975438D01*
X171799123Y-84892005D01*
X171824354Y-84808831D01*
X171824365Y-84808717D01*
X171824400Y-84808602D01*
X171833142Y-84719608D01*
X171841441Y-84635341D01*
X171837148Y-84591756D01*
X171832091Y-65217216D01*
X171836361Y-65173859D01*
X171832068Y-65130271D01*
X171832068Y-65130152D01*
X171827708Y-65086000D01*
X171819274Y-65000369D01*
X171819240Y-65000258D01*
X171819229Y-65000143D01*
X171793646Y-64915888D01*
X171768668Y-64833547D01*
X171768615Y-64833447D01*
X171768580Y-64833333D01*
X171726670Y-64754973D01*
X171686490Y-64679801D01*
X171686417Y-64679712D01*
X171686362Y-64679609D01*
X171631655Y-64612985D01*
X171603612Y-64578814D01*
X171603527Y-64578729D01*
X171575732Y-64544879D01*
X171542048Y-64517250D01*
X171407563Y-64382765D01*
X171381691Y-64334361D01*
X171271097Y-64199603D01*
X171237331Y-64171892D01*
X162540894Y-55475456D01*
X162513177Y-55441683D01*
X162378419Y-55331089D01*
X162224673Y-55248911D01*
X162057850Y-55198305D01*
X161927837Y-55185500D01*
X161927829Y-55185500D01*
X161884360Y-55181219D01*
X161840891Y-55185500D01*
X160012669Y-55185500D01*
X159969200Y-55181219D01*
X159925731Y-55185500D01*
X159925723Y-55185500D01*
X159796776Y-55198200D01*
X153827769Y-55198200D01*
X153784300Y-55193919D01*
X153740831Y-55198200D01*
X153740823Y-55198200D01*
X153610810Y-55211005D01*
X153443987Y-55261611D01*
X153290241Y-55343789D01*
X153189253Y-55426668D01*
X153189251Y-55426670D01*
X153155483Y-55454383D01*
X153127770Y-55488151D01*
X151602961Y-57012961D01*
X151530260Y-56998500D01*
X151237740Y-56998500D01*
X150950842Y-57055568D01*
X150680589Y-57167510D01*
X150437368Y-57330025D01*
X150230525Y-57536868D01*
X150108805Y-57719034D01*
X150039178Y-57602145D01*
X149844269Y-57385912D01*
X149610920Y-57211859D01*
X149348099Y-57086675D01*
X149200890Y-57042024D01*
X148971000Y-57163345D01*
X148971000Y-58356500D01*
X148991000Y-58356500D01*
X148991000Y-58610500D01*
X148971000Y-58610500D01*
X148971000Y-58630500D01*
X148717000Y-58630500D01*
X148717000Y-58610500D01*
X148697000Y-58610500D01*
X148697000Y-58356500D01*
X148717000Y-58356500D01*
X148717000Y-57163345D01*
X148487110Y-57042024D01*
X148339901Y-57086675D01*
X148077080Y-57211859D01*
X147843731Y-57385912D01*
X147648822Y-57602145D01*
X147499843Y-57852248D01*
X147430300Y-58048293D01*
X147430300Y-57091554D01*
X147462505Y-57043356D01*
X147540526Y-56854998D01*
X147580300Y-56655039D01*
X147580300Y-56451161D01*
X147540526Y-56251202D01*
X147462505Y-56062844D01*
X147349237Y-55893326D01*
X147205074Y-55749163D01*
X147035556Y-55635895D01*
X146847198Y-55557874D01*
X146647239Y-55518100D01*
X146443361Y-55518100D01*
X146243402Y-55557874D01*
X146055044Y-55635895D01*
X145885526Y-55749163D01*
X145741363Y-55893326D01*
X145628095Y-56062844D01*
X145550074Y-56251202D01*
X145510300Y-56451161D01*
X145510300Y-56655039D01*
X145550074Y-56854998D01*
X145628095Y-57043356D01*
X145660301Y-57091556D01*
X145660300Y-62053921D01*
X143641391Y-64072831D01*
X143607624Y-64100543D01*
X143579911Y-64134311D01*
X143579908Y-64134314D01*
X143497030Y-64235301D01*
X143414852Y-64389047D01*
X143364245Y-64555870D01*
X143347159Y-64729360D01*
X143351441Y-64772839D01*
X143351440Y-76431166D01*
X143319235Y-76479364D01*
X143241214Y-76667722D01*
X143201440Y-76867681D01*
X143201440Y-77071559D01*
X143241214Y-77271518D01*
X143319235Y-77459876D01*
X143432503Y-77629394D01*
X143576666Y-77773557D01*
X143746184Y-77886825D01*
X143934542Y-77964846D01*
X144134501Y-78004620D01*
X144338379Y-78004620D01*
X144538338Y-77964846D01*
X144726696Y-77886825D01*
X144774894Y-77854620D01*
X145886622Y-77854620D01*
X146656261Y-78624260D01*
X146619765Y-78617000D01*
X146445435Y-78617000D01*
X146274455Y-78651010D01*
X146113395Y-78717723D01*
X145968445Y-78814576D01*
X145944843Y-78838178D01*
X145859605Y-78781223D01*
X145698545Y-78714510D01*
X145527565Y-78680500D01*
X145353235Y-78680500D01*
X145182255Y-78714510D01*
X145021195Y-78781223D01*
X144876245Y-78878076D01*
X144752976Y-79001345D01*
X144656123Y-79146295D01*
X144589410Y-79307355D01*
X144555400Y-79478335D01*
X144555400Y-79652665D01*
X144589410Y-79823645D01*
X144656123Y-79984705D01*
X144705400Y-80058454D01*
X144705401Y-80583485D01*
X144701844Y-80619600D01*
X144716035Y-80763685D01*
X144741411Y-80847336D01*
X144758064Y-80902233D01*
X144826314Y-81029920D01*
X144890370Y-81107972D01*
X144890370Y-82363131D01*
X144758745Y-82308610D01*
X144587765Y-82274600D01*
X144413435Y-82274600D01*
X144242455Y-82308610D01*
X144081395Y-82375323D01*
X144032492Y-82407999D01*
X143904393Y-82407999D01*
X143868298Y-82404444D01*
X143832203Y-82407999D01*
X143832194Y-82407999D01*
X143724214Y-82418634D01*
X143585666Y-82460662D01*
X143457979Y-82528912D01*
X143422547Y-82557990D01*
X138356069Y-82557990D01*
X138282955Y-82484876D01*
X138138005Y-82388023D01*
X137976945Y-82321310D01*
X137805965Y-82287300D01*
X137631635Y-82287300D01*
X137460655Y-82321310D01*
X137299595Y-82388023D01*
X137154645Y-82484876D01*
X137031376Y-82608145D01*
X136994375Y-82663521D01*
X131805649Y-77149554D01*
X131775536Y-77112862D01*
X131728199Y-77074014D01*
X131682081Y-77033760D01*
X131672322Y-77028156D01*
X131663618Y-77021013D01*
X131609608Y-76992144D01*
X131556526Y-76961663D01*
X131545861Y-76958070D01*
X131535931Y-76952763D01*
X131477327Y-76934986D01*
X131419318Y-76915446D01*
X131408157Y-76914003D01*
X131397383Y-76910735D01*
X131336442Y-76904733D01*
X131275731Y-76896885D01*
X131228382Y-76900100D01*
X130236153Y-76900100D01*
X130162405Y-76850823D01*
X130001345Y-76784110D01*
X129830365Y-76750100D01*
X129656035Y-76750100D01*
X129485055Y-76784110D01*
X129323995Y-76850823D01*
X129195500Y-76936681D01*
X129195500Y-74650246D01*
X132029358Y-71816389D01*
X132126655Y-71856690D01*
X132297635Y-71890700D01*
X132471965Y-71890700D01*
X132642945Y-71856690D01*
X132804005Y-71789977D01*
X132948955Y-71693124D01*
X133072224Y-71569855D01*
X133159501Y-71439235D01*
X136236900Y-71439235D01*
X136236900Y-71613565D01*
X136270910Y-71784545D01*
X136337623Y-71945605D01*
X136434476Y-72090555D01*
X136497300Y-72153379D01*
X136497299Y-76911490D01*
X136436010Y-77059455D01*
X136402000Y-77230435D01*
X136402000Y-77404765D01*
X136436010Y-77575745D01*
X136502723Y-77736805D01*
X136599576Y-77881755D01*
X136722845Y-78005024D01*
X136867795Y-78101877D01*
X137028855Y-78168590D01*
X137199835Y-78202600D01*
X137374165Y-78202600D01*
X137545145Y-78168590D01*
X137706205Y-78101877D01*
X137851155Y-78005024D01*
X137974424Y-77881755D01*
X138071277Y-77736805D01*
X138137990Y-77575745D01*
X138164146Y-77444252D01*
X138201505Y-77428777D01*
X138346455Y-77331924D01*
X138469724Y-77208655D01*
X138566577Y-77063705D01*
X138633290Y-76902645D01*
X138667300Y-76731665D01*
X138667300Y-76557335D01*
X138633290Y-76386355D01*
X138566577Y-76225295D01*
X138517300Y-76151547D01*
X138517300Y-75570379D01*
X138526245Y-75579324D01*
X138671195Y-75676177D01*
X138832255Y-75742890D01*
X139003235Y-75776900D01*
X139177565Y-75776900D01*
X139348545Y-75742890D01*
X139509605Y-75676177D01*
X139654555Y-75579324D01*
X139777824Y-75456055D01*
X139874677Y-75311105D01*
X139941390Y-75150045D01*
X139975400Y-74979065D01*
X139975400Y-74804735D01*
X139941390Y-74633755D01*
X139874677Y-74472695D01*
X139825400Y-74398947D01*
X139825400Y-65544346D01*
X142334953Y-63034794D01*
X142421945Y-63017490D01*
X142583005Y-62950777D01*
X142727955Y-62853924D01*
X142851224Y-62730655D01*
X142948077Y-62585705D01*
X143014790Y-62424645D01*
X143043314Y-62281246D01*
X143149489Y-62352190D01*
X143419742Y-62464132D01*
X143706640Y-62521200D01*
X143999160Y-62521200D01*
X144286058Y-62464132D01*
X144556311Y-62352190D01*
X144799532Y-62189675D01*
X145006375Y-61982832D01*
X145168890Y-61739611D01*
X145280832Y-61469358D01*
X145337900Y-61182460D01*
X145337900Y-60889940D01*
X145280832Y-60603042D01*
X145168890Y-60332789D01*
X145006375Y-60089568D01*
X144799532Y-59882725D01*
X144617366Y-59761005D01*
X144734255Y-59691378D01*
X144950488Y-59496469D01*
X145124541Y-59263120D01*
X145249725Y-59000299D01*
X145294376Y-58853090D01*
X145173055Y-58623200D01*
X143979900Y-58623200D01*
X143979900Y-58643200D01*
X143725900Y-58643200D01*
X143725900Y-58623200D01*
X142532745Y-58623200D01*
X142411424Y-58853090D01*
X142456075Y-59000299D01*
X142581259Y-59263120D01*
X142755312Y-59496469D01*
X142971545Y-59691378D01*
X143088434Y-59761005D01*
X142906268Y-59882725D01*
X142699425Y-60089568D01*
X142536910Y-60332789D01*
X142424968Y-60603042D01*
X142367900Y-60889940D01*
X142367900Y-61182460D01*
X142393229Y-61309798D01*
X142250965Y-61281500D01*
X142076635Y-61281500D01*
X141905655Y-61315510D01*
X141744595Y-61382223D01*
X141599645Y-61479076D01*
X141476376Y-61602345D01*
X141379523Y-61747295D01*
X141312810Y-61908355D01*
X141295506Y-61995347D01*
X138596208Y-64694646D01*
X138568163Y-64717662D01*
X138476314Y-64829580D01*
X138431973Y-64912536D01*
X138408064Y-64957267D01*
X138366035Y-65095815D01*
X138351844Y-65239900D01*
X138355401Y-65276015D01*
X138355401Y-68549222D01*
X138333755Y-68527576D01*
X138188805Y-68430723D01*
X138027745Y-68364010D01*
X137856765Y-68330000D01*
X137682435Y-68330000D01*
X137511455Y-68364010D01*
X137350395Y-68430723D01*
X137205445Y-68527576D01*
X137082176Y-68650845D01*
X136985323Y-68795795D01*
X136918610Y-68956855D01*
X136884600Y-69127835D01*
X136884600Y-69302165D01*
X136918610Y-69473145D01*
X136985323Y-69634205D01*
X137047300Y-69726960D01*
X137047300Y-70641400D01*
X137034735Y-70641400D01*
X136863755Y-70675410D01*
X136702695Y-70742123D01*
X136557745Y-70838976D01*
X136434476Y-70962245D01*
X136337623Y-71107195D01*
X136270910Y-71268255D01*
X136236900Y-71439235D01*
X133159501Y-71439235D01*
X133169077Y-71424905D01*
X133235790Y-71263845D01*
X133269800Y-71092865D01*
X133269800Y-70918535D01*
X133235790Y-70747555D01*
X133169077Y-70586495D01*
X133072224Y-70441545D01*
X132948955Y-70318276D01*
X132804005Y-70221423D01*
X132642945Y-70154710D01*
X132471965Y-70120700D01*
X132297635Y-70120700D01*
X132272184Y-70125762D01*
X133000453Y-69397494D01*
X133087445Y-69380190D01*
X133248505Y-69313477D01*
X133393455Y-69216624D01*
X133516724Y-69093355D01*
X133613577Y-68948405D01*
X133680290Y-68787345D01*
X133714300Y-68616365D01*
X133714300Y-68442035D01*
X133680290Y-68271055D01*
X133613577Y-68109995D01*
X133516724Y-67965045D01*
X133393455Y-67841776D01*
X133248505Y-67744923D01*
X133087445Y-67678210D01*
X133052284Y-67671216D01*
X133045290Y-67636055D01*
X132978577Y-67474995D01*
X132881724Y-67330045D01*
X132758455Y-67206776D01*
X132613505Y-67109923D01*
X132452445Y-67043210D01*
X132281465Y-67009200D01*
X132167946Y-67009200D01*
X132143590Y-66886755D01*
X132076877Y-66725695D01*
X131980024Y-66580745D01*
X131856755Y-66457476D01*
X131711805Y-66360623D01*
X131550745Y-66293910D01*
X131427359Y-66269367D01*
X131416477Y-66243095D01*
X131319624Y-66098145D01*
X131196355Y-65974876D01*
X131051405Y-65878023D01*
X130890345Y-65811310D01*
X130719365Y-65777300D01*
X130545035Y-65777300D01*
X130374055Y-65811310D01*
X130212995Y-65878023D01*
X130068045Y-65974876D01*
X129944776Y-66098145D01*
X129847923Y-66243095D01*
X129781210Y-66404155D01*
X129763906Y-66491147D01*
X125168407Y-71086647D01*
X125140362Y-71109663D01*
X125048513Y-71221581D01*
X125012833Y-71288334D01*
X124980263Y-71349268D01*
X124938234Y-71487816D01*
X124924043Y-71631901D01*
X124927600Y-71668016D01*
X124927599Y-88446172D01*
X124904410Y-88502155D01*
X124870400Y-88673135D01*
X124870400Y-88847465D01*
X124904410Y-89018445D01*
X124971123Y-89179505D01*
X125067976Y-89324455D01*
X125191245Y-89447724D01*
X125336195Y-89544577D01*
X125497255Y-89611290D01*
X125668235Y-89645300D01*
X125842565Y-89645300D01*
X126013545Y-89611290D01*
X126174605Y-89544577D01*
X126319555Y-89447724D01*
X126442824Y-89324455D01*
X126539677Y-89179505D01*
X126606390Y-89018445D01*
X126640400Y-88847465D01*
X126640400Y-88673135D01*
X126606390Y-88502155D01*
X126574552Y-88425292D01*
X126631805Y-88401577D01*
X126776755Y-88304724D01*
X126900024Y-88181455D01*
X126996877Y-88036505D01*
X127063590Y-87875445D01*
X127097600Y-87704465D01*
X127097600Y-87530135D01*
X127063590Y-87359155D01*
X126996877Y-87198095D01*
X126947600Y-87124347D01*
X126947600Y-86330305D01*
X127063395Y-86407677D01*
X127224455Y-86474390D01*
X127395435Y-86508400D01*
X127569765Y-86508400D01*
X127740745Y-86474390D01*
X127901805Y-86407677D01*
X128046755Y-86310824D01*
X128170024Y-86187555D01*
X128266877Y-86042605D01*
X128324070Y-85904529D01*
X128397105Y-85874277D01*
X128542055Y-85777424D01*
X128665324Y-85654155D01*
X128762177Y-85509205D01*
X128815650Y-85380109D01*
X128879705Y-85353577D01*
X129024655Y-85256724D01*
X129084400Y-85196979D01*
X129084401Y-91017487D01*
X129080844Y-91053602D01*
X129095035Y-91197687D01*
X129119018Y-91276745D01*
X129137064Y-91336235D01*
X129205314Y-91463922D01*
X129297163Y-91575840D01*
X129325208Y-91598856D01*
X130666551Y-92940200D01*
X119250653Y-92940200D01*
X119176905Y-92890923D01*
X119015845Y-92824210D01*
X118844865Y-92790200D01*
X118670535Y-92790200D01*
X118499555Y-92824210D01*
X118338495Y-92890923D01*
X118193545Y-92987776D01*
X118070276Y-93111045D01*
X117973423Y-93255995D01*
X117906710Y-93417055D01*
X117872700Y-93588035D01*
X115918573Y-93588035D01*
X115825680Y-93363773D01*
X115668637Y-93128741D01*
X115468759Y-92928863D01*
X115236241Y-92773500D01*
X115468759Y-92618137D01*
X115668637Y-92418259D01*
X115825680Y-92183227D01*
X115933853Y-91922074D01*
X115989000Y-91644835D01*
X115989000Y-91362165D01*
X115933853Y-91084926D01*
X115825680Y-90823773D01*
X115668637Y-90588741D01*
X115470039Y-90390143D01*
X115478482Y-90389312D01*
X115598180Y-90353002D01*
X115708494Y-90294037D01*
X115805185Y-90214685D01*
X115884537Y-90117994D01*
X115943502Y-90007680D01*
X115979812Y-89887982D01*
X115992072Y-89763500D01*
X115992072Y-88163500D01*
X115979812Y-88039018D01*
X115943502Y-87919320D01*
X115884537Y-87809006D01*
X115805185Y-87712315D01*
X115708494Y-87632963D01*
X115598180Y-87573998D01*
X115478482Y-87537688D01*
X115354000Y-87525428D01*
X114367506Y-87525428D01*
X114188999Y-87346921D01*
X114188999Y-86544009D01*
X114412665Y-86588500D01*
X114695335Y-86588500D01*
X114972574Y-86533353D01*
X115233727Y-86425180D01*
X115468759Y-86268137D01*
X115668637Y-86068259D01*
X115825680Y-85833227D01*
X115933853Y-85572074D01*
X115989000Y-85294835D01*
X115989000Y-85012165D01*
X115933853Y-84734926D01*
X115825680Y-84473773D01*
X115668637Y-84238741D01*
X115468759Y-84038863D01*
X115236241Y-83883500D01*
X115468759Y-83728137D01*
X115668637Y-83528259D01*
X115825680Y-83293227D01*
X115933853Y-83032074D01*
X115989000Y-82754835D01*
X115989000Y-82472165D01*
X115933853Y-82194926D01*
X115825680Y-81933773D01*
X115668637Y-81698741D01*
X115468759Y-81498863D01*
X115236241Y-81343500D01*
X115468759Y-81188137D01*
X115668637Y-80988259D01*
X115825680Y-80753227D01*
X115933853Y-80492074D01*
X115989000Y-80214835D01*
X115989000Y-79981721D01*
X117130880Y-79981721D01*
X117130880Y-80185599D01*
X117170654Y-80385558D01*
X117248675Y-80573916D01*
X117361943Y-80743434D01*
X117405880Y-80787371D01*
X117405881Y-83195028D01*
X117372103Y-83228806D01*
X117258835Y-83398324D01*
X117180814Y-83586682D01*
X117141040Y-83786641D01*
X117141040Y-83990519D01*
X117180814Y-84190478D01*
X117258835Y-84378836D01*
X117372103Y-84548354D01*
X117416040Y-84592291D01*
X117416041Y-86974548D01*
X117367023Y-87023566D01*
X117253755Y-87193084D01*
X117175734Y-87381442D01*
X117135960Y-87581401D01*
X117135960Y-87785279D01*
X117175734Y-87985238D01*
X117253755Y-88173596D01*
X117367023Y-88343114D01*
X117511186Y-88487277D01*
X117680704Y-88600545D01*
X117869062Y-88678566D01*
X118069021Y-88718340D01*
X118272899Y-88718340D01*
X118472858Y-88678566D01*
X118661216Y-88600545D01*
X118830734Y-88487277D01*
X118974897Y-88343114D01*
X119088165Y-88173596D01*
X119166186Y-87985238D01*
X119205960Y-87785279D01*
X119205960Y-87581401D01*
X119166186Y-87381442D01*
X119088165Y-87193084D01*
X118974897Y-87023566D01*
X118936040Y-86984709D01*
X118936040Y-84592291D01*
X118979977Y-84548354D01*
X119093245Y-84378836D01*
X119171266Y-84190478D01*
X119211040Y-83990519D01*
X119211040Y-83786641D01*
X119171266Y-83586682D01*
X119093245Y-83398324D01*
X118979977Y-83228806D01*
X118925880Y-83174709D01*
X118925880Y-80818660D01*
X122966425Y-80818660D01*
X123100995Y-80908577D01*
X123262055Y-80975290D01*
X123433035Y-81009300D01*
X123607365Y-81009300D01*
X123778345Y-80975290D01*
X123939405Y-80908577D01*
X124084355Y-80811724D01*
X124207624Y-80688455D01*
X124304477Y-80543505D01*
X124371190Y-80382445D01*
X124405200Y-80211465D01*
X124405200Y-80037135D01*
X124371190Y-79866155D01*
X124304477Y-79705095D01*
X124207624Y-79560145D01*
X124084355Y-79436876D01*
X123939405Y-79340023D01*
X123778345Y-79273310D01*
X123607365Y-79239300D01*
X123433035Y-79239300D01*
X123262055Y-79273310D01*
X123100995Y-79340023D01*
X123088069Y-79348660D01*
X118930960Y-79348660D01*
X118930960Y-76972291D01*
X118974897Y-76928354D01*
X119088165Y-76758836D01*
X119166186Y-76570478D01*
X119205960Y-76370519D01*
X119205960Y-76166641D01*
X119166186Y-75966682D01*
X119088165Y-75778324D01*
X118974897Y-75608806D01*
X118830734Y-75464643D01*
X118661216Y-75351375D01*
X118472858Y-75273354D01*
X118272899Y-75233580D01*
X118069021Y-75233580D01*
X117869062Y-75273354D01*
X117680704Y-75351375D01*
X117511186Y-75464643D01*
X117367023Y-75608806D01*
X117253755Y-75778324D01*
X117175734Y-75966682D01*
X117135960Y-76166641D01*
X117135960Y-76370519D01*
X117175734Y-76570478D01*
X117253755Y-76758836D01*
X117367023Y-76928354D01*
X117410960Y-76972291D01*
X117410961Y-79374868D01*
X117361943Y-79423886D01*
X117248675Y-79593404D01*
X117170654Y-79781762D01*
X117130880Y-79981721D01*
X115989000Y-79981721D01*
X115989000Y-79932165D01*
X115933853Y-79654926D01*
X115825680Y-79393773D01*
X115668637Y-79158741D01*
X115468759Y-78958863D01*
X115236241Y-78803500D01*
X115468759Y-78648137D01*
X115668637Y-78448259D01*
X115825680Y-78213227D01*
X115933853Y-77952074D01*
X115989000Y-77674835D01*
X115989000Y-77392165D01*
X115933853Y-77114926D01*
X115825680Y-76853773D01*
X115668637Y-76618741D01*
X115468759Y-76418863D01*
X115236241Y-76263500D01*
X115468759Y-76108137D01*
X115668637Y-75908259D01*
X115825680Y-75673227D01*
X115933853Y-75412074D01*
X115989000Y-75134835D01*
X115989000Y-74852165D01*
X115933853Y-74574926D01*
X115825680Y-74313773D01*
X115668637Y-74078741D01*
X115468759Y-73878863D01*
X115236241Y-73723500D01*
X115468759Y-73568137D01*
X115668637Y-73368259D01*
X115825680Y-73133227D01*
X115933853Y-72872074D01*
X115989000Y-72594835D01*
X115989000Y-72312165D01*
X115933853Y-72034926D01*
X115825680Y-71773773D01*
X115668637Y-71538741D01*
X115468759Y-71338863D01*
X115236241Y-71183500D01*
X115468759Y-71028137D01*
X115668637Y-70828259D01*
X115825680Y-70593227D01*
X115933853Y-70332074D01*
X115989000Y-70054835D01*
X115989000Y-69772165D01*
X115933853Y-69494926D01*
X115825680Y-69233773D01*
X115668637Y-68998741D01*
X115468759Y-68798863D01*
X115236241Y-68643500D01*
X115468759Y-68488137D01*
X115668637Y-68288259D01*
X115825680Y-68053227D01*
X115933853Y-67792074D01*
X115989000Y-67514835D01*
X115989000Y-67232165D01*
X115933853Y-66954926D01*
X115825680Y-66693773D01*
X115668637Y-66458741D01*
X115470039Y-66260143D01*
X115478482Y-66259312D01*
X115598180Y-66223002D01*
X115708494Y-66164037D01*
X115805185Y-66084685D01*
X115884537Y-65987994D01*
X115943502Y-65877680D01*
X115979812Y-65757982D01*
X115992072Y-65633500D01*
X115992072Y-64033500D01*
X115979812Y-63909018D01*
X115943502Y-63789320D01*
X115884537Y-63679006D01*
X115805185Y-63582315D01*
X115708494Y-63502963D01*
X115598180Y-63443998D01*
X115478482Y-63407688D01*
X115354000Y-63395428D01*
X113754000Y-63395428D01*
X113629518Y-63407688D01*
X113509820Y-63443998D01*
X113399506Y-63502963D01*
X113302815Y-63582315D01*
X113223463Y-63679006D01*
X113164498Y-63789320D01*
X113128188Y-63909018D01*
X113115928Y-64033500D01*
X113115928Y-65019994D01*
X112708955Y-65426967D01*
X112675182Y-65454684D01*
X112564588Y-65589443D01*
X112482410Y-65743189D01*
X112431804Y-65910012D01*
X112418999Y-66040025D01*
X112418999Y-66040032D01*
X112414718Y-66083501D01*
X106349000Y-66083501D01*
X106349000Y-58139310D01*
X142411424Y-58139310D01*
X142532745Y-58369200D01*
X143725900Y-58369200D01*
X143725900Y-57175386D01*
X143979900Y-57175386D01*
X143979900Y-58369200D01*
X145173055Y-58369200D01*
X145294376Y-58139310D01*
X145249725Y-57992101D01*
X145124541Y-57729280D01*
X144950488Y-57495931D01*
X144734255Y-57301022D01*
X144484152Y-57152043D01*
X144209791Y-57054719D01*
X143979900Y-57175386D01*
X143725900Y-57175386D01*
X143496009Y-57054719D01*
X143221648Y-57152043D01*
X142971545Y-57301022D01*
X142755312Y-57495931D01*
X142581259Y-57729280D01*
X142456075Y-57992101D01*
X142411424Y-58139310D01*
X106349000Y-58139310D01*
X106349000Y-54088500D01*
X173559000Y-54088500D01*
X173559001Y-132474500D01*
G37*
%TD.AperFunction*%
D23*
X143230495Y-97748777D02*
X143391555Y-97815490D01*
X143562535Y-97849500D01*
X143613200Y-97849500D01*
X143613201Y-101371752D01*
X140323408Y-104661546D01*
X140295362Y-104684563D01*
X140203513Y-104796481D01*
X140135263Y-104924168D01*
X140116770Y-104985132D01*
X140093235Y-105062715D01*
X140079044Y-105206800D01*
X140082600Y-105242905D01*
X140082600Y-105740553D01*
X139947947Y-105875206D01*
X139860955Y-105892510D01*
X139699895Y-105959223D01*
X139663038Y-105983850D01*
X139671115Y-105964099D01*
X139677662Y-105930388D01*
X139687653Y-105897545D01*
X139691429Y-105859509D01*
X139698719Y-105821973D01*
X139698400Y-105751459D01*
X139704368Y-98035875D01*
X139754027Y-97961555D01*
X139820740Y-97800495D01*
X139840829Y-97699500D01*
X143156747Y-97699500D01*
X143230495Y-97748777D01*
%TA.AperFunction,Conductor*%
D24*
G36*
X143230495Y-97748777D02*
G01*
X143391555Y-97815490D01*
X143562535Y-97849500D01*
X143613200Y-97849500D01*
X143613201Y-101371752D01*
X140323408Y-104661546D01*
X140295362Y-104684563D01*
X140203513Y-104796481D01*
X140135263Y-104924168D01*
X140116770Y-104985132D01*
X140093235Y-105062715D01*
X140079044Y-105206800D01*
X140082600Y-105242905D01*
X140082600Y-105740553D01*
X139947947Y-105875206D01*
X139860955Y-105892510D01*
X139699895Y-105959223D01*
X139663038Y-105983850D01*
X139671115Y-105964099D01*
X139677662Y-105930388D01*
X139687653Y-105897545D01*
X139691429Y-105859509D01*
X139698719Y-105821973D01*
X139698400Y-105751459D01*
X139704368Y-98035875D01*
X139754027Y-97961555D01*
X139820740Y-97800495D01*
X139840829Y-97699500D01*
X143156747Y-97699500D01*
X143230495Y-97748777D01*
G37*
%TD.AperFunction*%
D23*
X169368321Y-64806040D02*
X169291000Y-64846845D01*
X169291000Y-66040000D01*
X169311000Y-66040000D01*
X169311000Y-66294000D01*
X169291000Y-66294000D01*
X169291000Y-68516500D01*
X169311000Y-68516500D01*
X169311000Y-68770500D01*
X169291000Y-68770500D01*
X169291000Y-69969750D01*
X169449750Y-70128500D01*
X170014000Y-70131572D01*
X170063373Y-70126709D01*
X170063533Y-70739359D01*
X170012791Y-70790101D01*
X169935157Y-70541028D01*
X169671117Y-70415129D01*
X169387589Y-70343161D01*
X169095469Y-70327889D01*
X168805981Y-70369901D01*
X168530253Y-70467581D01*
X168392843Y-70541028D01*
X168315208Y-70790103D01*
X169164000Y-71638895D01*
X169178143Y-71624753D01*
X169357748Y-71804358D01*
X169343605Y-71818500D01*
X169357748Y-71832643D01*
X169178143Y-72012248D01*
X169164000Y-71998105D01*
X168315208Y-72846897D01*
X168390729Y-73089189D01*
X168217368Y-73205025D01*
X168010525Y-73411868D01*
X167894000Y-73586260D01*
X167777475Y-73411868D01*
X167570632Y-73205025D01*
X167397271Y-73089189D01*
X167472792Y-72846897D01*
X166624000Y-71998105D01*
X165775208Y-72846897D01*
X165850729Y-73089189D01*
X165677368Y-73205025D01*
X165470525Y-73411868D01*
X165308010Y-73655089D01*
X165196068Y-73925342D01*
X165139000Y-74212240D01*
X165139000Y-74504760D01*
X165196068Y-74791658D01*
X165308010Y-75061911D01*
X165470525Y-75305132D01*
X165677368Y-75511975D01*
X165851760Y-75628500D01*
X165677368Y-75745025D01*
X165470525Y-75951868D01*
X165308010Y-76195089D01*
X165196068Y-76465342D01*
X165139000Y-76752240D01*
X165139000Y-77044760D01*
X165196068Y-77331658D01*
X165308010Y-77601911D01*
X165470525Y-77845132D01*
X165677368Y-78051975D01*
X165851760Y-78168500D01*
X165677368Y-78285025D01*
X165470525Y-78491868D01*
X165308010Y-78735089D01*
X165196068Y-79005342D01*
X165139000Y-79292240D01*
X165139000Y-79584760D01*
X165196068Y-79871658D01*
X165308010Y-80141911D01*
X165470525Y-80385132D01*
X165677368Y-80591975D01*
X165851760Y-80708500D01*
X165677368Y-80825025D01*
X165470525Y-81031868D01*
X165308010Y-81275089D01*
X165196068Y-81545342D01*
X165139000Y-81832240D01*
X165139000Y-82124760D01*
X165196068Y-82411658D01*
X165308010Y-82681911D01*
X165470525Y-82925132D01*
X165677368Y-83131975D01*
X165920589Y-83294490D01*
X166190842Y-83406432D01*
X166477740Y-83463500D01*
X166770260Y-83463500D01*
X167057158Y-83406432D01*
X167327411Y-83294490D01*
X167570632Y-83131975D01*
X167777475Y-82925132D01*
X167939990Y-82681911D01*
X168051932Y-82411658D01*
X168109000Y-82124760D01*
X168109000Y-81832240D01*
X168051932Y-81545342D01*
X167939990Y-81275089D01*
X167777475Y-81031868D01*
X167570632Y-80825025D01*
X167396240Y-80708500D01*
X167570632Y-80591975D01*
X167777475Y-80385132D01*
X167894000Y-80210740D01*
X168010525Y-80385132D01*
X168217368Y-80591975D01*
X168460589Y-80754490D01*
X168730842Y-80866432D01*
X169017740Y-80923500D01*
X169310260Y-80923500D01*
X169597158Y-80866432D01*
X169867411Y-80754490D01*
X170066113Y-80621722D01*
X170067065Y-84268856D01*
X169400494Y-84935428D01*
X168314000Y-84935428D01*
X168189518Y-84947688D01*
X168069820Y-84983998D01*
X167959506Y-85042963D01*
X167862815Y-85122315D01*
X167783463Y-85219006D01*
X167724498Y-85329320D01*
X167688188Y-85449018D01*
X167675928Y-85573500D01*
X167675928Y-86101193D01*
X166722931Y-87054191D01*
X166697577Y-87073916D01*
X166661436Y-87115686D01*
X166653268Y-87123854D01*
X166632994Y-87148558D01*
X166583511Y-87205748D01*
X166577767Y-87215852D01*
X166570390Y-87224841D01*
X166534735Y-87291548D01*
X166497355Y-87357301D01*
X166493691Y-87368337D01*
X166488212Y-87378587D01*
X166466256Y-87450964D01*
X166442421Y-87522749D01*
X166440981Y-87534282D01*
X166437605Y-87545410D01*
X166430193Y-87620676D01*
X166426233Y-87652384D01*
X166425932Y-87663937D01*
X166420519Y-87718900D01*
X166423667Y-87750862D01*
X166223245Y-95442045D01*
X166218195Y-95477225D01*
X166220980Y-95528967D01*
X166220768Y-95537108D01*
X166223319Y-95572411D01*
X166227565Y-95651302D01*
X166229591Y-95659234D01*
X166230182Y-95667410D01*
X166251151Y-95743630D01*
X166270714Y-95820207D01*
X166274253Y-95827599D01*
X166276425Y-95835495D01*
X166311868Y-95906173D01*
X166345988Y-95977448D01*
X166350894Y-95983999D01*
X166354570Y-95991329D01*
X166403130Y-96053747D01*
X166450490Y-96116984D01*
X166456585Y-96122457D01*
X166461616Y-96128923D01*
X166521374Y-96180628D01*
X166547699Y-96204264D01*
X166554263Y-96209085D01*
X166593448Y-96242989D01*
X166624341Y-96260552D01*
X167135425Y-96635900D01*
X166039447Y-96635900D01*
X165301600Y-95898054D01*
X165301600Y-89946211D01*
X165370537Y-89877274D01*
X165483805Y-89707756D01*
X165561826Y-89519398D01*
X165601600Y-89319439D01*
X165601600Y-89115561D01*
X165561826Y-88915602D01*
X165483805Y-88727244D01*
X165370537Y-88557726D01*
X165226374Y-88413563D01*
X165056856Y-88300295D01*
X164868498Y-88222274D01*
X164668539Y-88182500D01*
X164464661Y-88182500D01*
X164264702Y-88222274D01*
X164076344Y-88300295D01*
X164004690Y-88348173D01*
X163990056Y-88338395D01*
X163801698Y-88260374D01*
X163601739Y-88220600D01*
X163397861Y-88220600D01*
X163197902Y-88260374D01*
X163009544Y-88338395D01*
X162840026Y-88451663D01*
X162736200Y-88555489D01*
X162736200Y-77088207D01*
X162739756Y-77052102D01*
X162725565Y-76908017D01*
X162683537Y-76769468D01*
X162615287Y-76641782D01*
X162546453Y-76557908D01*
X162546450Y-76557905D01*
X162523437Y-76529864D01*
X162495397Y-76506852D01*
X161757856Y-75769312D01*
X161734836Y-75741262D01*
X161622918Y-75649413D01*
X161495231Y-75581163D01*
X161356683Y-75539135D01*
X161248703Y-75528500D01*
X161212598Y-75524944D01*
X161176493Y-75528500D01*
X159054447Y-75528500D01*
X158619700Y-75093754D01*
X158602087Y-75060802D01*
X158510237Y-74948884D01*
X158482192Y-74925868D01*
X158230189Y-74673865D01*
X158230189Y-73678554D01*
X158330795Y-73745777D01*
X158491855Y-73812490D01*
X158662835Y-73846500D01*
X158837165Y-73846500D01*
X159008145Y-73812490D01*
X159169205Y-73745777D01*
X159314155Y-73648924D01*
X159437424Y-73525655D01*
X159534277Y-73380705D01*
X159600990Y-73219645D01*
X159635000Y-73048665D01*
X159635000Y-72874335D01*
X159600990Y-72703355D01*
X159534277Y-72542295D01*
X159490773Y-72477188D01*
X159497745Y-71887031D01*
X165133389Y-71887031D01*
X165175401Y-72176519D01*
X165273081Y-72452247D01*
X165346528Y-72589657D01*
X165595603Y-72667292D01*
X166444395Y-71818500D01*
X166803605Y-71818500D01*
X167652397Y-72667292D01*
X167894000Y-72591986D01*
X168135603Y-72667292D01*
X168984395Y-71818500D01*
X168135603Y-70969708D01*
X167894000Y-71045014D01*
X167652397Y-70969708D01*
X166803605Y-71818500D01*
X166444395Y-71818500D01*
X165595603Y-70969708D01*
X165346528Y-71047343D01*
X165220629Y-71311383D01*
X165148661Y-71594911D01*
X165133389Y-71887031D01*
X159497745Y-71887031D01*
X159510705Y-70790103D01*
X165775208Y-70790103D01*
X166624000Y-71638895D01*
X167472792Y-70790103D01*
X167395157Y-70541028D01*
X167131117Y-70415129D01*
X166847589Y-70343161D01*
X166555469Y-70327889D01*
X166265981Y-70369901D01*
X165990253Y-70467581D01*
X165852843Y-70541028D01*
X165775208Y-70790103D01*
X159510705Y-70790103D01*
X159575372Y-65317000D01*
X165135928Y-65317000D01*
X165135928Y-67017000D01*
X165148188Y-67141482D01*
X165184498Y-67261180D01*
X165243463Y-67371494D01*
X165322815Y-67468185D01*
X165419506Y-67547537D01*
X165529820Y-67606502D01*
X165553659Y-67613734D01*
X165470525Y-67696868D01*
X165308010Y-67940089D01*
X165196068Y-68210342D01*
X165139000Y-68497240D01*
X165139000Y-68789760D01*
X165196068Y-69076658D01*
X165308010Y-69346911D01*
X165470525Y-69590132D01*
X165677368Y-69796975D01*
X165920589Y-69959490D01*
X166190842Y-70071432D01*
X166477740Y-70128500D01*
X166770260Y-70128500D01*
X167057158Y-70071432D01*
X167327411Y-69959490D01*
X167570632Y-69796975D01*
X167702487Y-69665120D01*
X167724498Y-69737680D01*
X167783463Y-69847994D01*
X167862815Y-69944685D01*
X167959506Y-70024037D01*
X168069820Y-70083002D01*
X168189518Y-70119312D01*
X168314000Y-70131572D01*
X168878250Y-70128500D01*
X169037000Y-69969750D01*
X169037000Y-68770500D01*
X169017000Y-68770500D01*
X169017000Y-68516500D01*
X169037000Y-68516500D01*
X169037000Y-66294000D01*
X169017000Y-66294000D01*
X169017000Y-66040000D01*
X169037000Y-66040000D01*
X169037000Y-64846845D01*
X168807110Y-64725524D01*
X168659901Y-64770175D01*
X168397080Y-64895359D01*
X168163731Y-65069412D01*
X168087966Y-65153466D01*
X168063502Y-65072820D01*
X168004537Y-64962506D01*
X167925185Y-64865815D01*
X167828494Y-64786463D01*
X167718180Y-64727498D01*
X167598482Y-64691188D01*
X167474000Y-64678928D01*
X165774000Y-64678928D01*
X165649518Y-64691188D01*
X165529820Y-64727498D01*
X165419506Y-64786463D01*
X165322815Y-64865815D01*
X165243463Y-64962506D01*
X165184498Y-65072820D01*
X165148188Y-65192518D01*
X165135928Y-65317000D01*
X159575372Y-65317000D01*
X159610076Y-62379807D01*
X159707411Y-62339490D01*
X159950632Y-62176975D01*
X160157475Y-61970132D01*
X160319990Y-61726911D01*
X160431932Y-61456658D01*
X160489000Y-61169760D01*
X160489000Y-60877240D01*
X160431932Y-60590342D01*
X160319990Y-60320089D01*
X160157475Y-60076868D01*
X159950632Y-59870025D01*
X159776240Y-59753500D01*
X159950632Y-59636975D01*
X160157475Y-59430132D01*
X160319990Y-59186911D01*
X160431932Y-58916658D01*
X160489000Y-58629760D01*
X160489000Y-58337240D01*
X160431932Y-58050342D01*
X160319990Y-57780089D01*
X160157475Y-57536868D01*
X159950632Y-57330025D01*
X159707411Y-57167510D01*
X159437158Y-57055568D01*
X159150260Y-56998500D01*
X158857740Y-56998500D01*
X158570842Y-57055568D01*
X158300589Y-57167510D01*
X158057368Y-57330025D01*
X157850525Y-57536868D01*
X157728805Y-57719034D01*
X157659178Y-57602145D01*
X157464269Y-57385912D01*
X157230920Y-57211859D01*
X156968099Y-57086675D01*
X156820890Y-57042024D01*
X156591000Y-57163345D01*
X156591000Y-58356500D01*
X156611000Y-58356500D01*
X156611000Y-58610500D01*
X156591000Y-58610500D01*
X156591000Y-58630500D01*
X156337000Y-58630500D01*
X156337000Y-58610500D01*
X154051000Y-58610500D01*
X154051000Y-58630500D01*
X153797000Y-58630500D01*
X153797000Y-58610500D01*
X153777000Y-58610500D01*
X153777000Y-58356500D01*
X153797000Y-58356500D01*
X153797000Y-58336500D01*
X154051000Y-58336500D01*
X154051000Y-58356500D01*
X156337000Y-58356500D01*
X156337000Y-57163345D01*
X156107110Y-57042024D01*
X155959901Y-57086675D01*
X155697080Y-57211859D01*
X155463731Y-57385912D01*
X155268822Y-57602145D01*
X155194000Y-57727755D01*
X155119178Y-57602145D01*
X154924269Y-57385912D01*
X154690920Y-57211859D01*
X154428099Y-57086675D01*
X154280890Y-57042024D01*
X154051002Y-57163344D01*
X154051002Y-57068077D01*
X154150879Y-56968200D01*
X159913031Y-56968200D01*
X159956500Y-56972481D01*
X159999969Y-56968200D01*
X159999977Y-56968200D01*
X160128924Y-56955500D01*
X161517782Y-56955500D01*
X169368321Y-64806040D01*
%TA.AperFunction,Conductor*%
D24*
G36*
X169368321Y-64806040D02*
G01*
X169291000Y-64846845D01*
X169291000Y-66040000D01*
X169311000Y-66040000D01*
X169311000Y-66294000D01*
X169291000Y-66294000D01*
X169291000Y-68516500D01*
X169311000Y-68516500D01*
X169311000Y-68770500D01*
X169291000Y-68770500D01*
X169291000Y-69969750D01*
X169449750Y-70128500D01*
X170014000Y-70131572D01*
X170063373Y-70126709D01*
X170063533Y-70739359D01*
X170012791Y-70790101D01*
X169935157Y-70541028D01*
X169671117Y-70415129D01*
X169387589Y-70343161D01*
X169095469Y-70327889D01*
X168805981Y-70369901D01*
X168530253Y-70467581D01*
X168392843Y-70541028D01*
X168315208Y-70790103D01*
X169164000Y-71638895D01*
X169178143Y-71624753D01*
X169357748Y-71804358D01*
X169343605Y-71818500D01*
X169357748Y-71832643D01*
X169178143Y-72012248D01*
X169164000Y-71998105D01*
X168315208Y-72846897D01*
X168390729Y-73089189D01*
X168217368Y-73205025D01*
X168010525Y-73411868D01*
X167894000Y-73586260D01*
X167777475Y-73411868D01*
X167570632Y-73205025D01*
X167397271Y-73089189D01*
X167472792Y-72846897D01*
X166624000Y-71998105D01*
X165775208Y-72846897D01*
X165850729Y-73089189D01*
X165677368Y-73205025D01*
X165470525Y-73411868D01*
X165308010Y-73655089D01*
X165196068Y-73925342D01*
X165139000Y-74212240D01*
X165139000Y-74504760D01*
X165196068Y-74791658D01*
X165308010Y-75061911D01*
X165470525Y-75305132D01*
X165677368Y-75511975D01*
X165851760Y-75628500D01*
X165677368Y-75745025D01*
X165470525Y-75951868D01*
X165308010Y-76195089D01*
X165196068Y-76465342D01*
X165139000Y-76752240D01*
X165139000Y-77044760D01*
X165196068Y-77331658D01*
X165308010Y-77601911D01*
X165470525Y-77845132D01*
X165677368Y-78051975D01*
X165851760Y-78168500D01*
X165677368Y-78285025D01*
X165470525Y-78491868D01*
X165308010Y-78735089D01*
X165196068Y-79005342D01*
X165139000Y-79292240D01*
X165139000Y-79584760D01*
X165196068Y-79871658D01*
X165308010Y-80141911D01*
X165470525Y-80385132D01*
X165677368Y-80591975D01*
X165851760Y-80708500D01*
X165677368Y-80825025D01*
X165470525Y-81031868D01*
X165308010Y-81275089D01*
X165196068Y-81545342D01*
X165139000Y-81832240D01*
X165139000Y-82124760D01*
X165196068Y-82411658D01*
X165308010Y-82681911D01*
X165470525Y-82925132D01*
X165677368Y-83131975D01*
X165920589Y-83294490D01*
X166190842Y-83406432D01*
X166477740Y-83463500D01*
X166770260Y-83463500D01*
X167057158Y-83406432D01*
X167327411Y-83294490D01*
X167570632Y-83131975D01*
X167777475Y-82925132D01*
X167939990Y-82681911D01*
X168051932Y-82411658D01*
X168109000Y-82124760D01*
X168109000Y-81832240D01*
X168051932Y-81545342D01*
X167939990Y-81275089D01*
X167777475Y-81031868D01*
X167570632Y-80825025D01*
X167396240Y-80708500D01*
X167570632Y-80591975D01*
X167777475Y-80385132D01*
X167894000Y-80210740D01*
X168010525Y-80385132D01*
X168217368Y-80591975D01*
X168460589Y-80754490D01*
X168730842Y-80866432D01*
X169017740Y-80923500D01*
X169310260Y-80923500D01*
X169597158Y-80866432D01*
X169867411Y-80754490D01*
X170066113Y-80621722D01*
X170067065Y-84268856D01*
X169400494Y-84935428D01*
X168314000Y-84935428D01*
X168189518Y-84947688D01*
X168069820Y-84983998D01*
X167959506Y-85042963D01*
X167862815Y-85122315D01*
X167783463Y-85219006D01*
X167724498Y-85329320D01*
X167688188Y-85449018D01*
X167675928Y-85573500D01*
X167675928Y-86101193D01*
X166722931Y-87054191D01*
X166697577Y-87073916D01*
X166661436Y-87115686D01*
X166653268Y-87123854D01*
X166632994Y-87148558D01*
X166583511Y-87205748D01*
X166577767Y-87215852D01*
X166570390Y-87224841D01*
X166534735Y-87291548D01*
X166497355Y-87357301D01*
X166493691Y-87368337D01*
X166488212Y-87378587D01*
X166466256Y-87450964D01*
X166442421Y-87522749D01*
X166440981Y-87534282D01*
X166437605Y-87545410D01*
X166430193Y-87620676D01*
X166426233Y-87652384D01*
X166425932Y-87663937D01*
X166420519Y-87718900D01*
X166423667Y-87750862D01*
X166223245Y-95442045D01*
X166218195Y-95477225D01*
X166220980Y-95528967D01*
X166220768Y-95537108D01*
X166223319Y-95572411D01*
X166227565Y-95651302D01*
X166229591Y-95659234D01*
X166230182Y-95667410D01*
X166251151Y-95743630D01*
X166270714Y-95820207D01*
X166274253Y-95827599D01*
X166276425Y-95835495D01*
X166311868Y-95906173D01*
X166345988Y-95977448D01*
X166350894Y-95983999D01*
X166354570Y-95991329D01*
X166403130Y-96053747D01*
X166450490Y-96116984D01*
X166456585Y-96122457D01*
X166461616Y-96128923D01*
X166521374Y-96180628D01*
X166547699Y-96204264D01*
X166554263Y-96209085D01*
X166593448Y-96242989D01*
X166624341Y-96260552D01*
X167135425Y-96635900D01*
X166039447Y-96635900D01*
X165301600Y-95898054D01*
X165301600Y-89946211D01*
X165370537Y-89877274D01*
X165483805Y-89707756D01*
X165561826Y-89519398D01*
X165601600Y-89319439D01*
X165601600Y-89115561D01*
X165561826Y-88915602D01*
X165483805Y-88727244D01*
X165370537Y-88557726D01*
X165226374Y-88413563D01*
X165056856Y-88300295D01*
X164868498Y-88222274D01*
X164668539Y-88182500D01*
X164464661Y-88182500D01*
X164264702Y-88222274D01*
X164076344Y-88300295D01*
X164004690Y-88348173D01*
X163990056Y-88338395D01*
X163801698Y-88260374D01*
X163601739Y-88220600D01*
X163397861Y-88220600D01*
X163197902Y-88260374D01*
X163009544Y-88338395D01*
X162840026Y-88451663D01*
X162736200Y-88555489D01*
X162736200Y-77088207D01*
X162739756Y-77052102D01*
X162725565Y-76908017D01*
X162683537Y-76769468D01*
X162615287Y-76641782D01*
X162546453Y-76557908D01*
X162546450Y-76557905D01*
X162523437Y-76529864D01*
X162495397Y-76506852D01*
X161757856Y-75769312D01*
X161734836Y-75741262D01*
X161622918Y-75649413D01*
X161495231Y-75581163D01*
X161356683Y-75539135D01*
X161248703Y-75528500D01*
X161212598Y-75524944D01*
X161176493Y-75528500D01*
X159054447Y-75528500D01*
X158619700Y-75093754D01*
X158602087Y-75060802D01*
X158510237Y-74948884D01*
X158482192Y-74925868D01*
X158230189Y-74673865D01*
X158230189Y-73678554D01*
X158330795Y-73745777D01*
X158491855Y-73812490D01*
X158662835Y-73846500D01*
X158837165Y-73846500D01*
X159008145Y-73812490D01*
X159169205Y-73745777D01*
X159314155Y-73648924D01*
X159437424Y-73525655D01*
X159534277Y-73380705D01*
X159600990Y-73219645D01*
X159635000Y-73048665D01*
X159635000Y-72874335D01*
X159600990Y-72703355D01*
X159534277Y-72542295D01*
X159490773Y-72477188D01*
X159497745Y-71887031D01*
X165133389Y-71887031D01*
X165175401Y-72176519D01*
X165273081Y-72452247D01*
X165346528Y-72589657D01*
X165595603Y-72667292D01*
X166444395Y-71818500D01*
X166803605Y-71818500D01*
X167652397Y-72667292D01*
X167894000Y-72591986D01*
X168135603Y-72667292D01*
X168984395Y-71818500D01*
X168135603Y-70969708D01*
X167894000Y-71045014D01*
X167652397Y-70969708D01*
X166803605Y-71818500D01*
X166444395Y-71818500D01*
X165595603Y-70969708D01*
X165346528Y-71047343D01*
X165220629Y-71311383D01*
X165148661Y-71594911D01*
X165133389Y-71887031D01*
X159497745Y-71887031D01*
X159510705Y-70790103D01*
X165775208Y-70790103D01*
X166624000Y-71638895D01*
X167472792Y-70790103D01*
X167395157Y-70541028D01*
X167131117Y-70415129D01*
X166847589Y-70343161D01*
X166555469Y-70327889D01*
X166265981Y-70369901D01*
X165990253Y-70467581D01*
X165852843Y-70541028D01*
X165775208Y-70790103D01*
X159510705Y-70790103D01*
X159575372Y-65317000D01*
X165135928Y-65317000D01*
X165135928Y-67017000D01*
X165148188Y-67141482D01*
X165184498Y-67261180D01*
X165243463Y-67371494D01*
X165322815Y-67468185D01*
X165419506Y-67547537D01*
X165529820Y-67606502D01*
X165553659Y-67613734D01*
X165470525Y-67696868D01*
X165308010Y-67940089D01*
X165196068Y-68210342D01*
X165139000Y-68497240D01*
X165139000Y-68789760D01*
X165196068Y-69076658D01*
X165308010Y-69346911D01*
X165470525Y-69590132D01*
X165677368Y-69796975D01*
X165920589Y-69959490D01*
X166190842Y-70071432D01*
X166477740Y-70128500D01*
X166770260Y-70128500D01*
X167057158Y-70071432D01*
X167327411Y-69959490D01*
X167570632Y-69796975D01*
X167702487Y-69665120D01*
X167724498Y-69737680D01*
X167783463Y-69847994D01*
X167862815Y-69944685D01*
X167959506Y-70024037D01*
X168069820Y-70083002D01*
X168189518Y-70119312D01*
X168314000Y-70131572D01*
X168878250Y-70128500D01*
X169037000Y-69969750D01*
X169037000Y-68770500D01*
X169017000Y-68770500D01*
X169017000Y-68516500D01*
X169037000Y-68516500D01*
X169037000Y-66294000D01*
X169017000Y-66294000D01*
X169017000Y-66040000D01*
X169037000Y-66040000D01*
X169037000Y-64846845D01*
X168807110Y-64725524D01*
X168659901Y-64770175D01*
X168397080Y-64895359D01*
X168163731Y-65069412D01*
X168087966Y-65153466D01*
X168063502Y-65072820D01*
X168004537Y-64962506D01*
X167925185Y-64865815D01*
X167828494Y-64786463D01*
X167718180Y-64727498D01*
X167598482Y-64691188D01*
X167474000Y-64678928D01*
X165774000Y-64678928D01*
X165649518Y-64691188D01*
X165529820Y-64727498D01*
X165419506Y-64786463D01*
X165322815Y-64865815D01*
X165243463Y-64962506D01*
X165184498Y-65072820D01*
X165148188Y-65192518D01*
X165135928Y-65317000D01*
X159575372Y-65317000D01*
X159610076Y-62379807D01*
X159707411Y-62339490D01*
X159950632Y-62176975D01*
X160157475Y-61970132D01*
X160319990Y-61726911D01*
X160431932Y-61456658D01*
X160489000Y-61169760D01*
X160489000Y-60877240D01*
X160431932Y-60590342D01*
X160319990Y-60320089D01*
X160157475Y-60076868D01*
X159950632Y-59870025D01*
X159776240Y-59753500D01*
X159950632Y-59636975D01*
X160157475Y-59430132D01*
X160319990Y-59186911D01*
X160431932Y-58916658D01*
X160489000Y-58629760D01*
X160489000Y-58337240D01*
X160431932Y-58050342D01*
X160319990Y-57780089D01*
X160157475Y-57536868D01*
X159950632Y-57330025D01*
X159707411Y-57167510D01*
X159437158Y-57055568D01*
X159150260Y-56998500D01*
X158857740Y-56998500D01*
X158570842Y-57055568D01*
X158300589Y-57167510D01*
X158057368Y-57330025D01*
X157850525Y-57536868D01*
X157728805Y-57719034D01*
X157659178Y-57602145D01*
X157464269Y-57385912D01*
X157230920Y-57211859D01*
X156968099Y-57086675D01*
X156820890Y-57042024D01*
X156591000Y-57163345D01*
X156591000Y-58356500D01*
X156611000Y-58356500D01*
X156611000Y-58610500D01*
X156591000Y-58610500D01*
X156591000Y-58630500D01*
X156337000Y-58630500D01*
X156337000Y-58610500D01*
X154051000Y-58610500D01*
X154051000Y-58630500D01*
X153797000Y-58630500D01*
X153797000Y-58610500D01*
X153777000Y-58610500D01*
X153777000Y-58356500D01*
X153797000Y-58356500D01*
X153797000Y-58336500D01*
X154051000Y-58336500D01*
X154051000Y-58356500D01*
X156337000Y-58356500D01*
X156337000Y-57163345D01*
X156107110Y-57042024D01*
X155959901Y-57086675D01*
X155697080Y-57211859D01*
X155463731Y-57385912D01*
X155268822Y-57602145D01*
X155194000Y-57727755D01*
X155119178Y-57602145D01*
X154924269Y-57385912D01*
X154690920Y-57211859D01*
X154428099Y-57086675D01*
X154280890Y-57042024D01*
X154051002Y-57163344D01*
X154051002Y-57068077D01*
X154150879Y-56968200D01*
X159913031Y-56968200D01*
X159956500Y-56972481D01*
X159999969Y-56968200D01*
X159999977Y-56968200D01*
X160128924Y-56955500D01*
X161517782Y-56955500D01*
X169368321Y-64806040D01*
G37*
%TD.AperFunction*%
D23*
X136139768Y-85083139D02*
X136163341Y-85112377D01*
X136217794Y-85157864D01*
X136272330Y-85203743D01*
X136273466Y-85204368D01*
X136274456Y-85205195D01*
X136336733Y-85239183D01*
X136399176Y-85273543D01*
X136400411Y-85273934D01*
X136401545Y-85274553D01*
X136469284Y-85295746D01*
X136537202Y-85317256D01*
X136538491Y-85317399D01*
X136539722Y-85317784D01*
X136610326Y-85325359D01*
X136681103Y-85333201D01*
X136718528Y-85329975D01*
X140572189Y-85363485D01*
X140652395Y-85417077D01*
X140813455Y-85483790D01*
X140984435Y-85517800D01*
X141158765Y-85517800D01*
X141329745Y-85483790D01*
X141490805Y-85417077D01*
X141635755Y-85320224D01*
X141759024Y-85196955D01*
X141855877Y-85052005D01*
X141922590Y-84890945D01*
X141944265Y-84781978D01*
X143351533Y-84773764D01*
X143420995Y-84820177D01*
X143582055Y-84886890D01*
X143753035Y-84920900D01*
X143896954Y-84920900D01*
X143872248Y-84945606D01*
X143785255Y-84962910D01*
X143624195Y-85029623D01*
X143479245Y-85126476D01*
X143355976Y-85249745D01*
X143259123Y-85394695D01*
X143192410Y-85555755D01*
X143158400Y-85726735D01*
X143158400Y-85901065D01*
X143192410Y-86072045D01*
X143259123Y-86233105D01*
X143355976Y-86378055D01*
X143479245Y-86501324D01*
X143624195Y-86598177D01*
X143785255Y-86664890D01*
X143956235Y-86698900D01*
X144130565Y-86698900D01*
X144301545Y-86664890D01*
X144462605Y-86598177D01*
X144607555Y-86501324D01*
X144730824Y-86378055D01*
X144827677Y-86233105D01*
X144894390Y-86072045D01*
X144911694Y-85985052D01*
X145290380Y-85606366D01*
X145290380Y-86177615D01*
X141694286Y-89317250D01*
X141544975Y-89346950D01*
X141383915Y-89413663D01*
X141238965Y-89510516D01*
X141115696Y-89633785D01*
X141018843Y-89778735D01*
X140952130Y-89939795D01*
X140918120Y-90110775D01*
X140918120Y-90285105D01*
X140952130Y-90456085D01*
X141018843Y-90617145D01*
X141115696Y-90762095D01*
X141238965Y-90885364D01*
X141383915Y-90982217D01*
X141544975Y-91048930D01*
X141715955Y-91082940D01*
X141890285Y-91082940D01*
X142061265Y-91048930D01*
X142222325Y-90982217D01*
X142367275Y-90885364D01*
X142490544Y-90762095D01*
X142587397Y-90617145D01*
X142654110Y-90456085D01*
X142660226Y-90425337D01*
X146500336Y-87072660D01*
X146547617Y-87033858D01*
X146577758Y-86997132D01*
X146610319Y-86962521D01*
X146623586Y-86941290D01*
X146639467Y-86921940D01*
X146661865Y-86880036D01*
X146687046Y-86839741D01*
X146695916Y-86816330D01*
X146707717Y-86794253D01*
X146721509Y-86748787D01*
X146738346Y-86704351D01*
X146742479Y-86679658D01*
X146749745Y-86655705D01*
X146754402Y-86608420D01*
X146762246Y-86561555D01*
X146760380Y-86500419D01*
X146760380Y-82207049D01*
X146784643Y-82265625D01*
X146881496Y-82410575D01*
X147004765Y-82533844D01*
X147149715Y-82630697D01*
X147214921Y-82657706D01*
X147214920Y-90639707D01*
X147165643Y-90713455D01*
X147098930Y-90874515D01*
X147064920Y-91045495D01*
X147064920Y-91219825D01*
X147098901Y-91390660D01*
X145397194Y-91390660D01*
X145348996Y-91358455D01*
X145160638Y-91280434D01*
X144960679Y-91240660D01*
X144756801Y-91240660D01*
X144556842Y-91280434D01*
X144368484Y-91358455D01*
X144320286Y-91390660D01*
X133701339Y-91390660D01*
X133244534Y-90933856D01*
X133216817Y-90900083D01*
X133082059Y-90789489D01*
X132928313Y-90707311D01*
X132761490Y-90656705D01*
X132631477Y-90643900D01*
X132631469Y-90643900D01*
X132588000Y-90639619D01*
X132544531Y-90643900D01*
X132215700Y-90643900D01*
X132215700Y-81062288D01*
X136139768Y-85083139D01*
%TA.AperFunction,Conductor*%
D24*
G36*
X136139768Y-85083139D02*
G01*
X136163341Y-85112377D01*
X136217794Y-85157864D01*
X136272330Y-85203743D01*
X136273466Y-85204368D01*
X136274456Y-85205195D01*
X136336733Y-85239183D01*
X136399176Y-85273543D01*
X136400411Y-85273934D01*
X136401545Y-85274553D01*
X136469284Y-85295746D01*
X136537202Y-85317256D01*
X136538491Y-85317399D01*
X136539722Y-85317784D01*
X136610326Y-85325359D01*
X136681103Y-85333201D01*
X136718528Y-85329975D01*
X140572189Y-85363485D01*
X140652395Y-85417077D01*
X140813455Y-85483790D01*
X140984435Y-85517800D01*
X141158765Y-85517800D01*
X141329745Y-85483790D01*
X141490805Y-85417077D01*
X141635755Y-85320224D01*
X141759024Y-85196955D01*
X141855877Y-85052005D01*
X141922590Y-84890945D01*
X141944265Y-84781978D01*
X143351533Y-84773764D01*
X143420995Y-84820177D01*
X143582055Y-84886890D01*
X143753035Y-84920900D01*
X143896954Y-84920900D01*
X143872248Y-84945606D01*
X143785255Y-84962910D01*
X143624195Y-85029623D01*
X143479245Y-85126476D01*
X143355976Y-85249745D01*
X143259123Y-85394695D01*
X143192410Y-85555755D01*
X143158400Y-85726735D01*
X143158400Y-85901065D01*
X143192410Y-86072045D01*
X143259123Y-86233105D01*
X143355976Y-86378055D01*
X143479245Y-86501324D01*
X143624195Y-86598177D01*
X143785255Y-86664890D01*
X143956235Y-86698900D01*
X144130565Y-86698900D01*
X144301545Y-86664890D01*
X144462605Y-86598177D01*
X144607555Y-86501324D01*
X144730824Y-86378055D01*
X144827677Y-86233105D01*
X144894390Y-86072045D01*
X144911694Y-85985052D01*
X145290380Y-85606366D01*
X145290380Y-86177615D01*
X141694286Y-89317250D01*
X141544975Y-89346950D01*
X141383915Y-89413663D01*
X141238965Y-89510516D01*
X141115696Y-89633785D01*
X141018843Y-89778735D01*
X140952130Y-89939795D01*
X140918120Y-90110775D01*
X140918120Y-90285105D01*
X140952130Y-90456085D01*
X141018843Y-90617145D01*
X141115696Y-90762095D01*
X141238965Y-90885364D01*
X141383915Y-90982217D01*
X141544975Y-91048930D01*
X141715955Y-91082940D01*
X141890285Y-91082940D01*
X142061265Y-91048930D01*
X142222325Y-90982217D01*
X142367275Y-90885364D01*
X142490544Y-90762095D01*
X142587397Y-90617145D01*
X142654110Y-90456085D01*
X142660226Y-90425337D01*
X146500336Y-87072660D01*
X146547617Y-87033858D01*
X146577758Y-86997132D01*
X146610319Y-86962521D01*
X146623586Y-86941290D01*
X146639467Y-86921940D01*
X146661865Y-86880036D01*
X146687046Y-86839741D01*
X146695916Y-86816330D01*
X146707717Y-86794253D01*
X146721509Y-86748787D01*
X146738346Y-86704351D01*
X146742479Y-86679658D01*
X146749745Y-86655705D01*
X146754402Y-86608420D01*
X146762246Y-86561555D01*
X146760380Y-86500419D01*
X146760380Y-82207049D01*
X146784643Y-82265625D01*
X146881496Y-82410575D01*
X147004765Y-82533844D01*
X147149715Y-82630697D01*
X147214921Y-82657706D01*
X147214920Y-90639707D01*
X147165643Y-90713455D01*
X147098930Y-90874515D01*
X147064920Y-91045495D01*
X147064920Y-91219825D01*
X147098901Y-91390660D01*
X145397194Y-91390660D01*
X145348996Y-91358455D01*
X145160638Y-91280434D01*
X144960679Y-91240660D01*
X144756801Y-91240660D01*
X144556842Y-91280434D01*
X144368484Y-91358455D01*
X144320286Y-91390660D01*
X133701339Y-91390660D01*
X133244534Y-90933856D01*
X133216817Y-90900083D01*
X133082059Y-90789489D01*
X132928313Y-90707311D01*
X132761490Y-90656705D01*
X132631477Y-90643900D01*
X132631469Y-90643900D01*
X132588000Y-90639619D01*
X132544531Y-90643900D01*
X132215700Y-90643900D01*
X132215700Y-81062288D01*
X136139768Y-85083139D01*
G37*
%TD.AperFunction*%
D23*
X147528010Y-61726911D02*
X147690525Y-61970132D01*
X147897368Y-62176975D01*
X148109000Y-62318383D01*
X148109001Y-65229186D01*
X148109000Y-65229196D01*
X148109000Y-65737195D01*
X148105444Y-65773300D01*
X148109000Y-65809405D01*
X148119635Y-65917385D01*
X148161663Y-66055933D01*
X148229913Y-66183620D01*
X148279460Y-66243992D01*
X148297810Y-66336245D01*
X148364523Y-66497305D01*
X148374963Y-66512930D01*
X148363917Y-72467175D01*
X148313723Y-72542295D01*
X148247010Y-72703355D01*
X148213000Y-72874335D01*
X148213000Y-73048665D01*
X148247010Y-73219645D01*
X148313723Y-73380705D01*
X148410576Y-73525655D01*
X148533845Y-73648924D01*
X148678795Y-73745777D01*
X148839855Y-73812490D01*
X149010835Y-73846500D01*
X149185165Y-73846500D01*
X149356145Y-73812490D01*
X149517205Y-73745777D01*
X149662155Y-73648924D01*
X149785424Y-73525655D01*
X149882277Y-73380705D01*
X149948990Y-73219645D01*
X149983000Y-73048665D01*
X149983000Y-72874335D01*
X149948990Y-72703355D01*
X149882277Y-72542295D01*
X149833913Y-72469913D01*
X149844748Y-66629498D01*
X149933077Y-66497305D01*
X149999790Y-66336245D01*
X150033800Y-66165265D01*
X150033800Y-65990935D01*
X149999790Y-65819955D01*
X149933077Y-65658895D01*
X149836224Y-65513945D01*
X149712955Y-65390676D01*
X149579000Y-65301170D01*
X149579000Y-62318383D01*
X149790632Y-62176975D01*
X149997475Y-61970132D01*
X150114000Y-61795740D01*
X150230525Y-61970132D01*
X150437368Y-62176975D01*
X150680589Y-62339490D01*
X150950842Y-62451432D01*
X151237740Y-62508500D01*
X151530260Y-62508500D01*
X151817158Y-62451432D01*
X152087411Y-62339490D01*
X152330632Y-62176975D01*
X152537475Y-61970132D01*
X152654000Y-61795740D01*
X152770525Y-61970132D01*
X152977368Y-62176975D01*
X153220589Y-62339490D01*
X153490842Y-62451432D01*
X153777740Y-62508500D01*
X154070260Y-62508500D01*
X154357158Y-62451432D01*
X154627411Y-62339490D01*
X154870632Y-62176975D01*
X155077475Y-61970132D01*
X155194000Y-61795740D01*
X155310525Y-61970132D01*
X155517368Y-62176975D01*
X155760589Y-62339490D01*
X156030842Y-62451432D01*
X156317740Y-62508500D01*
X156610260Y-62508500D01*
X156897158Y-62451432D01*
X157167411Y-62339490D01*
X157410632Y-62176975D01*
X157617475Y-61970132D01*
X157734000Y-61795740D01*
X157850525Y-61970132D01*
X158057368Y-62176975D01*
X158141705Y-62233327D01*
X158053548Y-69694643D01*
X157914394Y-69601663D01*
X157753334Y-69534950D01*
X157639255Y-69512258D01*
X157607090Y-69350555D01*
X157540377Y-69189495D01*
X157443524Y-69044545D01*
X157320255Y-68921276D01*
X157175305Y-68824423D01*
X157014245Y-68757710D01*
X156843265Y-68723700D01*
X156668935Y-68723700D01*
X156497955Y-68757710D01*
X156336895Y-68824423D01*
X156191945Y-68921276D01*
X156068676Y-69044545D01*
X155971823Y-69189495D01*
X155905110Y-69350555D01*
X155871100Y-69521535D01*
X155871100Y-69695865D01*
X155905110Y-69866845D01*
X155971823Y-70027905D01*
X156021100Y-70101653D01*
X156021101Y-74919285D01*
X156017544Y-74955400D01*
X156031735Y-75099485D01*
X156058735Y-75188489D01*
X156073764Y-75238033D01*
X156142014Y-75365720D01*
X156233863Y-75477638D01*
X156261908Y-75500654D01*
X158026946Y-77265693D01*
X158049962Y-77293738D01*
X158161880Y-77385587D01*
X158173615Y-77391860D01*
X155386144Y-77383641D01*
X155361188Y-77386042D01*
X155337352Y-77393232D01*
X155315377Y-77404934D01*
X155296107Y-77420698D01*
X155280283Y-77439918D01*
X155268513Y-77461857D01*
X155261249Y-77485670D01*
X155258770Y-77510442D01*
X155248990Y-83789326D01*
X149906800Y-83836065D01*
X149906800Y-80276674D01*
X149939005Y-80228476D01*
X150017026Y-80040118D01*
X150056800Y-79840159D01*
X150056800Y-79636281D01*
X150017026Y-79436322D01*
X149939005Y-79247964D01*
X149825737Y-79078446D01*
X149681574Y-78934283D01*
X149512056Y-78821015D01*
X149323698Y-78742994D01*
X149266844Y-78731685D01*
X146909734Y-76374576D01*
X146882017Y-76340803D01*
X146747259Y-76230209D01*
X146593513Y-76148031D01*
X146426690Y-76097425D01*
X146296677Y-76084620D01*
X146296669Y-76084620D01*
X146253200Y-76080339D01*
X146209731Y-76084620D01*
X145121440Y-76084620D01*
X145121440Y-65095938D01*
X147140350Y-63077029D01*
X147174117Y-63049317D01*
X147284711Y-62914559D01*
X147366889Y-62760813D01*
X147417495Y-62593990D01*
X147430300Y-62463977D01*
X147430300Y-62463967D01*
X147434581Y-62420501D01*
X147430300Y-62377035D01*
X147430300Y-61491017D01*
X147528010Y-61726911D01*
%TA.AperFunction,Conductor*%
D24*
G36*
X147528010Y-61726911D02*
G01*
X147690525Y-61970132D01*
X147897368Y-62176975D01*
X148109000Y-62318383D01*
X148109001Y-65229186D01*
X148109000Y-65229196D01*
X148109000Y-65737195D01*
X148105444Y-65773300D01*
X148109000Y-65809405D01*
X148119635Y-65917385D01*
X148161663Y-66055933D01*
X148229913Y-66183620D01*
X148279460Y-66243992D01*
X148297810Y-66336245D01*
X148364523Y-66497305D01*
X148374963Y-66512930D01*
X148363917Y-72467175D01*
X148313723Y-72542295D01*
X148247010Y-72703355D01*
X148213000Y-72874335D01*
X148213000Y-73048665D01*
X148247010Y-73219645D01*
X148313723Y-73380705D01*
X148410576Y-73525655D01*
X148533845Y-73648924D01*
X148678795Y-73745777D01*
X148839855Y-73812490D01*
X149010835Y-73846500D01*
X149185165Y-73846500D01*
X149356145Y-73812490D01*
X149517205Y-73745777D01*
X149662155Y-73648924D01*
X149785424Y-73525655D01*
X149882277Y-73380705D01*
X149948990Y-73219645D01*
X149983000Y-73048665D01*
X149983000Y-72874335D01*
X149948990Y-72703355D01*
X149882277Y-72542295D01*
X149833913Y-72469913D01*
X149844748Y-66629498D01*
X149933077Y-66497305D01*
X149999790Y-66336245D01*
X150033800Y-66165265D01*
X150033800Y-65990935D01*
X149999790Y-65819955D01*
X149933077Y-65658895D01*
X149836224Y-65513945D01*
X149712955Y-65390676D01*
X149579000Y-65301170D01*
X149579000Y-62318383D01*
X149790632Y-62176975D01*
X149997475Y-61970132D01*
X150114000Y-61795740D01*
X150230525Y-61970132D01*
X150437368Y-62176975D01*
X150680589Y-62339490D01*
X150950842Y-62451432D01*
X151237740Y-62508500D01*
X151530260Y-62508500D01*
X151817158Y-62451432D01*
X152087411Y-62339490D01*
X152330632Y-62176975D01*
X152537475Y-61970132D01*
X152654000Y-61795740D01*
X152770525Y-61970132D01*
X152977368Y-62176975D01*
X153220589Y-62339490D01*
X153490842Y-62451432D01*
X153777740Y-62508500D01*
X154070260Y-62508500D01*
X154357158Y-62451432D01*
X154627411Y-62339490D01*
X154870632Y-62176975D01*
X155077475Y-61970132D01*
X155194000Y-61795740D01*
X155310525Y-61970132D01*
X155517368Y-62176975D01*
X155760589Y-62339490D01*
X156030842Y-62451432D01*
X156317740Y-62508500D01*
X156610260Y-62508500D01*
X156897158Y-62451432D01*
X157167411Y-62339490D01*
X157410632Y-62176975D01*
X157617475Y-61970132D01*
X157734000Y-61795740D01*
X157850525Y-61970132D01*
X158057368Y-62176975D01*
X158141705Y-62233327D01*
X158053548Y-69694643D01*
X157914394Y-69601663D01*
X157753334Y-69534950D01*
X157639255Y-69512258D01*
X157607090Y-69350555D01*
X157540377Y-69189495D01*
X157443524Y-69044545D01*
X157320255Y-68921276D01*
X157175305Y-68824423D01*
X157014245Y-68757710D01*
X156843265Y-68723700D01*
X156668935Y-68723700D01*
X156497955Y-68757710D01*
X156336895Y-68824423D01*
X156191945Y-68921276D01*
X156068676Y-69044545D01*
X155971823Y-69189495D01*
X155905110Y-69350555D01*
X155871100Y-69521535D01*
X155871100Y-69695865D01*
X155905110Y-69866845D01*
X155971823Y-70027905D01*
X156021100Y-70101653D01*
X156021101Y-74919285D01*
X156017544Y-74955400D01*
X156031735Y-75099485D01*
X156058735Y-75188489D01*
X156073764Y-75238033D01*
X156142014Y-75365720D01*
X156233863Y-75477638D01*
X156261908Y-75500654D01*
X158026946Y-77265693D01*
X158049962Y-77293738D01*
X158161880Y-77385587D01*
X158173615Y-77391860D01*
X155386144Y-77383641D01*
X155361188Y-77386042D01*
X155337352Y-77393232D01*
X155315377Y-77404934D01*
X155296107Y-77420698D01*
X155280283Y-77439918D01*
X155268513Y-77461857D01*
X155261249Y-77485670D01*
X155258770Y-77510442D01*
X155248990Y-83789326D01*
X149906800Y-83836065D01*
X149906800Y-80276674D01*
X149939005Y-80228476D01*
X150017026Y-80040118D01*
X150056800Y-79840159D01*
X150056800Y-79636281D01*
X150017026Y-79436322D01*
X149939005Y-79247964D01*
X149825737Y-79078446D01*
X149681574Y-78934283D01*
X149512056Y-78821015D01*
X149323698Y-78742994D01*
X149266844Y-78731685D01*
X146909734Y-76374576D01*
X146882017Y-76340803D01*
X146747259Y-76230209D01*
X146593513Y-76148031D01*
X146426690Y-76097425D01*
X146296677Y-76084620D01*
X146296669Y-76084620D01*
X146253200Y-76080339D01*
X146209731Y-76084620D01*
X145121440Y-76084620D01*
X145121440Y-65095938D01*
X147140350Y-63077029D01*
X147174117Y-63049317D01*
X147284711Y-62914559D01*
X147366889Y-62760813D01*
X147417495Y-62593990D01*
X147430300Y-62463977D01*
X147430300Y-62463967D01*
X147434581Y-62420501D01*
X147430300Y-62377035D01*
X147430300Y-61491017D01*
X147528010Y-61726911D01*
G37*
%TD.AperFunction*%
D23*
X147499843Y-59114752D02*
X147648822Y-59364855D01*
X147843731Y-59581088D01*
X148073406Y-59752400D01*
X147897368Y-59870025D01*
X147690525Y-60076868D01*
X147528010Y-60320089D01*
X147430300Y-60555983D01*
X147430300Y-58918707D01*
X147499843Y-59114752D01*
%TA.AperFunction,Conductor*%
D24*
G36*
X147499843Y-59114752D02*
G01*
X147648822Y-59364855D01*
X147843731Y-59581088D01*
X148073406Y-59752400D01*
X147897368Y-59870025D01*
X147690525Y-60076868D01*
X147528010Y-60320089D01*
X147430300Y-60555983D01*
X147430300Y-58918707D01*
X147499843Y-59114752D01*
G37*
%TD.AperFunction*%
%TD*%
M02*
