%TF.GenerationSoftware,KiCad,Pcbnew,(5.1.9)-1*%
%TF.CreationDate,2021-08-09T15:54:16+01:00*%
%TF.ProjectId,OpenFlopsShort,4f70656e-466c-46f7-9073-53686f72742e,rev?*%
%TF.SameCoordinates,Original*%
%TF.FileFunction,Legend,Top*%
%TF.FilePolarity,Positive*%
%FSLAX46Y46*%
G04 Gerber Fmt 4.6, Leading zero omitted, Abs format (unit mm)*
G04 Created by KiCad (PCBNEW (5.1.9)-1) date 2021-08-09 15:54:16*
%MOMM*%
%LPD*%
G01*
G04 APERTURE LIST*
%ADD10C,0.150000*%
%ADD11C,0.300000*%
%ADD12C,0.125000*%
%ADD13C,0.120000*%
G04 APERTURE END LIST*
D10*
X144373600Y-101768185D02*
X144468838Y-101863423D01*
X144373600Y-101958661D01*
X144278361Y-101863423D01*
X144373600Y-101768185D01*
X144373600Y-101958661D01*
D11*
X122602571Y-90912071D02*
X121745428Y-90912071D01*
X122174000Y-90912071D02*
X122174000Y-89412071D01*
X122031142Y-89626357D01*
X121888285Y-89769214D01*
X121745428Y-89840642D01*
X119562571Y-89412071D02*
X119705428Y-89412071D01*
X119848285Y-89483500D01*
X119919714Y-89554928D01*
X119991142Y-89697785D01*
X120062571Y-89983500D01*
X120062571Y-90340642D01*
X119991142Y-90626357D01*
X119919714Y-90769214D01*
X119848285Y-90840642D01*
X119705428Y-90912071D01*
X119562571Y-90912071D01*
X119419714Y-90840642D01*
X119348285Y-90769214D01*
X119276857Y-90626357D01*
X119205428Y-90340642D01*
X119205428Y-89983500D01*
X119276857Y-89697785D01*
X119348285Y-89554928D01*
X119419714Y-89483500D01*
X119562571Y-89412071D01*
D12*
X125186809Y-59527618D02*
X125139190Y-59503808D01*
X125043952Y-59503808D01*
X124996333Y-59527618D01*
X124948714Y-59575237D01*
X124924904Y-59622856D01*
X124924904Y-59718094D01*
X124948714Y-59765713D01*
X124996333Y-59813332D01*
X125043952Y-59837141D01*
X125139190Y-59837141D01*
X125186809Y-59813332D01*
X125091571Y-59337141D02*
X124972523Y-59360951D01*
X124853476Y-59432380D01*
X124782047Y-59551427D01*
X124758238Y-59670475D01*
X124782047Y-59789522D01*
X124853476Y-59908570D01*
X124972523Y-59979999D01*
X125091571Y-60003808D01*
X125210619Y-59979999D01*
X125329666Y-59908570D01*
X125401095Y-59789522D01*
X125424904Y-59670475D01*
X125401095Y-59551427D01*
X125329666Y-59432380D01*
X125210619Y-59360951D01*
X125091571Y-59337141D01*
X125853476Y-59908570D02*
X125853476Y-59408570D01*
X125853476Y-59884760D02*
X125805857Y-59908570D01*
X125710619Y-59908570D01*
X125663000Y-59884760D01*
X125639190Y-59860951D01*
X125615380Y-59813332D01*
X125615380Y-59670475D01*
X125639190Y-59622856D01*
X125663000Y-59599046D01*
X125710619Y-59575237D01*
X125805857Y-59575237D01*
X125853476Y-59599046D01*
X126305857Y-59908570D02*
X126305857Y-59646665D01*
X126282047Y-59599046D01*
X126234428Y-59575237D01*
X126139190Y-59575237D01*
X126091571Y-59599046D01*
X126305857Y-59884760D02*
X126258238Y-59908570D01*
X126139190Y-59908570D01*
X126091571Y-59884760D01*
X126067761Y-59837141D01*
X126067761Y-59789522D01*
X126091571Y-59741903D01*
X126139190Y-59718094D01*
X126258238Y-59718094D01*
X126305857Y-59694284D01*
X126543952Y-59575237D02*
X126543952Y-59908570D01*
X126543952Y-59622856D02*
X126567761Y-59599046D01*
X126615380Y-59575237D01*
X126686809Y-59575237D01*
X126734428Y-59599046D01*
X126758238Y-59646665D01*
X126758238Y-59908570D01*
X126996333Y-59575237D02*
X126996333Y-59908570D01*
X126996333Y-59622856D02*
X127020142Y-59599046D01*
X127067761Y-59575237D01*
X127139190Y-59575237D01*
X127186809Y-59599046D01*
X127210619Y-59646665D01*
X127210619Y-59908570D01*
X127401095Y-59575237D02*
X127520142Y-59908570D01*
X127639190Y-59575237D02*
X127520142Y-59908570D01*
X127472523Y-60027618D01*
X127448714Y-60051427D01*
X127401095Y-60075237D01*
X128043952Y-59908570D02*
X128043952Y-59646665D01*
X128020142Y-59599046D01*
X127972523Y-59575237D01*
X127877285Y-59575237D01*
X127829666Y-59599046D01*
X128043952Y-59884760D02*
X127996333Y-59908570D01*
X127877285Y-59908570D01*
X127829666Y-59884760D01*
X127805857Y-59837141D01*
X127805857Y-59789522D01*
X127829666Y-59741903D01*
X127877285Y-59718094D01*
X127996333Y-59718094D01*
X128043952Y-59694284D01*
X128282047Y-59908570D02*
X128282047Y-59575237D01*
X128282047Y-59670475D02*
X128305857Y-59622856D01*
X128329666Y-59599046D01*
X128377285Y-59575237D01*
X128424904Y-59575237D01*
X128591571Y-59575237D02*
X128591571Y-59908570D01*
X128591571Y-59622856D02*
X128615380Y-59599046D01*
X128663000Y-59575237D01*
X128734428Y-59575237D01*
X128782047Y-59599046D01*
X128805857Y-59646665D01*
X128805857Y-59908570D01*
X129115380Y-59908570D02*
X129067761Y-59884760D01*
X129043952Y-59860951D01*
X129020142Y-59813332D01*
X129020142Y-59670475D01*
X129043952Y-59622856D01*
X129067761Y-59599046D01*
X129115380Y-59575237D01*
X129186809Y-59575237D01*
X129234428Y-59599046D01*
X129258238Y-59622856D01*
X129282047Y-59670475D01*
X129282047Y-59813332D01*
X129258238Y-59860951D01*
X129234428Y-59884760D01*
X129186809Y-59908570D01*
X129115380Y-59908570D01*
X129567761Y-59908570D02*
X129520142Y-59884760D01*
X129496333Y-59837141D01*
X129496333Y-59408570D01*
X129972523Y-59908570D02*
X129972523Y-59408570D01*
X129972523Y-59884760D02*
X129924904Y-59908570D01*
X129829666Y-59908570D01*
X129782047Y-59884760D01*
X129758238Y-59860951D01*
X129734428Y-59813332D01*
X129734428Y-59670475D01*
X129758238Y-59622856D01*
X129782047Y-59599046D01*
X129829666Y-59575237D01*
X129924904Y-59575237D01*
X129972523Y-59599046D01*
X130210619Y-59860951D02*
X130234428Y-59884760D01*
X130210619Y-59908570D01*
X130186809Y-59884760D01*
X130210619Y-59860951D01*
X130210619Y-59908570D01*
X130663000Y-59884760D02*
X130615380Y-59908570D01*
X130520142Y-59908570D01*
X130472523Y-59884760D01*
X130448714Y-59860951D01*
X130424904Y-59813332D01*
X130424904Y-59670475D01*
X130448714Y-59622856D01*
X130472523Y-59599046D01*
X130520142Y-59575237D01*
X130615380Y-59575237D01*
X130663000Y-59599046D01*
X130948714Y-59908570D02*
X130901095Y-59884760D01*
X130877285Y-59860951D01*
X130853476Y-59813332D01*
X130853476Y-59670475D01*
X130877285Y-59622856D01*
X130901095Y-59599046D01*
X130948714Y-59575237D01*
X131020142Y-59575237D01*
X131067761Y-59599046D01*
X131091571Y-59622856D01*
X131115380Y-59670475D01*
X131115380Y-59813332D01*
X131091571Y-59860951D01*
X131067761Y-59884760D01*
X131020142Y-59908570D01*
X130948714Y-59908570D01*
X131329666Y-59908570D02*
X131329666Y-59575237D01*
X131329666Y-59622856D02*
X131353476Y-59599046D01*
X131401095Y-59575237D01*
X131472523Y-59575237D01*
X131520142Y-59599046D01*
X131543952Y-59646665D01*
X131543952Y-59908570D01*
X131543952Y-59646665D02*
X131567761Y-59599046D01*
X131615380Y-59575237D01*
X131686809Y-59575237D01*
X131734428Y-59599046D01*
X131758238Y-59646665D01*
X131758238Y-59908570D01*
X132353476Y-59456189D02*
X132377285Y-59432380D01*
X132424904Y-59408570D01*
X132543952Y-59408570D01*
X132591571Y-59432380D01*
X132615380Y-59456189D01*
X132639190Y-59503808D01*
X132639190Y-59551427D01*
X132615380Y-59622856D01*
X132329666Y-59908570D01*
X132639190Y-59908570D01*
X132948714Y-59408570D02*
X132996333Y-59408570D01*
X133043952Y-59432380D01*
X133067761Y-59456189D01*
X133091571Y-59503808D01*
X133115380Y-59599046D01*
X133115380Y-59718094D01*
X133091571Y-59813332D01*
X133067761Y-59860951D01*
X133043952Y-59884760D01*
X132996333Y-59908570D01*
X132948714Y-59908570D01*
X132901095Y-59884760D01*
X132877285Y-59860951D01*
X132853476Y-59813332D01*
X132829666Y-59718094D01*
X132829666Y-59599046D01*
X132853476Y-59503808D01*
X132877285Y-59456189D01*
X132901095Y-59432380D01*
X132948714Y-59408570D01*
X133305857Y-59456189D02*
X133329666Y-59432380D01*
X133377285Y-59408570D01*
X133496333Y-59408570D01*
X133543952Y-59432380D01*
X133567761Y-59456189D01*
X133591571Y-59503808D01*
X133591571Y-59551427D01*
X133567761Y-59622856D01*
X133282047Y-59908570D01*
X133591571Y-59908570D01*
X134067761Y-59908570D02*
X133782047Y-59908570D01*
X133924904Y-59908570D02*
X133924904Y-59408570D01*
X133877285Y-59479999D01*
X133829666Y-59527618D01*
X133782047Y-59551427D01*
D11*
X117301380Y-56052221D02*
X117682333Y-56052221D01*
X117872809Y-56147460D01*
X118063285Y-56337936D01*
X118158523Y-56718888D01*
X118158523Y-57385555D01*
X118063285Y-57766507D01*
X117872809Y-57956983D01*
X117682333Y-58052221D01*
X117301380Y-58052221D01*
X117110904Y-57956983D01*
X116920428Y-57766507D01*
X116825190Y-57385555D01*
X116825190Y-56718888D01*
X116920428Y-56337936D01*
X117110904Y-56147460D01*
X117301380Y-56052221D01*
X119015666Y-56718888D02*
X119015666Y-58718888D01*
X119015666Y-56814126D02*
X119206142Y-56718888D01*
X119587095Y-56718888D01*
X119777571Y-56814126D01*
X119872809Y-56909364D01*
X119968047Y-57099840D01*
X119968047Y-57671269D01*
X119872809Y-57861745D01*
X119777571Y-57956983D01*
X119587095Y-58052221D01*
X119206142Y-58052221D01*
X119015666Y-57956983D01*
X121587095Y-57956983D02*
X121396619Y-58052221D01*
X121015666Y-58052221D01*
X120825190Y-57956983D01*
X120729952Y-57766507D01*
X120729952Y-57004602D01*
X120825190Y-56814126D01*
X121015666Y-56718888D01*
X121396619Y-56718888D01*
X121587095Y-56814126D01*
X121682333Y-57004602D01*
X121682333Y-57195079D01*
X120729952Y-57385555D01*
X122539476Y-56718888D02*
X122539476Y-58052221D01*
X122539476Y-56909364D02*
X122634714Y-56814126D01*
X122825190Y-56718888D01*
X123110904Y-56718888D01*
X123301380Y-56814126D01*
X123396619Y-57004602D01*
X123396619Y-58052221D01*
X125015666Y-57004602D02*
X124349000Y-57004602D01*
X124349000Y-58052221D02*
X124349000Y-56052221D01*
X125301380Y-56052221D01*
X126349000Y-58052221D02*
X126158523Y-57956983D01*
X126063285Y-57766507D01*
X126063285Y-56052221D01*
X127396619Y-58052221D02*
X127206142Y-57956983D01*
X127110904Y-57861745D01*
X127015666Y-57671269D01*
X127015666Y-57099840D01*
X127110904Y-56909364D01*
X127206142Y-56814126D01*
X127396619Y-56718888D01*
X127682333Y-56718888D01*
X127872809Y-56814126D01*
X127968047Y-56909364D01*
X128063285Y-57099840D01*
X128063285Y-57671269D01*
X127968047Y-57861745D01*
X127872809Y-57956983D01*
X127682333Y-58052221D01*
X127396619Y-58052221D01*
X128920428Y-56718888D02*
X128920428Y-58718888D01*
X128920428Y-56814126D02*
X129110904Y-56718888D01*
X129491857Y-56718888D01*
X129682333Y-56814126D01*
X129777571Y-56909364D01*
X129872809Y-57099840D01*
X129872809Y-57671269D01*
X129777571Y-57861745D01*
X129682333Y-57956983D01*
X129491857Y-58052221D01*
X129110904Y-58052221D01*
X128920428Y-57956983D01*
X131872809Y-57861745D02*
X131777571Y-57956983D01*
X131491857Y-58052221D01*
X131301380Y-58052221D01*
X131015666Y-57956983D01*
X130825190Y-57766507D01*
X130729952Y-57576031D01*
X130634714Y-57195079D01*
X130634714Y-56909364D01*
X130729952Y-56528412D01*
X130825190Y-56337936D01*
X131015666Y-56147460D01*
X131301380Y-56052221D01*
X131491857Y-56052221D01*
X131777571Y-56147460D01*
X131872809Y-56242698D01*
X133872809Y-58052221D02*
X133206142Y-57099840D01*
X132729952Y-58052221D02*
X132729952Y-56052221D01*
X133491857Y-56052221D01*
X133682333Y-56147460D01*
X133777571Y-56242698D01*
X133872809Y-56433174D01*
X133872809Y-56718888D01*
X133777571Y-56909364D01*
X133682333Y-57004602D01*
X133491857Y-57099840D01*
X132729952Y-57099840D01*
D13*
%TO.C,J1*%
X170494000Y-67313500D02*
X170494000Y-68643500D01*
X169164000Y-67313500D02*
X170494000Y-67313500D01*
X167894000Y-67313500D02*
X167894000Y-69973500D01*
X167894000Y-69973500D02*
X165294000Y-69973500D01*
X167894000Y-67313500D02*
X165294000Y-67313500D01*
X165294000Y-67313500D02*
X165294000Y-69973500D01*
%TO.C,J2*%
X165294000Y-67497000D02*
X165294000Y-66167000D01*
X166624000Y-67497000D02*
X165294000Y-67497000D01*
X167894000Y-67497000D02*
X167894000Y-64837000D01*
X167894000Y-64837000D02*
X170494000Y-64837000D01*
X167894000Y-67497000D02*
X170494000Y-67497000D01*
X170494000Y-67497000D02*
X170494000Y-64837000D01*
%TO.C,J4*%
X165294000Y-100333500D02*
X165294000Y-102993500D01*
X167894000Y-100333500D02*
X165294000Y-100333500D01*
X167894000Y-102993500D02*
X165294000Y-102993500D01*
X167894000Y-100333500D02*
X167894000Y-102993500D01*
X169164000Y-100333500D02*
X170494000Y-100333500D01*
X170494000Y-100333500D02*
X170494000Y-101663500D01*
%TO.C,J3*%
X165294000Y-97793500D02*
X165294000Y-100453500D01*
X167894000Y-97793500D02*
X165294000Y-97793500D01*
X167894000Y-100453500D02*
X165294000Y-100453500D01*
X167894000Y-97793500D02*
X167894000Y-100453500D01*
X169164000Y-97793500D02*
X170494000Y-97793500D01*
X170494000Y-97793500D02*
X170494000Y-99123500D01*
%TO.C,P6*%
X165294000Y-70488500D02*
X167954000Y-70488500D01*
X167954000Y-70488500D02*
X167954000Y-83308500D01*
X165294000Y-70488500D02*
X165294000Y-83308500D01*
X165294000Y-83308500D02*
X167954000Y-83308500D01*
%TO.C,P7*%
X167834000Y-80768500D02*
X170494000Y-80768500D01*
X167834000Y-70488500D02*
X167834000Y-80768500D01*
X170494000Y-70488500D02*
X170494000Y-80768500D01*
X167834000Y-70488500D02*
X170494000Y-70488500D01*
%TO.C,JP4*%
X119504000Y-86693500D02*
X122304000Y-86693500D01*
X122954000Y-87393500D02*
X122954000Y-87993500D01*
X122304000Y-88693500D02*
X119504000Y-88693500D01*
X118854000Y-87993500D02*
X118854000Y-87393500D01*
X119704000Y-88893500D02*
X119404000Y-89193500D01*
X119404000Y-89193500D02*
X120004000Y-89193500D01*
X119704000Y-88893500D02*
X120004000Y-89193500D01*
X118854000Y-87393500D02*
G75*
G02*
X119554000Y-86693500I700000J0D01*
G01*
X119554000Y-88693500D02*
G75*
G02*
X118854000Y-87993500I0J700000D01*
G01*
X122954000Y-87993500D02*
G75*
G02*
X122254000Y-88693500I-700000J0D01*
G01*
X122254000Y-86693500D02*
G75*
G02*
X122954000Y-87393500I0J-700000D01*
G01*
%TO.C,JP3*%
X119504000Y-82883500D02*
X122304000Y-82883500D01*
X122954000Y-83583500D02*
X122954000Y-84183500D01*
X122304000Y-84883500D02*
X119504000Y-84883500D01*
X118854000Y-84183500D02*
X118854000Y-83583500D01*
X119704000Y-85083500D02*
X119404000Y-85383500D01*
X119404000Y-85383500D02*
X120004000Y-85383500D01*
X119704000Y-85083500D02*
X120004000Y-85383500D01*
X118854000Y-83583500D02*
G75*
G02*
X119554000Y-82883500I700000J0D01*
G01*
X119554000Y-84883500D02*
G75*
G02*
X118854000Y-84183500I0J700000D01*
G01*
X122954000Y-84183500D02*
G75*
G02*
X122254000Y-84883500I-700000J0D01*
G01*
X122254000Y-82883500D02*
G75*
G02*
X122954000Y-83583500I0J-700000D01*
G01*
%TO.C,JP2*%
X119504000Y-79073500D02*
X122304000Y-79073500D01*
X122954000Y-79773500D02*
X122954000Y-80373500D01*
X122304000Y-81073500D02*
X119504000Y-81073500D01*
X118854000Y-80373500D02*
X118854000Y-79773500D01*
X119704000Y-81273500D02*
X119404000Y-81573500D01*
X119404000Y-81573500D02*
X120004000Y-81573500D01*
X119704000Y-81273500D02*
X120004000Y-81573500D01*
X118854000Y-79773500D02*
G75*
G02*
X119554000Y-79073500I700000J0D01*
G01*
X119554000Y-81073500D02*
G75*
G02*
X118854000Y-80373500I0J700000D01*
G01*
X122954000Y-80373500D02*
G75*
G02*
X122254000Y-81073500I-700000J0D01*
G01*
X122254000Y-79073500D02*
G75*
G02*
X122954000Y-79773500I0J-700000D01*
G01*
%TO.C,JP1*%
X119504000Y-75263500D02*
X122304000Y-75263500D01*
X122954000Y-75963500D02*
X122954000Y-76563500D01*
X122304000Y-77263500D02*
X119504000Y-77263500D01*
X118854000Y-76563500D02*
X118854000Y-75963500D01*
X119704000Y-77463500D02*
X119404000Y-77763500D01*
X119404000Y-77763500D02*
X120004000Y-77763500D01*
X119704000Y-77463500D02*
X120004000Y-77763500D01*
X118854000Y-75963500D02*
G75*
G02*
X119554000Y-75263500I700000J0D01*
G01*
X119554000Y-77263500D02*
G75*
G02*
X118854000Y-76563500I0J700000D01*
G01*
X122954000Y-76563500D02*
G75*
G02*
X122254000Y-77263500I-700000J0D01*
G01*
X122254000Y-75263500D02*
G75*
G02*
X122954000Y-75963500I0J-700000D01*
G01*
%TO.C,RN2*%
X115954000Y-90233500D02*
X113154000Y-90233500D01*
X115954000Y-110723500D02*
X115954000Y-87523500D01*
X113154000Y-110723500D02*
X115954000Y-110723500D01*
X113154000Y-87523500D02*
X113154000Y-110723500D01*
X115954000Y-87523500D02*
X113154000Y-87523500D01*
%TO.C,RN1*%
X115954000Y-66103500D02*
X113154000Y-66103500D01*
X115954000Y-86593500D02*
X115954000Y-63393500D01*
X113154000Y-86593500D02*
X115954000Y-86593500D01*
X113154000Y-63393500D02*
X113154000Y-86593500D01*
X115954000Y-63393500D02*
X113154000Y-63393500D01*
%TO.C,U3*%
X145445000Y-90583500D02*
X146785000Y-90583500D01*
X145445000Y-91533500D02*
X145445000Y-90583500D01*
X144495000Y-91533500D02*
X145445000Y-91533500D01*
X135225000Y-91533500D02*
X135225000Y-90583500D01*
X136175000Y-91533500D02*
X135225000Y-91533500D01*
X145445000Y-81313500D02*
X145445000Y-82263500D01*
X144495000Y-81313500D02*
X145445000Y-81313500D01*
X135225000Y-81313500D02*
X135225000Y-82263500D01*
X136175000Y-81313500D02*
X135225000Y-81313500D01*
%TO.C,P8*%
X167834000Y-85093500D02*
X169164000Y-85093500D01*
X167834000Y-86423500D02*
X167834000Y-85093500D01*
X167834000Y-87693500D02*
X170494000Y-87693500D01*
X170494000Y-87693500D02*
X170494000Y-95373500D01*
X167834000Y-87693500D02*
X167834000Y-95373500D01*
X167834000Y-95373500D02*
X170494000Y-95373500D01*
%TO.C,Y1*%
X160513000Y-86346500D02*
X160513000Y-80096500D01*
X155463000Y-86346500D02*
X155463000Y-80096500D01*
X160513000Y-80096500D02*
G75*
G03*
X155463000Y-80096500I-2525000J0D01*
G01*
X160513000Y-86346500D02*
G75*
G02*
X155463000Y-86346500I-2525000J0D01*
G01*
%TO.C,U4*%
X144253000Y-116867500D02*
X144253000Y-122877500D01*
X137433000Y-119117500D02*
X137433000Y-122877500D01*
X144253000Y-122877500D02*
X142993000Y-122877500D01*
X137433000Y-122877500D02*
X138693000Y-122877500D01*
%TO.C,U1*%
X144579500Y-101917500D02*
X144579500Y-98467500D01*
X144579500Y-101917500D02*
X144579500Y-103867500D01*
X135709500Y-101917500D02*
X135709500Y-99967500D01*
X135709500Y-101917500D02*
X135709500Y-103867500D01*
%TO.C,TP1*%
X136831300Y-73863200D02*
G75*
G03*
X136831300Y-73863200I-700000J0D01*
G01*
%TO.C,R6*%
X127754748Y-68845500D02*
X128277252Y-68845500D01*
X127754748Y-67425500D02*
X128277252Y-67425500D01*
%TO.C,R5*%
X127945248Y-103008500D02*
X128467752Y-103008500D01*
X127945248Y-101588500D02*
X128467752Y-101588500D01*
%TO.C,R4*%
X127945248Y-109866500D02*
X128467752Y-109866500D01*
X127945248Y-108446500D02*
X128467752Y-108446500D01*
%TO.C,R3*%
X127945248Y-99706500D02*
X128467752Y-99706500D01*
X127945248Y-98286500D02*
X128467752Y-98286500D01*
%TO.C,R2*%
X127881748Y-96531500D02*
X128404252Y-96531500D01*
X127881748Y-95111500D02*
X128404252Y-95111500D01*
%TO.C,R1*%
X127818248Y-73417500D02*
X128340752Y-73417500D01*
X127818248Y-71997500D02*
X128340752Y-71997500D01*
%TO.C,R21*%
X160834000Y-103942248D02*
X160834000Y-104464752D01*
X162254000Y-103942248D02*
X162254000Y-104464752D01*
%TO.C,R20*%
X162254000Y-99384752D02*
X162254000Y-98862248D01*
X160834000Y-99384752D02*
X160834000Y-98862248D01*
%TO.C,R13*%
X158228932Y-64306380D02*
X157706428Y-64306380D01*
X158228932Y-65726380D02*
X157706428Y-65726380D01*
%TO.C,R10*%
X149994252Y-64288600D02*
X149471748Y-64288600D01*
X149994252Y-65708600D02*
X149471748Y-65708600D01*
%TO.C,R7*%
X134631500Y-75229352D02*
X134631500Y-74706848D01*
X133211500Y-75229352D02*
X133211500Y-74706848D01*
%TO.C,R12*%
X151899252Y-101906000D02*
X151376748Y-101906000D01*
X151899252Y-103326000D02*
X151376748Y-103326000D01*
%TO.C,R11*%
X151899252Y-105398500D02*
X151376748Y-105398500D01*
X151899252Y-106818500D02*
X151376748Y-106818500D01*
%TO.C,R8*%
X166775200Y-89123152D02*
X166775200Y-88600648D01*
X165355200Y-89123152D02*
X165355200Y-88600648D01*
%TO.C,R9*%
X165360280Y-92359848D02*
X165360280Y-92882352D01*
X166780280Y-92359848D02*
X166780280Y-92882352D01*
%TO.C,Q7*%
X162304000Y-110863500D02*
X160844000Y-110863500D01*
X162304000Y-107703500D02*
X159144000Y-107703500D01*
X162304000Y-107703500D02*
X162304000Y-108633500D01*
X162304000Y-110863500D02*
X162304000Y-109933500D01*
%TO.C,Q6*%
X119991600Y-63558300D02*
X121451600Y-63558300D01*
X119991600Y-66718300D02*
X123151600Y-66718300D01*
X119991600Y-66718300D02*
X119991600Y-65788300D01*
X119991600Y-63558300D02*
X119991600Y-64488300D01*
%TO.C,Q5*%
X120398000Y-103322000D02*
X121858000Y-103322000D01*
X120398000Y-106482000D02*
X123558000Y-106482000D01*
X120398000Y-106482000D02*
X120398000Y-105552000D01*
X120398000Y-103322000D02*
X120398000Y-104252000D01*
%TO.C,Q4*%
X120398000Y-108338500D02*
X121858000Y-108338500D01*
X120398000Y-111498500D02*
X123558000Y-111498500D01*
X120398000Y-111498500D02*
X120398000Y-110568500D01*
X120398000Y-108338500D02*
X120398000Y-109268500D01*
%TO.C,Q3*%
X120461500Y-98305500D02*
X121921500Y-98305500D01*
X120461500Y-101465500D02*
X123621500Y-101465500D01*
X120461500Y-101465500D02*
X120461500Y-100535500D01*
X120461500Y-98305500D02*
X120461500Y-99235500D01*
%TO.C,Q2*%
X120461500Y-93225500D02*
X121921500Y-93225500D01*
X120461500Y-96385500D02*
X123621500Y-96385500D01*
X120461500Y-96385500D02*
X120461500Y-95455500D01*
X120461500Y-93225500D02*
X120461500Y-94155500D01*
%TO.C,Q1*%
X120042400Y-68485900D02*
X121502400Y-68485900D01*
X120042400Y-71645900D02*
X123202400Y-71645900D01*
X120042400Y-71645900D02*
X120042400Y-70715900D01*
X120042400Y-68485900D02*
X120042400Y-69415900D01*
%TO.C,P5*%
X145182900Y-62366200D02*
X142522900Y-62366200D01*
X142522900Y-62366200D02*
X142522900Y-57166200D01*
X145182900Y-62366200D02*
X145182900Y-57166200D01*
X145182900Y-57166200D02*
X142522900Y-57166200D01*
%TO.C,P4*%
X147514000Y-62353500D02*
X147514000Y-57153500D01*
X147514000Y-57153500D02*
X160334000Y-57153500D01*
X147514000Y-62353500D02*
X160334000Y-62353500D01*
X160334000Y-62353500D02*
X160334000Y-57153500D01*
%TO.C,P2*%
X117098120Y-124944180D02*
X114438120Y-124944180D01*
X114438120Y-124944180D02*
X114438120Y-114664180D01*
X117098120Y-124944180D02*
X117098120Y-114664180D01*
X117098120Y-114664180D02*
X114438120Y-114664180D01*
%TO.C,P1*%
X106874000Y-67313500D02*
X108204000Y-67313500D01*
X106874000Y-68643500D02*
X106874000Y-67313500D01*
X109474000Y-67313500D02*
X112074000Y-67313500D01*
X109474000Y-69913500D02*
X109474000Y-67313500D01*
X106874000Y-69913500D02*
X109474000Y-69913500D01*
X112074000Y-67313500D02*
X112074000Y-110613500D01*
X106874000Y-69913500D02*
X106874000Y-110613500D01*
X106874000Y-110613500D02*
X112074000Y-110613500D01*
%TO.C,D2*%
X166014000Y-108433500D02*
X169164000Y-108433500D01*
X166014000Y-110133500D02*
X169164000Y-110133500D01*
X166014000Y-108433500D02*
X166014000Y-110133500D01*
%TO.C,D1*%
X130106500Y-106450500D02*
X126956500Y-106450500D01*
X130106500Y-104750500D02*
X126956500Y-104750500D01*
X130106500Y-106450500D02*
X130106500Y-104750500D01*
%TO.C,C23*%
X139013000Y-113354752D02*
X139013000Y-112832248D01*
X137593000Y-113354752D02*
X137593000Y-112832248D01*
%TO.C,C20*%
X147331500Y-101861252D02*
X147331500Y-101338748D01*
X145911500Y-101861252D02*
X145911500Y-101338748D01*
%TO.C,C19*%
X154935000Y-119413259D02*
X154305000Y-119413259D01*
X154620000Y-119098259D02*
X154620000Y-119728259D01*
X153183000Y-125839500D02*
X152379000Y-125839500D01*
X153414000Y-125799500D02*
X152148000Y-125799500D01*
X153583000Y-125759500D02*
X151979000Y-125759500D01*
X153721000Y-125719500D02*
X151841000Y-125719500D01*
X153840000Y-125679500D02*
X151722000Y-125679500D01*
X153946000Y-125639500D02*
X151616000Y-125639500D01*
X154043000Y-125599500D02*
X151519000Y-125599500D01*
X154131000Y-125559500D02*
X151431000Y-125559500D01*
X154213000Y-125519500D02*
X151349000Y-125519500D01*
X154290000Y-125479500D02*
X151272000Y-125479500D01*
X154362000Y-125439500D02*
X151200000Y-125439500D01*
X154431000Y-125399500D02*
X151131000Y-125399500D01*
X154495000Y-125359500D02*
X151067000Y-125359500D01*
X154557000Y-125319500D02*
X151005000Y-125319500D01*
X154615000Y-125279500D02*
X150947000Y-125279500D01*
X154671000Y-125239500D02*
X150891000Y-125239500D01*
X154725000Y-125199500D02*
X150837000Y-125199500D01*
X154776000Y-125159500D02*
X150786000Y-125159500D01*
X154825000Y-125119500D02*
X150737000Y-125119500D01*
X154873000Y-125079500D02*
X150689000Y-125079500D01*
X154918000Y-125039500D02*
X150644000Y-125039500D01*
X154963000Y-124999500D02*
X150599000Y-124999500D01*
X155005000Y-124959500D02*
X150557000Y-124959500D01*
X155046000Y-124919500D02*
X150516000Y-124919500D01*
X151741000Y-124879500D02*
X150476000Y-124879500D01*
X155086000Y-124879500D02*
X153821000Y-124879500D01*
X151741000Y-124839500D02*
X150438000Y-124839500D01*
X155124000Y-124839500D02*
X153821000Y-124839500D01*
X151741000Y-124799500D02*
X150401000Y-124799500D01*
X155161000Y-124799500D02*
X153821000Y-124799500D01*
X151741000Y-124759500D02*
X150365000Y-124759500D01*
X155197000Y-124759500D02*
X153821000Y-124759500D01*
X151741000Y-124719500D02*
X150331000Y-124719500D01*
X155231000Y-124719500D02*
X153821000Y-124719500D01*
X151741000Y-124679500D02*
X150297000Y-124679500D01*
X155265000Y-124679500D02*
X153821000Y-124679500D01*
X151741000Y-124639500D02*
X150265000Y-124639500D01*
X155297000Y-124639500D02*
X153821000Y-124639500D01*
X151741000Y-124599500D02*
X150233000Y-124599500D01*
X155329000Y-124599500D02*
X153821000Y-124599500D01*
X151741000Y-124559500D02*
X150203000Y-124559500D01*
X155359000Y-124559500D02*
X153821000Y-124559500D01*
X151741000Y-124519500D02*
X150174000Y-124519500D01*
X155388000Y-124519500D02*
X153821000Y-124519500D01*
X151741000Y-124479500D02*
X150145000Y-124479500D01*
X155417000Y-124479500D02*
X153821000Y-124479500D01*
X151741000Y-124439500D02*
X150117000Y-124439500D01*
X155445000Y-124439500D02*
X153821000Y-124439500D01*
X151741000Y-124399500D02*
X150091000Y-124399500D01*
X155471000Y-124399500D02*
X153821000Y-124399500D01*
X151741000Y-124359500D02*
X150065000Y-124359500D01*
X155497000Y-124359500D02*
X153821000Y-124359500D01*
X151741000Y-124319500D02*
X150039000Y-124319500D01*
X155523000Y-124319500D02*
X153821000Y-124319500D01*
X151741000Y-124279500D02*
X150015000Y-124279500D01*
X155547000Y-124279500D02*
X153821000Y-124279500D01*
X151741000Y-124239500D02*
X149991000Y-124239500D01*
X155571000Y-124239500D02*
X153821000Y-124239500D01*
X151741000Y-124199500D02*
X149969000Y-124199500D01*
X155593000Y-124199500D02*
X153821000Y-124199500D01*
X151741000Y-124159500D02*
X149947000Y-124159500D01*
X155615000Y-124159500D02*
X153821000Y-124159500D01*
X151741000Y-124119500D02*
X149925000Y-124119500D01*
X155637000Y-124119500D02*
X153821000Y-124119500D01*
X151741000Y-124079500D02*
X149905000Y-124079500D01*
X155657000Y-124079500D02*
X153821000Y-124079500D01*
X151741000Y-124039500D02*
X149885000Y-124039500D01*
X155677000Y-124039500D02*
X153821000Y-124039500D01*
X151741000Y-123999500D02*
X149865000Y-123999500D01*
X155697000Y-123999500D02*
X153821000Y-123999500D01*
X151741000Y-123959500D02*
X149847000Y-123959500D01*
X155715000Y-123959500D02*
X153821000Y-123959500D01*
X151741000Y-123919500D02*
X149829000Y-123919500D01*
X155733000Y-123919500D02*
X153821000Y-123919500D01*
X151741000Y-123879500D02*
X149811000Y-123879500D01*
X155751000Y-123879500D02*
X153821000Y-123879500D01*
X151741000Y-123839500D02*
X149795000Y-123839500D01*
X155767000Y-123839500D02*
X153821000Y-123839500D01*
X151741000Y-123799500D02*
X149779000Y-123799500D01*
X155783000Y-123799500D02*
X153821000Y-123799500D01*
X151741000Y-123759500D02*
X149763000Y-123759500D01*
X155799000Y-123759500D02*
X153821000Y-123759500D01*
X151741000Y-123719500D02*
X149748000Y-123719500D01*
X155814000Y-123719500D02*
X153821000Y-123719500D01*
X151741000Y-123679500D02*
X149734000Y-123679500D01*
X155828000Y-123679500D02*
X153821000Y-123679500D01*
X151741000Y-123639500D02*
X149720000Y-123639500D01*
X155842000Y-123639500D02*
X153821000Y-123639500D01*
X151741000Y-123599500D02*
X149707000Y-123599500D01*
X155855000Y-123599500D02*
X153821000Y-123599500D01*
X151741000Y-123559500D02*
X149695000Y-123559500D01*
X155867000Y-123559500D02*
X153821000Y-123559500D01*
X151741000Y-123519500D02*
X149683000Y-123519500D01*
X155879000Y-123519500D02*
X153821000Y-123519500D01*
X151741000Y-123479500D02*
X149671000Y-123479500D01*
X155891000Y-123479500D02*
X153821000Y-123479500D01*
X151741000Y-123439500D02*
X149660000Y-123439500D01*
X155902000Y-123439500D02*
X153821000Y-123439500D01*
X151741000Y-123399500D02*
X149650000Y-123399500D01*
X155912000Y-123399500D02*
X153821000Y-123399500D01*
X151741000Y-123359500D02*
X149640000Y-123359500D01*
X155922000Y-123359500D02*
X153821000Y-123359500D01*
X151741000Y-123319500D02*
X149631000Y-123319500D01*
X155931000Y-123319500D02*
X153821000Y-123319500D01*
X151741000Y-123278500D02*
X149622000Y-123278500D01*
X155940000Y-123278500D02*
X153821000Y-123278500D01*
X151741000Y-123238500D02*
X149614000Y-123238500D01*
X155948000Y-123238500D02*
X153821000Y-123238500D01*
X151741000Y-123198500D02*
X149606000Y-123198500D01*
X155956000Y-123198500D02*
X153821000Y-123198500D01*
X151741000Y-123158500D02*
X149599000Y-123158500D01*
X155963000Y-123158500D02*
X153821000Y-123158500D01*
X151741000Y-123118500D02*
X149592000Y-123118500D01*
X155970000Y-123118500D02*
X153821000Y-123118500D01*
X151741000Y-123078500D02*
X149586000Y-123078500D01*
X155976000Y-123078500D02*
X153821000Y-123078500D01*
X151741000Y-123038500D02*
X149580000Y-123038500D01*
X155982000Y-123038500D02*
X153821000Y-123038500D01*
X151741000Y-122998500D02*
X149575000Y-122998500D01*
X155987000Y-122998500D02*
X153821000Y-122998500D01*
X151741000Y-122958500D02*
X149570000Y-122958500D01*
X155992000Y-122958500D02*
X153821000Y-122958500D01*
X151741000Y-122918500D02*
X149566000Y-122918500D01*
X155996000Y-122918500D02*
X153821000Y-122918500D01*
X151741000Y-122878500D02*
X149563000Y-122878500D01*
X155999000Y-122878500D02*
X153821000Y-122878500D01*
X151741000Y-122838500D02*
X149559000Y-122838500D01*
X156003000Y-122838500D02*
X153821000Y-122838500D01*
X156005000Y-122798500D02*
X149557000Y-122798500D01*
X156008000Y-122758500D02*
X149554000Y-122758500D01*
X156009000Y-122718500D02*
X149553000Y-122718500D01*
X156011000Y-122678500D02*
X149551000Y-122678500D01*
X156011000Y-122638500D02*
X149551000Y-122638500D01*
X156011000Y-122598500D02*
X149551000Y-122598500D01*
X156051000Y-122598500D02*
G75*
G03*
X156051000Y-122598500I-3270000J0D01*
G01*
%TO.C,C18*%
X142442000Y-113354752D02*
X142442000Y-112832248D01*
X141022000Y-113354752D02*
X141022000Y-112832248D01*
%TO.C,C17*%
X154808000Y-111221759D02*
X154178000Y-111221759D01*
X154493000Y-110906759D02*
X154493000Y-111536759D01*
X153056000Y-117648000D02*
X152252000Y-117648000D01*
X153287000Y-117608000D02*
X152021000Y-117608000D01*
X153456000Y-117568000D02*
X151852000Y-117568000D01*
X153594000Y-117528000D02*
X151714000Y-117528000D01*
X153713000Y-117488000D02*
X151595000Y-117488000D01*
X153819000Y-117448000D02*
X151489000Y-117448000D01*
X153916000Y-117408000D02*
X151392000Y-117408000D01*
X154004000Y-117368000D02*
X151304000Y-117368000D01*
X154086000Y-117328000D02*
X151222000Y-117328000D01*
X154163000Y-117288000D02*
X151145000Y-117288000D01*
X154235000Y-117248000D02*
X151073000Y-117248000D01*
X154304000Y-117208000D02*
X151004000Y-117208000D01*
X154368000Y-117168000D02*
X150940000Y-117168000D01*
X154430000Y-117128000D02*
X150878000Y-117128000D01*
X154488000Y-117088000D02*
X150820000Y-117088000D01*
X154544000Y-117048000D02*
X150764000Y-117048000D01*
X154598000Y-117008000D02*
X150710000Y-117008000D01*
X154649000Y-116968000D02*
X150659000Y-116968000D01*
X154698000Y-116928000D02*
X150610000Y-116928000D01*
X154746000Y-116888000D02*
X150562000Y-116888000D01*
X154791000Y-116848000D02*
X150517000Y-116848000D01*
X154836000Y-116808000D02*
X150472000Y-116808000D01*
X154878000Y-116768000D02*
X150430000Y-116768000D01*
X154919000Y-116728000D02*
X150389000Y-116728000D01*
X151614000Y-116688000D02*
X150349000Y-116688000D01*
X154959000Y-116688000D02*
X153694000Y-116688000D01*
X151614000Y-116648000D02*
X150311000Y-116648000D01*
X154997000Y-116648000D02*
X153694000Y-116648000D01*
X151614000Y-116608000D02*
X150274000Y-116608000D01*
X155034000Y-116608000D02*
X153694000Y-116608000D01*
X151614000Y-116568000D02*
X150238000Y-116568000D01*
X155070000Y-116568000D02*
X153694000Y-116568000D01*
X151614000Y-116528000D02*
X150204000Y-116528000D01*
X155104000Y-116528000D02*
X153694000Y-116528000D01*
X151614000Y-116488000D02*
X150170000Y-116488000D01*
X155138000Y-116488000D02*
X153694000Y-116488000D01*
X151614000Y-116448000D02*
X150138000Y-116448000D01*
X155170000Y-116448000D02*
X153694000Y-116448000D01*
X151614000Y-116408000D02*
X150106000Y-116408000D01*
X155202000Y-116408000D02*
X153694000Y-116408000D01*
X151614000Y-116368000D02*
X150076000Y-116368000D01*
X155232000Y-116368000D02*
X153694000Y-116368000D01*
X151614000Y-116328000D02*
X150047000Y-116328000D01*
X155261000Y-116328000D02*
X153694000Y-116328000D01*
X151614000Y-116288000D02*
X150018000Y-116288000D01*
X155290000Y-116288000D02*
X153694000Y-116288000D01*
X151614000Y-116248000D02*
X149990000Y-116248000D01*
X155318000Y-116248000D02*
X153694000Y-116248000D01*
X151614000Y-116208000D02*
X149964000Y-116208000D01*
X155344000Y-116208000D02*
X153694000Y-116208000D01*
X151614000Y-116168000D02*
X149938000Y-116168000D01*
X155370000Y-116168000D02*
X153694000Y-116168000D01*
X151614000Y-116128000D02*
X149912000Y-116128000D01*
X155396000Y-116128000D02*
X153694000Y-116128000D01*
X151614000Y-116088000D02*
X149888000Y-116088000D01*
X155420000Y-116088000D02*
X153694000Y-116088000D01*
X151614000Y-116048000D02*
X149864000Y-116048000D01*
X155444000Y-116048000D02*
X153694000Y-116048000D01*
X151614000Y-116008000D02*
X149842000Y-116008000D01*
X155466000Y-116008000D02*
X153694000Y-116008000D01*
X151614000Y-115968000D02*
X149820000Y-115968000D01*
X155488000Y-115968000D02*
X153694000Y-115968000D01*
X151614000Y-115928000D02*
X149798000Y-115928000D01*
X155510000Y-115928000D02*
X153694000Y-115928000D01*
X151614000Y-115888000D02*
X149778000Y-115888000D01*
X155530000Y-115888000D02*
X153694000Y-115888000D01*
X151614000Y-115848000D02*
X149758000Y-115848000D01*
X155550000Y-115848000D02*
X153694000Y-115848000D01*
X151614000Y-115808000D02*
X149738000Y-115808000D01*
X155570000Y-115808000D02*
X153694000Y-115808000D01*
X151614000Y-115768000D02*
X149720000Y-115768000D01*
X155588000Y-115768000D02*
X153694000Y-115768000D01*
X151614000Y-115728000D02*
X149702000Y-115728000D01*
X155606000Y-115728000D02*
X153694000Y-115728000D01*
X151614000Y-115688000D02*
X149684000Y-115688000D01*
X155624000Y-115688000D02*
X153694000Y-115688000D01*
X151614000Y-115648000D02*
X149668000Y-115648000D01*
X155640000Y-115648000D02*
X153694000Y-115648000D01*
X151614000Y-115608000D02*
X149652000Y-115608000D01*
X155656000Y-115608000D02*
X153694000Y-115608000D01*
X151614000Y-115568000D02*
X149636000Y-115568000D01*
X155672000Y-115568000D02*
X153694000Y-115568000D01*
X151614000Y-115528000D02*
X149621000Y-115528000D01*
X155687000Y-115528000D02*
X153694000Y-115528000D01*
X151614000Y-115488000D02*
X149607000Y-115488000D01*
X155701000Y-115488000D02*
X153694000Y-115488000D01*
X151614000Y-115448000D02*
X149593000Y-115448000D01*
X155715000Y-115448000D02*
X153694000Y-115448000D01*
X151614000Y-115408000D02*
X149580000Y-115408000D01*
X155728000Y-115408000D02*
X153694000Y-115408000D01*
X151614000Y-115368000D02*
X149568000Y-115368000D01*
X155740000Y-115368000D02*
X153694000Y-115368000D01*
X151614000Y-115328000D02*
X149556000Y-115328000D01*
X155752000Y-115328000D02*
X153694000Y-115328000D01*
X151614000Y-115288000D02*
X149544000Y-115288000D01*
X155764000Y-115288000D02*
X153694000Y-115288000D01*
X151614000Y-115248000D02*
X149533000Y-115248000D01*
X155775000Y-115248000D02*
X153694000Y-115248000D01*
X151614000Y-115208000D02*
X149523000Y-115208000D01*
X155785000Y-115208000D02*
X153694000Y-115208000D01*
X151614000Y-115168000D02*
X149513000Y-115168000D01*
X155795000Y-115168000D02*
X153694000Y-115168000D01*
X151614000Y-115128000D02*
X149504000Y-115128000D01*
X155804000Y-115128000D02*
X153694000Y-115128000D01*
X151614000Y-115087000D02*
X149495000Y-115087000D01*
X155813000Y-115087000D02*
X153694000Y-115087000D01*
X151614000Y-115047000D02*
X149487000Y-115047000D01*
X155821000Y-115047000D02*
X153694000Y-115047000D01*
X151614000Y-115007000D02*
X149479000Y-115007000D01*
X155829000Y-115007000D02*
X153694000Y-115007000D01*
X151614000Y-114967000D02*
X149472000Y-114967000D01*
X155836000Y-114967000D02*
X153694000Y-114967000D01*
X151614000Y-114927000D02*
X149465000Y-114927000D01*
X155843000Y-114927000D02*
X153694000Y-114927000D01*
X151614000Y-114887000D02*
X149459000Y-114887000D01*
X155849000Y-114887000D02*
X153694000Y-114887000D01*
X151614000Y-114847000D02*
X149453000Y-114847000D01*
X155855000Y-114847000D02*
X153694000Y-114847000D01*
X151614000Y-114807000D02*
X149448000Y-114807000D01*
X155860000Y-114807000D02*
X153694000Y-114807000D01*
X151614000Y-114767000D02*
X149443000Y-114767000D01*
X155865000Y-114767000D02*
X153694000Y-114767000D01*
X151614000Y-114727000D02*
X149439000Y-114727000D01*
X155869000Y-114727000D02*
X153694000Y-114727000D01*
X151614000Y-114687000D02*
X149436000Y-114687000D01*
X155872000Y-114687000D02*
X153694000Y-114687000D01*
X151614000Y-114647000D02*
X149432000Y-114647000D01*
X155876000Y-114647000D02*
X153694000Y-114647000D01*
X155878000Y-114607000D02*
X149430000Y-114607000D01*
X155881000Y-114567000D02*
X149427000Y-114567000D01*
X155882000Y-114527000D02*
X149426000Y-114527000D01*
X155884000Y-114487000D02*
X149424000Y-114487000D01*
X155884000Y-114447000D02*
X149424000Y-114447000D01*
X155884000Y-114407000D02*
X149424000Y-114407000D01*
X155924000Y-114407000D02*
G75*
G03*
X155924000Y-114407000I-3270000J0D01*
G01*
%TO.C,C10*%
X151026228Y-80443140D02*
X151548732Y-80443140D01*
X151026228Y-79023140D02*
X151548732Y-79023140D01*
%TO.C,C9*%
X134618800Y-79407652D02*
X134618800Y-78885148D01*
X133198800Y-79407652D02*
X133198800Y-78885148D01*
%TO.C,C8*%
X132957500Y-93045648D02*
X132957500Y-93568152D01*
X134377500Y-93045648D02*
X134377500Y-93568152D01*
%TO.C,C7*%
X142238252Y-76315500D02*
X141715748Y-76315500D01*
X142238252Y-77735500D02*
X141715748Y-77735500D01*
%TO.C,C6*%
X151127828Y-92802780D02*
X151650332Y-92802780D01*
X151127828Y-91382780D02*
X151650332Y-91382780D01*
%TO.C,C5*%
X152094000Y-84144752D02*
X152094000Y-83622248D01*
X150674000Y-84144752D02*
X150674000Y-83622248D01*
%TO.C,C4*%
X153611948Y-65721300D02*
X154134452Y-65721300D01*
X153611948Y-64301300D02*
X154134452Y-64301300D01*
%TO.C,C3*%
X150674000Y-87559248D02*
X150674000Y-88081752D01*
X152094000Y-87559248D02*
X152094000Y-88081752D01*
%TO.C,C1*%
X125862000Y-122394741D02*
X126492000Y-122394741D01*
X126177000Y-122709741D02*
X126177000Y-122079741D01*
X127614000Y-115968500D02*
X128418000Y-115968500D01*
X127383000Y-116008500D02*
X128649000Y-116008500D01*
X127214000Y-116048500D02*
X128818000Y-116048500D01*
X127076000Y-116088500D02*
X128956000Y-116088500D01*
X126957000Y-116128500D02*
X129075000Y-116128500D01*
X126851000Y-116168500D02*
X129181000Y-116168500D01*
X126754000Y-116208500D02*
X129278000Y-116208500D01*
X126666000Y-116248500D02*
X129366000Y-116248500D01*
X126584000Y-116288500D02*
X129448000Y-116288500D01*
X126507000Y-116328500D02*
X129525000Y-116328500D01*
X126435000Y-116368500D02*
X129597000Y-116368500D01*
X126366000Y-116408500D02*
X129666000Y-116408500D01*
X126302000Y-116448500D02*
X129730000Y-116448500D01*
X126240000Y-116488500D02*
X129792000Y-116488500D01*
X126182000Y-116528500D02*
X129850000Y-116528500D01*
X126126000Y-116568500D02*
X129906000Y-116568500D01*
X126072000Y-116608500D02*
X129960000Y-116608500D01*
X126021000Y-116648500D02*
X130011000Y-116648500D01*
X125972000Y-116688500D02*
X130060000Y-116688500D01*
X125924000Y-116728500D02*
X130108000Y-116728500D01*
X125879000Y-116768500D02*
X130153000Y-116768500D01*
X125834000Y-116808500D02*
X130198000Y-116808500D01*
X125792000Y-116848500D02*
X130240000Y-116848500D01*
X125751000Y-116888500D02*
X130281000Y-116888500D01*
X129056000Y-116928500D02*
X130321000Y-116928500D01*
X125711000Y-116928500D02*
X126976000Y-116928500D01*
X129056000Y-116968500D02*
X130359000Y-116968500D01*
X125673000Y-116968500D02*
X126976000Y-116968500D01*
X129056000Y-117008500D02*
X130396000Y-117008500D01*
X125636000Y-117008500D02*
X126976000Y-117008500D01*
X129056000Y-117048500D02*
X130432000Y-117048500D01*
X125600000Y-117048500D02*
X126976000Y-117048500D01*
X129056000Y-117088500D02*
X130466000Y-117088500D01*
X125566000Y-117088500D02*
X126976000Y-117088500D01*
X129056000Y-117128500D02*
X130500000Y-117128500D01*
X125532000Y-117128500D02*
X126976000Y-117128500D01*
X129056000Y-117168500D02*
X130532000Y-117168500D01*
X125500000Y-117168500D02*
X126976000Y-117168500D01*
X129056000Y-117208500D02*
X130564000Y-117208500D01*
X125468000Y-117208500D02*
X126976000Y-117208500D01*
X129056000Y-117248500D02*
X130594000Y-117248500D01*
X125438000Y-117248500D02*
X126976000Y-117248500D01*
X129056000Y-117288500D02*
X130623000Y-117288500D01*
X125409000Y-117288500D02*
X126976000Y-117288500D01*
X129056000Y-117328500D02*
X130652000Y-117328500D01*
X125380000Y-117328500D02*
X126976000Y-117328500D01*
X129056000Y-117368500D02*
X130680000Y-117368500D01*
X125352000Y-117368500D02*
X126976000Y-117368500D01*
X129056000Y-117408500D02*
X130706000Y-117408500D01*
X125326000Y-117408500D02*
X126976000Y-117408500D01*
X129056000Y-117448500D02*
X130732000Y-117448500D01*
X125300000Y-117448500D02*
X126976000Y-117448500D01*
X129056000Y-117488500D02*
X130758000Y-117488500D01*
X125274000Y-117488500D02*
X126976000Y-117488500D01*
X129056000Y-117528500D02*
X130782000Y-117528500D01*
X125250000Y-117528500D02*
X126976000Y-117528500D01*
X129056000Y-117568500D02*
X130806000Y-117568500D01*
X125226000Y-117568500D02*
X126976000Y-117568500D01*
X129056000Y-117608500D02*
X130828000Y-117608500D01*
X125204000Y-117608500D02*
X126976000Y-117608500D01*
X129056000Y-117648500D02*
X130850000Y-117648500D01*
X125182000Y-117648500D02*
X126976000Y-117648500D01*
X129056000Y-117688500D02*
X130872000Y-117688500D01*
X125160000Y-117688500D02*
X126976000Y-117688500D01*
X129056000Y-117728500D02*
X130892000Y-117728500D01*
X125140000Y-117728500D02*
X126976000Y-117728500D01*
X129056000Y-117768500D02*
X130912000Y-117768500D01*
X125120000Y-117768500D02*
X126976000Y-117768500D01*
X129056000Y-117808500D02*
X130932000Y-117808500D01*
X125100000Y-117808500D02*
X126976000Y-117808500D01*
X129056000Y-117848500D02*
X130950000Y-117848500D01*
X125082000Y-117848500D02*
X126976000Y-117848500D01*
X129056000Y-117888500D02*
X130968000Y-117888500D01*
X125064000Y-117888500D02*
X126976000Y-117888500D01*
X129056000Y-117928500D02*
X130986000Y-117928500D01*
X125046000Y-117928500D02*
X126976000Y-117928500D01*
X129056000Y-117968500D02*
X131002000Y-117968500D01*
X125030000Y-117968500D02*
X126976000Y-117968500D01*
X129056000Y-118008500D02*
X131018000Y-118008500D01*
X125014000Y-118008500D02*
X126976000Y-118008500D01*
X129056000Y-118048500D02*
X131034000Y-118048500D01*
X124998000Y-118048500D02*
X126976000Y-118048500D01*
X129056000Y-118088500D02*
X131049000Y-118088500D01*
X124983000Y-118088500D02*
X126976000Y-118088500D01*
X129056000Y-118128500D02*
X131063000Y-118128500D01*
X124969000Y-118128500D02*
X126976000Y-118128500D01*
X129056000Y-118168500D02*
X131077000Y-118168500D01*
X124955000Y-118168500D02*
X126976000Y-118168500D01*
X129056000Y-118208500D02*
X131090000Y-118208500D01*
X124942000Y-118208500D02*
X126976000Y-118208500D01*
X129056000Y-118248500D02*
X131102000Y-118248500D01*
X124930000Y-118248500D02*
X126976000Y-118248500D01*
X129056000Y-118288500D02*
X131114000Y-118288500D01*
X124918000Y-118288500D02*
X126976000Y-118288500D01*
X129056000Y-118328500D02*
X131126000Y-118328500D01*
X124906000Y-118328500D02*
X126976000Y-118328500D01*
X129056000Y-118368500D02*
X131137000Y-118368500D01*
X124895000Y-118368500D02*
X126976000Y-118368500D01*
X129056000Y-118408500D02*
X131147000Y-118408500D01*
X124885000Y-118408500D02*
X126976000Y-118408500D01*
X129056000Y-118448500D02*
X131157000Y-118448500D01*
X124875000Y-118448500D02*
X126976000Y-118448500D01*
X129056000Y-118488500D02*
X131166000Y-118488500D01*
X124866000Y-118488500D02*
X126976000Y-118488500D01*
X129056000Y-118529500D02*
X131175000Y-118529500D01*
X124857000Y-118529500D02*
X126976000Y-118529500D01*
X129056000Y-118569500D02*
X131183000Y-118569500D01*
X124849000Y-118569500D02*
X126976000Y-118569500D01*
X129056000Y-118609500D02*
X131191000Y-118609500D01*
X124841000Y-118609500D02*
X126976000Y-118609500D01*
X129056000Y-118649500D02*
X131198000Y-118649500D01*
X124834000Y-118649500D02*
X126976000Y-118649500D01*
X129056000Y-118689500D02*
X131205000Y-118689500D01*
X124827000Y-118689500D02*
X126976000Y-118689500D01*
X129056000Y-118729500D02*
X131211000Y-118729500D01*
X124821000Y-118729500D02*
X126976000Y-118729500D01*
X129056000Y-118769500D02*
X131217000Y-118769500D01*
X124815000Y-118769500D02*
X126976000Y-118769500D01*
X129056000Y-118809500D02*
X131222000Y-118809500D01*
X124810000Y-118809500D02*
X126976000Y-118809500D01*
X129056000Y-118849500D02*
X131227000Y-118849500D01*
X124805000Y-118849500D02*
X126976000Y-118849500D01*
X129056000Y-118889500D02*
X131231000Y-118889500D01*
X124801000Y-118889500D02*
X126976000Y-118889500D01*
X129056000Y-118929500D02*
X131234000Y-118929500D01*
X124798000Y-118929500D02*
X126976000Y-118929500D01*
X129056000Y-118969500D02*
X131238000Y-118969500D01*
X124794000Y-118969500D02*
X126976000Y-118969500D01*
X124792000Y-119009500D02*
X131240000Y-119009500D01*
X124789000Y-119049500D02*
X131243000Y-119049500D01*
X124788000Y-119089500D02*
X131244000Y-119089500D01*
X124786000Y-119129500D02*
X131246000Y-119129500D01*
X124786000Y-119169500D02*
X131246000Y-119169500D01*
X124786000Y-119209500D02*
X131246000Y-119209500D01*
X131286000Y-119209500D02*
G75*
G03*
X131286000Y-119209500I-3270000J0D01*
G01*
%TO.C,J1*%
D10*
X171511980Y-69429214D02*
X172321504Y-69429214D01*
X172416742Y-69381595D01*
X172464361Y-69333976D01*
X172511980Y-69238738D01*
X172511980Y-69048261D01*
X172464361Y-68953023D01*
X172416742Y-68905404D01*
X172321504Y-68857785D01*
X171511980Y-68857785D01*
X172511980Y-68381595D02*
X171511980Y-68381595D01*
X171511980Y-68000642D01*
X171559600Y-67905404D01*
X171607219Y-67857785D01*
X171702457Y-67810166D01*
X171845314Y-67810166D01*
X171940552Y-67857785D01*
X171988171Y-67905404D01*
X172035790Y-68000642D01*
X172035790Y-68381595D01*
%TO.C,J2*%
X164155380Y-66952714D02*
X163155380Y-66952714D01*
X163155380Y-66714619D01*
X163203000Y-66571761D01*
X163298238Y-66476523D01*
X163393476Y-66428904D01*
X163583952Y-66381285D01*
X163726809Y-66381285D01*
X163917285Y-66428904D01*
X164012523Y-66476523D01*
X164107761Y-66571761D01*
X164155380Y-66714619D01*
X164155380Y-66952714D01*
X164155380Y-65952714D02*
X163155380Y-65952714D01*
X164155380Y-65381285D01*
X163155380Y-65381285D01*
%TO.C,P9*%
X172108761Y-105489214D02*
X172156380Y-105346357D01*
X172156380Y-105108261D01*
X172108761Y-105013023D01*
X172061142Y-104965404D01*
X171965904Y-104917785D01*
X171870666Y-104917785D01*
X171775428Y-104965404D01*
X171727809Y-105013023D01*
X171680190Y-105108261D01*
X171632571Y-105298738D01*
X171584952Y-105393976D01*
X171537333Y-105441595D01*
X171442095Y-105489214D01*
X171346857Y-105489214D01*
X171251619Y-105441595D01*
X171204000Y-105393976D01*
X171156380Y-105298738D01*
X171156380Y-105060642D01*
X171204000Y-104917785D01*
X172156380Y-104489214D02*
X171156380Y-104489214D01*
X171156380Y-104108261D01*
X171204000Y-104013023D01*
X171251619Y-103965404D01*
X171346857Y-103917785D01*
X171489714Y-103917785D01*
X171584952Y-103965404D01*
X171632571Y-104013023D01*
X171680190Y-104108261D01*
X171680190Y-104489214D01*
X172156380Y-103489214D02*
X171156380Y-103489214D01*
X172156380Y-102917785D02*
X171584952Y-103346357D01*
X171156380Y-102917785D02*
X171727809Y-103489214D01*
%TO.C,J4*%
X171204000Y-101401595D02*
X171156380Y-101496833D01*
X171156380Y-101639690D01*
X171204000Y-101782547D01*
X171299238Y-101877785D01*
X171394476Y-101925404D01*
X171584952Y-101973023D01*
X171727809Y-101973023D01*
X171918285Y-101925404D01*
X172013523Y-101877785D01*
X172108761Y-101782547D01*
X172156380Y-101639690D01*
X172156380Y-101544452D01*
X172108761Y-101401595D01*
X172061142Y-101353976D01*
X171727809Y-101353976D01*
X171727809Y-101544452D01*
%TO.C,J3*%
X172156380Y-98813976D02*
X171680190Y-99147309D01*
X172156380Y-99385404D02*
X171156380Y-99385404D01*
X171156380Y-99004452D01*
X171204000Y-98909214D01*
X171251619Y-98861595D01*
X171346857Y-98813976D01*
X171489714Y-98813976D01*
X171584952Y-98861595D01*
X171632571Y-98909214D01*
X171680190Y-99004452D01*
X171680190Y-99385404D01*
%TO.C,P6*%
X163631571Y-82335000D02*
X163631571Y-82001666D01*
X164155380Y-81858809D02*
X164155380Y-82335000D01*
X163155380Y-82335000D01*
X163155380Y-81858809D01*
X164155380Y-81430238D02*
X163155380Y-81430238D01*
X164155380Y-80858809D01*
X163155380Y-80858809D01*
X164060142Y-79811190D02*
X164107761Y-79858809D01*
X164155380Y-80001666D01*
X164155380Y-80096904D01*
X164107761Y-80239761D01*
X164012523Y-80335000D01*
X163917285Y-80382619D01*
X163726809Y-80430238D01*
X163583952Y-80430238D01*
X163393476Y-80382619D01*
X163298238Y-80335000D01*
X163203000Y-80239761D01*
X163155380Y-80096904D01*
X163155380Y-80001666D01*
X163203000Y-79858809D01*
X163250619Y-79811190D01*
X163155380Y-79192142D02*
X163155380Y-79001666D01*
X163203000Y-78906428D01*
X163298238Y-78811190D01*
X163488714Y-78763571D01*
X163822047Y-78763571D01*
X164012523Y-78811190D01*
X164107761Y-78906428D01*
X164155380Y-79001666D01*
X164155380Y-79192142D01*
X164107761Y-79287380D01*
X164012523Y-79382619D01*
X163822047Y-79430238D01*
X163488714Y-79430238D01*
X163298238Y-79382619D01*
X163203000Y-79287380D01*
X163155380Y-79192142D01*
X164155380Y-78335000D02*
X163155380Y-78335000D01*
X163155380Y-78096904D01*
X163203000Y-77954047D01*
X163298238Y-77858809D01*
X163393476Y-77811190D01*
X163583952Y-77763571D01*
X163726809Y-77763571D01*
X163917285Y-77811190D01*
X164012523Y-77858809D01*
X164107761Y-77954047D01*
X164155380Y-78096904D01*
X164155380Y-78335000D01*
X163631571Y-77335000D02*
X163631571Y-77001666D01*
X164155380Y-76858809D02*
X164155380Y-77335000D01*
X163155380Y-77335000D01*
X163155380Y-76858809D01*
X164155380Y-75858809D02*
X163679190Y-76192142D01*
X164155380Y-76430238D02*
X163155380Y-76430238D01*
X163155380Y-76049285D01*
X163203000Y-75954047D01*
X163250619Y-75906428D01*
X163345857Y-75858809D01*
X163488714Y-75858809D01*
X163583952Y-75906428D01*
X163631571Y-75954047D01*
X163679190Y-76049285D01*
X163679190Y-76430238D01*
X164250619Y-75668333D02*
X164250619Y-74906428D01*
X164155380Y-74668333D02*
X163155380Y-74668333D01*
X163155380Y-74287380D01*
X163203000Y-74192142D01*
X163250619Y-74144523D01*
X163345857Y-74096904D01*
X163488714Y-74096904D01*
X163583952Y-74144523D01*
X163631571Y-74192142D01*
X163679190Y-74287380D01*
X163679190Y-74668333D01*
X163155380Y-73477857D02*
X163155380Y-73287380D01*
X163203000Y-73192142D01*
X163298238Y-73096904D01*
X163488714Y-73049285D01*
X163822047Y-73049285D01*
X164012523Y-73096904D01*
X164107761Y-73192142D01*
X164155380Y-73287380D01*
X164155380Y-73477857D01*
X164107761Y-73573095D01*
X164012523Y-73668333D01*
X163822047Y-73715952D01*
X163488714Y-73715952D01*
X163298238Y-73668333D01*
X163203000Y-73573095D01*
X163155380Y-73477857D01*
X164155380Y-72049285D02*
X163679190Y-72382619D01*
X164155380Y-72620714D02*
X163155380Y-72620714D01*
X163155380Y-72239761D01*
X163203000Y-72144523D01*
X163250619Y-72096904D01*
X163345857Y-72049285D01*
X163488714Y-72049285D01*
X163583952Y-72096904D01*
X163631571Y-72144523D01*
X163679190Y-72239761D01*
X163679190Y-72620714D01*
X163155380Y-71763571D02*
X163155380Y-71192142D01*
X164155380Y-71477857D02*
X163155380Y-71477857D01*
%TO.C,P7*%
X172689780Y-80830109D02*
X171689780Y-80830109D01*
X171689780Y-80592014D01*
X171737400Y-80449157D01*
X171832638Y-80353919D01*
X171927876Y-80306300D01*
X172118352Y-80258680D01*
X172261209Y-80258680D01*
X172451685Y-80306300D01*
X172546923Y-80353919D01*
X172642161Y-80449157D01*
X172689780Y-80592014D01*
X172689780Y-80830109D01*
X172689780Y-79830109D02*
X171689780Y-79830109D01*
X172642161Y-79401538D02*
X172689780Y-79258680D01*
X172689780Y-79020585D01*
X172642161Y-78925347D01*
X172594542Y-78877728D01*
X172499304Y-78830109D01*
X172404066Y-78830109D01*
X172308828Y-78877728D01*
X172261209Y-78925347D01*
X172213590Y-79020585D01*
X172165971Y-79211061D01*
X172118352Y-79306300D01*
X172070733Y-79353919D01*
X171975495Y-79401538D01*
X171880257Y-79401538D01*
X171785019Y-79353919D01*
X171737400Y-79306300D01*
X171689780Y-79211061D01*
X171689780Y-78972966D01*
X171737400Y-78830109D01*
X172689780Y-78401538D02*
X171689780Y-78401538D01*
X171689780Y-78020585D01*
X171737400Y-77925347D01*
X171785019Y-77877728D01*
X171880257Y-77830109D01*
X172023114Y-77830109D01*
X172118352Y-77877728D01*
X172165971Y-77925347D01*
X172213590Y-78020585D01*
X172213590Y-78401538D01*
X172689780Y-76925347D02*
X172689780Y-77401538D01*
X171689780Y-77401538D01*
X172404066Y-76639633D02*
X172404066Y-76163442D01*
X172689780Y-76734871D02*
X171689780Y-76401538D01*
X172689780Y-76068204D01*
X172213590Y-75544395D02*
X172689780Y-75544395D01*
X171689780Y-75877728D02*
X172213590Y-75544395D01*
X171689780Y-75211061D01*
X172785019Y-75115823D02*
X172785019Y-74353919D01*
X172689780Y-74115823D02*
X171689780Y-74115823D01*
X171689780Y-73734871D01*
X171737400Y-73639633D01*
X171785019Y-73592014D01*
X171880257Y-73544395D01*
X172023114Y-73544395D01*
X172118352Y-73592014D01*
X172165971Y-73639633D01*
X172213590Y-73734871D01*
X172213590Y-74115823D01*
X171689780Y-72925347D02*
X171689780Y-72734871D01*
X171737400Y-72639633D01*
X171832638Y-72544395D01*
X172023114Y-72496776D01*
X172356447Y-72496776D01*
X172546923Y-72544395D01*
X172642161Y-72639633D01*
X172689780Y-72734871D01*
X172689780Y-72925347D01*
X172642161Y-73020585D01*
X172546923Y-73115823D01*
X172356447Y-73163442D01*
X172023114Y-73163442D01*
X171832638Y-73115823D01*
X171737400Y-73020585D01*
X171689780Y-72925347D01*
X172689780Y-71496776D02*
X172213590Y-71830109D01*
X172689780Y-72068204D02*
X171689780Y-72068204D01*
X171689780Y-71687252D01*
X171737400Y-71592014D01*
X171785019Y-71544395D01*
X171880257Y-71496776D01*
X172023114Y-71496776D01*
X172118352Y-71544395D01*
X172165971Y-71592014D01*
X172213590Y-71687252D01*
X172213590Y-72068204D01*
X171689780Y-71211061D02*
X171689780Y-70639633D01*
X172689780Y-70925347D02*
X171689780Y-70925347D01*
%TO.C,JP4*%
X125118761Y-95669690D02*
X125166380Y-95526833D01*
X125166380Y-95288738D01*
X125118761Y-95193500D01*
X125071142Y-95145880D01*
X124975904Y-95098261D01*
X124880666Y-95098261D01*
X124785428Y-95145880D01*
X124737809Y-95193500D01*
X124690190Y-95288738D01*
X124642571Y-95479214D01*
X124594952Y-95574452D01*
X124547333Y-95622071D01*
X124452095Y-95669690D01*
X124356857Y-95669690D01*
X124261619Y-95622071D01*
X124214000Y-95574452D01*
X124166380Y-95479214D01*
X124166380Y-95241119D01*
X124214000Y-95098261D01*
X125166380Y-94526833D02*
X125118761Y-94622071D01*
X125071142Y-94669690D01*
X124975904Y-94717309D01*
X124690190Y-94717309D01*
X124594952Y-94669690D01*
X124547333Y-94622071D01*
X124499714Y-94526833D01*
X124499714Y-94383976D01*
X124547333Y-94288738D01*
X124594952Y-94241119D01*
X124690190Y-94193500D01*
X124975904Y-94193500D01*
X125071142Y-94241119D01*
X125118761Y-94288738D01*
X125166380Y-94383976D01*
X125166380Y-94526833D01*
X125166380Y-93622071D02*
X125118761Y-93717309D01*
X125023523Y-93764928D01*
X124166380Y-93764928D01*
X125166380Y-92812547D02*
X124166380Y-92812547D01*
X125118761Y-92812547D02*
X125166380Y-92907785D01*
X125166380Y-93098261D01*
X125118761Y-93193500D01*
X125071142Y-93241119D01*
X124975904Y-93288738D01*
X124690190Y-93288738D01*
X124594952Y-93241119D01*
X124547333Y-93193500D01*
X124499714Y-93098261D01*
X124499714Y-92907785D01*
X124547333Y-92812547D01*
X125118761Y-91955404D02*
X125166380Y-92050642D01*
X125166380Y-92241119D01*
X125118761Y-92336357D01*
X125023523Y-92383976D01*
X124642571Y-92383976D01*
X124547333Y-92336357D01*
X124499714Y-92241119D01*
X124499714Y-92050642D01*
X124547333Y-91955404D01*
X124642571Y-91907785D01*
X124737809Y-91907785D01*
X124833047Y-92383976D01*
X125166380Y-91479214D02*
X124499714Y-91479214D01*
X124690190Y-91479214D02*
X124594952Y-91431595D01*
X124547333Y-91383976D01*
X124499714Y-91288738D01*
X124499714Y-91193500D01*
X124166380Y-90574452D02*
X124880666Y-90574452D01*
X125023523Y-90622071D01*
X125118761Y-90717309D01*
X125166380Y-90860166D01*
X125166380Y-90955404D01*
X124499714Y-89669690D02*
X125166380Y-89669690D01*
X124499714Y-90098261D02*
X125023523Y-90098261D01*
X125118761Y-90050642D01*
X125166380Y-89955404D01*
X125166380Y-89812547D01*
X125118761Y-89717309D01*
X125071142Y-89669690D01*
X125166380Y-89193500D02*
X124499714Y-89193500D01*
X124594952Y-89193500D02*
X124547333Y-89145880D01*
X124499714Y-89050642D01*
X124499714Y-88907785D01*
X124547333Y-88812547D01*
X124642571Y-88764928D01*
X125166380Y-88764928D01*
X124642571Y-88764928D02*
X124547333Y-88717309D01*
X124499714Y-88622071D01*
X124499714Y-88479214D01*
X124547333Y-88383976D01*
X124642571Y-88336357D01*
X125166380Y-88336357D01*
X124499714Y-87860166D02*
X125499714Y-87860166D01*
X124547333Y-87860166D02*
X124499714Y-87764928D01*
X124499714Y-87574452D01*
X124547333Y-87479214D01*
X124594952Y-87431595D01*
X124690190Y-87383976D01*
X124975904Y-87383976D01*
X125071142Y-87431595D01*
X125118761Y-87479214D01*
X125166380Y-87574452D01*
X125166380Y-87764928D01*
X125118761Y-87860166D01*
X125118761Y-86574452D02*
X125166380Y-86669690D01*
X125166380Y-86860166D01*
X125118761Y-86955404D01*
X125023523Y-87003023D01*
X124642571Y-87003023D01*
X124547333Y-86955404D01*
X124499714Y-86860166D01*
X124499714Y-86669690D01*
X124547333Y-86574452D01*
X124642571Y-86526833D01*
X124737809Y-86526833D01*
X124833047Y-87003023D01*
X125166380Y-86098261D02*
X124499714Y-86098261D01*
X124690190Y-86098261D02*
X124594952Y-86050642D01*
X124547333Y-86003023D01*
X124499714Y-85907785D01*
X124499714Y-85812547D01*
X125261619Y-85717309D02*
X125261619Y-84955404D01*
X124166380Y-84812547D02*
X124166380Y-84193500D01*
X124547333Y-84526833D01*
X124547333Y-84383976D01*
X124594952Y-84288738D01*
X124642571Y-84241119D01*
X124737809Y-84193500D01*
X124975904Y-84193500D01*
X125071142Y-84241119D01*
X125118761Y-84288738D01*
X125166380Y-84383976D01*
X125166380Y-84669690D01*
X125118761Y-84764928D01*
X125071142Y-84812547D01*
X125261619Y-84003023D02*
X125261619Y-83241119D01*
X124166380Y-82812547D02*
X124166380Y-82622071D01*
X124214000Y-82526833D01*
X124309238Y-82431595D01*
X124499714Y-82383976D01*
X124833047Y-82383976D01*
X125023523Y-82431595D01*
X125118761Y-82526833D01*
X125166380Y-82622071D01*
X125166380Y-82812547D01*
X125118761Y-82907785D01*
X125023523Y-83003023D01*
X124833047Y-83050642D01*
X124499714Y-83050642D01*
X124309238Y-83003023D01*
X124214000Y-82907785D01*
X124166380Y-82812547D01*
X124499714Y-81955404D02*
X125499714Y-81955404D01*
X124547333Y-81955404D02*
X124499714Y-81860166D01*
X124499714Y-81669690D01*
X124547333Y-81574452D01*
X124594952Y-81526833D01*
X124690190Y-81479214D01*
X124975904Y-81479214D01*
X125071142Y-81526833D01*
X125118761Y-81574452D01*
X125166380Y-81669690D01*
X125166380Y-81860166D01*
X125118761Y-81955404D01*
X125118761Y-80669690D02*
X125166380Y-80764928D01*
X125166380Y-80955404D01*
X125118761Y-81050642D01*
X125023523Y-81098261D01*
X124642571Y-81098261D01*
X124547333Y-81050642D01*
X124499714Y-80955404D01*
X124499714Y-80764928D01*
X124547333Y-80669690D01*
X124642571Y-80622071D01*
X124737809Y-80622071D01*
X124833047Y-81098261D01*
X124499714Y-80193500D02*
X125166380Y-80193500D01*
X124594952Y-80193500D02*
X124547333Y-80145880D01*
X124499714Y-80050642D01*
X124499714Y-79907785D01*
X124547333Y-79812547D01*
X124642571Y-79764928D01*
X125166380Y-79764928D01*
%TO.C,JP3*%
X125118761Y-91859690D02*
X125166380Y-91716833D01*
X125166380Y-91478738D01*
X125118761Y-91383500D01*
X125071142Y-91335880D01*
X124975904Y-91288261D01*
X124880666Y-91288261D01*
X124785428Y-91335880D01*
X124737809Y-91383500D01*
X124690190Y-91478738D01*
X124642571Y-91669214D01*
X124594952Y-91764452D01*
X124547333Y-91812071D01*
X124452095Y-91859690D01*
X124356857Y-91859690D01*
X124261619Y-91812071D01*
X124214000Y-91764452D01*
X124166380Y-91669214D01*
X124166380Y-91431119D01*
X124214000Y-91288261D01*
X125166380Y-90716833D02*
X125118761Y-90812071D01*
X125071142Y-90859690D01*
X124975904Y-90907309D01*
X124690190Y-90907309D01*
X124594952Y-90859690D01*
X124547333Y-90812071D01*
X124499714Y-90716833D01*
X124499714Y-90573976D01*
X124547333Y-90478738D01*
X124594952Y-90431119D01*
X124690190Y-90383500D01*
X124975904Y-90383500D01*
X125071142Y-90431119D01*
X125118761Y-90478738D01*
X125166380Y-90573976D01*
X125166380Y-90716833D01*
X125166380Y-89812071D02*
X125118761Y-89907309D01*
X125023523Y-89954928D01*
X124166380Y-89954928D01*
X125166380Y-89002547D02*
X124166380Y-89002547D01*
X125118761Y-89002547D02*
X125166380Y-89097785D01*
X125166380Y-89288261D01*
X125118761Y-89383500D01*
X125071142Y-89431119D01*
X124975904Y-89478738D01*
X124690190Y-89478738D01*
X124594952Y-89431119D01*
X124547333Y-89383500D01*
X124499714Y-89288261D01*
X124499714Y-89097785D01*
X124547333Y-89002547D01*
X125118761Y-88145404D02*
X125166380Y-88240642D01*
X125166380Y-88431119D01*
X125118761Y-88526357D01*
X125023523Y-88573976D01*
X124642571Y-88573976D01*
X124547333Y-88526357D01*
X124499714Y-88431119D01*
X124499714Y-88240642D01*
X124547333Y-88145404D01*
X124642571Y-88097785D01*
X124737809Y-88097785D01*
X124833047Y-88573976D01*
X125166380Y-87669214D02*
X124499714Y-87669214D01*
X124690190Y-87669214D02*
X124594952Y-87621595D01*
X124547333Y-87573976D01*
X124499714Y-87478738D01*
X124499714Y-87383500D01*
X124166380Y-86764452D02*
X124880666Y-86764452D01*
X125023523Y-86812071D01*
X125118761Y-86907309D01*
X125166380Y-87050166D01*
X125166380Y-87145404D01*
X124499714Y-85859690D02*
X125166380Y-85859690D01*
X124499714Y-86288261D02*
X125023523Y-86288261D01*
X125118761Y-86240642D01*
X125166380Y-86145404D01*
X125166380Y-86002547D01*
X125118761Y-85907309D01*
X125071142Y-85859690D01*
X125166380Y-85383500D02*
X124499714Y-85383500D01*
X124594952Y-85383500D02*
X124547333Y-85335880D01*
X124499714Y-85240642D01*
X124499714Y-85097785D01*
X124547333Y-85002547D01*
X124642571Y-84954928D01*
X125166380Y-84954928D01*
X124642571Y-84954928D02*
X124547333Y-84907309D01*
X124499714Y-84812071D01*
X124499714Y-84669214D01*
X124547333Y-84573976D01*
X124642571Y-84526357D01*
X125166380Y-84526357D01*
X124499714Y-84050166D02*
X125499714Y-84050166D01*
X124547333Y-84050166D02*
X124499714Y-83954928D01*
X124499714Y-83764452D01*
X124547333Y-83669214D01*
X124594952Y-83621595D01*
X124690190Y-83573976D01*
X124975904Y-83573976D01*
X125071142Y-83621595D01*
X125118761Y-83669214D01*
X125166380Y-83764452D01*
X125166380Y-83954928D01*
X125118761Y-84050166D01*
X125118761Y-82764452D02*
X125166380Y-82859690D01*
X125166380Y-83050166D01*
X125118761Y-83145404D01*
X125023523Y-83193023D01*
X124642571Y-83193023D01*
X124547333Y-83145404D01*
X124499714Y-83050166D01*
X124499714Y-82859690D01*
X124547333Y-82764452D01*
X124642571Y-82716833D01*
X124737809Y-82716833D01*
X124833047Y-83193023D01*
X125166380Y-82288261D02*
X124499714Y-82288261D01*
X124690190Y-82288261D02*
X124594952Y-82240642D01*
X124547333Y-82193023D01*
X124499714Y-82097785D01*
X124499714Y-82002547D01*
X125261619Y-81907309D02*
X125261619Y-81145404D01*
X124166380Y-81002547D02*
X124166380Y-80383500D01*
X124547333Y-80716833D01*
X124547333Y-80573976D01*
X124594952Y-80478738D01*
X124642571Y-80431119D01*
X124737809Y-80383500D01*
X124975904Y-80383500D01*
X125071142Y-80431119D01*
X125118761Y-80478738D01*
X125166380Y-80573976D01*
X125166380Y-80859690D01*
X125118761Y-80954928D01*
X125071142Y-81002547D01*
X125261619Y-80193023D02*
X125261619Y-79431119D01*
X124166380Y-79002547D02*
X124166380Y-78812071D01*
X124214000Y-78716833D01*
X124309238Y-78621595D01*
X124499714Y-78573976D01*
X124833047Y-78573976D01*
X125023523Y-78621595D01*
X125118761Y-78716833D01*
X125166380Y-78812071D01*
X125166380Y-79002547D01*
X125118761Y-79097785D01*
X125023523Y-79193023D01*
X124833047Y-79240642D01*
X124499714Y-79240642D01*
X124309238Y-79193023D01*
X124214000Y-79097785D01*
X124166380Y-79002547D01*
X124499714Y-78145404D02*
X125499714Y-78145404D01*
X124547333Y-78145404D02*
X124499714Y-78050166D01*
X124499714Y-77859690D01*
X124547333Y-77764452D01*
X124594952Y-77716833D01*
X124690190Y-77669214D01*
X124975904Y-77669214D01*
X125071142Y-77716833D01*
X125118761Y-77764452D01*
X125166380Y-77859690D01*
X125166380Y-78050166D01*
X125118761Y-78145404D01*
X125118761Y-76859690D02*
X125166380Y-76954928D01*
X125166380Y-77145404D01*
X125118761Y-77240642D01*
X125023523Y-77288261D01*
X124642571Y-77288261D01*
X124547333Y-77240642D01*
X124499714Y-77145404D01*
X124499714Y-76954928D01*
X124547333Y-76859690D01*
X124642571Y-76812071D01*
X124737809Y-76812071D01*
X124833047Y-77288261D01*
X124499714Y-76383500D02*
X125166380Y-76383500D01*
X124594952Y-76383500D02*
X124547333Y-76335880D01*
X124499714Y-76240642D01*
X124499714Y-76097785D01*
X124547333Y-76002547D01*
X124642571Y-75954928D01*
X125166380Y-75954928D01*
%TO.C,JP2*%
X125118761Y-88049690D02*
X125166380Y-87906833D01*
X125166380Y-87668738D01*
X125118761Y-87573500D01*
X125071142Y-87525880D01*
X124975904Y-87478261D01*
X124880666Y-87478261D01*
X124785428Y-87525880D01*
X124737809Y-87573500D01*
X124690190Y-87668738D01*
X124642571Y-87859214D01*
X124594952Y-87954452D01*
X124547333Y-88002071D01*
X124452095Y-88049690D01*
X124356857Y-88049690D01*
X124261619Y-88002071D01*
X124214000Y-87954452D01*
X124166380Y-87859214D01*
X124166380Y-87621119D01*
X124214000Y-87478261D01*
X125166380Y-86906833D02*
X125118761Y-87002071D01*
X125071142Y-87049690D01*
X124975904Y-87097309D01*
X124690190Y-87097309D01*
X124594952Y-87049690D01*
X124547333Y-87002071D01*
X124499714Y-86906833D01*
X124499714Y-86763976D01*
X124547333Y-86668738D01*
X124594952Y-86621119D01*
X124690190Y-86573500D01*
X124975904Y-86573500D01*
X125071142Y-86621119D01*
X125118761Y-86668738D01*
X125166380Y-86763976D01*
X125166380Y-86906833D01*
X125166380Y-86002071D02*
X125118761Y-86097309D01*
X125023523Y-86144928D01*
X124166380Y-86144928D01*
X125166380Y-85192547D02*
X124166380Y-85192547D01*
X125118761Y-85192547D02*
X125166380Y-85287785D01*
X125166380Y-85478261D01*
X125118761Y-85573500D01*
X125071142Y-85621119D01*
X124975904Y-85668738D01*
X124690190Y-85668738D01*
X124594952Y-85621119D01*
X124547333Y-85573500D01*
X124499714Y-85478261D01*
X124499714Y-85287785D01*
X124547333Y-85192547D01*
X125118761Y-84335404D02*
X125166380Y-84430642D01*
X125166380Y-84621119D01*
X125118761Y-84716357D01*
X125023523Y-84763976D01*
X124642571Y-84763976D01*
X124547333Y-84716357D01*
X124499714Y-84621119D01*
X124499714Y-84430642D01*
X124547333Y-84335404D01*
X124642571Y-84287785D01*
X124737809Y-84287785D01*
X124833047Y-84763976D01*
X125166380Y-83859214D02*
X124499714Y-83859214D01*
X124690190Y-83859214D02*
X124594952Y-83811595D01*
X124547333Y-83763976D01*
X124499714Y-83668738D01*
X124499714Y-83573500D01*
X124166380Y-82954452D02*
X124880666Y-82954452D01*
X125023523Y-83002071D01*
X125118761Y-83097309D01*
X125166380Y-83240166D01*
X125166380Y-83335404D01*
X124499714Y-82049690D02*
X125166380Y-82049690D01*
X124499714Y-82478261D02*
X125023523Y-82478261D01*
X125118761Y-82430642D01*
X125166380Y-82335404D01*
X125166380Y-82192547D01*
X125118761Y-82097309D01*
X125071142Y-82049690D01*
X125166380Y-81573500D02*
X124499714Y-81573500D01*
X124594952Y-81573500D02*
X124547333Y-81525880D01*
X124499714Y-81430642D01*
X124499714Y-81287785D01*
X124547333Y-81192547D01*
X124642571Y-81144928D01*
X125166380Y-81144928D01*
X124642571Y-81144928D02*
X124547333Y-81097309D01*
X124499714Y-81002071D01*
X124499714Y-80859214D01*
X124547333Y-80763976D01*
X124642571Y-80716357D01*
X125166380Y-80716357D01*
X124499714Y-80240166D02*
X125499714Y-80240166D01*
X124547333Y-80240166D02*
X124499714Y-80144928D01*
X124499714Y-79954452D01*
X124547333Y-79859214D01*
X124594952Y-79811595D01*
X124690190Y-79763976D01*
X124975904Y-79763976D01*
X125071142Y-79811595D01*
X125118761Y-79859214D01*
X125166380Y-79954452D01*
X125166380Y-80144928D01*
X125118761Y-80240166D01*
X125118761Y-78954452D02*
X125166380Y-79049690D01*
X125166380Y-79240166D01*
X125118761Y-79335404D01*
X125023523Y-79383023D01*
X124642571Y-79383023D01*
X124547333Y-79335404D01*
X124499714Y-79240166D01*
X124499714Y-79049690D01*
X124547333Y-78954452D01*
X124642571Y-78906833D01*
X124737809Y-78906833D01*
X124833047Y-79383023D01*
X125166380Y-78478261D02*
X124499714Y-78478261D01*
X124690190Y-78478261D02*
X124594952Y-78430642D01*
X124547333Y-78383023D01*
X124499714Y-78287785D01*
X124499714Y-78192547D01*
X125261619Y-78097309D02*
X125261619Y-77335404D01*
X124166380Y-77192547D02*
X124166380Y-76573500D01*
X124547333Y-76906833D01*
X124547333Y-76763976D01*
X124594952Y-76668738D01*
X124642571Y-76621119D01*
X124737809Y-76573500D01*
X124975904Y-76573500D01*
X125071142Y-76621119D01*
X125118761Y-76668738D01*
X125166380Y-76763976D01*
X125166380Y-77049690D01*
X125118761Y-77144928D01*
X125071142Y-77192547D01*
X125261619Y-76383023D02*
X125261619Y-75621119D01*
X124166380Y-75192547D02*
X124166380Y-75002071D01*
X124214000Y-74906833D01*
X124309238Y-74811595D01*
X124499714Y-74763976D01*
X124833047Y-74763976D01*
X125023523Y-74811595D01*
X125118761Y-74906833D01*
X125166380Y-75002071D01*
X125166380Y-75192547D01*
X125118761Y-75287785D01*
X125023523Y-75383023D01*
X124833047Y-75430642D01*
X124499714Y-75430642D01*
X124309238Y-75383023D01*
X124214000Y-75287785D01*
X124166380Y-75192547D01*
X124499714Y-74335404D02*
X125499714Y-74335404D01*
X124547333Y-74335404D02*
X124499714Y-74240166D01*
X124499714Y-74049690D01*
X124547333Y-73954452D01*
X124594952Y-73906833D01*
X124690190Y-73859214D01*
X124975904Y-73859214D01*
X125071142Y-73906833D01*
X125118761Y-73954452D01*
X125166380Y-74049690D01*
X125166380Y-74240166D01*
X125118761Y-74335404D01*
X125118761Y-73049690D02*
X125166380Y-73144928D01*
X125166380Y-73335404D01*
X125118761Y-73430642D01*
X125023523Y-73478261D01*
X124642571Y-73478261D01*
X124547333Y-73430642D01*
X124499714Y-73335404D01*
X124499714Y-73144928D01*
X124547333Y-73049690D01*
X124642571Y-73002071D01*
X124737809Y-73002071D01*
X124833047Y-73478261D01*
X124499714Y-72573500D02*
X125166380Y-72573500D01*
X124594952Y-72573500D02*
X124547333Y-72525880D01*
X124499714Y-72430642D01*
X124499714Y-72287785D01*
X124547333Y-72192547D01*
X124642571Y-72144928D01*
X125166380Y-72144928D01*
%TO.C,JP1*%
X125118761Y-84239690D02*
X125166380Y-84096833D01*
X125166380Y-83858738D01*
X125118761Y-83763500D01*
X125071142Y-83715880D01*
X124975904Y-83668261D01*
X124880666Y-83668261D01*
X124785428Y-83715880D01*
X124737809Y-83763500D01*
X124690190Y-83858738D01*
X124642571Y-84049214D01*
X124594952Y-84144452D01*
X124547333Y-84192071D01*
X124452095Y-84239690D01*
X124356857Y-84239690D01*
X124261619Y-84192071D01*
X124214000Y-84144452D01*
X124166380Y-84049214D01*
X124166380Y-83811119D01*
X124214000Y-83668261D01*
X125166380Y-83096833D02*
X125118761Y-83192071D01*
X125071142Y-83239690D01*
X124975904Y-83287309D01*
X124690190Y-83287309D01*
X124594952Y-83239690D01*
X124547333Y-83192071D01*
X124499714Y-83096833D01*
X124499714Y-82953976D01*
X124547333Y-82858738D01*
X124594952Y-82811119D01*
X124690190Y-82763500D01*
X124975904Y-82763500D01*
X125071142Y-82811119D01*
X125118761Y-82858738D01*
X125166380Y-82953976D01*
X125166380Y-83096833D01*
X125166380Y-82192071D02*
X125118761Y-82287309D01*
X125023523Y-82334928D01*
X124166380Y-82334928D01*
X125166380Y-81382547D02*
X124166380Y-81382547D01*
X125118761Y-81382547D02*
X125166380Y-81477785D01*
X125166380Y-81668261D01*
X125118761Y-81763500D01*
X125071142Y-81811119D01*
X124975904Y-81858738D01*
X124690190Y-81858738D01*
X124594952Y-81811119D01*
X124547333Y-81763500D01*
X124499714Y-81668261D01*
X124499714Y-81477785D01*
X124547333Y-81382547D01*
X125118761Y-80525404D02*
X125166380Y-80620642D01*
X125166380Y-80811119D01*
X125118761Y-80906357D01*
X125023523Y-80953976D01*
X124642571Y-80953976D01*
X124547333Y-80906357D01*
X124499714Y-80811119D01*
X124499714Y-80620642D01*
X124547333Y-80525404D01*
X124642571Y-80477785D01*
X124737809Y-80477785D01*
X124833047Y-80953976D01*
X125166380Y-80049214D02*
X124499714Y-80049214D01*
X124690190Y-80049214D02*
X124594952Y-80001595D01*
X124547333Y-79953976D01*
X124499714Y-79858738D01*
X124499714Y-79763500D01*
X124166380Y-79144452D02*
X124880666Y-79144452D01*
X125023523Y-79192071D01*
X125118761Y-79287309D01*
X125166380Y-79430166D01*
X125166380Y-79525404D01*
X124499714Y-78239690D02*
X125166380Y-78239690D01*
X124499714Y-78668261D02*
X125023523Y-78668261D01*
X125118761Y-78620642D01*
X125166380Y-78525404D01*
X125166380Y-78382547D01*
X125118761Y-78287309D01*
X125071142Y-78239690D01*
X125166380Y-77763500D02*
X124499714Y-77763500D01*
X124594952Y-77763500D02*
X124547333Y-77715880D01*
X124499714Y-77620642D01*
X124499714Y-77477785D01*
X124547333Y-77382547D01*
X124642571Y-77334928D01*
X125166380Y-77334928D01*
X124642571Y-77334928D02*
X124547333Y-77287309D01*
X124499714Y-77192071D01*
X124499714Y-77049214D01*
X124547333Y-76953976D01*
X124642571Y-76906357D01*
X125166380Y-76906357D01*
X124499714Y-76430166D02*
X125499714Y-76430166D01*
X124547333Y-76430166D02*
X124499714Y-76334928D01*
X124499714Y-76144452D01*
X124547333Y-76049214D01*
X124594952Y-76001595D01*
X124690190Y-75953976D01*
X124975904Y-75953976D01*
X125071142Y-76001595D01*
X125118761Y-76049214D01*
X125166380Y-76144452D01*
X125166380Y-76334928D01*
X125118761Y-76430166D01*
X125118761Y-75144452D02*
X125166380Y-75239690D01*
X125166380Y-75430166D01*
X125118761Y-75525404D01*
X125023523Y-75573023D01*
X124642571Y-75573023D01*
X124547333Y-75525404D01*
X124499714Y-75430166D01*
X124499714Y-75239690D01*
X124547333Y-75144452D01*
X124642571Y-75096833D01*
X124737809Y-75096833D01*
X124833047Y-75573023D01*
X125166380Y-74668261D02*
X124499714Y-74668261D01*
X124690190Y-74668261D02*
X124594952Y-74620642D01*
X124547333Y-74573023D01*
X124499714Y-74477785D01*
X124499714Y-74382547D01*
X125261619Y-74287309D02*
X125261619Y-73525404D01*
X124166380Y-73382547D02*
X124166380Y-72763500D01*
X124547333Y-73096833D01*
X124547333Y-72953976D01*
X124594952Y-72858738D01*
X124642571Y-72811119D01*
X124737809Y-72763500D01*
X124975904Y-72763500D01*
X125071142Y-72811119D01*
X125118761Y-72858738D01*
X125166380Y-72953976D01*
X125166380Y-73239690D01*
X125118761Y-73334928D01*
X125071142Y-73382547D01*
X125261619Y-72573023D02*
X125261619Y-71811119D01*
X124166380Y-71382547D02*
X124166380Y-71192071D01*
X124214000Y-71096833D01*
X124309238Y-71001595D01*
X124499714Y-70953976D01*
X124833047Y-70953976D01*
X125023523Y-71001595D01*
X125118761Y-71096833D01*
X125166380Y-71192071D01*
X125166380Y-71382547D01*
X125118761Y-71477785D01*
X125023523Y-71573023D01*
X124833047Y-71620642D01*
X124499714Y-71620642D01*
X124309238Y-71573023D01*
X124214000Y-71477785D01*
X124166380Y-71382547D01*
X124499714Y-70525404D02*
X125499714Y-70525404D01*
X124547333Y-70525404D02*
X124499714Y-70430166D01*
X124499714Y-70239690D01*
X124547333Y-70144452D01*
X124594952Y-70096833D01*
X124690190Y-70049214D01*
X124975904Y-70049214D01*
X125071142Y-70096833D01*
X125118761Y-70144452D01*
X125166380Y-70239690D01*
X125166380Y-70430166D01*
X125118761Y-70525404D01*
X125118761Y-69239690D02*
X125166380Y-69334928D01*
X125166380Y-69525404D01*
X125118761Y-69620642D01*
X125023523Y-69668261D01*
X124642571Y-69668261D01*
X124547333Y-69620642D01*
X124499714Y-69525404D01*
X124499714Y-69334928D01*
X124547333Y-69239690D01*
X124642571Y-69192071D01*
X124737809Y-69192071D01*
X124833047Y-69668261D01*
X124499714Y-68763500D02*
X125166380Y-68763500D01*
X124594952Y-68763500D02*
X124547333Y-68715880D01*
X124499714Y-68620642D01*
X124499714Y-68477785D01*
X124547333Y-68382547D01*
X124642571Y-68334928D01*
X125166380Y-68334928D01*
%TO.C,RN2*%
X117406380Y-101083976D02*
X116930190Y-101417309D01*
X117406380Y-101655404D02*
X116406380Y-101655404D01*
X116406380Y-101274452D01*
X116454000Y-101179214D01*
X116501619Y-101131595D01*
X116596857Y-101083976D01*
X116739714Y-101083976D01*
X116834952Y-101131595D01*
X116882571Y-101179214D01*
X116930190Y-101274452D01*
X116930190Y-101655404D01*
X117406380Y-100655404D02*
X116406380Y-100655404D01*
X117406380Y-100083976D01*
X116406380Y-100083976D01*
X116501619Y-99655404D02*
X116454000Y-99607785D01*
X116406380Y-99512547D01*
X116406380Y-99274452D01*
X116454000Y-99179214D01*
X116501619Y-99131595D01*
X116596857Y-99083976D01*
X116692095Y-99083976D01*
X116834952Y-99131595D01*
X117406380Y-99703023D01*
X117406380Y-99083976D01*
%TO.C,RN1*%
X117406380Y-76953976D02*
X116930190Y-77287309D01*
X117406380Y-77525404D02*
X116406380Y-77525404D01*
X116406380Y-77144452D01*
X116454000Y-77049214D01*
X116501619Y-77001595D01*
X116596857Y-76953976D01*
X116739714Y-76953976D01*
X116834952Y-77001595D01*
X116882571Y-77049214D01*
X116930190Y-77144452D01*
X116930190Y-77525404D01*
X117406380Y-76525404D02*
X116406380Y-76525404D01*
X117406380Y-75953976D01*
X116406380Y-75953976D01*
X117406380Y-74953976D02*
X117406380Y-75525404D01*
X117406380Y-75239690D02*
X116406380Y-75239690D01*
X116549238Y-75334928D01*
X116644476Y-75430166D01*
X116692095Y-75525404D01*
%TO.C,U3*%
X139573095Y-93275880D02*
X139573095Y-94085404D01*
X139620714Y-94180642D01*
X139668333Y-94228261D01*
X139763571Y-94275880D01*
X139954047Y-94275880D01*
X140049285Y-94228261D01*
X140096904Y-94180642D01*
X140144523Y-94085404D01*
X140144523Y-93275880D01*
X140525476Y-93275880D02*
X141144523Y-93275880D01*
X140811190Y-93656833D01*
X140954047Y-93656833D01*
X141049285Y-93704452D01*
X141096904Y-93752071D01*
X141144523Y-93847309D01*
X141144523Y-94085404D01*
X141096904Y-94180642D01*
X141049285Y-94228261D01*
X140954047Y-94275880D01*
X140668333Y-94275880D01*
X140573095Y-94228261D01*
X140525476Y-94180642D01*
%TO.C,P8*%
X171892980Y-94708100D02*
X172702504Y-94708100D01*
X172797742Y-94660480D01*
X172845361Y-94612861D01*
X172892980Y-94517623D01*
X172892980Y-94327147D01*
X172845361Y-94231909D01*
X172797742Y-94184290D01*
X172702504Y-94136671D01*
X171892980Y-94136671D01*
X172845361Y-93708100D02*
X172892980Y-93565242D01*
X172892980Y-93327147D01*
X172845361Y-93231909D01*
X172797742Y-93184290D01*
X172702504Y-93136671D01*
X172607266Y-93136671D01*
X172512028Y-93184290D01*
X172464409Y-93231909D01*
X172416790Y-93327147D01*
X172369171Y-93517623D01*
X172321552Y-93612861D01*
X172273933Y-93660480D01*
X172178695Y-93708100D01*
X172083457Y-93708100D01*
X171988219Y-93660480D01*
X171940600Y-93612861D01*
X171892980Y-93517623D01*
X171892980Y-93279528D01*
X171940600Y-93136671D01*
X172369171Y-92374766D02*
X172416790Y-92231909D01*
X172464409Y-92184290D01*
X172559647Y-92136671D01*
X172702504Y-92136671D01*
X172797742Y-92184290D01*
X172845361Y-92231909D01*
X172892980Y-92327147D01*
X172892980Y-92708100D01*
X171892980Y-92708100D01*
X171892980Y-92374766D01*
X171940600Y-92279528D01*
X171988219Y-92231909D01*
X172083457Y-92184290D01*
X172178695Y-92184290D01*
X172273933Y-92231909D01*
X172321552Y-92279528D01*
X172369171Y-92374766D01*
X172369171Y-92708100D01*
X172988219Y-91946195D02*
X172988219Y-91184290D01*
X172892980Y-90946195D02*
X171892980Y-90946195D01*
X172369171Y-90946195D02*
X172369171Y-90374766D01*
X172892980Y-90374766D02*
X171892980Y-90374766D01*
X172369171Y-89898576D02*
X172369171Y-89565242D01*
X172892980Y-89422385D02*
X172892980Y-89898576D01*
X171892980Y-89898576D01*
X171892980Y-89422385D01*
X172607266Y-89041433D02*
X172607266Y-88565242D01*
X172892980Y-89136671D02*
X171892980Y-88803338D01*
X172892980Y-88470004D01*
X172892980Y-88136671D02*
X171892980Y-88136671D01*
X171892980Y-87898576D01*
X171940600Y-87755719D01*
X172035838Y-87660480D01*
X172131076Y-87612861D01*
X172321552Y-87565242D01*
X172464409Y-87565242D01*
X172654885Y-87612861D01*
X172750123Y-87660480D01*
X172845361Y-87755719D01*
X172892980Y-87898576D01*
X172892980Y-88136671D01*
X172369171Y-87136671D02*
X172369171Y-86803338D01*
X172892980Y-86660480D02*
X172892980Y-87136671D01*
X171892980Y-87136671D01*
X171892980Y-86660480D01*
X172892980Y-85660480D02*
X172416790Y-85993814D01*
X172892980Y-86231909D02*
X171892980Y-86231909D01*
X171892980Y-85850957D01*
X171940600Y-85755719D01*
X171988219Y-85708100D01*
X172083457Y-85660480D01*
X172226314Y-85660480D01*
X172321552Y-85708100D01*
X172369171Y-85755719D01*
X172416790Y-85850957D01*
X172416790Y-86231909D01*
%TO.C,Y1*%
X154439190Y-83697690D02*
X154915380Y-83697690D01*
X153915380Y-84031023D02*
X154439190Y-83697690D01*
X153915380Y-83364357D01*
X154915380Y-82507214D02*
X154915380Y-83078642D01*
X154915380Y-82792928D02*
X153915380Y-82792928D01*
X154058238Y-82888166D01*
X154153476Y-82983404D01*
X154201095Y-83078642D01*
%TO.C,U4*%
X144795380Y-121729404D02*
X145604904Y-121729404D01*
X145700142Y-121681785D01*
X145747761Y-121634166D01*
X145795380Y-121538928D01*
X145795380Y-121348452D01*
X145747761Y-121253214D01*
X145700142Y-121205595D01*
X145604904Y-121157976D01*
X144795380Y-121157976D01*
X145128714Y-120253214D02*
X145795380Y-120253214D01*
X144747761Y-120491309D02*
X145462047Y-120729404D01*
X145462047Y-120110357D01*
%TO.C,U1*%
X134326380Y-102463504D02*
X135135904Y-102463504D01*
X135231142Y-102415885D01*
X135278761Y-102368266D01*
X135326380Y-102273028D01*
X135326380Y-102082552D01*
X135278761Y-101987314D01*
X135231142Y-101939695D01*
X135135904Y-101892076D01*
X134326380Y-101892076D01*
X135326380Y-100892076D02*
X135326380Y-101463504D01*
X135326380Y-101177790D02*
X134326380Y-101177790D01*
X134469238Y-101273028D01*
X134564476Y-101368266D01*
X134612095Y-101463504D01*
%TO.C,TP1*%
X134297966Y-72241771D02*
X134440823Y-72289390D01*
X134488442Y-72337009D01*
X134536061Y-72432247D01*
X134536061Y-72575104D01*
X134488442Y-72670342D01*
X134440823Y-72717961D01*
X134345585Y-72765580D01*
X133964633Y-72765580D01*
X133964633Y-71765580D01*
X134297966Y-71765580D01*
X134393204Y-71813200D01*
X134440823Y-71860819D01*
X134488442Y-71956057D01*
X134488442Y-72051295D01*
X134440823Y-72146533D01*
X134393204Y-72194152D01*
X134297966Y-72241771D01*
X133964633Y-72241771D01*
X135155109Y-71765580D02*
X135345585Y-71765580D01*
X135440823Y-71813200D01*
X135536061Y-71908438D01*
X135583680Y-72098914D01*
X135583680Y-72432247D01*
X135536061Y-72622723D01*
X135440823Y-72717961D01*
X135345585Y-72765580D01*
X135155109Y-72765580D01*
X135059871Y-72717961D01*
X134964633Y-72622723D01*
X134917014Y-72432247D01*
X134917014Y-72098914D01*
X134964633Y-71908438D01*
X135059871Y-71813200D01*
X135155109Y-71765580D01*
X136202728Y-71765580D02*
X136393204Y-71765580D01*
X136488442Y-71813200D01*
X136583680Y-71908438D01*
X136631300Y-72098914D01*
X136631300Y-72432247D01*
X136583680Y-72622723D01*
X136488442Y-72717961D01*
X136393204Y-72765580D01*
X136202728Y-72765580D01*
X136107490Y-72717961D01*
X136012252Y-72622723D01*
X135964633Y-72432247D01*
X135964633Y-72098914D01*
X136012252Y-71908438D01*
X136107490Y-71813200D01*
X136202728Y-71765580D01*
X136917014Y-71765580D02*
X137488442Y-71765580D01*
X137202728Y-72765580D02*
X137202728Y-71765580D01*
X138345585Y-72765580D02*
X137774157Y-72765580D01*
X138059871Y-72765580D02*
X138059871Y-71765580D01*
X137964633Y-71908438D01*
X137869395Y-72003676D01*
X137774157Y-72051295D01*
%TO.C,R6*%
X127849333Y-66937880D02*
X127516000Y-66461690D01*
X127277904Y-66937880D02*
X127277904Y-65937880D01*
X127658857Y-65937880D01*
X127754095Y-65985500D01*
X127801714Y-66033119D01*
X127849333Y-66128357D01*
X127849333Y-66271214D01*
X127801714Y-66366452D01*
X127754095Y-66414071D01*
X127658857Y-66461690D01*
X127277904Y-66461690D01*
X128706476Y-65937880D02*
X128516000Y-65937880D01*
X128420761Y-65985500D01*
X128373142Y-66033119D01*
X128277904Y-66175976D01*
X128230285Y-66366452D01*
X128230285Y-66747404D01*
X128277904Y-66842642D01*
X128325523Y-66890261D01*
X128420761Y-66937880D01*
X128611238Y-66937880D01*
X128706476Y-66890261D01*
X128754095Y-66842642D01*
X128801714Y-66747404D01*
X128801714Y-66509309D01*
X128754095Y-66414071D01*
X128706476Y-66366452D01*
X128611238Y-66318833D01*
X128420761Y-66318833D01*
X128325523Y-66366452D01*
X128277904Y-66414071D01*
X128230285Y-66509309D01*
%TO.C,R5*%
X128039833Y-101100880D02*
X127706500Y-100624690D01*
X127468404Y-101100880D02*
X127468404Y-100100880D01*
X127849357Y-100100880D01*
X127944595Y-100148500D01*
X127992214Y-100196119D01*
X128039833Y-100291357D01*
X128039833Y-100434214D01*
X127992214Y-100529452D01*
X127944595Y-100577071D01*
X127849357Y-100624690D01*
X127468404Y-100624690D01*
X128944595Y-100100880D02*
X128468404Y-100100880D01*
X128420785Y-100577071D01*
X128468404Y-100529452D01*
X128563642Y-100481833D01*
X128801738Y-100481833D01*
X128896976Y-100529452D01*
X128944595Y-100577071D01*
X128992214Y-100672309D01*
X128992214Y-100910404D01*
X128944595Y-101005642D01*
X128896976Y-101053261D01*
X128801738Y-101100880D01*
X128563642Y-101100880D01*
X128468404Y-101053261D01*
X128420785Y-101005642D01*
%TO.C,R4*%
X128103333Y-112326680D02*
X127770000Y-111850490D01*
X127531904Y-112326680D02*
X127531904Y-111326680D01*
X127912857Y-111326680D01*
X128008095Y-111374300D01*
X128055714Y-111421919D01*
X128103333Y-111517157D01*
X128103333Y-111660014D01*
X128055714Y-111755252D01*
X128008095Y-111802871D01*
X127912857Y-111850490D01*
X127531904Y-111850490D01*
X128960476Y-111660014D02*
X128960476Y-112326680D01*
X128722380Y-111279061D02*
X128484285Y-111993347D01*
X129103333Y-111993347D01*
%TO.C,R3*%
X128039833Y-97798880D02*
X127706500Y-97322690D01*
X127468404Y-97798880D02*
X127468404Y-96798880D01*
X127849357Y-96798880D01*
X127944595Y-96846500D01*
X127992214Y-96894119D01*
X128039833Y-96989357D01*
X128039833Y-97132214D01*
X127992214Y-97227452D01*
X127944595Y-97275071D01*
X127849357Y-97322690D01*
X127468404Y-97322690D01*
X128373166Y-96798880D02*
X128992214Y-96798880D01*
X128658880Y-97179833D01*
X128801738Y-97179833D01*
X128896976Y-97227452D01*
X128944595Y-97275071D01*
X128992214Y-97370309D01*
X128992214Y-97608404D01*
X128944595Y-97703642D01*
X128896976Y-97751261D01*
X128801738Y-97798880D01*
X128516023Y-97798880D01*
X128420785Y-97751261D01*
X128373166Y-97703642D01*
%TO.C,R2*%
X127976333Y-94623880D02*
X127643000Y-94147690D01*
X127404904Y-94623880D02*
X127404904Y-93623880D01*
X127785857Y-93623880D01*
X127881095Y-93671500D01*
X127928714Y-93719119D01*
X127976333Y-93814357D01*
X127976333Y-93957214D01*
X127928714Y-94052452D01*
X127881095Y-94100071D01*
X127785857Y-94147690D01*
X127404904Y-94147690D01*
X128357285Y-93719119D02*
X128404904Y-93671500D01*
X128500142Y-93623880D01*
X128738238Y-93623880D01*
X128833476Y-93671500D01*
X128881095Y-93719119D01*
X128928714Y-93814357D01*
X128928714Y-93909595D01*
X128881095Y-94052452D01*
X128309666Y-94623880D01*
X128928714Y-94623880D01*
%TO.C,R1*%
X127912833Y-71509880D02*
X127579500Y-71033690D01*
X127341404Y-71509880D02*
X127341404Y-70509880D01*
X127722357Y-70509880D01*
X127817595Y-70557500D01*
X127865214Y-70605119D01*
X127912833Y-70700357D01*
X127912833Y-70843214D01*
X127865214Y-70938452D01*
X127817595Y-70986071D01*
X127722357Y-71033690D01*
X127341404Y-71033690D01*
X128865214Y-71509880D02*
X128293785Y-71509880D01*
X128579500Y-71509880D02*
X128579500Y-70509880D01*
X128484261Y-70652738D01*
X128389023Y-70747976D01*
X128293785Y-70795595D01*
%TO.C,R21*%
X160926542Y-107297480D02*
X160593209Y-106821290D01*
X160355114Y-107297480D02*
X160355114Y-106297480D01*
X160736066Y-106297480D01*
X160831304Y-106345100D01*
X160878923Y-106392719D01*
X160926542Y-106487957D01*
X160926542Y-106630814D01*
X160878923Y-106726052D01*
X160831304Y-106773671D01*
X160736066Y-106821290D01*
X160355114Y-106821290D01*
X161307495Y-106392719D02*
X161355114Y-106345100D01*
X161450352Y-106297480D01*
X161688447Y-106297480D01*
X161783685Y-106345100D01*
X161831304Y-106392719D01*
X161878923Y-106487957D01*
X161878923Y-106583195D01*
X161831304Y-106726052D01*
X161259876Y-107297480D01*
X161878923Y-107297480D01*
X162831304Y-107297480D02*
X162259876Y-107297480D01*
X162545590Y-107297480D02*
X162545590Y-106297480D01*
X162450352Y-106440338D01*
X162355114Y-106535576D01*
X162259876Y-106583195D01*
%TO.C,R20*%
X160913842Y-102166680D02*
X160580509Y-101690490D01*
X160342414Y-102166680D02*
X160342414Y-101166680D01*
X160723366Y-101166680D01*
X160818604Y-101214300D01*
X160866223Y-101261919D01*
X160913842Y-101357157D01*
X160913842Y-101500014D01*
X160866223Y-101595252D01*
X160818604Y-101642871D01*
X160723366Y-101690490D01*
X160342414Y-101690490D01*
X161294795Y-101261919D02*
X161342414Y-101214300D01*
X161437652Y-101166680D01*
X161675747Y-101166680D01*
X161770985Y-101214300D01*
X161818604Y-101261919D01*
X161866223Y-101357157D01*
X161866223Y-101452395D01*
X161818604Y-101595252D01*
X161247176Y-102166680D01*
X161866223Y-102166680D01*
X162485271Y-101166680D02*
X162580509Y-101166680D01*
X162675747Y-101214300D01*
X162723366Y-101261919D01*
X162770985Y-101357157D01*
X162818604Y-101547633D01*
X162818604Y-101785728D01*
X162770985Y-101976204D01*
X162723366Y-102071442D01*
X162675747Y-102119061D01*
X162580509Y-102166680D01*
X162485271Y-102166680D01*
X162390033Y-102119061D01*
X162342414Y-102071442D01*
X162294795Y-101976204D01*
X162247176Y-101785728D01*
X162247176Y-101547633D01*
X162294795Y-101357157D01*
X162342414Y-101261919D01*
X162390033Y-101214300D01*
X162485271Y-101166680D01*
%TO.C,R13*%
X155747980Y-65616057D02*
X155271790Y-65949390D01*
X155747980Y-66187485D02*
X154747980Y-66187485D01*
X154747980Y-65806533D01*
X154795600Y-65711295D01*
X154843219Y-65663676D01*
X154938457Y-65616057D01*
X155081314Y-65616057D01*
X155176552Y-65663676D01*
X155224171Y-65711295D01*
X155271790Y-65806533D01*
X155271790Y-66187485D01*
X155747980Y-64663676D02*
X155747980Y-65235104D01*
X155747980Y-64949390D02*
X154747980Y-64949390D01*
X154890838Y-65044628D01*
X154986076Y-65139866D01*
X155033695Y-65235104D01*
X154747980Y-64330342D02*
X154747980Y-63711295D01*
X155128933Y-64044628D01*
X155128933Y-63901771D01*
X155176552Y-63806533D01*
X155224171Y-63758914D01*
X155319409Y-63711295D01*
X155557504Y-63711295D01*
X155652742Y-63758914D01*
X155700361Y-63806533D01*
X155747980Y-63901771D01*
X155747980Y-64187485D01*
X155700361Y-64282723D01*
X155652742Y-64330342D01*
%TO.C,R10*%
X147569180Y-65654157D02*
X147092990Y-65987490D01*
X147569180Y-66225585D02*
X146569180Y-66225585D01*
X146569180Y-65844633D01*
X146616800Y-65749395D01*
X146664419Y-65701776D01*
X146759657Y-65654157D01*
X146902514Y-65654157D01*
X146997752Y-65701776D01*
X147045371Y-65749395D01*
X147092990Y-65844633D01*
X147092990Y-66225585D01*
X147569180Y-64701776D02*
X147569180Y-65273204D01*
X147569180Y-64987490D02*
X146569180Y-64987490D01*
X146712038Y-65082728D01*
X146807276Y-65177966D01*
X146854895Y-65273204D01*
X146569180Y-64082728D02*
X146569180Y-63987490D01*
X146616800Y-63892252D01*
X146664419Y-63844633D01*
X146759657Y-63797014D01*
X146950133Y-63749395D01*
X147188228Y-63749395D01*
X147378704Y-63797014D01*
X147473942Y-63844633D01*
X147521561Y-63892252D01*
X147569180Y-63987490D01*
X147569180Y-64082728D01*
X147521561Y-64177966D01*
X147473942Y-64225585D01*
X147378704Y-64273204D01*
X147188228Y-64320823D01*
X146950133Y-64320823D01*
X146759657Y-64273204D01*
X146664419Y-64225585D01*
X146616800Y-64177966D01*
X146569180Y-64082728D01*
%TO.C,R7*%
X132723880Y-75134766D02*
X132247690Y-75468100D01*
X132723880Y-75706195D02*
X131723880Y-75706195D01*
X131723880Y-75325242D01*
X131771500Y-75230004D01*
X131819119Y-75182385D01*
X131914357Y-75134766D01*
X132057214Y-75134766D01*
X132152452Y-75182385D01*
X132200071Y-75230004D01*
X132247690Y-75325242D01*
X132247690Y-75706195D01*
X131723880Y-74801433D02*
X131723880Y-74134766D01*
X132723880Y-74563338D01*
%TO.C,R12*%
X150995142Y-104718380D02*
X150661809Y-104242190D01*
X150423714Y-104718380D02*
X150423714Y-103718380D01*
X150804666Y-103718380D01*
X150899904Y-103766000D01*
X150947523Y-103813619D01*
X150995142Y-103908857D01*
X150995142Y-104051714D01*
X150947523Y-104146952D01*
X150899904Y-104194571D01*
X150804666Y-104242190D01*
X150423714Y-104242190D01*
X151947523Y-104718380D02*
X151376095Y-104718380D01*
X151661809Y-104718380D02*
X151661809Y-103718380D01*
X151566571Y-103861238D01*
X151471333Y-103956476D01*
X151376095Y-104004095D01*
X152328476Y-103813619D02*
X152376095Y-103766000D01*
X152471333Y-103718380D01*
X152709428Y-103718380D01*
X152804666Y-103766000D01*
X152852285Y-103813619D01*
X152899904Y-103908857D01*
X152899904Y-104004095D01*
X152852285Y-104146952D01*
X152280857Y-104718380D01*
X152899904Y-104718380D01*
%TO.C,R11*%
X150995142Y-108210880D02*
X150661809Y-107734690D01*
X150423714Y-108210880D02*
X150423714Y-107210880D01*
X150804666Y-107210880D01*
X150899904Y-107258500D01*
X150947523Y-107306119D01*
X150995142Y-107401357D01*
X150995142Y-107544214D01*
X150947523Y-107639452D01*
X150899904Y-107687071D01*
X150804666Y-107734690D01*
X150423714Y-107734690D01*
X151947523Y-108210880D02*
X151376095Y-108210880D01*
X151661809Y-108210880D02*
X151661809Y-107210880D01*
X151566571Y-107353738D01*
X151471333Y-107448976D01*
X151376095Y-107496595D01*
X152899904Y-108210880D02*
X152328476Y-108210880D01*
X152614190Y-108210880D02*
X152614190Y-107210880D01*
X152518952Y-107353738D01*
X152423714Y-107448976D01*
X152328476Y-107496595D01*
%TO.C,R8*%
X164867580Y-89028566D02*
X164391390Y-89361900D01*
X164867580Y-89599995D02*
X163867580Y-89599995D01*
X163867580Y-89219042D01*
X163915200Y-89123804D01*
X163962819Y-89076185D01*
X164058057Y-89028566D01*
X164200914Y-89028566D01*
X164296152Y-89076185D01*
X164343771Y-89123804D01*
X164391390Y-89219042D01*
X164391390Y-89599995D01*
X164296152Y-88457138D02*
X164248533Y-88552376D01*
X164200914Y-88599995D01*
X164105676Y-88647614D01*
X164058057Y-88647614D01*
X163962819Y-88599995D01*
X163915200Y-88552376D01*
X163867580Y-88457138D01*
X163867580Y-88266661D01*
X163915200Y-88171423D01*
X163962819Y-88123804D01*
X164058057Y-88076185D01*
X164105676Y-88076185D01*
X164200914Y-88123804D01*
X164248533Y-88171423D01*
X164296152Y-88266661D01*
X164296152Y-88457138D01*
X164343771Y-88552376D01*
X164391390Y-88599995D01*
X164486628Y-88647614D01*
X164677104Y-88647614D01*
X164772342Y-88599995D01*
X164819961Y-88552376D01*
X164867580Y-88457138D01*
X164867580Y-88266661D01*
X164819961Y-88171423D01*
X164772342Y-88123804D01*
X164677104Y-88076185D01*
X164486628Y-88076185D01*
X164391390Y-88123804D01*
X164343771Y-88171423D01*
X164296152Y-88266661D01*
%TO.C,R9*%
X164922460Y-92676006D02*
X164446270Y-93009340D01*
X164922460Y-93247435D02*
X163922460Y-93247435D01*
X163922460Y-92866482D01*
X163970080Y-92771244D01*
X164017699Y-92723625D01*
X164112937Y-92676006D01*
X164255794Y-92676006D01*
X164351032Y-92723625D01*
X164398651Y-92771244D01*
X164446270Y-92866482D01*
X164446270Y-93247435D01*
X164922460Y-92199816D02*
X164922460Y-92009340D01*
X164874841Y-91914101D01*
X164827222Y-91866482D01*
X164684365Y-91771244D01*
X164493889Y-91723625D01*
X164112937Y-91723625D01*
X164017699Y-91771244D01*
X163970080Y-91818863D01*
X163922460Y-91914101D01*
X163922460Y-92104578D01*
X163970080Y-92199816D01*
X164017699Y-92247435D01*
X164112937Y-92295054D01*
X164351032Y-92295054D01*
X164446270Y-92247435D01*
X164493889Y-92199816D01*
X164541508Y-92104578D01*
X164541508Y-91914101D01*
X164493889Y-91818863D01*
X164446270Y-91771244D01*
X164351032Y-91723625D01*
%TO.C,Q7*%
X158726119Y-109416838D02*
X158678500Y-109512076D01*
X158583261Y-109607314D01*
X158440404Y-109750171D01*
X158392785Y-109845409D01*
X158392785Y-109940647D01*
X158630880Y-109893028D02*
X158583261Y-109988266D01*
X158488023Y-110083504D01*
X158297547Y-110131123D01*
X157964214Y-110131123D01*
X157773738Y-110083504D01*
X157678500Y-109988266D01*
X157630880Y-109893028D01*
X157630880Y-109702552D01*
X157678500Y-109607314D01*
X157773738Y-109512076D01*
X157964214Y-109464457D01*
X158297547Y-109464457D01*
X158488023Y-109512076D01*
X158583261Y-109607314D01*
X158630880Y-109702552D01*
X158630880Y-109893028D01*
X157630880Y-109131123D02*
X157630880Y-108464457D01*
X158630880Y-108893028D01*
%TO.C,Q6*%
X120656361Y-68185919D02*
X120561123Y-68138300D01*
X120465885Y-68043061D01*
X120323028Y-67900204D01*
X120227790Y-67852585D01*
X120132552Y-67852585D01*
X120180171Y-68090680D02*
X120084933Y-68043061D01*
X119989695Y-67947823D01*
X119942076Y-67757347D01*
X119942076Y-67424014D01*
X119989695Y-67233538D01*
X120084933Y-67138300D01*
X120180171Y-67090680D01*
X120370647Y-67090680D01*
X120465885Y-67138300D01*
X120561123Y-67233538D01*
X120608742Y-67424014D01*
X120608742Y-67757347D01*
X120561123Y-67947823D01*
X120465885Y-68043061D01*
X120370647Y-68090680D01*
X120180171Y-68090680D01*
X121465885Y-67090680D02*
X121275409Y-67090680D01*
X121180171Y-67138300D01*
X121132552Y-67185919D01*
X121037314Y-67328776D01*
X120989695Y-67519252D01*
X120989695Y-67900204D01*
X121037314Y-67995442D01*
X121084933Y-68043061D01*
X121180171Y-68090680D01*
X121370647Y-68090680D01*
X121465885Y-68043061D01*
X121513504Y-67995442D01*
X121561123Y-67900204D01*
X121561123Y-67662109D01*
X121513504Y-67566871D01*
X121465885Y-67519252D01*
X121370647Y-67471633D01*
X121180171Y-67471633D01*
X121084933Y-67519252D01*
X121037314Y-67566871D01*
X120989695Y-67662109D01*
%TO.C,Q5*%
X121062761Y-107949619D02*
X120967523Y-107902000D01*
X120872285Y-107806761D01*
X120729428Y-107663904D01*
X120634190Y-107616285D01*
X120538952Y-107616285D01*
X120586571Y-107854380D02*
X120491333Y-107806761D01*
X120396095Y-107711523D01*
X120348476Y-107521047D01*
X120348476Y-107187714D01*
X120396095Y-106997238D01*
X120491333Y-106902000D01*
X120586571Y-106854380D01*
X120777047Y-106854380D01*
X120872285Y-106902000D01*
X120967523Y-106997238D01*
X121015142Y-107187714D01*
X121015142Y-107521047D01*
X120967523Y-107711523D01*
X120872285Y-107806761D01*
X120777047Y-107854380D01*
X120586571Y-107854380D01*
X121919904Y-106854380D02*
X121443714Y-106854380D01*
X121396095Y-107330571D01*
X121443714Y-107282952D01*
X121538952Y-107235333D01*
X121777047Y-107235333D01*
X121872285Y-107282952D01*
X121919904Y-107330571D01*
X121967523Y-107425809D01*
X121967523Y-107663904D01*
X121919904Y-107759142D01*
X121872285Y-107806761D01*
X121777047Y-107854380D01*
X121538952Y-107854380D01*
X121443714Y-107806761D01*
X121396095Y-107759142D01*
%TO.C,Q4*%
X121062761Y-112966119D02*
X120967523Y-112918500D01*
X120872285Y-112823261D01*
X120729428Y-112680404D01*
X120634190Y-112632785D01*
X120538952Y-112632785D01*
X120586571Y-112870880D02*
X120491333Y-112823261D01*
X120396095Y-112728023D01*
X120348476Y-112537547D01*
X120348476Y-112204214D01*
X120396095Y-112013738D01*
X120491333Y-111918500D01*
X120586571Y-111870880D01*
X120777047Y-111870880D01*
X120872285Y-111918500D01*
X120967523Y-112013738D01*
X121015142Y-112204214D01*
X121015142Y-112537547D01*
X120967523Y-112728023D01*
X120872285Y-112823261D01*
X120777047Y-112870880D01*
X120586571Y-112870880D01*
X121872285Y-112204214D02*
X121872285Y-112870880D01*
X121634190Y-111823261D02*
X121396095Y-112537547D01*
X122015142Y-112537547D01*
%TO.C,Q3*%
X121126261Y-102933119D02*
X121031023Y-102885500D01*
X120935785Y-102790261D01*
X120792928Y-102647404D01*
X120697690Y-102599785D01*
X120602452Y-102599785D01*
X120650071Y-102837880D02*
X120554833Y-102790261D01*
X120459595Y-102695023D01*
X120411976Y-102504547D01*
X120411976Y-102171214D01*
X120459595Y-101980738D01*
X120554833Y-101885500D01*
X120650071Y-101837880D01*
X120840547Y-101837880D01*
X120935785Y-101885500D01*
X121031023Y-101980738D01*
X121078642Y-102171214D01*
X121078642Y-102504547D01*
X121031023Y-102695023D01*
X120935785Y-102790261D01*
X120840547Y-102837880D01*
X120650071Y-102837880D01*
X121411976Y-101837880D02*
X122031023Y-101837880D01*
X121697690Y-102218833D01*
X121840547Y-102218833D01*
X121935785Y-102266452D01*
X121983404Y-102314071D01*
X122031023Y-102409309D01*
X122031023Y-102647404D01*
X121983404Y-102742642D01*
X121935785Y-102790261D01*
X121840547Y-102837880D01*
X121554833Y-102837880D01*
X121459595Y-102790261D01*
X121411976Y-102742642D01*
%TO.C,Q2*%
X121126261Y-97853119D02*
X121031023Y-97805500D01*
X120935785Y-97710261D01*
X120792928Y-97567404D01*
X120697690Y-97519785D01*
X120602452Y-97519785D01*
X120650071Y-97757880D02*
X120554833Y-97710261D01*
X120459595Y-97615023D01*
X120411976Y-97424547D01*
X120411976Y-97091214D01*
X120459595Y-96900738D01*
X120554833Y-96805500D01*
X120650071Y-96757880D01*
X120840547Y-96757880D01*
X120935785Y-96805500D01*
X121031023Y-96900738D01*
X121078642Y-97091214D01*
X121078642Y-97424547D01*
X121031023Y-97615023D01*
X120935785Y-97710261D01*
X120840547Y-97757880D01*
X120650071Y-97757880D01*
X121459595Y-96853119D02*
X121507214Y-96805500D01*
X121602452Y-96757880D01*
X121840547Y-96757880D01*
X121935785Y-96805500D01*
X121983404Y-96853119D01*
X122031023Y-96948357D01*
X122031023Y-97043595D01*
X121983404Y-97186452D01*
X121411976Y-97757880D01*
X122031023Y-97757880D01*
%TO.C,Q1*%
X120707161Y-73113519D02*
X120611923Y-73065900D01*
X120516685Y-72970661D01*
X120373828Y-72827804D01*
X120278590Y-72780185D01*
X120183352Y-72780185D01*
X120230971Y-73018280D02*
X120135733Y-72970661D01*
X120040495Y-72875423D01*
X119992876Y-72684947D01*
X119992876Y-72351614D01*
X120040495Y-72161138D01*
X120135733Y-72065900D01*
X120230971Y-72018280D01*
X120421447Y-72018280D01*
X120516685Y-72065900D01*
X120611923Y-72161138D01*
X120659542Y-72351614D01*
X120659542Y-72684947D01*
X120611923Y-72875423D01*
X120516685Y-72970661D01*
X120421447Y-73018280D01*
X120230971Y-73018280D01*
X121611923Y-73018280D02*
X121040495Y-73018280D01*
X121326209Y-73018280D02*
X121326209Y-72018280D01*
X121230971Y-72161138D01*
X121135733Y-72256376D01*
X121040495Y-72303995D01*
%TO.C,P5*%
X143114804Y-63818580D02*
X143114804Y-62818580D01*
X143495757Y-62818580D01*
X143590995Y-62866200D01*
X143638614Y-62913819D01*
X143686233Y-63009057D01*
X143686233Y-63151914D01*
X143638614Y-63247152D01*
X143590995Y-63294771D01*
X143495757Y-63342390D01*
X143114804Y-63342390D01*
X144590995Y-62818580D02*
X144114804Y-62818580D01*
X144067185Y-63294771D01*
X144114804Y-63247152D01*
X144210042Y-63199533D01*
X144448138Y-63199533D01*
X144543376Y-63247152D01*
X144590995Y-63294771D01*
X144638614Y-63390009D01*
X144638614Y-63628104D01*
X144590995Y-63723342D01*
X144543376Y-63770961D01*
X144448138Y-63818580D01*
X144210042Y-63818580D01*
X144114804Y-63770961D01*
X144067185Y-63723342D01*
%TO.C,P4*%
X146966380Y-60491595D02*
X145966380Y-60491595D01*
X145966380Y-60110642D01*
X146014000Y-60015404D01*
X146061619Y-59967785D01*
X146156857Y-59920166D01*
X146299714Y-59920166D01*
X146394952Y-59967785D01*
X146442571Y-60015404D01*
X146490190Y-60110642D01*
X146490190Y-60491595D01*
X146299714Y-59063023D02*
X146966380Y-59063023D01*
X145918761Y-59301119D02*
X146633047Y-59539214D01*
X146633047Y-58920166D01*
%TO.C,P2*%
X119497100Y-124839122D02*
X118497100Y-124839122D01*
X118497100Y-124458170D01*
X118544720Y-124362932D01*
X118592339Y-124315313D01*
X118687577Y-124267694D01*
X118830434Y-124267694D01*
X118925672Y-124315313D01*
X118973291Y-124362932D01*
X119020910Y-124458170D01*
X119020910Y-124839122D01*
X118497100Y-123648646D02*
X118497100Y-123458170D01*
X118544720Y-123362932D01*
X118639958Y-123267694D01*
X118830434Y-123220075D01*
X119163767Y-123220075D01*
X119354243Y-123267694D01*
X119449481Y-123362932D01*
X119497100Y-123458170D01*
X119497100Y-123648646D01*
X119449481Y-123743884D01*
X119354243Y-123839122D01*
X119163767Y-123886741D01*
X118830434Y-123886741D01*
X118639958Y-123839122D01*
X118544720Y-123743884D01*
X118497100Y-123648646D01*
X118497100Y-122886741D02*
X119497100Y-122648646D01*
X118782815Y-122458170D01*
X119497100Y-122267694D01*
X118497100Y-122029599D01*
X118973291Y-121648646D02*
X118973291Y-121315313D01*
X119497100Y-121172456D02*
X119497100Y-121648646D01*
X118497100Y-121648646D01*
X118497100Y-121172456D01*
X119497100Y-120172456D02*
X119020910Y-120505789D01*
X119497100Y-120743884D02*
X118497100Y-120743884D01*
X118497100Y-120362932D01*
X118544720Y-120267694D01*
X118592339Y-120220075D01*
X118687577Y-120172456D01*
X118830434Y-120172456D01*
X118925672Y-120220075D01*
X118973291Y-120267694D01*
X119020910Y-120362932D01*
X119020910Y-120743884D01*
X119592339Y-119981980D02*
X119592339Y-119220075D01*
X119497100Y-118981980D02*
X118497100Y-118981980D01*
X119497100Y-118505789D02*
X118497100Y-118505789D01*
X119497100Y-117934360D01*
X118497100Y-117934360D01*
X119497100Y-117458170D02*
X118497100Y-117458170D01*
X118497100Y-117077218D01*
X118544720Y-116981980D01*
X118592339Y-116934360D01*
X118687577Y-116886741D01*
X118830434Y-116886741D01*
X118925672Y-116934360D01*
X118973291Y-116981980D01*
X119020910Y-117077218D01*
X119020910Y-117458170D01*
X118497100Y-116458170D02*
X119306624Y-116458170D01*
X119401862Y-116410551D01*
X119449481Y-116362932D01*
X119497100Y-116267694D01*
X119497100Y-116077218D01*
X119449481Y-115981980D01*
X119401862Y-115934360D01*
X119306624Y-115886741D01*
X118497100Y-115886741D01*
X118497100Y-115553408D02*
X118497100Y-114981980D01*
X119497100Y-115267694D02*
X118497100Y-115267694D01*
%TO.C,FID3*%
X106878571Y-133056071D02*
X106545238Y-133056071D01*
X106545238Y-133579880D02*
X106545238Y-132579880D01*
X107021428Y-132579880D01*
X107402380Y-133579880D02*
X107402380Y-132579880D01*
X107878571Y-133579880D02*
X107878571Y-132579880D01*
X108116666Y-132579880D01*
X108259523Y-132627500D01*
X108354761Y-132722738D01*
X108402380Y-132817976D01*
X108450000Y-133008452D01*
X108450000Y-133151309D01*
X108402380Y-133341785D01*
X108354761Y-133437023D01*
X108259523Y-133532261D01*
X108116666Y-133579880D01*
X107878571Y-133579880D01*
X108783333Y-132579880D02*
X109402380Y-132579880D01*
X109069047Y-132960833D01*
X109211904Y-132960833D01*
X109307142Y-133008452D01*
X109354761Y-133056071D01*
X109402380Y-133151309D01*
X109402380Y-133389404D01*
X109354761Y-133484642D01*
X109307142Y-133532261D01*
X109211904Y-133579880D01*
X108926190Y-133579880D01*
X108830952Y-133532261D01*
X108783333Y-133484642D01*
%TO.C,FID2*%
X106624571Y-57364071D02*
X106291238Y-57364071D01*
X106291238Y-57887880D02*
X106291238Y-56887880D01*
X106767428Y-56887880D01*
X107148380Y-57887880D02*
X107148380Y-56887880D01*
X107624571Y-57887880D02*
X107624571Y-56887880D01*
X107862666Y-56887880D01*
X108005523Y-56935500D01*
X108100761Y-57030738D01*
X108148380Y-57125976D01*
X108196000Y-57316452D01*
X108196000Y-57459309D01*
X108148380Y-57649785D01*
X108100761Y-57745023D01*
X108005523Y-57840261D01*
X107862666Y-57887880D01*
X107624571Y-57887880D01*
X108576952Y-56983119D02*
X108624571Y-56935500D01*
X108719809Y-56887880D01*
X108957904Y-56887880D01*
X109053142Y-56935500D01*
X109100761Y-56983119D01*
X109148380Y-57078357D01*
X109148380Y-57173595D01*
X109100761Y-57316452D01*
X108529333Y-57887880D01*
X109148380Y-57887880D01*
%TO.C,FID1*%
X145486571Y-98512071D02*
X145153238Y-98512071D01*
X145153238Y-99035880D02*
X145153238Y-98035880D01*
X145629428Y-98035880D01*
X146010380Y-99035880D02*
X146010380Y-98035880D01*
X146486571Y-99035880D02*
X146486571Y-98035880D01*
X146724666Y-98035880D01*
X146867523Y-98083500D01*
X146962761Y-98178738D01*
X147010380Y-98273976D01*
X147058000Y-98464452D01*
X147058000Y-98607309D01*
X147010380Y-98797785D01*
X146962761Y-98893023D01*
X146867523Y-98988261D01*
X146724666Y-99035880D01*
X146486571Y-99035880D01*
X148010380Y-99035880D02*
X147438952Y-99035880D01*
X147724666Y-99035880D02*
X147724666Y-98035880D01*
X147629428Y-98178738D01*
X147534190Y-98273976D01*
X147438952Y-98321595D01*
%TO.C,D2*%
X167175904Y-107885880D02*
X167175904Y-106885880D01*
X167414000Y-106885880D01*
X167556857Y-106933500D01*
X167652095Y-107028738D01*
X167699714Y-107123976D01*
X167747333Y-107314452D01*
X167747333Y-107457309D01*
X167699714Y-107647785D01*
X167652095Y-107743023D01*
X167556857Y-107838261D01*
X167414000Y-107885880D01*
X167175904Y-107885880D01*
X168128285Y-106981119D02*
X168175904Y-106933500D01*
X168271142Y-106885880D01*
X168509238Y-106885880D01*
X168604476Y-106933500D01*
X168652095Y-106981119D01*
X168699714Y-107076357D01*
X168699714Y-107171595D01*
X168652095Y-107314452D01*
X168080666Y-107885880D01*
X168699714Y-107885880D01*
%TO.C,D1*%
X127468404Y-107902880D02*
X127468404Y-106902880D01*
X127706500Y-106902880D01*
X127849357Y-106950500D01*
X127944595Y-107045738D01*
X127992214Y-107140976D01*
X128039833Y-107331452D01*
X128039833Y-107474309D01*
X127992214Y-107664785D01*
X127944595Y-107760023D01*
X127849357Y-107855261D01*
X127706500Y-107902880D01*
X127468404Y-107902880D01*
X128992214Y-107902880D02*
X128420785Y-107902880D01*
X128706500Y-107902880D02*
X128706500Y-106902880D01*
X128611261Y-107045738D01*
X128516023Y-107140976D01*
X128420785Y-107188595D01*
%TO.C,C23*%
X137010142Y-113736357D02*
X137057761Y-113783976D01*
X137105380Y-113926833D01*
X137105380Y-114022071D01*
X137057761Y-114164928D01*
X136962523Y-114260166D01*
X136867285Y-114307785D01*
X136676809Y-114355404D01*
X136533952Y-114355404D01*
X136343476Y-114307785D01*
X136248238Y-114260166D01*
X136153000Y-114164928D01*
X136105380Y-114022071D01*
X136105380Y-113926833D01*
X136153000Y-113783976D01*
X136200619Y-113736357D01*
X136200619Y-113355404D02*
X136153000Y-113307785D01*
X136105380Y-113212547D01*
X136105380Y-112974452D01*
X136153000Y-112879214D01*
X136200619Y-112831595D01*
X136295857Y-112783976D01*
X136391095Y-112783976D01*
X136533952Y-112831595D01*
X137105380Y-113403023D01*
X137105380Y-112783976D01*
X136105380Y-112450642D02*
X136105380Y-111831595D01*
X136486333Y-112164928D01*
X136486333Y-112022071D01*
X136533952Y-111926833D01*
X136581571Y-111879214D01*
X136676809Y-111831595D01*
X136914904Y-111831595D01*
X137010142Y-111879214D01*
X137057761Y-111926833D01*
X137105380Y-112022071D01*
X137105380Y-112307785D01*
X137057761Y-112403023D01*
X137010142Y-112450642D01*
%TO.C,C20*%
X148794742Y-102204757D02*
X148842361Y-102252376D01*
X148889980Y-102395233D01*
X148889980Y-102490471D01*
X148842361Y-102633328D01*
X148747123Y-102728566D01*
X148651885Y-102776185D01*
X148461409Y-102823804D01*
X148318552Y-102823804D01*
X148128076Y-102776185D01*
X148032838Y-102728566D01*
X147937600Y-102633328D01*
X147889980Y-102490471D01*
X147889980Y-102395233D01*
X147937600Y-102252376D01*
X147985219Y-102204757D01*
X147985219Y-101823804D02*
X147937600Y-101776185D01*
X147889980Y-101680947D01*
X147889980Y-101442852D01*
X147937600Y-101347614D01*
X147985219Y-101299995D01*
X148080457Y-101252376D01*
X148175695Y-101252376D01*
X148318552Y-101299995D01*
X148889980Y-101871423D01*
X148889980Y-101252376D01*
X147889980Y-100633328D02*
X147889980Y-100538090D01*
X147937600Y-100442852D01*
X147985219Y-100395233D01*
X148080457Y-100347614D01*
X148270933Y-100299995D01*
X148509028Y-100299995D01*
X148699504Y-100347614D01*
X148794742Y-100395233D01*
X148842361Y-100442852D01*
X148889980Y-100538090D01*
X148889980Y-100633328D01*
X148842361Y-100728566D01*
X148794742Y-100776185D01*
X148699504Y-100823804D01*
X148509028Y-100871423D01*
X148270933Y-100871423D01*
X148080457Y-100823804D01*
X147985219Y-100776185D01*
X147937600Y-100728566D01*
X147889980Y-100633328D01*
%TO.C,C19*%
X157538142Y-123241357D02*
X157585761Y-123288976D01*
X157633380Y-123431833D01*
X157633380Y-123527071D01*
X157585761Y-123669928D01*
X157490523Y-123765166D01*
X157395285Y-123812785D01*
X157204809Y-123860404D01*
X157061952Y-123860404D01*
X156871476Y-123812785D01*
X156776238Y-123765166D01*
X156681000Y-123669928D01*
X156633380Y-123527071D01*
X156633380Y-123431833D01*
X156681000Y-123288976D01*
X156728619Y-123241357D01*
X157633380Y-122288976D02*
X157633380Y-122860404D01*
X157633380Y-122574690D02*
X156633380Y-122574690D01*
X156776238Y-122669928D01*
X156871476Y-122765166D01*
X156919095Y-122860404D01*
X157633380Y-121812785D02*
X157633380Y-121622309D01*
X157585761Y-121527071D01*
X157538142Y-121479452D01*
X157395285Y-121384214D01*
X157204809Y-121336595D01*
X156823857Y-121336595D01*
X156728619Y-121384214D01*
X156681000Y-121431833D01*
X156633380Y-121527071D01*
X156633380Y-121717547D01*
X156681000Y-121812785D01*
X156728619Y-121860404D01*
X156823857Y-121908023D01*
X157061952Y-121908023D01*
X157157190Y-121860404D01*
X157204809Y-121812785D01*
X157252428Y-121717547D01*
X157252428Y-121527071D01*
X157204809Y-121431833D01*
X157157190Y-121384214D01*
X157061952Y-121336595D01*
%TO.C,C18*%
X140439142Y-113736357D02*
X140486761Y-113783976D01*
X140534380Y-113926833D01*
X140534380Y-114022071D01*
X140486761Y-114164928D01*
X140391523Y-114260166D01*
X140296285Y-114307785D01*
X140105809Y-114355404D01*
X139962952Y-114355404D01*
X139772476Y-114307785D01*
X139677238Y-114260166D01*
X139582000Y-114164928D01*
X139534380Y-114022071D01*
X139534380Y-113926833D01*
X139582000Y-113783976D01*
X139629619Y-113736357D01*
X140534380Y-112783976D02*
X140534380Y-113355404D01*
X140534380Y-113069690D02*
X139534380Y-113069690D01*
X139677238Y-113164928D01*
X139772476Y-113260166D01*
X139820095Y-113355404D01*
X139962952Y-112212547D02*
X139915333Y-112307785D01*
X139867714Y-112355404D01*
X139772476Y-112403023D01*
X139724857Y-112403023D01*
X139629619Y-112355404D01*
X139582000Y-112307785D01*
X139534380Y-112212547D01*
X139534380Y-112022071D01*
X139582000Y-111926833D01*
X139629619Y-111879214D01*
X139724857Y-111831595D01*
X139772476Y-111831595D01*
X139867714Y-111879214D01*
X139915333Y-111926833D01*
X139962952Y-112022071D01*
X139962952Y-112212547D01*
X140010571Y-112307785D01*
X140058190Y-112355404D01*
X140153428Y-112403023D01*
X140343904Y-112403023D01*
X140439142Y-112355404D01*
X140486761Y-112307785D01*
X140534380Y-112212547D01*
X140534380Y-112022071D01*
X140486761Y-111926833D01*
X140439142Y-111879214D01*
X140343904Y-111831595D01*
X140153428Y-111831595D01*
X140058190Y-111879214D01*
X140010571Y-111926833D01*
X139962952Y-112022071D01*
%TO.C,C17*%
X157411142Y-115049857D02*
X157458761Y-115097476D01*
X157506380Y-115240333D01*
X157506380Y-115335571D01*
X157458761Y-115478428D01*
X157363523Y-115573666D01*
X157268285Y-115621285D01*
X157077809Y-115668904D01*
X156934952Y-115668904D01*
X156744476Y-115621285D01*
X156649238Y-115573666D01*
X156554000Y-115478428D01*
X156506380Y-115335571D01*
X156506380Y-115240333D01*
X156554000Y-115097476D01*
X156601619Y-115049857D01*
X157506380Y-114097476D02*
X157506380Y-114668904D01*
X157506380Y-114383190D02*
X156506380Y-114383190D01*
X156649238Y-114478428D01*
X156744476Y-114573666D01*
X156792095Y-114668904D01*
X156506380Y-113764142D02*
X156506380Y-113097476D01*
X157506380Y-113526047D01*
%TO.C,C10*%
X150644622Y-78440282D02*
X150597003Y-78487901D01*
X150454146Y-78535520D01*
X150358908Y-78535520D01*
X150216051Y-78487901D01*
X150120813Y-78392663D01*
X150073194Y-78297425D01*
X150025575Y-78106949D01*
X150025575Y-77964092D01*
X150073194Y-77773616D01*
X150120813Y-77678378D01*
X150216051Y-77583140D01*
X150358908Y-77535520D01*
X150454146Y-77535520D01*
X150597003Y-77583140D01*
X150644622Y-77630759D01*
X151597003Y-78535520D02*
X151025575Y-78535520D01*
X151311289Y-78535520D02*
X151311289Y-77535520D01*
X151216051Y-77678378D01*
X151120813Y-77773616D01*
X151025575Y-77821235D01*
X152216051Y-77535520D02*
X152311289Y-77535520D01*
X152406527Y-77583140D01*
X152454146Y-77630759D01*
X152501765Y-77725997D01*
X152549384Y-77916473D01*
X152549384Y-78154568D01*
X152501765Y-78345044D01*
X152454146Y-78440282D01*
X152406527Y-78487901D01*
X152311289Y-78535520D01*
X152216051Y-78535520D01*
X152120813Y-78487901D01*
X152073194Y-78440282D01*
X152025575Y-78345044D01*
X151977956Y-78154568D01*
X151977956Y-77916473D01*
X152025575Y-77725997D01*
X152073194Y-77630759D01*
X152120813Y-77583140D01*
X152216051Y-77535520D01*
%TO.C,C9*%
X135891542Y-79160666D02*
X135939161Y-79208285D01*
X135986780Y-79351142D01*
X135986780Y-79446380D01*
X135939161Y-79589238D01*
X135843923Y-79684476D01*
X135748685Y-79732095D01*
X135558209Y-79779714D01*
X135415352Y-79779714D01*
X135224876Y-79732095D01*
X135129638Y-79684476D01*
X135034400Y-79589238D01*
X134986780Y-79446380D01*
X134986780Y-79351142D01*
X135034400Y-79208285D01*
X135082019Y-79160666D01*
X135986780Y-78684476D02*
X135986780Y-78494000D01*
X135939161Y-78398761D01*
X135891542Y-78351142D01*
X135748685Y-78255904D01*
X135558209Y-78208285D01*
X135177257Y-78208285D01*
X135082019Y-78255904D01*
X135034400Y-78303523D01*
X134986780Y-78398761D01*
X134986780Y-78589238D01*
X135034400Y-78684476D01*
X135082019Y-78732095D01*
X135177257Y-78779714D01*
X135415352Y-78779714D01*
X135510590Y-78732095D01*
X135558209Y-78684476D01*
X135605828Y-78589238D01*
X135605828Y-78398761D01*
X135558209Y-78303523D01*
X135510590Y-78255904D01*
X135415352Y-78208285D01*
%TO.C,C8*%
X135674642Y-93473566D02*
X135722261Y-93521185D01*
X135769880Y-93664042D01*
X135769880Y-93759280D01*
X135722261Y-93902138D01*
X135627023Y-93997376D01*
X135531785Y-94044995D01*
X135341309Y-94092614D01*
X135198452Y-94092614D01*
X135007976Y-94044995D01*
X134912738Y-93997376D01*
X134817500Y-93902138D01*
X134769880Y-93759280D01*
X134769880Y-93664042D01*
X134817500Y-93521185D01*
X134865119Y-93473566D01*
X135198452Y-92902138D02*
X135150833Y-92997376D01*
X135103214Y-93044995D01*
X135007976Y-93092614D01*
X134960357Y-93092614D01*
X134865119Y-93044995D01*
X134817500Y-92997376D01*
X134769880Y-92902138D01*
X134769880Y-92711661D01*
X134817500Y-92616423D01*
X134865119Y-92568804D01*
X134960357Y-92521185D01*
X135007976Y-92521185D01*
X135103214Y-92568804D01*
X135150833Y-92616423D01*
X135198452Y-92711661D01*
X135198452Y-92902138D01*
X135246071Y-92997376D01*
X135293690Y-93044995D01*
X135388928Y-93092614D01*
X135579404Y-93092614D01*
X135674642Y-93044995D01*
X135722261Y-92997376D01*
X135769880Y-92902138D01*
X135769880Y-92711661D01*
X135722261Y-92616423D01*
X135674642Y-92568804D01*
X135579404Y-92521185D01*
X135388928Y-92521185D01*
X135293690Y-92568804D01*
X135246071Y-92616423D01*
X135198452Y-92711661D01*
%TO.C,C7*%
X141810333Y-79032642D02*
X141762714Y-79080261D01*
X141619857Y-79127880D01*
X141524619Y-79127880D01*
X141381761Y-79080261D01*
X141286523Y-78985023D01*
X141238904Y-78889785D01*
X141191285Y-78699309D01*
X141191285Y-78556452D01*
X141238904Y-78365976D01*
X141286523Y-78270738D01*
X141381761Y-78175500D01*
X141524619Y-78127880D01*
X141619857Y-78127880D01*
X141762714Y-78175500D01*
X141810333Y-78223119D01*
X142143666Y-78127880D02*
X142810333Y-78127880D01*
X142381761Y-79127880D01*
%TO.C,C6*%
X151222413Y-90799922D02*
X151174794Y-90847541D01*
X151031937Y-90895160D01*
X150936699Y-90895160D01*
X150793841Y-90847541D01*
X150698603Y-90752303D01*
X150650984Y-90657065D01*
X150603365Y-90466589D01*
X150603365Y-90323732D01*
X150650984Y-90133256D01*
X150698603Y-90038018D01*
X150793841Y-89942780D01*
X150936699Y-89895160D01*
X151031937Y-89895160D01*
X151174794Y-89942780D01*
X151222413Y-89990399D01*
X152079556Y-89895160D02*
X151889080Y-89895160D01*
X151793841Y-89942780D01*
X151746222Y-89990399D01*
X151650984Y-90133256D01*
X151603365Y-90323732D01*
X151603365Y-90704684D01*
X151650984Y-90799922D01*
X151698603Y-90847541D01*
X151793841Y-90895160D01*
X151984318Y-90895160D01*
X152079556Y-90847541D01*
X152127175Y-90799922D01*
X152174794Y-90704684D01*
X152174794Y-90466589D01*
X152127175Y-90371351D01*
X152079556Y-90323732D01*
X151984318Y-90276113D01*
X151793841Y-90276113D01*
X151698603Y-90323732D01*
X151650984Y-90371351D01*
X151603365Y-90466589D01*
%TO.C,C5*%
X153397222Y-84100966D02*
X153444841Y-84148585D01*
X153492460Y-84291442D01*
X153492460Y-84386680D01*
X153444841Y-84529538D01*
X153349603Y-84624776D01*
X153254365Y-84672395D01*
X153063889Y-84720014D01*
X152921032Y-84720014D01*
X152730556Y-84672395D01*
X152635318Y-84624776D01*
X152540080Y-84529538D01*
X152492460Y-84386680D01*
X152492460Y-84291442D01*
X152540080Y-84148585D01*
X152587699Y-84100966D01*
X152492460Y-83196204D02*
X152492460Y-83672395D01*
X152968651Y-83720014D01*
X152921032Y-83672395D01*
X152873413Y-83577157D01*
X152873413Y-83339061D01*
X152921032Y-83243823D01*
X152968651Y-83196204D01*
X153063889Y-83148585D01*
X153301984Y-83148585D01*
X153397222Y-83196204D01*
X153444841Y-83243823D01*
X153492460Y-83339061D01*
X153492460Y-83577157D01*
X153444841Y-83672395D01*
X153397222Y-83720014D01*
%TO.C,C4*%
X151598902Y-65284646D02*
X151646521Y-65332265D01*
X151694140Y-65475122D01*
X151694140Y-65570360D01*
X151646521Y-65713218D01*
X151551283Y-65808456D01*
X151456045Y-65856075D01*
X151265569Y-65903694D01*
X151122712Y-65903694D01*
X150932236Y-65856075D01*
X150836998Y-65808456D01*
X150741760Y-65713218D01*
X150694140Y-65570360D01*
X150694140Y-65475122D01*
X150741760Y-65332265D01*
X150789379Y-65284646D01*
X151027474Y-64427503D02*
X151694140Y-64427503D01*
X150646521Y-64665599D02*
X151360807Y-64903694D01*
X151360807Y-64284646D01*
%TO.C,C3*%
X153391142Y-87987166D02*
X153438761Y-88034785D01*
X153486380Y-88177642D01*
X153486380Y-88272880D01*
X153438761Y-88415738D01*
X153343523Y-88510976D01*
X153248285Y-88558595D01*
X153057809Y-88606214D01*
X152914952Y-88606214D01*
X152724476Y-88558595D01*
X152629238Y-88510976D01*
X152534000Y-88415738D01*
X152486380Y-88272880D01*
X152486380Y-88177642D01*
X152534000Y-88034785D01*
X152581619Y-87987166D01*
X152486380Y-87653833D02*
X152486380Y-87034785D01*
X152867333Y-87368119D01*
X152867333Y-87225261D01*
X152914952Y-87130023D01*
X152962571Y-87082404D01*
X153057809Y-87034785D01*
X153295904Y-87034785D01*
X153391142Y-87082404D01*
X153438761Y-87130023D01*
X153486380Y-87225261D01*
X153486380Y-87510976D01*
X153438761Y-87606214D01*
X153391142Y-87653833D01*
%TO.C,C1*%
X123973142Y-119376166D02*
X124020761Y-119423785D01*
X124068380Y-119566642D01*
X124068380Y-119661880D01*
X124020761Y-119804738D01*
X123925523Y-119899976D01*
X123830285Y-119947595D01*
X123639809Y-119995214D01*
X123496952Y-119995214D01*
X123306476Y-119947595D01*
X123211238Y-119899976D01*
X123116000Y-119804738D01*
X123068380Y-119661880D01*
X123068380Y-119566642D01*
X123116000Y-119423785D01*
X123163619Y-119376166D01*
X124068380Y-118423785D02*
X124068380Y-118995214D01*
X124068380Y-118709500D02*
X123068380Y-118709500D01*
X123211238Y-118804738D01*
X123306476Y-118899976D01*
X123354095Y-118995214D01*
%TD*%
M02*
