M48
; DRILL file {KiCad (5.1.9)-1} date 08/09/21 15:54:03
; FORMAT={-:-/ absolute / metric / decimal}
; #@! TF.CreationDate,2021-08-09T15:54:03+01:00
; #@! TF.GenerationSoftware,Kicad,Pcbnew,(5.1.9)-1
; #@! TF.FileFunction,Plated,1,2,PTH
FMAT,2
METRIC
T1C0.300
T2C0.400
T3C0.800
T4C1.000
T5C3.200
%
G90
G05
T1
X118.758Y-93.675
X122.047Y-106.972
X123.52Y-80.124
X125.755Y-88.76
X126.213Y-87.617
X127.483Y-85.623
X127.978Y-85.09
X128.46Y-84.569
X129.743Y-77.635
X130.632Y-66.662
X131.293Y-67.145
X132.194Y-67.894
X132.385Y-71.006
X132.829Y-68.529
X137.122Y-71.526
X137.287Y-77.318
X137.63Y-106.02
X137.719Y-83.172
X137.77Y-69.215
X137.782Y-76.644
X137.787Y-94.445
X138.163Y-97.447
X138.925Y-94.767
X138.97Y-97.542
X139.09Y-74.892
X140.119Y-106.743
X141.072Y-84.633
X141.605Y-106.451
X141.803Y-90.198
X142.164Y-62.166
X142.335Y-95.307
X143.65Y-96.965
X143.84Y-84.036
X144.043Y-85.814
X144.501Y-83.16
X145.44Y-79.566
X146.533Y-79.502
X147.569Y-81.846
X147.95Y-91.133
X148.234Y-93.088
X149.098Y-72.962
X149.149Y-66.078
X149.238Y-97.955
X149.276Y-97.066
X149.288Y-95.313
X149.288Y-96.19
X150.613Y-104.703
X156.756Y-69.609
X157.366Y-97.244
X157.495Y-70.386
X158.052Y-97.955
X158.75Y-72.962
T2
X118.166Y-80.084
X118.171Y-76.269
X118.171Y-87.683
X118.176Y-83.889
X120.904Y-73.977
X122.301Y-67.666
X122.657Y-102.578
X122.72Y-97.358
X123.927Y-85.661
X125.07Y-108.89
X126.505Y-92.443
X130.924Y-80.175
X131.331Y-91.529
X135.382Y-77.025
X138.557Y-86.383
X138.585Y-90.068
X140.119Y-101.803
X140.97Y-75.451
X141.783Y-119.647
X142.011Y-125.997
X144.236Y-76.97
X144.859Y-92.276
X146.545Y-56.553
X149.022Y-79.738
X149.108Y-92.138
X152.298Y-77.978
X154.097Y-81.481
X154.173Y-89.802
X155.169Y-100.393
X157.683Y-93.19
X160.167Y-104.214
X160.223Y-99.123
X162.293Y-60.261
X163.5Y-89.256
X164.567Y-89.218
T3
X114.554Y-64.834
X114.554Y-67.373
X114.554Y-69.913
X114.554Y-72.453
X114.554Y-74.993
X114.554Y-77.533
X114.554Y-80.073
X114.554Y-82.614
X114.554Y-85.153
X114.554Y-88.963
X114.554Y-91.504
X114.554Y-94.043
X114.554Y-96.584
X114.554Y-99.123
X114.554Y-101.663
X114.554Y-104.203
X114.554Y-106.743
X114.554Y-109.283
X128.016Y-117.959
X128.016Y-120.459
X152.654Y-113.157
X152.654Y-115.657
X152.781Y-121.349
X152.781Y-123.849
X157.988Y-80.781
X157.988Y-85.661
T4
X108.204Y-68.644
X108.204Y-71.183
X108.204Y-73.724
X108.204Y-76.263
X108.204Y-78.803
X108.204Y-81.343
X108.204Y-83.883
X108.204Y-86.423
X108.204Y-88.963
X108.204Y-91.504
X108.204Y-94.043
X108.204Y-96.584
X108.204Y-99.123
X108.204Y-101.663
X108.204Y-104.203
X108.204Y-106.743
X108.204Y-109.283
X110.744Y-68.644
X110.744Y-71.183
X110.744Y-73.724
X110.744Y-76.263
X110.744Y-78.803
X110.744Y-81.343
X110.744Y-83.883
X110.744Y-86.423
X110.744Y-88.963
X110.744Y-91.504
X110.744Y-94.043
X110.744Y-96.584
X110.744Y-99.123
X110.744Y-101.663
X110.744Y-104.203
X110.744Y-106.743
X110.744Y-109.283
X115.768Y-115.994
X115.768Y-118.534
X115.768Y-121.074
X115.768Y-123.614
X143.853Y-58.496
X143.853Y-61.036
X148.844Y-58.483
X148.844Y-61.023
X151.384Y-58.483
X151.384Y-61.023
X153.924Y-58.483
X153.924Y-61.023
X156.464Y-58.483
X156.464Y-61.023
X159.004Y-58.483
X159.004Y-61.023
X166.624Y-66.167
X166.624Y-68.644
X166.624Y-71.819
X166.624Y-74.358
X166.624Y-76.898
X166.624Y-79.438
X166.624Y-81.978
X166.624Y-99.123
X166.624Y-101.663
X166.624Y-104.203
X169.164Y-66.167
X169.164Y-68.644
X169.164Y-71.819
X169.164Y-74.358
X169.164Y-76.898
X169.164Y-79.438
X169.164Y-86.423
X169.164Y-88.963
X169.164Y-91.504
X169.164Y-94.043
X169.164Y-99.123
X169.164Y-101.663
X169.164Y-104.203
T5
X110.744Y-58.483
X110.744Y-128.079
X169.164Y-58.483
X169.164Y-128.079
T0
M30
