%TF.GenerationSoftware,KiCad,Pcbnew,(5.99.0-11626-g43523df843)*%
%TF.CreationDate,2021-08-18T09:38:13+01:00*%
%TF.ProjectId,OpenFlopsXT_V0.1,4f70656e-466c-46f7-9073-58545f56302e,rev?*%
%TF.SameCoordinates,Original*%
%TF.FileFunction,Legend,Top*%
%TF.FilePolarity,Positive*%
%FSLAX46Y46*%
G04 Gerber Fmt 4.6, Leading zero omitted, Abs format (unit mm)*
G04 Created by KiCad (PCBNEW (5.99.0-11626-g43523df843)) date 2021-08-18 09:38:13*
%MOMM*%
%LPD*%
G01*
G04 APERTURE LIST*
%ADD10C,0.125000*%
%ADD11C,0.150000*%
%ADD12C,0.300000*%
%ADD13C,0.120000*%
G04 APERTURE END LIST*
D10*
X120297333Y-129250238D02*
X120249714Y-129226428D01*
X120154476Y-129226428D01*
X120106857Y-129250238D01*
X120059238Y-129297857D01*
X120035428Y-129345476D01*
X120035428Y-129440714D01*
X120059238Y-129488333D01*
X120106857Y-129535952D01*
X120154476Y-129559761D01*
X120249714Y-129559761D01*
X120297333Y-129535952D01*
X120202095Y-129059761D02*
X120083047Y-129083571D01*
X119964000Y-129155000D01*
X119892571Y-129274047D01*
X119868761Y-129393095D01*
X119892571Y-129512142D01*
X119964000Y-129631190D01*
X120083047Y-129702619D01*
X120202095Y-129726428D01*
X120321142Y-129702619D01*
X120440190Y-129631190D01*
X120511619Y-129512142D01*
X120535428Y-129393095D01*
X120511619Y-129274047D01*
X120440190Y-129155000D01*
X120321142Y-129083571D01*
X120202095Y-129059761D01*
X121344952Y-129631190D02*
X121344952Y-129131190D01*
X121344952Y-129607380D02*
X121297333Y-129631190D01*
X121202095Y-129631190D01*
X121154476Y-129607380D01*
X121130666Y-129583571D01*
X121106857Y-129535952D01*
X121106857Y-129393095D01*
X121130666Y-129345476D01*
X121154476Y-129321666D01*
X121202095Y-129297857D01*
X121297333Y-129297857D01*
X121344952Y-129321666D01*
X121797333Y-129631190D02*
X121797333Y-129369285D01*
X121773523Y-129321666D01*
X121725904Y-129297857D01*
X121630666Y-129297857D01*
X121583047Y-129321666D01*
X121797333Y-129607380D02*
X121749714Y-129631190D01*
X121630666Y-129631190D01*
X121583047Y-129607380D01*
X121559238Y-129559761D01*
X121559238Y-129512142D01*
X121583047Y-129464523D01*
X121630666Y-129440714D01*
X121749714Y-129440714D01*
X121797333Y-129416904D01*
X122035428Y-129297857D02*
X122035428Y-129631190D01*
X122035428Y-129345476D02*
X122059238Y-129321666D01*
X122106857Y-129297857D01*
X122178285Y-129297857D01*
X122225904Y-129321666D01*
X122249714Y-129369285D01*
X122249714Y-129631190D01*
X122487809Y-129297857D02*
X122487809Y-129631190D01*
X122487809Y-129345476D02*
X122511619Y-129321666D01*
X122559238Y-129297857D01*
X122630666Y-129297857D01*
X122678285Y-129321666D01*
X122702095Y-129369285D01*
X122702095Y-129631190D01*
X122892571Y-129297857D02*
X123011619Y-129631190D01*
X123130666Y-129297857D02*
X123011619Y-129631190D01*
X122964000Y-129750238D01*
X122940190Y-129774047D01*
X122892571Y-129797857D01*
X123535428Y-129631190D02*
X123535428Y-129369285D01*
X123511619Y-129321666D01*
X123464000Y-129297857D01*
X123368761Y-129297857D01*
X123321142Y-129321666D01*
X123535428Y-129607380D02*
X123487809Y-129631190D01*
X123368761Y-129631190D01*
X123321142Y-129607380D01*
X123297333Y-129559761D01*
X123297333Y-129512142D01*
X123321142Y-129464523D01*
X123368761Y-129440714D01*
X123487809Y-129440714D01*
X123535428Y-129416904D01*
X123773523Y-129631190D02*
X123773523Y-129297857D01*
X123773523Y-129393095D02*
X123797333Y-129345476D01*
X123821142Y-129321666D01*
X123868761Y-129297857D01*
X123916380Y-129297857D01*
X124083047Y-129297857D02*
X124083047Y-129631190D01*
X124083047Y-129345476D02*
X124106857Y-129321666D01*
X124154476Y-129297857D01*
X124225904Y-129297857D01*
X124273523Y-129321666D01*
X124297333Y-129369285D01*
X124297333Y-129631190D01*
X124606857Y-129631190D02*
X124559238Y-129607380D01*
X124535428Y-129583571D01*
X124511619Y-129535952D01*
X124511619Y-129393095D01*
X124535428Y-129345476D01*
X124559238Y-129321666D01*
X124606857Y-129297857D01*
X124678285Y-129297857D01*
X124725904Y-129321666D01*
X124749714Y-129345476D01*
X124773523Y-129393095D01*
X124773523Y-129535952D01*
X124749714Y-129583571D01*
X124725904Y-129607380D01*
X124678285Y-129631190D01*
X124606857Y-129631190D01*
X125059238Y-129631190D02*
X125011619Y-129607380D01*
X124987809Y-129559761D01*
X124987809Y-129131190D01*
X125464000Y-129631190D02*
X125464000Y-129131190D01*
X125464000Y-129607380D02*
X125416380Y-129631190D01*
X125321142Y-129631190D01*
X125273523Y-129607380D01*
X125249714Y-129583571D01*
X125225904Y-129535952D01*
X125225904Y-129393095D01*
X125249714Y-129345476D01*
X125273523Y-129321666D01*
X125321142Y-129297857D01*
X125416380Y-129297857D01*
X125464000Y-129321666D01*
X125702095Y-129583571D02*
X125725904Y-129607380D01*
X125702095Y-129631190D01*
X125678285Y-129607380D01*
X125702095Y-129583571D01*
X125702095Y-129631190D01*
X126154476Y-129607380D02*
X126106857Y-129631190D01*
X126011619Y-129631190D01*
X125964000Y-129607380D01*
X125940190Y-129583571D01*
X125916380Y-129535952D01*
X125916380Y-129393095D01*
X125940190Y-129345476D01*
X125964000Y-129321666D01*
X126011619Y-129297857D01*
X126106857Y-129297857D01*
X126154476Y-129321666D01*
X126440190Y-129631190D02*
X126392571Y-129607380D01*
X126368761Y-129583571D01*
X126344952Y-129535952D01*
X126344952Y-129393095D01*
X126368761Y-129345476D01*
X126392571Y-129321666D01*
X126440190Y-129297857D01*
X126511619Y-129297857D01*
X126559238Y-129321666D01*
X126583047Y-129345476D01*
X126606857Y-129393095D01*
X126606857Y-129535952D01*
X126583047Y-129583571D01*
X126559238Y-129607380D01*
X126511619Y-129631190D01*
X126440190Y-129631190D01*
X126821142Y-129631190D02*
X126821142Y-129297857D01*
X126821142Y-129345476D02*
X126844952Y-129321666D01*
X126892571Y-129297857D01*
X126964000Y-129297857D01*
X127011619Y-129321666D01*
X127035428Y-129369285D01*
X127035428Y-129631190D01*
X127035428Y-129369285D02*
X127059238Y-129321666D01*
X127106857Y-129297857D01*
X127178285Y-129297857D01*
X127225904Y-129321666D01*
X127249714Y-129369285D01*
X127249714Y-129631190D01*
X127844952Y-129178809D02*
X127868761Y-129155000D01*
X127916380Y-129131190D01*
X128035428Y-129131190D01*
X128083047Y-129155000D01*
X128106857Y-129178809D01*
X128130666Y-129226428D01*
X128130666Y-129274047D01*
X128106857Y-129345476D01*
X127821142Y-129631190D01*
X128130666Y-129631190D01*
X128440190Y-129131190D02*
X128487809Y-129131190D01*
X128535428Y-129155000D01*
X128559238Y-129178809D01*
X128583047Y-129226428D01*
X128606857Y-129321666D01*
X128606857Y-129440714D01*
X128583047Y-129535952D01*
X128559238Y-129583571D01*
X128535428Y-129607380D01*
X128487809Y-129631190D01*
X128440190Y-129631190D01*
X128392571Y-129607380D01*
X128368761Y-129583571D01*
X128344952Y-129535952D01*
X128321142Y-129440714D01*
X128321142Y-129321666D01*
X128344952Y-129226428D01*
X128368761Y-129178809D01*
X128392571Y-129155000D01*
X128440190Y-129131190D01*
X128797333Y-129178809D02*
X128821142Y-129155000D01*
X128868761Y-129131190D01*
X128987809Y-129131190D01*
X129035428Y-129155000D01*
X129059238Y-129178809D01*
X129083047Y-129226428D01*
X129083047Y-129274047D01*
X129059238Y-129345476D01*
X128773523Y-129631190D01*
X129083047Y-129631190D01*
X129559238Y-129631190D02*
X129273523Y-129631190D01*
X129416380Y-129631190D02*
X129416380Y-129131190D01*
X129368761Y-129202619D01*
X129321142Y-129250238D01*
X129273523Y-129274047D01*
X117819047Y-128231190D02*
X117819047Y-127731190D01*
X118033333Y-128231190D02*
X118033333Y-127969285D01*
X118009523Y-127921666D01*
X117961904Y-127897857D01*
X117890476Y-127897857D01*
X117842857Y-127921666D01*
X117819047Y-127945476D01*
X118200000Y-127897857D02*
X118390476Y-127897857D01*
X118271428Y-127731190D02*
X118271428Y-128159761D01*
X118295238Y-128207380D01*
X118342857Y-128231190D01*
X118390476Y-128231190D01*
X118485714Y-127897857D02*
X118676190Y-127897857D01*
X118557142Y-127731190D02*
X118557142Y-128159761D01*
X118580952Y-128207380D01*
X118628571Y-128231190D01*
X118676190Y-128231190D01*
X118842857Y-127897857D02*
X118842857Y-128397857D01*
X118842857Y-127921666D02*
X118890476Y-127897857D01*
X118985714Y-127897857D01*
X119033333Y-127921666D01*
X119057142Y-127945476D01*
X119080952Y-127993095D01*
X119080952Y-128135952D01*
X119057142Y-128183571D01*
X119033333Y-128207380D01*
X118985714Y-128231190D01*
X118890476Y-128231190D01*
X118842857Y-128207380D01*
X119271428Y-128207380D02*
X119319047Y-128231190D01*
X119414285Y-128231190D01*
X119461904Y-128207380D01*
X119485714Y-128159761D01*
X119485714Y-128135952D01*
X119461904Y-128088333D01*
X119414285Y-128064523D01*
X119342857Y-128064523D01*
X119295238Y-128040714D01*
X119271428Y-127993095D01*
X119271428Y-127969285D01*
X119295238Y-127921666D01*
X119342857Y-127897857D01*
X119414285Y-127897857D01*
X119461904Y-127921666D01*
X119700000Y-128183571D02*
X119723809Y-128207380D01*
X119700000Y-128231190D01*
X119676190Y-128207380D01*
X119700000Y-128183571D01*
X119700000Y-128231190D01*
X119700000Y-127921666D02*
X119723809Y-127945476D01*
X119700000Y-127969285D01*
X119676190Y-127945476D01*
X119700000Y-127921666D01*
X119700000Y-127969285D01*
X120295238Y-127707380D02*
X119866666Y-128350238D01*
X120819047Y-127707380D02*
X120390476Y-128350238D01*
X121200000Y-127897857D02*
X121200000Y-128302619D01*
X121176190Y-128350238D01*
X121152380Y-128374047D01*
X121104761Y-128397857D01*
X121033333Y-128397857D01*
X120985714Y-128374047D01*
X121200000Y-128207380D02*
X121152380Y-128231190D01*
X121057142Y-128231190D01*
X121009523Y-128207380D01*
X120985714Y-128183571D01*
X120961904Y-128135952D01*
X120961904Y-127993095D01*
X120985714Y-127945476D01*
X121009523Y-127921666D01*
X121057142Y-127897857D01*
X121152380Y-127897857D01*
X121200000Y-127921666D01*
X121438095Y-128231190D02*
X121438095Y-127897857D01*
X121438095Y-127731190D02*
X121414285Y-127755000D01*
X121438095Y-127778809D01*
X121461904Y-127755000D01*
X121438095Y-127731190D01*
X121438095Y-127778809D01*
X121604761Y-127897857D02*
X121795238Y-127897857D01*
X121676190Y-127731190D02*
X121676190Y-128159761D01*
X121700000Y-128207380D01*
X121747619Y-128231190D01*
X121795238Y-128231190D01*
X121961904Y-128231190D02*
X121961904Y-127731190D01*
X122176190Y-128231190D02*
X122176190Y-127969285D01*
X122152380Y-127921666D01*
X122104761Y-127897857D01*
X122033333Y-127897857D01*
X121985714Y-127921666D01*
X121961904Y-127945476D01*
X122628571Y-127897857D02*
X122628571Y-128231190D01*
X122414285Y-127897857D02*
X122414285Y-128159761D01*
X122438095Y-128207380D01*
X122485714Y-128231190D01*
X122557142Y-128231190D01*
X122604761Y-128207380D01*
X122628571Y-128183571D01*
X122866666Y-128231190D02*
X122866666Y-127731190D01*
X122866666Y-127921666D02*
X122914285Y-127897857D01*
X123009523Y-127897857D01*
X123057142Y-127921666D01*
X123080952Y-127945476D01*
X123104761Y-127993095D01*
X123104761Y-128135952D01*
X123080952Y-128183571D01*
X123057142Y-128207380D01*
X123009523Y-128231190D01*
X122914285Y-128231190D01*
X122866666Y-128207380D01*
X123319047Y-128183571D02*
X123342857Y-128207380D01*
X123319047Y-128231190D01*
X123295238Y-128207380D01*
X123319047Y-128183571D01*
X123319047Y-128231190D01*
X123771428Y-128207380D02*
X123723809Y-128231190D01*
X123628571Y-128231190D01*
X123580952Y-128207380D01*
X123557142Y-128183571D01*
X123533333Y-128135952D01*
X123533333Y-127993095D01*
X123557142Y-127945476D01*
X123580952Y-127921666D01*
X123628571Y-127897857D01*
X123723809Y-127897857D01*
X123771428Y-127921666D01*
X124057142Y-128231190D02*
X124009523Y-128207380D01*
X123985714Y-128183571D01*
X123961904Y-128135952D01*
X123961904Y-127993095D01*
X123985714Y-127945476D01*
X124009523Y-127921666D01*
X124057142Y-127897857D01*
X124128571Y-127897857D01*
X124176190Y-127921666D01*
X124200000Y-127945476D01*
X124223809Y-127993095D01*
X124223809Y-128135952D01*
X124200000Y-128183571D01*
X124176190Y-128207380D01*
X124128571Y-128231190D01*
X124057142Y-128231190D01*
X124438095Y-128231190D02*
X124438095Y-127897857D01*
X124438095Y-127945476D02*
X124461904Y-127921666D01*
X124509523Y-127897857D01*
X124580952Y-127897857D01*
X124628571Y-127921666D01*
X124652380Y-127969285D01*
X124652380Y-128231190D01*
X124652380Y-127969285D02*
X124676190Y-127921666D01*
X124723809Y-127897857D01*
X124795238Y-127897857D01*
X124842857Y-127921666D01*
X124866666Y-127969285D01*
X124866666Y-128231190D01*
X125461904Y-127707380D02*
X125033333Y-128350238D01*
X125628571Y-127897857D02*
X125628571Y-128397857D01*
X125628571Y-127921666D02*
X125676190Y-127897857D01*
X125771428Y-127897857D01*
X125819047Y-127921666D01*
X125842857Y-127945476D01*
X125866666Y-127993095D01*
X125866666Y-128135952D01*
X125842857Y-128183571D01*
X125819047Y-128207380D01*
X125771428Y-128231190D01*
X125676190Y-128231190D01*
X125628571Y-128207380D01*
X126080952Y-128231190D02*
X126080952Y-127897857D01*
X126080952Y-127731190D02*
X126057142Y-127755000D01*
X126080952Y-127778809D01*
X126104761Y-127755000D01*
X126080952Y-127731190D01*
X126080952Y-127778809D01*
X126319047Y-127897857D02*
X126319047Y-128231190D01*
X126319047Y-127945476D02*
X126342857Y-127921666D01*
X126390476Y-127897857D01*
X126461904Y-127897857D01*
X126509523Y-127921666D01*
X126533333Y-127969285D01*
X126533333Y-128231190D01*
X126771428Y-127897857D02*
X126771428Y-128231190D01*
X126771428Y-127945476D02*
X126795238Y-127921666D01*
X126842857Y-127897857D01*
X126914285Y-127897857D01*
X126961904Y-127921666D01*
X126985714Y-127969285D01*
X126985714Y-128231190D01*
X127414285Y-128207380D02*
X127366666Y-128231190D01*
X127271428Y-128231190D01*
X127223809Y-128207380D01*
X127200000Y-128159761D01*
X127200000Y-127969285D01*
X127223809Y-127921666D01*
X127271428Y-127897857D01*
X127366666Y-127897857D01*
X127414285Y-127921666D01*
X127438095Y-127969285D01*
X127438095Y-128016904D01*
X127200000Y-128064523D01*
X127580952Y-127897857D02*
X127771428Y-127897857D01*
X127652380Y-127731190D02*
X127652380Y-128159761D01*
X127676190Y-128207380D01*
X127723809Y-128231190D01*
X127771428Y-128231190D01*
X128295238Y-127707380D02*
X127866666Y-128350238D01*
X128557142Y-127731190D02*
X128652380Y-127731190D01*
X128700000Y-127755000D01*
X128747619Y-127802619D01*
X128771428Y-127897857D01*
X128771428Y-128064523D01*
X128747619Y-128159761D01*
X128700000Y-128207380D01*
X128652380Y-128231190D01*
X128557142Y-128231190D01*
X128509523Y-128207380D01*
X128461904Y-128159761D01*
X128438095Y-128064523D01*
X128438095Y-127897857D01*
X128461904Y-127802619D01*
X128509523Y-127755000D01*
X128557142Y-127731190D01*
X128985714Y-127897857D02*
X128985714Y-128397857D01*
X128985714Y-127921666D02*
X129033333Y-127897857D01*
X129128571Y-127897857D01*
X129176190Y-127921666D01*
X129200000Y-127945476D01*
X129223809Y-127993095D01*
X129223809Y-128135952D01*
X129200000Y-128183571D01*
X129176190Y-128207380D01*
X129128571Y-128231190D01*
X129033333Y-128231190D01*
X128985714Y-128207380D01*
X129628571Y-128207380D02*
X129580952Y-128231190D01*
X129485714Y-128231190D01*
X129438095Y-128207380D01*
X129414285Y-128159761D01*
X129414285Y-127969285D01*
X129438095Y-127921666D01*
X129485714Y-127897857D01*
X129580952Y-127897857D01*
X129628571Y-127921666D01*
X129652380Y-127969285D01*
X129652380Y-128016904D01*
X129414285Y-128064523D01*
X129866666Y-127897857D02*
X129866666Y-128231190D01*
X129866666Y-127945476D02*
X129890476Y-127921666D01*
X129938095Y-127897857D01*
X130009523Y-127897857D01*
X130057142Y-127921666D01*
X130080952Y-127969285D01*
X130080952Y-128231190D01*
X130485714Y-127969285D02*
X130319047Y-127969285D01*
X130319047Y-128231190D02*
X130319047Y-127731190D01*
X130557142Y-127731190D01*
X130819047Y-128231190D02*
X130771428Y-128207380D01*
X130747619Y-128159761D01*
X130747619Y-127731190D01*
X131080952Y-128231190D02*
X131033333Y-128207380D01*
X131009523Y-128183571D01*
X130985714Y-128135952D01*
X130985714Y-127993095D01*
X131009523Y-127945476D01*
X131033333Y-127921666D01*
X131080952Y-127897857D01*
X131152380Y-127897857D01*
X131200000Y-127921666D01*
X131223809Y-127945476D01*
X131247619Y-127993095D01*
X131247619Y-128135952D01*
X131223809Y-128183571D01*
X131200000Y-128207380D01*
X131152380Y-128231190D01*
X131080952Y-128231190D01*
X131461904Y-127897857D02*
X131461904Y-128397857D01*
X131461904Y-127921666D02*
X131509523Y-127897857D01*
X131604761Y-127897857D01*
X131652380Y-127921666D01*
X131676190Y-127945476D01*
X131700000Y-127993095D01*
X131700000Y-128135952D01*
X131676190Y-128183571D01*
X131652380Y-128207380D01*
X131604761Y-128231190D01*
X131509523Y-128231190D01*
X131461904Y-128207380D01*
X131890476Y-128207380D02*
X131938095Y-128231190D01*
X132033333Y-128231190D01*
X132080952Y-128207380D01*
X132104761Y-128159761D01*
X132104761Y-128135952D01*
X132080952Y-128088333D01*
X132033333Y-128064523D01*
X131961904Y-128064523D01*
X131914285Y-128040714D01*
X131890476Y-127993095D01*
X131890476Y-127969285D01*
X131914285Y-127921666D01*
X131961904Y-127897857D01*
X132033333Y-127897857D01*
X132080952Y-127921666D01*
D11*
X123626809Y-123328180D02*
X123817285Y-123328180D01*
X123912523Y-123375800D01*
X124007761Y-123471038D01*
X124055380Y-123661514D01*
X124055380Y-123994847D01*
X124007761Y-124185323D01*
X123912523Y-124280561D01*
X123817285Y-124328180D01*
X123626809Y-124328180D01*
X123531571Y-124280561D01*
X123436333Y-124185323D01*
X123388714Y-123994847D01*
X123388714Y-123661514D01*
X123436333Y-123471038D01*
X123531571Y-123375800D01*
X123626809Y-123328180D01*
X124483952Y-123661514D02*
X124483952Y-124661514D01*
X124483952Y-123709133D02*
X124579190Y-123661514D01*
X124769666Y-123661514D01*
X124864904Y-123709133D01*
X124912523Y-123756752D01*
X124960142Y-123851990D01*
X124960142Y-124137704D01*
X124912523Y-124232942D01*
X124864904Y-124280561D01*
X124769666Y-124328180D01*
X124579190Y-124328180D01*
X124483952Y-124280561D01*
X125245857Y-123661514D02*
X125626809Y-123661514D01*
X125388714Y-123328180D02*
X125388714Y-124185323D01*
X125436333Y-124280561D01*
X125531571Y-124328180D01*
X125626809Y-124328180D01*
X125960142Y-124328180D02*
X125960142Y-123661514D01*
X125960142Y-123328180D02*
X125912523Y-123375800D01*
X125960142Y-123423419D01*
X126007761Y-123375800D01*
X125960142Y-123328180D01*
X125960142Y-123423419D01*
X126579190Y-124328180D02*
X126483952Y-124280561D01*
X126436333Y-124232942D01*
X126388714Y-124137704D01*
X126388714Y-123851990D01*
X126436333Y-123756752D01*
X126483952Y-123709133D01*
X126579190Y-123661514D01*
X126722047Y-123661514D01*
X126817285Y-123709133D01*
X126864904Y-123756752D01*
X126912523Y-123851990D01*
X126912523Y-124137704D01*
X126864904Y-124232942D01*
X126817285Y-124280561D01*
X126722047Y-124328180D01*
X126579190Y-124328180D01*
X127341095Y-123661514D02*
X127341095Y-124328180D01*
X127341095Y-123756752D02*
X127388714Y-123709133D01*
X127483952Y-123661514D01*
X127626809Y-123661514D01*
X127722047Y-123709133D01*
X127769666Y-123804371D01*
X127769666Y-124328180D01*
X95738914Y-110688380D02*
X95167485Y-110688380D01*
X95453200Y-110688380D02*
X95453200Y-109688380D01*
X95357961Y-109831238D01*
X95262723Y-109926476D01*
X95167485Y-109974095D01*
X92890980Y-109688380D02*
X92986219Y-109688380D01*
X93081457Y-109736000D01*
X93129076Y-109783619D01*
X93176695Y-109878857D01*
X93224314Y-110069333D01*
X93224314Y-110307428D01*
X93176695Y-110497904D01*
X93129076Y-110593142D01*
X93081457Y-110640761D01*
X92986219Y-110688380D01*
X92890980Y-110688380D01*
X92795742Y-110640761D01*
X92748123Y-110593142D01*
X92700504Y-110497904D01*
X92652885Y-110307428D01*
X92652885Y-110069333D01*
X92700504Y-109878857D01*
X92748123Y-109783619D01*
X92795742Y-109736000D01*
X92890980Y-109688380D01*
D12*
X96838571Y-79168761D02*
X97219523Y-79168761D01*
X97410000Y-79264000D01*
X97600476Y-79454476D01*
X97695714Y-79835428D01*
X97695714Y-80502095D01*
X97600476Y-80883047D01*
X97410000Y-81073523D01*
X97219523Y-81168761D01*
X96838571Y-81168761D01*
X96648095Y-81073523D01*
X96457619Y-80883047D01*
X96362380Y-80502095D01*
X96362380Y-79835428D01*
X96457619Y-79454476D01*
X96648095Y-79264000D01*
X96838571Y-79168761D01*
X98552857Y-79835428D02*
X98552857Y-81835428D01*
X98552857Y-79930666D02*
X98743333Y-79835428D01*
X99124285Y-79835428D01*
X99314761Y-79930666D01*
X99410000Y-80025904D01*
X99505238Y-80216380D01*
X99505238Y-80787809D01*
X99410000Y-80978285D01*
X99314761Y-81073523D01*
X99124285Y-81168761D01*
X98743333Y-81168761D01*
X98552857Y-81073523D01*
X101124285Y-81073523D02*
X100933809Y-81168761D01*
X100552857Y-81168761D01*
X100362380Y-81073523D01*
X100267142Y-80883047D01*
X100267142Y-80121142D01*
X100362380Y-79930666D01*
X100552857Y-79835428D01*
X100933809Y-79835428D01*
X101124285Y-79930666D01*
X101219523Y-80121142D01*
X101219523Y-80311619D01*
X100267142Y-80502095D01*
X102076666Y-79835428D02*
X102076666Y-81168761D01*
X102076666Y-80025904D02*
X102171904Y-79930666D01*
X102362380Y-79835428D01*
X102648095Y-79835428D01*
X102838571Y-79930666D01*
X102933809Y-80121142D01*
X102933809Y-81168761D01*
X104552857Y-80121142D02*
X103886190Y-80121142D01*
X103886190Y-81168761D02*
X103886190Y-79168761D01*
X104838571Y-79168761D01*
X105886190Y-81168761D02*
X105695714Y-81073523D01*
X105600476Y-80883047D01*
X105600476Y-79168761D01*
X106933809Y-81168761D02*
X106743333Y-81073523D01*
X106648095Y-80978285D01*
X106552857Y-80787809D01*
X106552857Y-80216380D01*
X106648095Y-80025904D01*
X106743333Y-79930666D01*
X106933809Y-79835428D01*
X107219523Y-79835428D01*
X107410000Y-79930666D01*
X107505238Y-80025904D01*
X107600476Y-80216380D01*
X107600476Y-80787809D01*
X107505238Y-80978285D01*
X107410000Y-81073523D01*
X107219523Y-81168761D01*
X106933809Y-81168761D01*
X108457619Y-79835428D02*
X108457619Y-81835428D01*
X108457619Y-79930666D02*
X108648095Y-79835428D01*
X109029047Y-79835428D01*
X109219523Y-79930666D01*
X109314761Y-80025904D01*
X109410000Y-80216380D01*
X109410000Y-80787809D01*
X109314761Y-80978285D01*
X109219523Y-81073523D01*
X109029047Y-81168761D01*
X108648095Y-81168761D01*
X108457619Y-81073523D01*
X110171904Y-81073523D02*
X110362380Y-81168761D01*
X110743333Y-81168761D01*
X110933809Y-81073523D01*
X111029047Y-80883047D01*
X111029047Y-80787809D01*
X110933809Y-80597333D01*
X110743333Y-80502095D01*
X110457619Y-80502095D01*
X110267142Y-80406857D01*
X110171904Y-80216380D01*
X110171904Y-80121142D01*
X110267142Y-79930666D01*
X110457619Y-79835428D01*
X110743333Y-79835428D01*
X110933809Y-79930666D01*
X111695714Y-79168761D02*
X113029047Y-81168761D01*
X113029047Y-79168761D02*
X111695714Y-81168761D01*
X113505238Y-79168761D02*
X114648095Y-79168761D01*
X114076666Y-81168761D02*
X114076666Y-79168761D01*
D10*
X91155780Y-106671523D02*
X90155780Y-106671523D01*
X90155780Y-106433428D01*
X90203400Y-106290571D01*
X90298638Y-106195333D01*
X90393876Y-106147714D01*
X90584352Y-106100095D01*
X90727209Y-106100095D01*
X90917685Y-106147714D01*
X91012923Y-106195333D01*
X91108161Y-106290571D01*
X91155780Y-106433428D01*
X91155780Y-106671523D01*
X91155780Y-105671523D02*
X90489114Y-105671523D01*
X90679590Y-105671523D02*
X90584352Y-105623904D01*
X90536733Y-105576285D01*
X90489114Y-105481047D01*
X90489114Y-105385809D01*
X91155780Y-105052476D02*
X90489114Y-105052476D01*
X90155780Y-105052476D02*
X90203400Y-105100095D01*
X90251019Y-105052476D01*
X90203400Y-105004857D01*
X90155780Y-105052476D01*
X90251019Y-105052476D01*
X90489114Y-104671523D02*
X91155780Y-104433428D01*
X90489114Y-104195333D01*
X91108161Y-103433428D02*
X91155780Y-103528666D01*
X91155780Y-103719142D01*
X91108161Y-103814380D01*
X91012923Y-103862000D01*
X90631971Y-103862000D01*
X90536733Y-103814380D01*
X90489114Y-103719142D01*
X90489114Y-103528666D01*
X90536733Y-103433428D01*
X90631971Y-103385809D01*
X90727209Y-103385809D01*
X90822447Y-103862000D01*
X91108161Y-102242952D02*
X91155780Y-102100095D01*
X91155780Y-101862000D01*
X91108161Y-101766761D01*
X91060542Y-101719142D01*
X90965304Y-101671523D01*
X90870066Y-101671523D01*
X90774828Y-101719142D01*
X90727209Y-101766761D01*
X90679590Y-101862000D01*
X90631971Y-102052476D01*
X90584352Y-102147714D01*
X90536733Y-102195333D01*
X90441495Y-102242952D01*
X90346257Y-102242952D01*
X90251019Y-102195333D01*
X90203400Y-102147714D01*
X90155780Y-102052476D01*
X90155780Y-101814380D01*
X90203400Y-101671523D01*
X91108161Y-100862000D02*
X91155780Y-100957238D01*
X91155780Y-101147714D01*
X91108161Y-101242952D01*
X91012923Y-101290571D01*
X90631971Y-101290571D01*
X90536733Y-101242952D01*
X90489114Y-101147714D01*
X90489114Y-100957238D01*
X90536733Y-100862000D01*
X90631971Y-100814380D01*
X90727209Y-100814380D01*
X90822447Y-101290571D01*
X91155780Y-100242952D02*
X91108161Y-100338190D01*
X91012923Y-100385809D01*
X90155780Y-100385809D01*
X91108161Y-99481047D02*
X91155780Y-99576285D01*
X91155780Y-99766761D01*
X91108161Y-99862000D01*
X91012923Y-99909619D01*
X90631971Y-99909619D01*
X90536733Y-99862000D01*
X90489114Y-99766761D01*
X90489114Y-99576285D01*
X90536733Y-99481047D01*
X90631971Y-99433428D01*
X90727209Y-99433428D01*
X90822447Y-99909619D01*
X91108161Y-98576285D02*
X91155780Y-98671523D01*
X91155780Y-98862000D01*
X91108161Y-98957238D01*
X91060542Y-99004857D01*
X90965304Y-99052476D01*
X90679590Y-99052476D01*
X90584352Y-99004857D01*
X90536733Y-98957238D01*
X90489114Y-98862000D01*
X90489114Y-98671523D01*
X90536733Y-98576285D01*
X90489114Y-98290571D02*
X90489114Y-97909619D01*
X90155780Y-98147714D02*
X91012923Y-98147714D01*
X91108161Y-98100095D01*
X91155780Y-98004857D01*
X91155780Y-97909619D01*
D11*
%TO.C,U1*%
X103581295Y-94930980D02*
X103581295Y-95740504D01*
X103628914Y-95835742D01*
X103676533Y-95883361D01*
X103771771Y-95930980D01*
X103962247Y-95930980D01*
X104057485Y-95883361D01*
X104105104Y-95835742D01*
X104152723Y-95740504D01*
X104152723Y-94930980D01*
X105152723Y-95930980D02*
X104581295Y-95930980D01*
X104867009Y-95930980D02*
X104867009Y-94930980D01*
X104771771Y-95073838D01*
X104676533Y-95169076D01*
X104581295Y-95216695D01*
%TO.C,R11*%
X139111980Y-139174457D02*
X138635790Y-139507790D01*
X139111980Y-139745885D02*
X138111980Y-139745885D01*
X138111980Y-139364933D01*
X138159600Y-139269695D01*
X138207219Y-139222076D01*
X138302457Y-139174457D01*
X138445314Y-139174457D01*
X138540552Y-139222076D01*
X138588171Y-139269695D01*
X138635790Y-139364933D01*
X138635790Y-139745885D01*
X139111980Y-138222076D02*
X139111980Y-138793504D01*
X139111980Y-138507790D02*
X138111980Y-138507790D01*
X138254838Y-138603028D01*
X138350076Y-138698266D01*
X138397695Y-138793504D01*
X139111980Y-137269695D02*
X139111980Y-137841123D01*
X139111980Y-137555409D02*
X138111980Y-137555409D01*
X138254838Y-137650647D01*
X138350076Y-137745885D01*
X138397695Y-137841123D01*
%TO.C,C7*%
X134199333Y-103101142D02*
X134151714Y-103148761D01*
X134008857Y-103196380D01*
X133913619Y-103196380D01*
X133770761Y-103148761D01*
X133675523Y-103053523D01*
X133627904Y-102958285D01*
X133580285Y-102767809D01*
X133580285Y-102624952D01*
X133627904Y-102434476D01*
X133675523Y-102339238D01*
X133770761Y-102244000D01*
X133913619Y-102196380D01*
X134008857Y-102196380D01*
X134151714Y-102244000D01*
X134199333Y-102291619D01*
X134532666Y-102196380D02*
X135199333Y-102196380D01*
X134770761Y-103196380D01*
%TO.C,R9*%
X151077580Y-92896666D02*
X150601390Y-93230000D01*
X151077580Y-93468095D02*
X150077580Y-93468095D01*
X150077580Y-93087142D01*
X150125200Y-92991904D01*
X150172819Y-92944285D01*
X150268057Y-92896666D01*
X150410914Y-92896666D01*
X150506152Y-92944285D01*
X150553771Y-92991904D01*
X150601390Y-93087142D01*
X150601390Y-93468095D01*
X151077580Y-92420476D02*
X151077580Y-92230000D01*
X151029961Y-92134761D01*
X150982342Y-92087142D01*
X150839485Y-91991904D01*
X150649009Y-91944285D01*
X150268057Y-91944285D01*
X150172819Y-91991904D01*
X150125200Y-92039523D01*
X150077580Y-92134761D01*
X150077580Y-92325238D01*
X150125200Y-92420476D01*
X150172819Y-92468095D01*
X150268057Y-92515714D01*
X150506152Y-92515714D01*
X150601390Y-92468095D01*
X150649009Y-92420476D01*
X150696628Y-92325238D01*
X150696628Y-92134761D01*
X150649009Y-92039523D01*
X150601390Y-91991904D01*
X150506152Y-91944285D01*
%TO.C,R20*%
X151825980Y-127272857D02*
X151349790Y-127606190D01*
X151825980Y-127844285D02*
X150825980Y-127844285D01*
X150825980Y-127463333D01*
X150873600Y-127368095D01*
X150921219Y-127320476D01*
X151016457Y-127272857D01*
X151159314Y-127272857D01*
X151254552Y-127320476D01*
X151302171Y-127368095D01*
X151349790Y-127463333D01*
X151349790Y-127844285D01*
X150921219Y-126891904D02*
X150873600Y-126844285D01*
X150825980Y-126749047D01*
X150825980Y-126510952D01*
X150873600Y-126415714D01*
X150921219Y-126368095D01*
X151016457Y-126320476D01*
X151111695Y-126320476D01*
X151254552Y-126368095D01*
X151825980Y-126939523D01*
X151825980Y-126320476D01*
X150825980Y-125701428D02*
X150825980Y-125606190D01*
X150873600Y-125510952D01*
X150921219Y-125463333D01*
X151016457Y-125415714D01*
X151206933Y-125368095D01*
X151445028Y-125368095D01*
X151635504Y-125415714D01*
X151730742Y-125463333D01*
X151778361Y-125510952D01*
X151825980Y-125606190D01*
X151825980Y-125701428D01*
X151778361Y-125796666D01*
X151730742Y-125844285D01*
X151635504Y-125891904D01*
X151445028Y-125939523D01*
X151206933Y-125939523D01*
X151016457Y-125891904D01*
X150921219Y-125844285D01*
X150873600Y-125796666D01*
X150825980Y-125701428D01*
%TO.C,P1*%
X80790904Y-83715380D02*
X80790904Y-82715380D01*
X81171857Y-82715380D01*
X81267095Y-82763000D01*
X81314714Y-82810619D01*
X81362333Y-82905857D01*
X81362333Y-83048714D01*
X81314714Y-83143952D01*
X81267095Y-83191571D01*
X81171857Y-83239190D01*
X80790904Y-83239190D01*
X82314714Y-83715380D02*
X81743285Y-83715380D01*
X82029000Y-83715380D02*
X82029000Y-82715380D01*
X81933761Y-82858238D01*
X81838523Y-82953476D01*
X81743285Y-83001095D01*
%TO.C,C18*%
X121630742Y-137922857D02*
X121678361Y-137970476D01*
X121725980Y-138113333D01*
X121725980Y-138208571D01*
X121678361Y-138351428D01*
X121583123Y-138446666D01*
X121487885Y-138494285D01*
X121297409Y-138541904D01*
X121154552Y-138541904D01*
X120964076Y-138494285D01*
X120868838Y-138446666D01*
X120773600Y-138351428D01*
X120725980Y-138208571D01*
X120725980Y-138113333D01*
X120773600Y-137970476D01*
X120821219Y-137922857D01*
X121725980Y-136970476D02*
X121725980Y-137541904D01*
X121725980Y-137256190D02*
X120725980Y-137256190D01*
X120868838Y-137351428D01*
X120964076Y-137446666D01*
X121011695Y-137541904D01*
X121154552Y-136399047D02*
X121106933Y-136494285D01*
X121059314Y-136541904D01*
X120964076Y-136589523D01*
X120916457Y-136589523D01*
X120821219Y-136541904D01*
X120773600Y-136494285D01*
X120725980Y-136399047D01*
X120725980Y-136208571D01*
X120773600Y-136113333D01*
X120821219Y-136065714D01*
X120916457Y-136018095D01*
X120964076Y-136018095D01*
X121059314Y-136065714D01*
X121106933Y-136113333D01*
X121154552Y-136208571D01*
X121154552Y-136399047D01*
X121202171Y-136494285D01*
X121249790Y-136541904D01*
X121345028Y-136589523D01*
X121535504Y-136589523D01*
X121630742Y-136541904D01*
X121678361Y-136494285D01*
X121725980Y-136399047D01*
X121725980Y-136208571D01*
X121678361Y-136113333D01*
X121630742Y-136065714D01*
X121535504Y-136018095D01*
X121345028Y-136018095D01*
X121249790Y-136065714D01*
X121202171Y-136113333D01*
X121154552Y-136208571D01*
%TO.C,Y1*%
X123653809Y-117705952D02*
X123558571Y-117658333D01*
X123510952Y-117610714D01*
X123463333Y-117515476D01*
X123463333Y-117467857D01*
X123510952Y-117372619D01*
X123558571Y-117325000D01*
X123653809Y-117277380D01*
X123844285Y-117277380D01*
X123939523Y-117325000D01*
X123987142Y-117372619D01*
X124034761Y-117467857D01*
X124034761Y-117515476D01*
X123987142Y-117610714D01*
X123939523Y-117658333D01*
X123844285Y-117705952D01*
X123653809Y-117705952D01*
X123558571Y-117753571D01*
X123510952Y-117801190D01*
X123463333Y-117896428D01*
X123463333Y-118086904D01*
X123510952Y-118182142D01*
X123558571Y-118229761D01*
X123653809Y-118277380D01*
X123844285Y-118277380D01*
X123939523Y-118229761D01*
X123987142Y-118182142D01*
X124034761Y-118086904D01*
X124034761Y-117896428D01*
X123987142Y-117801190D01*
X123939523Y-117753571D01*
X123844285Y-117705952D01*
X125225238Y-118277380D02*
X125225238Y-117277380D01*
X125558571Y-117991666D01*
X125891904Y-117277380D01*
X125891904Y-118277380D01*
X126368095Y-118277380D02*
X126368095Y-117277380D01*
X126368095Y-117753571D02*
X126939523Y-117753571D01*
X126939523Y-118277380D02*
X126939523Y-117277380D01*
X127320476Y-117610714D02*
X127844285Y-117610714D01*
X127320476Y-118277380D01*
X127844285Y-118277380D01*
%TO.C,RN2*%
X85796380Y-130484476D02*
X85320190Y-130817809D01*
X85796380Y-131055904D02*
X84796380Y-131055904D01*
X84796380Y-130674952D01*
X84844000Y-130579714D01*
X84891619Y-130532095D01*
X84986857Y-130484476D01*
X85129714Y-130484476D01*
X85224952Y-130532095D01*
X85272571Y-130579714D01*
X85320190Y-130674952D01*
X85320190Y-131055904D01*
X85796380Y-130055904D02*
X84796380Y-130055904D01*
X85796380Y-129484476D01*
X84796380Y-129484476D01*
X84891619Y-129055904D02*
X84844000Y-129008285D01*
X84796380Y-128913047D01*
X84796380Y-128674952D01*
X84844000Y-128579714D01*
X84891619Y-128532095D01*
X84986857Y-128484476D01*
X85082095Y-128484476D01*
X85224952Y-128532095D01*
X85796380Y-129103523D01*
X85796380Y-128484476D01*
%TO.C,R5*%
X104227333Y-118690380D02*
X103894000Y-118214190D01*
X103655904Y-118690380D02*
X103655904Y-117690380D01*
X104036857Y-117690380D01*
X104132095Y-117738000D01*
X104179714Y-117785619D01*
X104227333Y-117880857D01*
X104227333Y-118023714D01*
X104179714Y-118118952D01*
X104132095Y-118166571D01*
X104036857Y-118214190D01*
X103655904Y-118214190D01*
X105132095Y-117690380D02*
X104655904Y-117690380D01*
X104608285Y-118166571D01*
X104655904Y-118118952D01*
X104751142Y-118071333D01*
X104989238Y-118071333D01*
X105084476Y-118118952D01*
X105132095Y-118166571D01*
X105179714Y-118261809D01*
X105179714Y-118499904D01*
X105132095Y-118595142D01*
X105084476Y-118642761D01*
X104989238Y-118690380D01*
X104751142Y-118690380D01*
X104655904Y-118642761D01*
X104608285Y-118595142D01*
%TO.C,Q2*%
X94062561Y-112942619D02*
X93967323Y-112895000D01*
X93872085Y-112799761D01*
X93729228Y-112656904D01*
X93633990Y-112609285D01*
X93538752Y-112609285D01*
X93586371Y-112847380D02*
X93491133Y-112799761D01*
X93395895Y-112704523D01*
X93348276Y-112514047D01*
X93348276Y-112180714D01*
X93395895Y-111990238D01*
X93491133Y-111895000D01*
X93586371Y-111847380D01*
X93776847Y-111847380D01*
X93872085Y-111895000D01*
X93967323Y-111990238D01*
X94014942Y-112180714D01*
X94014942Y-112514047D01*
X93967323Y-112704523D01*
X93872085Y-112799761D01*
X93776847Y-112847380D01*
X93586371Y-112847380D01*
X94395895Y-111942619D02*
X94443514Y-111895000D01*
X94538752Y-111847380D01*
X94776847Y-111847380D01*
X94872085Y-111895000D01*
X94919704Y-111942619D01*
X94967323Y-112037857D01*
X94967323Y-112133095D01*
X94919704Y-112275952D01*
X94348276Y-112847380D01*
X94967323Y-112847380D01*
%TO.C,TP1*%
X133612095Y-95934380D02*
X134183523Y-95934380D01*
X133897809Y-96934380D02*
X133897809Y-95934380D01*
X134516857Y-96934380D02*
X134516857Y-95934380D01*
X134897809Y-95934380D01*
X134993047Y-95982000D01*
X135040666Y-96029619D01*
X135088285Y-96124857D01*
X135088285Y-96267714D01*
X135040666Y-96362952D01*
X134993047Y-96410571D01*
X134897809Y-96458190D01*
X134516857Y-96458190D01*
X136040666Y-96934380D02*
X135469238Y-96934380D01*
X135754952Y-96934380D02*
X135754952Y-95934380D01*
X135659714Y-96077238D01*
X135564476Y-96172476D01*
X135469238Y-96220095D01*
X133040666Y-99408571D02*
X133183523Y-99456190D01*
X133231142Y-99503809D01*
X133278761Y-99599047D01*
X133278761Y-99741904D01*
X133231142Y-99837142D01*
X133183523Y-99884761D01*
X133088285Y-99932380D01*
X132707333Y-99932380D01*
X132707333Y-98932380D01*
X133040666Y-98932380D01*
X133135904Y-98980000D01*
X133183523Y-99027619D01*
X133231142Y-99122857D01*
X133231142Y-99218095D01*
X133183523Y-99313333D01*
X133135904Y-99360952D01*
X133040666Y-99408571D01*
X132707333Y-99408571D01*
X133897809Y-98932380D02*
X134088285Y-98932380D01*
X134183523Y-98980000D01*
X134278761Y-99075238D01*
X134326380Y-99265714D01*
X134326380Y-99599047D01*
X134278761Y-99789523D01*
X134183523Y-99884761D01*
X134088285Y-99932380D01*
X133897809Y-99932380D01*
X133802571Y-99884761D01*
X133707333Y-99789523D01*
X133659714Y-99599047D01*
X133659714Y-99265714D01*
X133707333Y-99075238D01*
X133802571Y-98980000D01*
X133897809Y-98932380D01*
X134945428Y-98932380D02*
X135135904Y-98932380D01*
X135231142Y-98980000D01*
X135326380Y-99075238D01*
X135374000Y-99265714D01*
X135374000Y-99599047D01*
X135326380Y-99789523D01*
X135231142Y-99884761D01*
X135135904Y-99932380D01*
X134945428Y-99932380D01*
X134850190Y-99884761D01*
X134754952Y-99789523D01*
X134707333Y-99599047D01*
X134707333Y-99265714D01*
X134754952Y-99075238D01*
X134850190Y-98980000D01*
X134945428Y-98932380D01*
X135659714Y-98932380D02*
X136231142Y-98932380D01*
X135945428Y-99932380D02*
X135945428Y-98932380D01*
X137088285Y-99932380D02*
X136516857Y-99932380D01*
X136802571Y-99932380D02*
X136802571Y-98932380D01*
X136707333Y-99075238D01*
X136612095Y-99170476D01*
X136516857Y-99218095D01*
%TO.C,R6*%
X103964333Y-88210380D02*
X103631000Y-87734190D01*
X103392904Y-88210380D02*
X103392904Y-87210380D01*
X103773857Y-87210380D01*
X103869095Y-87258000D01*
X103916714Y-87305619D01*
X103964333Y-87400857D01*
X103964333Y-87543714D01*
X103916714Y-87638952D01*
X103869095Y-87686571D01*
X103773857Y-87734190D01*
X103392904Y-87734190D01*
X104821476Y-87210380D02*
X104631000Y-87210380D01*
X104535761Y-87258000D01*
X104488142Y-87305619D01*
X104392904Y-87448476D01*
X104345285Y-87638952D01*
X104345285Y-88019904D01*
X104392904Y-88115142D01*
X104440523Y-88162761D01*
X104535761Y-88210380D01*
X104726238Y-88210380D01*
X104821476Y-88162761D01*
X104869095Y-88115142D01*
X104916714Y-88019904D01*
X104916714Y-87781809D01*
X104869095Y-87686571D01*
X104821476Y-87638952D01*
X104726238Y-87591333D01*
X104535761Y-87591333D01*
X104440523Y-87638952D01*
X104392904Y-87686571D01*
X104345285Y-87781809D01*
%TO.C,Q7*%
X143615619Y-138602838D02*
X143568000Y-138698076D01*
X143472761Y-138793314D01*
X143329904Y-138936171D01*
X143282285Y-139031409D01*
X143282285Y-139126647D01*
X143520380Y-139079028D02*
X143472761Y-139174266D01*
X143377523Y-139269504D01*
X143187047Y-139317123D01*
X142853714Y-139317123D01*
X142663238Y-139269504D01*
X142568000Y-139174266D01*
X142520380Y-139079028D01*
X142520380Y-138888552D01*
X142568000Y-138793314D01*
X142663238Y-138698076D01*
X142853714Y-138650457D01*
X143187047Y-138650457D01*
X143377523Y-138698076D01*
X143472761Y-138793314D01*
X143520380Y-138888552D01*
X143520380Y-139079028D01*
X142520380Y-138317123D02*
X142520380Y-137650457D01*
X143520380Y-138079028D01*
%TO.C,J4*%
X156511904Y-135516000D02*
X156416666Y-135468380D01*
X156273809Y-135468380D01*
X156130952Y-135516000D01*
X156035714Y-135611238D01*
X155988095Y-135706476D01*
X155940476Y-135896952D01*
X155940476Y-136039809D01*
X155988095Y-136230285D01*
X156035714Y-136325523D01*
X156130952Y-136420761D01*
X156273809Y-136468380D01*
X156369047Y-136468380D01*
X156511904Y-136420761D01*
X156559523Y-136373142D01*
X156559523Y-136039809D01*
X156369047Y-136039809D01*
%TO.C,P2*%
X78430380Y-141763142D02*
X77430380Y-141763142D01*
X77430380Y-141382190D01*
X77478000Y-141286952D01*
X77525619Y-141239333D01*
X77620857Y-141191714D01*
X77763714Y-141191714D01*
X77858952Y-141239333D01*
X77906571Y-141286952D01*
X77954190Y-141382190D01*
X77954190Y-141763142D01*
X77430380Y-140572666D02*
X77430380Y-140382190D01*
X77478000Y-140286952D01*
X77573238Y-140191714D01*
X77763714Y-140144095D01*
X78097047Y-140144095D01*
X78287523Y-140191714D01*
X78382761Y-140286952D01*
X78430380Y-140382190D01*
X78430380Y-140572666D01*
X78382761Y-140667904D01*
X78287523Y-140763142D01*
X78097047Y-140810761D01*
X77763714Y-140810761D01*
X77573238Y-140763142D01*
X77478000Y-140667904D01*
X77430380Y-140572666D01*
X77430380Y-139810761D02*
X78430380Y-139572666D01*
X77716095Y-139382190D01*
X78430380Y-139191714D01*
X77430380Y-138953619D01*
X77906571Y-138572666D02*
X77906571Y-138239333D01*
X78430380Y-138096476D02*
X78430380Y-138572666D01*
X77430380Y-138572666D01*
X77430380Y-138096476D01*
X78430380Y-137096476D02*
X77954190Y-137429809D01*
X78430380Y-137667904D02*
X77430380Y-137667904D01*
X77430380Y-137286952D01*
X77478000Y-137191714D01*
X77525619Y-137144095D01*
X77620857Y-137096476D01*
X77763714Y-137096476D01*
X77858952Y-137144095D01*
X77906571Y-137191714D01*
X77954190Y-137286952D01*
X77954190Y-137667904D01*
X78525619Y-136906000D02*
X78525619Y-136144095D01*
X78430380Y-135906000D02*
X77430380Y-135906000D01*
X78430380Y-135429809D02*
X77430380Y-135429809D01*
X78430380Y-134858380D01*
X77430380Y-134858380D01*
X78430380Y-134382190D02*
X77430380Y-134382190D01*
X77430380Y-134001238D01*
X77478000Y-133906000D01*
X77525619Y-133858380D01*
X77620857Y-133810761D01*
X77763714Y-133810761D01*
X77858952Y-133858380D01*
X77906571Y-133906000D01*
X77954190Y-134001238D01*
X77954190Y-134382190D01*
X77430380Y-133382190D02*
X78239904Y-133382190D01*
X78335142Y-133334571D01*
X78382761Y-133286952D01*
X78430380Y-133191714D01*
X78430380Y-133001238D01*
X78382761Y-132906000D01*
X78335142Y-132858380D01*
X78239904Y-132810761D01*
X77430380Y-132810761D01*
X77430380Y-132477428D02*
X77430380Y-131906000D01*
X78430380Y-132191714D02*
X77430380Y-132191714D01*
%TO.C,C4*%
X138593533Y-103162342D02*
X138545914Y-103209961D01*
X138403057Y-103257580D01*
X138307819Y-103257580D01*
X138164961Y-103209961D01*
X138069723Y-103114723D01*
X138022104Y-103019485D01*
X137974485Y-102829009D01*
X137974485Y-102686152D01*
X138022104Y-102495676D01*
X138069723Y-102400438D01*
X138164961Y-102305200D01*
X138307819Y-102257580D01*
X138403057Y-102257580D01*
X138545914Y-102305200D01*
X138593533Y-102352819D01*
X139450676Y-102590914D02*
X139450676Y-103257580D01*
X139212580Y-102209961D02*
X138974485Y-102924247D01*
X139593533Y-102924247D01*
%TO.C,R2*%
X104227333Y-112086380D02*
X103894000Y-111610190D01*
X103655904Y-112086380D02*
X103655904Y-111086380D01*
X104036857Y-111086380D01*
X104132095Y-111134000D01*
X104179714Y-111181619D01*
X104227333Y-111276857D01*
X104227333Y-111419714D01*
X104179714Y-111514952D01*
X104132095Y-111562571D01*
X104036857Y-111610190D01*
X103655904Y-111610190D01*
X104608285Y-111181619D02*
X104655904Y-111134000D01*
X104751142Y-111086380D01*
X104989238Y-111086380D01*
X105084476Y-111134000D01*
X105132095Y-111181619D01*
X105179714Y-111276857D01*
X105179714Y-111372095D01*
X105132095Y-111514952D01*
X104560666Y-112086380D01*
X105179714Y-112086380D01*
%TO.C,C10*%
X138232142Y-110237142D02*
X138184523Y-110284761D01*
X138041666Y-110332380D01*
X137946428Y-110332380D01*
X137803571Y-110284761D01*
X137708333Y-110189523D01*
X137660714Y-110094285D01*
X137613095Y-109903809D01*
X137613095Y-109760952D01*
X137660714Y-109570476D01*
X137708333Y-109475238D01*
X137803571Y-109380000D01*
X137946428Y-109332380D01*
X138041666Y-109332380D01*
X138184523Y-109380000D01*
X138232142Y-109427619D01*
X139184523Y-110332380D02*
X138613095Y-110332380D01*
X138898809Y-110332380D02*
X138898809Y-109332380D01*
X138803571Y-109475238D01*
X138708333Y-109570476D01*
X138613095Y-109618095D01*
X139803571Y-109332380D02*
X139898809Y-109332380D01*
X139994047Y-109380000D01*
X140041666Y-109427619D01*
X140089285Y-109522857D01*
X140136904Y-109713333D01*
X140136904Y-109951428D01*
X140089285Y-110141904D01*
X140041666Y-110237142D01*
X139994047Y-110284761D01*
X139898809Y-110332380D01*
X139803571Y-110332380D01*
X139708333Y-110284761D01*
X139660714Y-110237142D01*
X139613095Y-110141904D01*
X139565476Y-109951428D01*
X139565476Y-109713333D01*
X139613095Y-109522857D01*
X139660714Y-109427619D01*
X139708333Y-109380000D01*
X139803571Y-109332380D01*
%TO.C,C5*%
X127341333Y-107673142D02*
X127293714Y-107720761D01*
X127150857Y-107768380D01*
X127055619Y-107768380D01*
X126912761Y-107720761D01*
X126817523Y-107625523D01*
X126769904Y-107530285D01*
X126722285Y-107339809D01*
X126722285Y-107196952D01*
X126769904Y-107006476D01*
X126817523Y-106911238D01*
X126912761Y-106816000D01*
X127055619Y-106768380D01*
X127150857Y-106768380D01*
X127293714Y-106816000D01*
X127341333Y-106863619D01*
X128246095Y-106768380D02*
X127769904Y-106768380D01*
X127722285Y-107244571D01*
X127769904Y-107196952D01*
X127865142Y-107149333D01*
X128103238Y-107149333D01*
X128198476Y-107196952D01*
X128246095Y-107244571D01*
X128293714Y-107339809D01*
X128293714Y-107577904D01*
X128246095Y-107673142D01*
X128198476Y-107720761D01*
X128103238Y-107768380D01*
X127865142Y-107768380D01*
X127769904Y-107720761D01*
X127722285Y-107673142D01*
%TO.C,P7*%
X154417180Y-111170409D02*
X153417180Y-111170409D01*
X153417180Y-110932314D01*
X153464800Y-110789457D01*
X153560038Y-110694219D01*
X153655276Y-110646600D01*
X153845752Y-110598980D01*
X153988609Y-110598980D01*
X154179085Y-110646600D01*
X154274323Y-110694219D01*
X154369561Y-110789457D01*
X154417180Y-110932314D01*
X154417180Y-111170409D01*
X154417180Y-110170409D02*
X153417180Y-110170409D01*
X154369561Y-109741838D02*
X154417180Y-109598980D01*
X154417180Y-109360885D01*
X154369561Y-109265647D01*
X154321942Y-109218028D01*
X154226704Y-109170409D01*
X154131466Y-109170409D01*
X154036228Y-109218028D01*
X153988609Y-109265647D01*
X153940990Y-109360885D01*
X153893371Y-109551361D01*
X153845752Y-109646600D01*
X153798133Y-109694219D01*
X153702895Y-109741838D01*
X153607657Y-109741838D01*
X153512419Y-109694219D01*
X153464800Y-109646600D01*
X153417180Y-109551361D01*
X153417180Y-109313266D01*
X153464800Y-109170409D01*
X154417180Y-108741838D02*
X153417180Y-108741838D01*
X153417180Y-108360885D01*
X153464800Y-108265647D01*
X153512419Y-108218028D01*
X153607657Y-108170409D01*
X153750514Y-108170409D01*
X153845752Y-108218028D01*
X153893371Y-108265647D01*
X153940990Y-108360885D01*
X153940990Y-108741838D01*
X154417180Y-107265647D02*
X154417180Y-107741838D01*
X153417180Y-107741838D01*
X154131466Y-106979933D02*
X154131466Y-106503742D01*
X154417180Y-107075171D02*
X153417180Y-106741838D01*
X154417180Y-106408504D01*
X153940990Y-105884695D02*
X154417180Y-105884695D01*
X153417180Y-106218028D02*
X153940990Y-105884695D01*
X153417180Y-105551361D01*
X154512419Y-105456123D02*
X154512419Y-104694219D01*
X154417180Y-104456123D02*
X153417180Y-104456123D01*
X153417180Y-104075171D01*
X153464800Y-103979933D01*
X153512419Y-103932314D01*
X153607657Y-103884695D01*
X153750514Y-103884695D01*
X153845752Y-103932314D01*
X153893371Y-103979933D01*
X153940990Y-104075171D01*
X153940990Y-104456123D01*
X153417180Y-103265647D02*
X153417180Y-103075171D01*
X153464800Y-102979933D01*
X153560038Y-102884695D01*
X153750514Y-102837076D01*
X154083847Y-102837076D01*
X154274323Y-102884695D01*
X154369561Y-102979933D01*
X154417180Y-103075171D01*
X154417180Y-103265647D01*
X154369561Y-103360885D01*
X154274323Y-103456123D01*
X154083847Y-103503742D01*
X153750514Y-103503742D01*
X153560038Y-103456123D01*
X153464800Y-103360885D01*
X153417180Y-103265647D01*
X154417180Y-101837076D02*
X153940990Y-102170409D01*
X154417180Y-102408504D02*
X153417180Y-102408504D01*
X153417180Y-102027552D01*
X153464800Y-101932314D01*
X153512419Y-101884695D01*
X153607657Y-101837076D01*
X153750514Y-101837076D01*
X153845752Y-101884695D01*
X153893371Y-101932314D01*
X153940990Y-102027552D01*
X153940990Y-102408504D01*
X153417180Y-101551361D02*
X153417180Y-100979933D01*
X154417180Y-101265647D02*
X153417180Y-101265647D01*
%TO.C,R4*%
X104201933Y-125852180D02*
X103868600Y-125375990D01*
X103630504Y-125852180D02*
X103630504Y-124852180D01*
X104011457Y-124852180D01*
X104106695Y-124899800D01*
X104154314Y-124947419D01*
X104201933Y-125042657D01*
X104201933Y-125185514D01*
X104154314Y-125280752D01*
X104106695Y-125328371D01*
X104011457Y-125375990D01*
X103630504Y-125375990D01*
X105059076Y-125185514D02*
X105059076Y-125852180D01*
X104820980Y-124804561D02*
X104582885Y-125518847D01*
X105201933Y-125518847D01*
%TO.C,D1*%
X103655904Y-122118380D02*
X103655904Y-121118380D01*
X103894000Y-121118380D01*
X104036857Y-121166000D01*
X104132095Y-121261238D01*
X104179714Y-121356476D01*
X104227333Y-121546952D01*
X104227333Y-121689809D01*
X104179714Y-121880285D01*
X104132095Y-121975523D01*
X104036857Y-122070761D01*
X103894000Y-122118380D01*
X103655904Y-122118380D01*
X105179714Y-122118380D02*
X104608285Y-122118380D01*
X104894000Y-122118380D02*
X104894000Y-121118380D01*
X104798761Y-121261238D01*
X104703523Y-121356476D01*
X104608285Y-121404095D01*
%TO.C,C8*%
X134199333Y-89893142D02*
X134151714Y-89940761D01*
X134008857Y-89988380D01*
X133913619Y-89988380D01*
X133770761Y-89940761D01*
X133675523Y-89845523D01*
X133627904Y-89750285D01*
X133580285Y-89559809D01*
X133580285Y-89416952D01*
X133627904Y-89226476D01*
X133675523Y-89131238D01*
X133770761Y-89036000D01*
X133913619Y-88988380D01*
X134008857Y-88988380D01*
X134151714Y-89036000D01*
X134199333Y-89083619D01*
X134770761Y-89416952D02*
X134675523Y-89369333D01*
X134627904Y-89321714D01*
X134580285Y-89226476D01*
X134580285Y-89178857D01*
X134627904Y-89083619D01*
X134675523Y-89036000D01*
X134770761Y-88988380D01*
X134961238Y-88988380D01*
X135056476Y-89036000D01*
X135104095Y-89083619D01*
X135151714Y-89178857D01*
X135151714Y-89226476D01*
X135104095Y-89321714D01*
X135056476Y-89369333D01*
X134961238Y-89416952D01*
X134770761Y-89416952D01*
X134675523Y-89464571D01*
X134627904Y-89512190D01*
X134580285Y-89607428D01*
X134580285Y-89797904D01*
X134627904Y-89893142D01*
X134675523Y-89940761D01*
X134770761Y-89988380D01*
X134961238Y-89988380D01*
X135056476Y-89940761D01*
X135104095Y-89893142D01*
X135151714Y-89797904D01*
X135151714Y-89607428D01*
X135104095Y-89512190D01*
X135056476Y-89464571D01*
X134961238Y-89416952D01*
%TO.C,C3*%
X123150333Y-107672142D02*
X123102714Y-107719761D01*
X122959857Y-107767380D01*
X122864619Y-107767380D01*
X122721761Y-107719761D01*
X122626523Y-107624523D01*
X122578904Y-107529285D01*
X122531285Y-107338809D01*
X122531285Y-107195952D01*
X122578904Y-107005476D01*
X122626523Y-106910238D01*
X122721761Y-106815000D01*
X122864619Y-106767380D01*
X122959857Y-106767380D01*
X123102714Y-106815000D01*
X123150333Y-106862619D01*
X123483666Y-106767380D02*
X124102714Y-106767380D01*
X123769380Y-107148333D01*
X123912238Y-107148333D01*
X124007476Y-107195952D01*
X124055095Y-107243571D01*
X124102714Y-107338809D01*
X124102714Y-107576904D01*
X124055095Y-107672142D01*
X124007476Y-107719761D01*
X123912238Y-107767380D01*
X123626523Y-107767380D01*
X123531285Y-107719761D01*
X123483666Y-107672142D01*
%TO.C,P8*%
X153402380Y-99290000D02*
X154211904Y-99290000D01*
X154307142Y-99242380D01*
X154354761Y-99194761D01*
X154402380Y-99099523D01*
X154402380Y-98909047D01*
X154354761Y-98813809D01*
X154307142Y-98766190D01*
X154211904Y-98718571D01*
X153402380Y-98718571D01*
X154354761Y-98290000D02*
X154402380Y-98147142D01*
X154402380Y-97909047D01*
X154354761Y-97813809D01*
X154307142Y-97766190D01*
X154211904Y-97718571D01*
X154116666Y-97718571D01*
X154021428Y-97766190D01*
X153973809Y-97813809D01*
X153926190Y-97909047D01*
X153878571Y-98099523D01*
X153830952Y-98194761D01*
X153783333Y-98242380D01*
X153688095Y-98290000D01*
X153592857Y-98290000D01*
X153497619Y-98242380D01*
X153450000Y-98194761D01*
X153402380Y-98099523D01*
X153402380Y-97861428D01*
X153450000Y-97718571D01*
X153878571Y-96956666D02*
X153926190Y-96813809D01*
X153973809Y-96766190D01*
X154069047Y-96718571D01*
X154211904Y-96718571D01*
X154307142Y-96766190D01*
X154354761Y-96813809D01*
X154402380Y-96909047D01*
X154402380Y-97290000D01*
X153402380Y-97290000D01*
X153402380Y-96956666D01*
X153450000Y-96861428D01*
X153497619Y-96813809D01*
X153592857Y-96766190D01*
X153688095Y-96766190D01*
X153783333Y-96813809D01*
X153830952Y-96861428D01*
X153878571Y-96956666D01*
X153878571Y-97290000D01*
X154497619Y-96528095D02*
X154497619Y-95766190D01*
X154402380Y-95528095D02*
X153402380Y-95528095D01*
X153878571Y-95528095D02*
X153878571Y-94956666D01*
X154402380Y-94956666D02*
X153402380Y-94956666D01*
X153878571Y-94480476D02*
X153878571Y-94147142D01*
X154402380Y-94004285D02*
X154402380Y-94480476D01*
X153402380Y-94480476D01*
X153402380Y-94004285D01*
X154116666Y-93623333D02*
X154116666Y-93147142D01*
X154402380Y-93718571D02*
X153402380Y-93385238D01*
X154402380Y-93051904D01*
X154402380Y-92718571D02*
X153402380Y-92718571D01*
X153402380Y-92480476D01*
X153450000Y-92337619D01*
X153545238Y-92242380D01*
X153640476Y-92194761D01*
X153830952Y-92147142D01*
X153973809Y-92147142D01*
X154164285Y-92194761D01*
X154259523Y-92242380D01*
X154354761Y-92337619D01*
X154402380Y-92480476D01*
X154402380Y-92718571D01*
X153878571Y-91718571D02*
X153878571Y-91385238D01*
X154402380Y-91242380D02*
X154402380Y-91718571D01*
X153402380Y-91718571D01*
X153402380Y-91242380D01*
X154402380Y-90242380D02*
X153926190Y-90575714D01*
X154402380Y-90813809D02*
X153402380Y-90813809D01*
X153402380Y-90432857D01*
X153450000Y-90337619D01*
X153497619Y-90290000D01*
X153592857Y-90242380D01*
X153735714Y-90242380D01*
X153830952Y-90290000D01*
X153878571Y-90337619D01*
X153926190Y-90432857D01*
X153926190Y-90813809D01*
%TO.C,RN1*%
X85796380Y-106608476D02*
X85320190Y-106941809D01*
X85796380Y-107179904D02*
X84796380Y-107179904D01*
X84796380Y-106798952D01*
X84844000Y-106703714D01*
X84891619Y-106656095D01*
X84986857Y-106608476D01*
X85129714Y-106608476D01*
X85224952Y-106656095D01*
X85272571Y-106703714D01*
X85320190Y-106798952D01*
X85320190Y-107179904D01*
X85796380Y-106179904D02*
X84796380Y-106179904D01*
X85796380Y-105608476D01*
X84796380Y-105608476D01*
X85796380Y-104608476D02*
X85796380Y-105179904D01*
X85796380Y-104894190D02*
X84796380Y-104894190D01*
X84939238Y-104989428D01*
X85034476Y-105084666D01*
X85082095Y-105179904D01*
%TO.C,JP3*%
X98013576Y-105190859D02*
X98045005Y-105096573D01*
X98045005Y-104939430D01*
X98013576Y-104876573D01*
X97982148Y-104845145D01*
X97919291Y-104813716D01*
X97856434Y-104813716D01*
X97793576Y-104845145D01*
X97762148Y-104876573D01*
X97730719Y-104939430D01*
X97699291Y-105065145D01*
X97667862Y-105128002D01*
X97636434Y-105159430D01*
X97573576Y-105190859D01*
X97510719Y-105190859D01*
X97447862Y-105159430D01*
X97416434Y-105128002D01*
X97385005Y-105065145D01*
X97385005Y-104908002D01*
X97416434Y-104813716D01*
X97699291Y-104530859D02*
X97699291Y-104310859D01*
X98045005Y-104216573D02*
X98045005Y-104530859D01*
X97385005Y-104530859D01*
X97385005Y-104216573D01*
X98045005Y-103619430D02*
X98045005Y-103933716D01*
X97385005Y-103933716D01*
X97447862Y-103430859D02*
X97416434Y-103399430D01*
X97385005Y-103336573D01*
X97385005Y-103179430D01*
X97416434Y-103116573D01*
X97447862Y-103085145D01*
X97510719Y-103053716D01*
X97573576Y-103053716D01*
X97667862Y-103085145D01*
X98045005Y-103462288D01*
X98045005Y-103053716D01*
%TO.C,R10*%
X138181742Y-100032180D02*
X137848409Y-99555990D01*
X137610314Y-100032180D02*
X137610314Y-99032180D01*
X137991266Y-99032180D01*
X138086504Y-99079800D01*
X138134123Y-99127419D01*
X138181742Y-99222657D01*
X138181742Y-99365514D01*
X138134123Y-99460752D01*
X138086504Y-99508371D01*
X137991266Y-99555990D01*
X137610314Y-99555990D01*
X139134123Y-100032180D02*
X138562695Y-100032180D01*
X138848409Y-100032180D02*
X138848409Y-99032180D01*
X138753171Y-99175038D01*
X138657933Y-99270276D01*
X138562695Y-99317895D01*
X139753171Y-99032180D02*
X139848409Y-99032180D01*
X139943647Y-99079800D01*
X139991266Y-99127419D01*
X140038885Y-99222657D01*
X140086504Y-99413133D01*
X140086504Y-99651228D01*
X140038885Y-99841704D01*
X139991266Y-99936942D01*
X139943647Y-99984561D01*
X139848409Y-100032180D01*
X139753171Y-100032180D01*
X139657933Y-99984561D01*
X139610314Y-99936942D01*
X139562695Y-99841704D01*
X139515076Y-99651228D01*
X139515076Y-99413133D01*
X139562695Y-99222657D01*
X139610314Y-99127419D01*
X139657933Y-99079800D01*
X139753171Y-99032180D01*
%TO.C,J3*%
X153909523Y-136468380D02*
X153576190Y-135992190D01*
X153338095Y-136468380D02*
X153338095Y-135468380D01*
X153719047Y-135468380D01*
X153814285Y-135516000D01*
X153861904Y-135563619D01*
X153909523Y-135658857D01*
X153909523Y-135801714D01*
X153861904Y-135896952D01*
X153814285Y-135944571D01*
X153719047Y-135992190D01*
X153338095Y-135992190D01*
%TO.C,R13*%
X138130142Y-107007580D02*
X137796809Y-106531390D01*
X137558714Y-107007580D02*
X137558714Y-106007580D01*
X137939666Y-106007580D01*
X138034904Y-106055200D01*
X138082523Y-106102819D01*
X138130142Y-106198057D01*
X138130142Y-106340914D01*
X138082523Y-106436152D01*
X138034904Y-106483771D01*
X137939666Y-106531390D01*
X137558714Y-106531390D01*
X139082523Y-107007580D02*
X138511095Y-107007580D01*
X138796809Y-107007580D02*
X138796809Y-106007580D01*
X138701571Y-106150438D01*
X138606333Y-106245676D01*
X138511095Y-106293295D01*
X139415857Y-106007580D02*
X140034904Y-106007580D01*
X139701571Y-106388533D01*
X139844428Y-106388533D01*
X139939666Y-106436152D01*
X139987285Y-106483771D01*
X140034904Y-106579009D01*
X140034904Y-106817104D01*
X139987285Y-106912342D01*
X139939666Y-106959961D01*
X139844428Y-107007580D01*
X139558714Y-107007580D01*
X139463476Y-106959961D01*
X139415857Y-106912342D01*
%TO.C,Q6*%
X93656161Y-84799419D02*
X93560923Y-84751800D01*
X93465685Y-84656561D01*
X93322828Y-84513704D01*
X93227590Y-84466085D01*
X93132352Y-84466085D01*
X93179971Y-84704180D02*
X93084733Y-84656561D01*
X92989495Y-84561323D01*
X92941876Y-84370847D01*
X92941876Y-84037514D01*
X92989495Y-83847038D01*
X93084733Y-83751800D01*
X93179971Y-83704180D01*
X93370447Y-83704180D01*
X93465685Y-83751800D01*
X93560923Y-83847038D01*
X93608542Y-84037514D01*
X93608542Y-84370847D01*
X93560923Y-84561323D01*
X93465685Y-84656561D01*
X93370447Y-84704180D01*
X93179971Y-84704180D01*
X94465685Y-83704180D02*
X94275209Y-83704180D01*
X94179971Y-83751800D01*
X94132352Y-83799419D01*
X94037114Y-83942276D01*
X93989495Y-84132752D01*
X93989495Y-84513704D01*
X94037114Y-84608942D01*
X94084733Y-84656561D01*
X94179971Y-84704180D01*
X94370447Y-84704180D01*
X94465685Y-84656561D01*
X94513304Y-84608942D01*
X94560923Y-84513704D01*
X94560923Y-84275609D01*
X94513304Y-84180371D01*
X94465685Y-84132752D01*
X94370447Y-84085133D01*
X94179971Y-84085133D01*
X94084733Y-84132752D01*
X94037114Y-84180371D01*
X93989495Y-84275609D01*
%TO.C,Q5*%
X94214961Y-122772419D02*
X94119723Y-122724800D01*
X94024485Y-122629561D01*
X93881628Y-122486704D01*
X93786390Y-122439085D01*
X93691152Y-122439085D01*
X93738771Y-122677180D02*
X93643533Y-122629561D01*
X93548295Y-122534323D01*
X93500676Y-122343847D01*
X93500676Y-122010514D01*
X93548295Y-121820038D01*
X93643533Y-121724800D01*
X93738771Y-121677180D01*
X93929247Y-121677180D01*
X94024485Y-121724800D01*
X94119723Y-121820038D01*
X94167342Y-122010514D01*
X94167342Y-122343847D01*
X94119723Y-122534323D01*
X94024485Y-122629561D01*
X93929247Y-122677180D01*
X93738771Y-122677180D01*
X95072104Y-121677180D02*
X94595914Y-121677180D01*
X94548295Y-122153371D01*
X94595914Y-122105752D01*
X94691152Y-122058133D01*
X94929247Y-122058133D01*
X95024485Y-122105752D01*
X95072104Y-122153371D01*
X95119723Y-122248609D01*
X95119723Y-122486704D01*
X95072104Y-122581942D01*
X95024485Y-122629561D01*
X94929247Y-122677180D01*
X94691152Y-122677180D01*
X94595914Y-122629561D01*
X94548295Y-122581942D01*
%TO.C,JP2*%
X98006342Y-101398571D02*
X98037771Y-101304285D01*
X98037771Y-101147142D01*
X98006342Y-101084285D01*
X97974914Y-101052857D01*
X97912057Y-101021428D01*
X97849200Y-101021428D01*
X97786342Y-101052857D01*
X97754914Y-101084285D01*
X97723485Y-101147142D01*
X97692057Y-101272857D01*
X97660628Y-101335714D01*
X97629200Y-101367142D01*
X97566342Y-101398571D01*
X97503485Y-101398571D01*
X97440628Y-101367142D01*
X97409200Y-101335714D01*
X97377771Y-101272857D01*
X97377771Y-101115714D01*
X97409200Y-101021428D01*
X97692057Y-100738571D02*
X97692057Y-100518571D01*
X98037771Y-100424285D02*
X98037771Y-100738571D01*
X97377771Y-100738571D01*
X97377771Y-100424285D01*
X98037771Y-99827142D02*
X98037771Y-100141428D01*
X97377771Y-100141428D01*
X98037771Y-99261428D02*
X98037771Y-99638571D01*
X98037771Y-99450000D02*
X97377771Y-99450000D01*
X97472057Y-99512857D01*
X97534914Y-99575714D01*
X97566342Y-99638571D01*
%TO.C,U4*%
X115316095Y-132112381D02*
X115316095Y-132921905D01*
X115363714Y-133017143D01*
X115411333Y-133064762D01*
X115506571Y-133112381D01*
X115697047Y-133112381D01*
X115792285Y-133064762D01*
X115839904Y-133017143D01*
X115887523Y-132921905D01*
X115887523Y-132112381D01*
X116792285Y-132445715D02*
X116792285Y-133112381D01*
X116554190Y-132064762D02*
X116316095Y-132779048D01*
X116935142Y-132779048D01*
%TO.C,U3*%
X123494895Y-88758780D02*
X123494895Y-89568304D01*
X123542514Y-89663542D01*
X123590133Y-89711161D01*
X123685371Y-89758780D01*
X123875847Y-89758780D01*
X123971085Y-89711161D01*
X124018704Y-89663542D01*
X124066323Y-89568304D01*
X124066323Y-88758780D01*
X124447276Y-88758780D02*
X125066323Y-88758780D01*
X124732990Y-89139733D01*
X124875847Y-89139733D01*
X124971085Y-89187352D01*
X125018704Y-89234971D01*
X125066323Y-89330209D01*
X125066323Y-89568304D01*
X125018704Y-89663542D01*
X124971085Y-89711161D01*
X124875847Y-89758780D01*
X124590133Y-89758780D01*
X124494895Y-89711161D01*
X124447276Y-89663542D01*
%TO.C,Q3*%
X94138761Y-117921019D02*
X94043523Y-117873400D01*
X93948285Y-117778161D01*
X93805428Y-117635304D01*
X93710190Y-117587685D01*
X93614952Y-117587685D01*
X93662571Y-117825780D02*
X93567333Y-117778161D01*
X93472095Y-117682923D01*
X93424476Y-117492447D01*
X93424476Y-117159114D01*
X93472095Y-116968638D01*
X93567333Y-116873400D01*
X93662571Y-116825780D01*
X93853047Y-116825780D01*
X93948285Y-116873400D01*
X94043523Y-116968638D01*
X94091142Y-117159114D01*
X94091142Y-117492447D01*
X94043523Y-117682923D01*
X93948285Y-117778161D01*
X93853047Y-117825780D01*
X93662571Y-117825780D01*
X94424476Y-116825780D02*
X95043523Y-116825780D01*
X94710190Y-117206733D01*
X94853047Y-117206733D01*
X94948285Y-117254352D01*
X94995904Y-117301971D01*
X95043523Y-117397209D01*
X95043523Y-117635304D01*
X94995904Y-117730542D01*
X94948285Y-117778161D01*
X94853047Y-117825780D01*
X94567333Y-117825780D01*
X94472095Y-117778161D01*
X94424476Y-117730542D01*
%TO.C,J1*%
X151152380Y-88465714D02*
X151961904Y-88465714D01*
X152057142Y-88418095D01*
X152104761Y-88370476D01*
X152152380Y-88275238D01*
X152152380Y-88084761D01*
X152104761Y-87989523D01*
X152057142Y-87941904D01*
X151961904Y-87894285D01*
X151152380Y-87894285D01*
X152152380Y-87418095D02*
X151152380Y-87418095D01*
X151152380Y-87037142D01*
X151200000Y-86941904D01*
X151247619Y-86894285D01*
X151342857Y-86846666D01*
X151485714Y-86846666D01*
X151580952Y-86894285D01*
X151628571Y-86941904D01*
X151676190Y-87037142D01*
X151676190Y-87418095D01*
%TO.C,R12*%
X145460980Y-127134857D02*
X144984790Y-127468190D01*
X145460980Y-127706285D02*
X144460980Y-127706285D01*
X144460980Y-127325333D01*
X144508600Y-127230095D01*
X144556219Y-127182476D01*
X144651457Y-127134857D01*
X144794314Y-127134857D01*
X144889552Y-127182476D01*
X144937171Y-127230095D01*
X144984790Y-127325333D01*
X144984790Y-127706285D01*
X145460980Y-126182476D02*
X145460980Y-126753904D01*
X145460980Y-126468190D02*
X144460980Y-126468190D01*
X144603838Y-126563428D01*
X144699076Y-126658666D01*
X144746695Y-126753904D01*
X144556219Y-125801523D02*
X144508600Y-125753904D01*
X144460980Y-125658666D01*
X144460980Y-125420571D01*
X144508600Y-125325333D01*
X144556219Y-125277714D01*
X144651457Y-125230095D01*
X144746695Y-125230095D01*
X144889552Y-125277714D01*
X145460980Y-125849142D01*
X145460980Y-125230095D01*
%TO.C,JC1*%
X118366666Y-79507380D02*
X118366666Y-80221666D01*
X118319047Y-80364523D01*
X118223809Y-80459761D01*
X118080952Y-80507380D01*
X117985714Y-80507380D01*
X119414285Y-80412142D02*
X119366666Y-80459761D01*
X119223809Y-80507380D01*
X119128571Y-80507380D01*
X118985714Y-80459761D01*
X118890476Y-80364523D01*
X118842857Y-80269285D01*
X118795238Y-80078809D01*
X118795238Y-79935952D01*
X118842857Y-79745476D01*
X118890476Y-79650238D01*
X118985714Y-79555000D01*
X119128571Y-79507380D01*
X119223809Y-79507380D01*
X119366666Y-79555000D01*
X119414285Y-79602619D01*
X120366666Y-80507380D02*
X119795238Y-80507380D01*
X120080952Y-80507380D02*
X120080952Y-79507380D01*
X119985714Y-79650238D01*
X119890476Y-79745476D01*
X119795238Y-79793095D01*
%TO.C,C11*%
X146989522Y-107637142D02*
X146941903Y-107684761D01*
X146799046Y-107732380D01*
X146703808Y-107732380D01*
X146560951Y-107684761D01*
X146465713Y-107589523D01*
X146418094Y-107494285D01*
X146370475Y-107303809D01*
X146370475Y-107160952D01*
X146418094Y-106970476D01*
X146465713Y-106875238D01*
X146560951Y-106780000D01*
X146703808Y-106732380D01*
X146799046Y-106732380D01*
X146941903Y-106780000D01*
X146989522Y-106827619D01*
X147941903Y-107732380D02*
X147370475Y-107732380D01*
X147656189Y-107732380D02*
X147656189Y-106732380D01*
X147560951Y-106875238D01*
X147465713Y-106970476D01*
X147370475Y-107018095D01*
X148894284Y-107732380D02*
X148322856Y-107732380D01*
X148608570Y-107732380D02*
X148608570Y-106732380D01*
X148513332Y-106875238D01*
X148418094Y-106970476D01*
X148322856Y-107018095D01*
%TO.C,D2*%
X145613380Y-132716495D02*
X144613380Y-132716495D01*
X144613380Y-132478400D01*
X144661000Y-132335542D01*
X144756238Y-132240304D01*
X144851476Y-132192685D01*
X145041952Y-132145066D01*
X145184809Y-132145066D01*
X145375285Y-132192685D01*
X145470523Y-132240304D01*
X145565761Y-132335542D01*
X145613380Y-132478400D01*
X145613380Y-132716495D01*
X144708619Y-131764114D02*
X144661000Y-131716495D01*
X144613380Y-131621257D01*
X144613380Y-131383161D01*
X144661000Y-131287923D01*
X144708619Y-131240304D01*
X144803857Y-131192685D01*
X144899095Y-131192685D01*
X145041952Y-131240304D01*
X145613380Y-131811733D01*
X145613380Y-131192685D01*
%TO.C,C20*%
X103757142Y-107437142D02*
X103709523Y-107484761D01*
X103566666Y-107532380D01*
X103471428Y-107532380D01*
X103328571Y-107484761D01*
X103233333Y-107389523D01*
X103185714Y-107294285D01*
X103138095Y-107103809D01*
X103138095Y-106960952D01*
X103185714Y-106770476D01*
X103233333Y-106675238D01*
X103328571Y-106580000D01*
X103471428Y-106532380D01*
X103566666Y-106532380D01*
X103709523Y-106580000D01*
X103757142Y-106627619D01*
X104138095Y-106627619D02*
X104185714Y-106580000D01*
X104280952Y-106532380D01*
X104519047Y-106532380D01*
X104614285Y-106580000D01*
X104661904Y-106627619D01*
X104709523Y-106722857D01*
X104709523Y-106818095D01*
X104661904Y-106960952D01*
X104090476Y-107532380D01*
X104709523Y-107532380D01*
X105328571Y-106532380D02*
X105423809Y-106532380D01*
X105519047Y-106580000D01*
X105566666Y-106627619D01*
X105614285Y-106722857D01*
X105661904Y-106913333D01*
X105661904Y-107151428D01*
X105614285Y-107341904D01*
X105566666Y-107437142D01*
X105519047Y-107484761D01*
X105423809Y-107532380D01*
X105328571Y-107532380D01*
X105233333Y-107484761D01*
X105185714Y-107437142D01*
X105138095Y-107341904D01*
X105090476Y-107151428D01*
X105090476Y-106913333D01*
X105138095Y-106722857D01*
X105185714Y-106627619D01*
X105233333Y-106580000D01*
X105328571Y-106532380D01*
%TO.C,J2*%
X152152380Y-85765714D02*
X151152380Y-85765714D01*
X151152380Y-85527619D01*
X151200000Y-85384761D01*
X151295238Y-85289523D01*
X151390476Y-85241904D01*
X151580952Y-85194285D01*
X151723809Y-85194285D01*
X151914285Y-85241904D01*
X152009523Y-85289523D01*
X152104761Y-85384761D01*
X152152380Y-85527619D01*
X152152380Y-85765714D01*
X152152380Y-84765714D02*
X151152380Y-84765714D01*
X152152380Y-84194285D01*
X151152380Y-84194285D01*
%TO.C,C1*%
X99335142Y-137513047D02*
X99382761Y-137560666D01*
X99430380Y-137703523D01*
X99430380Y-137798761D01*
X99382761Y-137941619D01*
X99287523Y-138036857D01*
X99192285Y-138084476D01*
X99001809Y-138132095D01*
X98858952Y-138132095D01*
X98668476Y-138084476D01*
X98573238Y-138036857D01*
X98478000Y-137941619D01*
X98430380Y-137798761D01*
X98430380Y-137703523D01*
X98478000Y-137560666D01*
X98525619Y-137513047D01*
X99430380Y-136560666D02*
X99430380Y-137132095D01*
X99430380Y-136846381D02*
X98430380Y-136846381D01*
X98573238Y-136941619D01*
X98668476Y-137036857D01*
X98716095Y-137132095D01*
%TO.C,R8*%
X151052380Y-97321666D02*
X150576190Y-97655000D01*
X151052380Y-97893095D02*
X150052380Y-97893095D01*
X150052380Y-97512142D01*
X150100000Y-97416904D01*
X150147619Y-97369285D01*
X150242857Y-97321666D01*
X150385714Y-97321666D01*
X150480952Y-97369285D01*
X150528571Y-97416904D01*
X150576190Y-97512142D01*
X150576190Y-97893095D01*
X150480952Y-96750238D02*
X150433333Y-96845476D01*
X150385714Y-96893095D01*
X150290476Y-96940714D01*
X150242857Y-96940714D01*
X150147619Y-96893095D01*
X150100000Y-96845476D01*
X150052380Y-96750238D01*
X150052380Y-96559761D01*
X150100000Y-96464523D01*
X150147619Y-96416904D01*
X150242857Y-96369285D01*
X150290476Y-96369285D01*
X150385714Y-96416904D01*
X150433333Y-96464523D01*
X150480952Y-96559761D01*
X150480952Y-96750238D01*
X150528571Y-96845476D01*
X150576190Y-96893095D01*
X150671428Y-96940714D01*
X150861904Y-96940714D01*
X150957142Y-96893095D01*
X151004761Y-96845476D01*
X151052380Y-96750238D01*
X151052380Y-96559761D01*
X151004761Y-96464523D01*
X150957142Y-96416904D01*
X150861904Y-96369285D01*
X150671428Y-96369285D01*
X150576190Y-96416904D01*
X150528571Y-96464523D01*
X150480952Y-96559761D01*
%TO.C,R21*%
X155051380Y-127247457D02*
X154575190Y-127580790D01*
X155051380Y-127818885D02*
X154051380Y-127818885D01*
X154051380Y-127437933D01*
X154099000Y-127342695D01*
X154146619Y-127295076D01*
X154241857Y-127247457D01*
X154384714Y-127247457D01*
X154479952Y-127295076D01*
X154527571Y-127342695D01*
X154575190Y-127437933D01*
X154575190Y-127818885D01*
X154146619Y-126866504D02*
X154099000Y-126818885D01*
X154051380Y-126723647D01*
X154051380Y-126485552D01*
X154099000Y-126390314D01*
X154146619Y-126342695D01*
X154241857Y-126295076D01*
X154337095Y-126295076D01*
X154479952Y-126342695D01*
X155051380Y-126914123D01*
X155051380Y-126295076D01*
X155051380Y-125342695D02*
X155051380Y-125914123D01*
X155051380Y-125628409D02*
X154051380Y-125628409D01*
X154194238Y-125723647D01*
X154289476Y-125818885D01*
X154337095Y-125914123D01*
%TO.C,P9*%
X151303961Y-137911314D02*
X151351580Y-137768457D01*
X151351580Y-137530361D01*
X151303961Y-137435123D01*
X151256342Y-137387504D01*
X151161104Y-137339885D01*
X151065866Y-137339885D01*
X150970628Y-137387504D01*
X150923009Y-137435123D01*
X150875390Y-137530361D01*
X150827771Y-137720838D01*
X150780152Y-137816076D01*
X150732533Y-137863695D01*
X150637295Y-137911314D01*
X150542057Y-137911314D01*
X150446819Y-137863695D01*
X150399200Y-137816076D01*
X150351580Y-137720838D01*
X150351580Y-137482742D01*
X150399200Y-137339885D01*
X151351580Y-136911314D02*
X150351580Y-136911314D01*
X150351580Y-136530361D01*
X150399200Y-136435123D01*
X150446819Y-136387504D01*
X150542057Y-136339885D01*
X150684914Y-136339885D01*
X150780152Y-136387504D01*
X150827771Y-136435123D01*
X150875390Y-136530361D01*
X150875390Y-136911314D01*
X151351580Y-135911314D02*
X150351580Y-135911314D01*
X151351580Y-135339885D02*
X150780152Y-135768457D01*
X150351580Y-135339885D02*
X150923009Y-135911314D01*
%TO.C,C17*%
X135022142Y-117071057D02*
X135069761Y-117118676D01*
X135117380Y-117261533D01*
X135117380Y-117356771D01*
X135069761Y-117499628D01*
X134974523Y-117594866D01*
X134879285Y-117642485D01*
X134688809Y-117690104D01*
X134545952Y-117690104D01*
X134355476Y-117642485D01*
X134260238Y-117594866D01*
X134165000Y-117499628D01*
X134117380Y-117356771D01*
X134117380Y-117261533D01*
X134165000Y-117118676D01*
X134212619Y-117071057D01*
X135117380Y-116118676D02*
X135117380Y-116690104D01*
X135117380Y-116404390D02*
X134117380Y-116404390D01*
X134260238Y-116499628D01*
X134355476Y-116594866D01*
X134403095Y-116690104D01*
X134117380Y-115785342D02*
X134117380Y-115118676D01*
X135117380Y-115547247D01*
D10*
%TO.C,JP4*%
X98037771Y-108449414D02*
X97377771Y-108449414D01*
X97849200Y-108229414D01*
X97377771Y-108009414D01*
X98037771Y-108009414D01*
X97377771Y-107569414D02*
X97377771Y-107443700D01*
X97409200Y-107380842D01*
X97472057Y-107317985D01*
X97597771Y-107286557D01*
X97817771Y-107286557D01*
X97943485Y-107317985D01*
X98006342Y-107380842D01*
X98037771Y-107443700D01*
X98037771Y-107569414D01*
X98006342Y-107632271D01*
X97943485Y-107695128D01*
X97817771Y-107726557D01*
X97597771Y-107726557D01*
X97472057Y-107695128D01*
X97409200Y-107632271D01*
X97377771Y-107569414D01*
D11*
%TO.C,Q1*%
X93630761Y-89650819D02*
X93535523Y-89603200D01*
X93440285Y-89507961D01*
X93297428Y-89365104D01*
X93202190Y-89317485D01*
X93106952Y-89317485D01*
X93154571Y-89555580D02*
X93059333Y-89507961D01*
X92964095Y-89412723D01*
X92916476Y-89222247D01*
X92916476Y-88888914D01*
X92964095Y-88698438D01*
X93059333Y-88603200D01*
X93154571Y-88555580D01*
X93345047Y-88555580D01*
X93440285Y-88603200D01*
X93535523Y-88698438D01*
X93583142Y-88888914D01*
X93583142Y-89222247D01*
X93535523Y-89412723D01*
X93440285Y-89507961D01*
X93345047Y-89555580D01*
X93154571Y-89555580D01*
X94535523Y-89555580D02*
X93964095Y-89555580D01*
X94249809Y-89555580D02*
X94249809Y-88555580D01*
X94154571Y-88698438D01*
X94059333Y-88793676D01*
X93964095Y-88841295D01*
%TO.C,C23*%
X108057742Y-138022857D02*
X108105361Y-138070476D01*
X108152980Y-138213333D01*
X108152980Y-138308571D01*
X108105361Y-138451428D01*
X108010123Y-138546666D01*
X107914885Y-138594285D01*
X107724409Y-138641904D01*
X107581552Y-138641904D01*
X107391076Y-138594285D01*
X107295838Y-138546666D01*
X107200600Y-138451428D01*
X107152980Y-138308571D01*
X107152980Y-138213333D01*
X107200600Y-138070476D01*
X107248219Y-138022857D01*
X107248219Y-137641904D02*
X107200600Y-137594285D01*
X107152980Y-137499047D01*
X107152980Y-137260952D01*
X107200600Y-137165714D01*
X107248219Y-137118095D01*
X107343457Y-137070476D01*
X107438695Y-137070476D01*
X107581552Y-137118095D01*
X108152980Y-137689523D01*
X108152980Y-137070476D01*
X107152980Y-136737142D02*
X107152980Y-136118095D01*
X107533933Y-136451428D01*
X107533933Y-136308571D01*
X107581552Y-136213333D01*
X107629171Y-136165714D01*
X107724409Y-136118095D01*
X107962504Y-136118095D01*
X108057742Y-136165714D01*
X108105361Y-136213333D01*
X108152980Y-136308571D01*
X108152980Y-136594285D01*
X108105361Y-136689523D01*
X108057742Y-136737142D01*
%TO.C,Q4*%
X94164161Y-127852419D02*
X94068923Y-127804800D01*
X93973685Y-127709561D01*
X93830828Y-127566704D01*
X93735590Y-127519085D01*
X93640352Y-127519085D01*
X93687971Y-127757180D02*
X93592733Y-127709561D01*
X93497495Y-127614323D01*
X93449876Y-127423847D01*
X93449876Y-127090514D01*
X93497495Y-126900038D01*
X93592733Y-126804800D01*
X93687971Y-126757180D01*
X93878447Y-126757180D01*
X93973685Y-126804800D01*
X94068923Y-126900038D01*
X94116542Y-127090514D01*
X94116542Y-127423847D01*
X94068923Y-127614323D01*
X93973685Y-127709561D01*
X93878447Y-127757180D01*
X93687971Y-127757180D01*
X94973685Y-127090514D02*
X94973685Y-127757180D01*
X94735590Y-126709561D02*
X94497495Y-127423847D01*
X95116542Y-127423847D01*
%TO.C,C9*%
X114533333Y-107737142D02*
X114485714Y-107784761D01*
X114342857Y-107832380D01*
X114247619Y-107832380D01*
X114104761Y-107784761D01*
X114009523Y-107689523D01*
X113961904Y-107594285D01*
X113914285Y-107403809D01*
X113914285Y-107260952D01*
X113961904Y-107070476D01*
X114009523Y-106975238D01*
X114104761Y-106880000D01*
X114247619Y-106832380D01*
X114342857Y-106832380D01*
X114485714Y-106880000D01*
X114533333Y-106927619D01*
X115009523Y-107832380D02*
X115200000Y-107832380D01*
X115295238Y-107784761D01*
X115342857Y-107737142D01*
X115438095Y-107594285D01*
X115485714Y-107403809D01*
X115485714Y-107022857D01*
X115438095Y-106927619D01*
X115390476Y-106880000D01*
X115295238Y-106832380D01*
X115104761Y-106832380D01*
X115009523Y-106880000D01*
X114961904Y-106927619D01*
X114914285Y-107022857D01*
X114914285Y-107260952D01*
X114961904Y-107356190D01*
X115009523Y-107403809D01*
X115104761Y-107451428D01*
X115295238Y-107451428D01*
X115390476Y-107403809D01*
X115438095Y-107356190D01*
X115485714Y-107260952D01*
%TO.C,C19*%
X135047542Y-124868857D02*
X135095161Y-124916476D01*
X135142780Y-125059333D01*
X135142780Y-125154571D01*
X135095161Y-125297428D01*
X134999923Y-125392666D01*
X134904685Y-125440285D01*
X134714209Y-125487904D01*
X134571352Y-125487904D01*
X134380876Y-125440285D01*
X134285638Y-125392666D01*
X134190400Y-125297428D01*
X134142780Y-125154571D01*
X134142780Y-125059333D01*
X134190400Y-124916476D01*
X134238019Y-124868857D01*
X135142780Y-123916476D02*
X135142780Y-124487904D01*
X135142780Y-124202190D02*
X134142780Y-124202190D01*
X134285638Y-124297428D01*
X134380876Y-124392666D01*
X134428495Y-124487904D01*
X135142780Y-123440285D02*
X135142780Y-123249809D01*
X135095161Y-123154571D01*
X135047542Y-123106952D01*
X134904685Y-123011714D01*
X134714209Y-122964095D01*
X134333257Y-122964095D01*
X134238019Y-123011714D01*
X134190400Y-123059333D01*
X134142780Y-123154571D01*
X134142780Y-123345047D01*
X134190400Y-123440285D01*
X134238019Y-123487904D01*
X134333257Y-123535523D01*
X134571352Y-123535523D01*
X134666590Y-123487904D01*
X134714209Y-123440285D01*
X134761828Y-123345047D01*
X134761828Y-123154571D01*
X134714209Y-123059333D01*
X134666590Y-123011714D01*
X134571352Y-122964095D01*
%TO.C,C2*%
X133789142Y-137394287D02*
X133836761Y-137441906D01*
X133884380Y-137584763D01*
X133884380Y-137680001D01*
X133836761Y-137822859D01*
X133741523Y-137918097D01*
X133646285Y-137965716D01*
X133455809Y-138013335D01*
X133312952Y-138013335D01*
X133122476Y-137965716D01*
X133027238Y-137918097D01*
X132932000Y-137822859D01*
X132884380Y-137680001D01*
X132884380Y-137584763D01*
X132932000Y-137441906D01*
X132979619Y-137394287D01*
X132979619Y-137013335D02*
X132932000Y-136965716D01*
X132884380Y-136870478D01*
X132884380Y-136632382D01*
X132932000Y-136537144D01*
X132979619Y-136489525D01*
X133074857Y-136441906D01*
X133170095Y-136441906D01*
X133312952Y-136489525D01*
X133884380Y-137060954D01*
X133884380Y-136441906D01*
%TO.C,R1*%
X103964333Y-91512380D02*
X103631000Y-91036190D01*
X103392904Y-91512380D02*
X103392904Y-90512380D01*
X103773857Y-90512380D01*
X103869095Y-90560000D01*
X103916714Y-90607619D01*
X103964333Y-90702857D01*
X103964333Y-90845714D01*
X103916714Y-90940952D01*
X103869095Y-90988571D01*
X103773857Y-91036190D01*
X103392904Y-91036190D01*
X104916714Y-91512380D02*
X104345285Y-91512380D01*
X104631000Y-91512380D02*
X104631000Y-90512380D01*
X104535761Y-90655238D01*
X104440523Y-90750476D01*
X104345285Y-90798095D01*
%TO.C,P4*%
X145643180Y-119203028D02*
X144643180Y-119203028D01*
X144643180Y-118822076D01*
X144690800Y-118726838D01*
X144738419Y-118679219D01*
X144833657Y-118631600D01*
X144976514Y-118631600D01*
X145071752Y-118679219D01*
X145119371Y-118726838D01*
X145166990Y-118822076D01*
X145166990Y-119203028D01*
X145643180Y-117631600D02*
X145166990Y-117964933D01*
X145643180Y-118203028D02*
X144643180Y-118203028D01*
X144643180Y-117822076D01*
X144690800Y-117726838D01*
X144738419Y-117679219D01*
X144833657Y-117631600D01*
X144976514Y-117631600D01*
X145071752Y-117679219D01*
X145119371Y-117726838D01*
X145166990Y-117822076D01*
X145166990Y-118203028D01*
X144643180Y-117012552D02*
X144643180Y-116822076D01*
X144690800Y-116726838D01*
X144786038Y-116631600D01*
X144976514Y-116583980D01*
X145309847Y-116583980D01*
X145500323Y-116631600D01*
X145595561Y-116726838D01*
X145643180Y-116822076D01*
X145643180Y-117012552D01*
X145595561Y-117107790D01*
X145500323Y-117203028D01*
X145309847Y-117250647D01*
X144976514Y-117250647D01*
X144786038Y-117203028D01*
X144690800Y-117107790D01*
X144643180Y-117012552D01*
X144690800Y-115631600D02*
X144643180Y-115726838D01*
X144643180Y-115869695D01*
X144690800Y-116012552D01*
X144786038Y-116107790D01*
X144881276Y-116155409D01*
X145071752Y-116203028D01*
X145214609Y-116203028D01*
X145405085Y-116155409D01*
X145500323Y-116107790D01*
X145595561Y-116012552D01*
X145643180Y-115869695D01*
X145643180Y-115774457D01*
X145595561Y-115631600D01*
X145547942Y-115583980D01*
X145214609Y-115583980D01*
X145214609Y-115774457D01*
X145738419Y-115393504D02*
X145738419Y-114631600D01*
X145643180Y-114393504D02*
X144643180Y-114393504D01*
X144643180Y-114012552D01*
X144690800Y-113917314D01*
X144738419Y-113869695D01*
X144833657Y-113822076D01*
X144976514Y-113822076D01*
X145071752Y-113869695D01*
X145119371Y-113917314D01*
X145166990Y-114012552D01*
X145166990Y-114393504D01*
X144643180Y-113203028D02*
X144643180Y-113012552D01*
X144690800Y-112917314D01*
X144786038Y-112822076D01*
X144976514Y-112774457D01*
X145309847Y-112774457D01*
X145500323Y-112822076D01*
X145595561Y-112917314D01*
X145643180Y-113012552D01*
X145643180Y-113203028D01*
X145595561Y-113298266D01*
X145500323Y-113393504D01*
X145309847Y-113441123D01*
X144976514Y-113441123D01*
X144786038Y-113393504D01*
X144690800Y-113298266D01*
X144643180Y-113203028D01*
X145643180Y-111774457D02*
X145166990Y-112107790D01*
X145643180Y-112345885D02*
X144643180Y-112345885D01*
X144643180Y-111964933D01*
X144690800Y-111869695D01*
X144738419Y-111822076D01*
X144833657Y-111774457D01*
X144976514Y-111774457D01*
X145071752Y-111822076D01*
X145119371Y-111869695D01*
X145166990Y-111964933D01*
X145166990Y-112345885D01*
X144643180Y-111488742D02*
X144643180Y-110917314D01*
X145643180Y-111203028D02*
X144643180Y-111203028D01*
%TO.C,R3*%
X104218333Y-115388380D02*
X103885000Y-114912190D01*
X103646904Y-115388380D02*
X103646904Y-114388380D01*
X104027857Y-114388380D01*
X104123095Y-114436000D01*
X104170714Y-114483619D01*
X104218333Y-114578857D01*
X104218333Y-114721714D01*
X104170714Y-114816952D01*
X104123095Y-114864571D01*
X104027857Y-114912190D01*
X103646904Y-114912190D01*
X104551666Y-114388380D02*
X105170714Y-114388380D01*
X104837380Y-114769333D01*
X104980238Y-114769333D01*
X105075476Y-114816952D01*
X105123095Y-114864571D01*
X105170714Y-114959809D01*
X105170714Y-115197904D01*
X105123095Y-115293142D01*
X105075476Y-115340761D01*
X104980238Y-115388380D01*
X104694523Y-115388380D01*
X104599285Y-115340761D01*
X104551666Y-115293142D01*
%TO.C,P6*%
X153994971Y-123080000D02*
X153994971Y-122746666D01*
X154518780Y-122603809D02*
X154518780Y-123080000D01*
X153518780Y-123080000D01*
X153518780Y-122603809D01*
X154518780Y-122175238D02*
X153518780Y-122175238D01*
X154518780Y-121603809D01*
X153518780Y-121603809D01*
X154423542Y-120556190D02*
X154471161Y-120603809D01*
X154518780Y-120746666D01*
X154518780Y-120841904D01*
X154471161Y-120984761D01*
X154375923Y-121080000D01*
X154280685Y-121127619D01*
X154090209Y-121175238D01*
X153947352Y-121175238D01*
X153756876Y-121127619D01*
X153661638Y-121080000D01*
X153566400Y-120984761D01*
X153518780Y-120841904D01*
X153518780Y-120746666D01*
X153566400Y-120603809D01*
X153614019Y-120556190D01*
X153518780Y-119937142D02*
X153518780Y-119746666D01*
X153566400Y-119651428D01*
X153661638Y-119556190D01*
X153852114Y-119508571D01*
X154185447Y-119508571D01*
X154375923Y-119556190D01*
X154471161Y-119651428D01*
X154518780Y-119746666D01*
X154518780Y-119937142D01*
X154471161Y-120032380D01*
X154375923Y-120127619D01*
X154185447Y-120175238D01*
X153852114Y-120175238D01*
X153661638Y-120127619D01*
X153566400Y-120032380D01*
X153518780Y-119937142D01*
X154518780Y-119080000D02*
X153518780Y-119080000D01*
X153518780Y-118841904D01*
X153566400Y-118699047D01*
X153661638Y-118603809D01*
X153756876Y-118556190D01*
X153947352Y-118508571D01*
X154090209Y-118508571D01*
X154280685Y-118556190D01*
X154375923Y-118603809D01*
X154471161Y-118699047D01*
X154518780Y-118841904D01*
X154518780Y-119080000D01*
X153994971Y-118080000D02*
X153994971Y-117746666D01*
X154518780Y-117603809D02*
X154518780Y-118080000D01*
X153518780Y-118080000D01*
X153518780Y-117603809D01*
X154518780Y-116603809D02*
X154042590Y-116937142D01*
X154518780Y-117175238D02*
X153518780Y-117175238D01*
X153518780Y-116794285D01*
X153566400Y-116699047D01*
X153614019Y-116651428D01*
X153709257Y-116603809D01*
X153852114Y-116603809D01*
X153947352Y-116651428D01*
X153994971Y-116699047D01*
X154042590Y-116794285D01*
X154042590Y-117175238D01*
X154614019Y-116413333D02*
X154614019Y-115651428D01*
X154518780Y-115413333D02*
X153518780Y-115413333D01*
X153518780Y-115032380D01*
X153566400Y-114937142D01*
X153614019Y-114889523D01*
X153709257Y-114841904D01*
X153852114Y-114841904D01*
X153947352Y-114889523D01*
X153994971Y-114937142D01*
X154042590Y-115032380D01*
X154042590Y-115413333D01*
X153518780Y-114222857D02*
X153518780Y-114032380D01*
X153566400Y-113937142D01*
X153661638Y-113841904D01*
X153852114Y-113794285D01*
X154185447Y-113794285D01*
X154375923Y-113841904D01*
X154471161Y-113937142D01*
X154518780Y-114032380D01*
X154518780Y-114222857D01*
X154471161Y-114318095D01*
X154375923Y-114413333D01*
X154185447Y-114460952D01*
X153852114Y-114460952D01*
X153661638Y-114413333D01*
X153566400Y-114318095D01*
X153518780Y-114222857D01*
X154518780Y-112794285D02*
X154042590Y-113127619D01*
X154518780Y-113365714D02*
X153518780Y-113365714D01*
X153518780Y-112984761D01*
X153566400Y-112889523D01*
X153614019Y-112841904D01*
X153709257Y-112794285D01*
X153852114Y-112794285D01*
X153947352Y-112841904D01*
X153994971Y-112889523D01*
X154042590Y-112984761D01*
X154042590Y-113365714D01*
X153518780Y-112508571D02*
X153518780Y-111937142D01*
X154518780Y-112222857D02*
X153518780Y-112222857D01*
%TO.C,JP1*%
X98006342Y-97842571D02*
X98037771Y-97748285D01*
X98037771Y-97591142D01*
X98006342Y-97528285D01*
X97974914Y-97496857D01*
X97912057Y-97465428D01*
X97849200Y-97465428D01*
X97786342Y-97496857D01*
X97754914Y-97528285D01*
X97723485Y-97591142D01*
X97692057Y-97716857D01*
X97660628Y-97779714D01*
X97629200Y-97811142D01*
X97566342Y-97842571D01*
X97503485Y-97842571D01*
X97440628Y-97811142D01*
X97409200Y-97779714D01*
X97377771Y-97716857D01*
X97377771Y-97559714D01*
X97409200Y-97465428D01*
X97692057Y-97182571D02*
X97692057Y-96962571D01*
X98037771Y-96868285D02*
X98037771Y-97182571D01*
X97377771Y-97182571D01*
X97377771Y-96868285D01*
X98037771Y-96271142D02*
X98037771Y-96585428D01*
X97377771Y-96585428D01*
X97377771Y-95925428D02*
X97377771Y-95862571D01*
X97409200Y-95799714D01*
X97440628Y-95768285D01*
X97503485Y-95736857D01*
X97629200Y-95705428D01*
X97786342Y-95705428D01*
X97912057Y-95736857D01*
X97974914Y-95768285D01*
X98006342Y-95799714D01*
X98037771Y-95862571D01*
X98037771Y-95925428D01*
X98006342Y-95988285D01*
X97974914Y-96019714D01*
X97912057Y-96051142D01*
X97786342Y-96082571D01*
X97629200Y-96082571D01*
X97503485Y-96051142D01*
X97440628Y-96019714D01*
X97409200Y-95988285D01*
X97377771Y-95925428D01*
%TO.C,R7*%
X138632533Y-96732980D02*
X138299200Y-96256790D01*
X138061104Y-96732980D02*
X138061104Y-95732980D01*
X138442057Y-95732980D01*
X138537295Y-95780600D01*
X138584914Y-95828219D01*
X138632533Y-95923457D01*
X138632533Y-96066314D01*
X138584914Y-96161552D01*
X138537295Y-96209171D01*
X138442057Y-96256790D01*
X138061104Y-96256790D01*
X138965866Y-95732980D02*
X139632533Y-95732980D01*
X139203961Y-96732980D01*
%TO.C,C6*%
X114383333Y-89687142D02*
X114335714Y-89734761D01*
X114192857Y-89782380D01*
X114097619Y-89782380D01*
X113954761Y-89734761D01*
X113859523Y-89639523D01*
X113811904Y-89544285D01*
X113764285Y-89353809D01*
X113764285Y-89210952D01*
X113811904Y-89020476D01*
X113859523Y-88925238D01*
X113954761Y-88830000D01*
X114097619Y-88782380D01*
X114192857Y-88782380D01*
X114335714Y-88830000D01*
X114383333Y-88877619D01*
X115240476Y-88782380D02*
X115050000Y-88782380D01*
X114954761Y-88830000D01*
X114907142Y-88877619D01*
X114811904Y-89020476D01*
X114764285Y-89210952D01*
X114764285Y-89591904D01*
X114811904Y-89687142D01*
X114859523Y-89734761D01*
X114954761Y-89782380D01*
X115145238Y-89782380D01*
X115240476Y-89734761D01*
X115288095Y-89687142D01*
X115335714Y-89591904D01*
X115335714Y-89353809D01*
X115288095Y-89258571D01*
X115240476Y-89210952D01*
X115145238Y-89163333D01*
X114954761Y-89163333D01*
X114859523Y-89210952D01*
X114811904Y-89258571D01*
X114764285Y-89353809D01*
D13*
%TO.C,U1*%
X104190800Y-105298400D02*
X102240800Y-105298400D01*
X104190800Y-96428400D02*
X106140800Y-96428400D01*
X104190800Y-105298400D02*
X107640800Y-105298400D01*
X104190800Y-96428400D02*
X102240800Y-96428400D01*
%TO.C,R11*%
X141019600Y-138792852D02*
X141019600Y-138270348D01*
X139599600Y-138792852D02*
X139599600Y-138270348D01*
%TO.C,C7*%
X134104748Y-105104000D02*
X134627252Y-105104000D01*
X134104748Y-103684000D02*
X134627252Y-103684000D01*
%TO.C,R9*%
X152910000Y-92991252D02*
X152910000Y-92468748D01*
X151490000Y-92991252D02*
X151490000Y-92468748D01*
%TO.C,JP6*%
X124506000Y-122558000D02*
X123906000Y-122558000D01*
X123906000Y-119758000D02*
X124506000Y-119758000D01*
X125206000Y-120458000D02*
X125206000Y-121858000D01*
X123206000Y-121858000D02*
X123206000Y-120458000D01*
X123206000Y-120458000D02*
G75*
G02*
X123906000Y-119758000I700000J0D01*
G01*
X125206000Y-121858000D02*
G75*
G02*
X124506000Y-122558000I-700000J0D01*
G01*
X124506000Y-119758000D02*
G75*
G02*
X125206000Y-120458000I0J-700000D01*
G01*
X123906000Y-122558000D02*
G75*
G02*
X123206000Y-121858000I0J700000D01*
G01*
%TO.C,R20*%
X152340000Y-126891252D02*
X152340000Y-126368748D01*
X153760000Y-126891252D02*
X153760000Y-126368748D01*
%TO.C,P1*%
X84129000Y-84263000D02*
X84129000Y-127563000D01*
X78929000Y-127563000D02*
X84129000Y-127563000D01*
X78929000Y-86863000D02*
X78929000Y-127563000D01*
X78929000Y-86863000D02*
X81529000Y-86863000D01*
X81529000Y-86863000D02*
X81529000Y-84263000D01*
X78929000Y-85593000D02*
X78929000Y-84263000D01*
X78929000Y-84263000D02*
X80259000Y-84263000D01*
X81529000Y-84263000D02*
X84129000Y-84263000D01*
%TO.C,C18*%
X122240000Y-137018748D02*
X122240000Y-137541252D01*
X123660000Y-137018748D02*
X123660000Y-137541252D01*
%TO.C,Y1*%
X122505000Y-116825000D02*
X128755000Y-116825000D01*
X122505000Y-111775000D02*
X128755000Y-111775000D01*
X128755000Y-116825000D02*
G75*
G03*
X128755000Y-111775000I0J2525000D01*
G01*
X122505000Y-116825000D02*
G75*
G02*
X122505000Y-111775000I0J2525000D01*
G01*
%TO.C,RN2*%
X89030000Y-108019000D02*
X86230000Y-108019000D01*
X86230000Y-108019000D02*
X86230000Y-131219000D01*
X89030000Y-110729000D02*
X86230000Y-110729000D01*
X89030000Y-131219000D02*
X89030000Y-108019000D01*
X86230000Y-131219000D02*
X89030000Y-131219000D01*
%TO.C,R5*%
X104132748Y-119178000D02*
X104655252Y-119178000D01*
X104132748Y-120598000D02*
X104655252Y-120598000D01*
%TO.C,Q2*%
X93474000Y-113228000D02*
X94934000Y-113228000D01*
X93474000Y-116388000D02*
X96634000Y-116388000D01*
X93474000Y-116388000D02*
X93474000Y-115458000D01*
X93474000Y-113228000D02*
X93474000Y-114158000D01*
%TO.C,JP5*%
X121366000Y-119758000D02*
X121966000Y-119758000D01*
X120666000Y-121858000D02*
X120666000Y-120458000D01*
X121966000Y-122558000D02*
X121366000Y-122558000D01*
X122666000Y-120458000D02*
X122666000Y-121858000D01*
X121966000Y-119758000D02*
G75*
G02*
X122666000Y-120458000I0J-700000D01*
G01*
X120666000Y-120458000D02*
G75*
G02*
X121366000Y-119758000I700000J0D01*
G01*
X122666000Y-121858000D02*
G75*
G02*
X121966000Y-122558000I-700000J0D01*
G01*
X121366000Y-122558000D02*
G75*
G02*
X120666000Y-121858000I0J700000D01*
G01*
%TO.C,TP1*%
X135574000Y-97930000D02*
G75*
G03*
X135574000Y-97930000I-700000J0D01*
G01*
%TO.C,R6*%
X103869748Y-90118000D02*
X104392252Y-90118000D01*
X103869748Y-88698000D02*
X104392252Y-88698000D01*
%TO.C,Q7*%
X143835000Y-137009600D02*
X143835000Y-140169600D01*
X143835000Y-137009600D02*
X144765000Y-137009600D01*
X146995000Y-137009600D02*
X146995000Y-138469600D01*
X146995000Y-137009600D02*
X146065000Y-137009600D01*
%TO.C,JP7*%
X125746000Y-121858000D02*
X125746000Y-120458000D01*
X127046000Y-122558000D02*
X126446000Y-122558000D01*
X127746000Y-120458000D02*
X127746000Y-121858000D01*
X126446000Y-119758000D02*
X127046000Y-119758000D01*
X127746000Y-121858000D02*
G75*
G02*
X127046000Y-122558000I-700000J0D01*
G01*
X125746000Y-120458000D02*
G75*
G02*
X126446000Y-119758000I700000J0D01*
G01*
X126446000Y-122558000D02*
G75*
G02*
X125746000Y-121858000I0J700000D01*
G01*
X127046000Y-119758000D02*
G75*
G02*
X127746000Y-120458000I0J-700000D01*
G01*
%TO.C,P2*%
X81594000Y-131766000D02*
X81594000Y-142046000D01*
X78934000Y-131766000D02*
X81594000Y-131766000D01*
X78934000Y-131766000D02*
X78934000Y-142046000D01*
X78934000Y-142046000D02*
X81594000Y-142046000D01*
%TO.C,C4*%
X139097652Y-105090000D02*
X138575148Y-105090000D01*
X139097652Y-103670000D02*
X138575148Y-103670000D01*
%TO.C,R2*%
X104132748Y-113994000D02*
X104655252Y-113994000D01*
X104132748Y-112574000D02*
X104655252Y-112574000D01*
%TO.C,C10*%
X139236252Y-112240000D02*
X138713748Y-112240000D01*
X139236252Y-110820000D02*
X138713748Y-110820000D01*
%TO.C,C5*%
X127246748Y-109676000D02*
X127769252Y-109676000D01*
X127246748Y-108256000D02*
X127769252Y-108256000D01*
%TO.C,P7*%
X157530000Y-101032000D02*
X157530000Y-111312000D01*
X154870000Y-111312000D02*
X157530000Y-111312000D01*
X154870000Y-101032000D02*
X157530000Y-101032000D01*
X154870000Y-101032000D02*
X154870000Y-111312000D01*
%TO.C,JP8*%
X128286000Y-121858000D02*
X128286000Y-120458000D01*
X128986000Y-119758000D02*
X129586000Y-119758000D01*
X129586000Y-122558000D02*
X128986000Y-122558000D01*
X130286000Y-120458000D02*
X130286000Y-121858000D01*
X129586000Y-119758000D02*
G75*
G02*
X130286000Y-120458000I0J-700000D01*
G01*
X128986000Y-122558000D02*
G75*
G02*
X128286000Y-121858000I0J700000D01*
G01*
X130286000Y-121858000D02*
G75*
G02*
X129586000Y-122558000I-700000J0D01*
G01*
X128286000Y-120458000D02*
G75*
G02*
X128986000Y-119758000I700000J0D01*
G01*
%TO.C,R4*%
X104655252Y-126290000D02*
X104132748Y-126290000D01*
X104655252Y-127710000D02*
X104132748Y-127710000D01*
%TO.C,D1*%
X106294000Y-122594000D02*
X103144000Y-122594000D01*
X106294000Y-124294000D02*
X103144000Y-124294000D01*
X106294000Y-124294000D02*
X106294000Y-122594000D01*
%TO.C,C8*%
X134104748Y-91896000D02*
X134627252Y-91896000D01*
X134104748Y-90476000D02*
X134627252Y-90476000D01*
%TO.C,C3*%
X123705252Y-109676000D02*
X123182748Y-109676000D01*
X123705252Y-108256000D02*
X123182748Y-108256000D01*
%TO.C,P8*%
X157530000Y-89650000D02*
X157530000Y-99930000D01*
X154870000Y-99930000D02*
X157530000Y-99930000D01*
X154870000Y-89650000D02*
X157530000Y-89650000D01*
X154870000Y-89650000D02*
X154870000Y-99930000D01*
%TO.C,RN1*%
X89030000Y-107343000D02*
X89030000Y-84143000D01*
X89030000Y-86853000D02*
X86230000Y-86853000D01*
X86230000Y-84143000D02*
X86230000Y-107343000D01*
X89030000Y-84143000D02*
X86230000Y-84143000D01*
X86230000Y-107343000D02*
X89030000Y-107343000D01*
%TO.C,JP3*%
X95583200Y-105140000D02*
X92783200Y-105140000D01*
X92133200Y-104440000D02*
X92133200Y-103840000D01*
X92983200Y-105340000D02*
X92683200Y-105640000D01*
X92783200Y-103140000D02*
X95583200Y-103140000D01*
X96233200Y-103840000D02*
X96233200Y-104440000D01*
X92683200Y-105640000D02*
X93283200Y-105640000D01*
X92983200Y-105340000D02*
X93283200Y-105640000D01*
X95533200Y-103140000D02*
G75*
G02*
X96233200Y-103840000I0J-700000D01*
G01*
X92833200Y-105140000D02*
G75*
G02*
X92133200Y-104440000I0J700000D01*
G01*
X92133200Y-103840000D02*
G75*
G02*
X92833200Y-103140000I700000J0D01*
G01*
X96233200Y-104440000D02*
G75*
G02*
X95533200Y-105140000I-700000J0D01*
G01*
%TO.C,R10*%
X138588748Y-100470000D02*
X139111252Y-100470000D01*
X138588748Y-101890000D02*
X139111252Y-101890000D01*
%TO.C,R13*%
X139161252Y-108840000D02*
X138638748Y-108840000D01*
X139161252Y-107420000D02*
X138638748Y-107420000D01*
%TO.C,Q6*%
X92954617Y-85066793D02*
X92954617Y-85996793D01*
X92954617Y-85066793D02*
X94414617Y-85066793D01*
X92954617Y-88226793D02*
X96114617Y-88226793D01*
X92954617Y-88226793D02*
X92954617Y-87296793D01*
%TO.C,J5*%
X133550000Y-78280000D02*
X133550000Y-80020000D01*
X146360000Y-84080000D02*
X146360000Y-85280000D01*
X146360000Y-84080000D02*
X147850000Y-84080000D01*
X147850000Y-84080000D02*
X147850000Y-82740000D01*
X147850000Y-80020000D02*
X147850000Y-78280000D01*
X133550000Y-84080000D02*
X133550000Y-82740000D01*
X135040000Y-84080000D02*
X133550000Y-84080000D01*
X147850000Y-78280000D02*
X133550000Y-78280000D01*
X134834005Y-84720000D02*
G75*
G03*
X134834005Y-84720000I-414005J0D01*
G01*
%TO.C,Q5*%
X93474000Y-126294000D02*
X96634000Y-126294000D01*
X93474000Y-126294000D02*
X93474000Y-125364000D01*
X93474000Y-123134000D02*
X93474000Y-124064000D01*
X93474000Y-123134000D02*
X94934000Y-123134000D01*
%TO.C,JP2*%
X92671817Y-101830000D02*
X93271817Y-101830000D01*
X95571817Y-101330000D02*
X92771817Y-101330000D01*
X92971817Y-101530000D02*
X92671817Y-101830000D01*
X96221817Y-100030000D02*
X96221817Y-100630000D01*
X92971817Y-101530000D02*
X93271817Y-101830000D01*
X92771817Y-99330000D02*
X95571817Y-99330000D01*
X92121817Y-100630000D02*
X92121817Y-100030000D01*
X96221817Y-100630000D02*
G75*
G02*
X95521817Y-101330000I-700000J0D01*
G01*
X92121817Y-100030000D02*
G75*
G02*
X92821817Y-99330000I700000J0D01*
G01*
X95521817Y-99330000D02*
G75*
G02*
X96221817Y-100030000I0J-700000D01*
G01*
X92821817Y-101330000D02*
G75*
G02*
X92121817Y-100630000I0J700000D01*
G01*
%TO.C,U4*%
X114228000Y-140570001D02*
X117988000Y-140570001D01*
X117988000Y-140570001D02*
X117988000Y-139310001D01*
X111978000Y-133750001D02*
X117988000Y-133750001D01*
X117988000Y-133750001D02*
X117988000Y-135010001D01*
%TO.C,U3*%
X120046000Y-103154000D02*
X120046000Y-104494000D01*
X129316000Y-92934000D02*
X128366000Y-92934000D01*
X119096000Y-92934000D02*
X120046000Y-92934000D01*
X129316000Y-102204000D02*
X129316000Y-103154000D01*
X119096000Y-103154000D02*
X120046000Y-103154000D01*
X119096000Y-93884000D02*
X119096000Y-92934000D01*
X129316000Y-93884000D02*
X129316000Y-92934000D01*
X119096000Y-102204000D02*
X119096000Y-103154000D01*
X129316000Y-103154000D02*
X128366000Y-103154000D01*
%TO.C,Q3*%
X93498000Y-118120000D02*
X94958000Y-118120000D01*
X93498000Y-121280000D02*
X96658000Y-121280000D01*
X93498000Y-118120000D02*
X93498000Y-119050000D01*
X93498000Y-121280000D02*
X93498000Y-120350000D01*
%TO.C,R12*%
X147369600Y-126880252D02*
X147369600Y-126357748D01*
X145949600Y-126880252D02*
X145949600Y-126357748D01*
%TO.C,JC1*%
X119500000Y-83730000D02*
X118900000Y-83730000D01*
X118200000Y-83030000D02*
X118200000Y-81630000D01*
X120200000Y-81630000D02*
X120200000Y-83030000D01*
X118900000Y-80930000D02*
X119500000Y-80930000D01*
X120200000Y-83030000D02*
G75*
G02*
X119500000Y-83730000I-700000J0D01*
G01*
X118200000Y-81630000D02*
G75*
G02*
X118900000Y-80930000I700000J0D01*
G01*
X118900000Y-83730000D02*
G75*
G02*
X118200000Y-83030000I0J700000D01*
G01*
X119500000Y-80930000D02*
G75*
G02*
X120200000Y-81630000I0J-700000D01*
G01*
%TO.C,C11*%
X144431380Y-103513000D02*
X144431380Y-102247000D01*
X147152380Y-106075000D02*
X147152380Y-103920000D01*
X144591380Y-104045000D02*
X144591380Y-101715000D01*
X146271380Y-105814000D02*
X146271380Y-103920000D01*
X146671380Y-105966000D02*
X146671380Y-103920000D01*
X147232380Y-106086000D02*
X147232380Y-103920000D01*
X146431380Y-105882000D02*
X146431380Y-103920000D01*
X151132621Y-104719000D02*
X150502621Y-104719000D01*
X145271380Y-105104000D02*
X145271380Y-100656000D01*
X147592380Y-106110000D02*
X147592380Y-99650000D01*
X146191380Y-105776000D02*
X146191380Y-103920000D01*
X145391380Y-101840000D02*
X145391380Y-100537000D01*
X144471380Y-103682000D02*
X144471380Y-102078000D01*
X144991380Y-104770000D02*
X144991380Y-100990000D01*
X146871380Y-101840000D02*
X146871380Y-99739000D01*
X145631380Y-101840000D02*
X145631380Y-100332000D01*
X145791380Y-105544000D02*
X145791380Y-103920000D01*
X145711380Y-101840000D02*
X145711380Y-100273000D01*
X145311380Y-105145000D02*
X145311380Y-100615000D01*
X146391380Y-101840000D02*
X146391380Y-99894000D01*
X146751380Y-105990000D02*
X146751380Y-103920000D01*
X145751380Y-101840000D02*
X145751380Y-100244000D01*
X146511380Y-105913000D02*
X146511380Y-103920000D01*
X144511380Y-103820000D02*
X144511380Y-101940000D01*
X146992380Y-101840000D02*
X146992380Y-99713000D01*
X146791380Y-101840000D02*
X146791380Y-99759000D01*
X147192380Y-101840000D02*
X147192380Y-99679000D01*
X146031380Y-101840000D02*
X146031380Y-100068000D01*
X147392380Y-101840000D02*
X147392380Y-99658000D01*
X145471380Y-105296000D02*
X145471380Y-103920000D01*
X147112380Y-101840000D02*
X147112380Y-99691000D01*
X145751380Y-105516000D02*
X145751380Y-103920000D01*
X145831380Y-105570000D02*
X145831380Y-103920000D01*
X145511380Y-101840000D02*
X145511380Y-100430000D01*
X145871380Y-101840000D02*
X145871380Y-100164000D01*
X145511380Y-105330000D02*
X145511380Y-103920000D01*
X145991380Y-105670000D02*
X145991380Y-103920000D01*
X144871380Y-104594000D02*
X144871380Y-101166000D01*
X147272380Y-101840000D02*
X147272380Y-99669000D01*
X146271380Y-101840000D02*
X146271380Y-99946000D01*
X146071380Y-101840000D02*
X146071380Y-100046000D01*
X146071380Y-105714000D02*
X146071380Y-103920000D01*
X145551380Y-101840000D02*
X145551380Y-100396000D01*
X146471380Y-105898000D02*
X146471380Y-103920000D01*
X147632380Y-106110000D02*
X147632380Y-99650000D01*
X146711380Y-105978000D02*
X146711380Y-103920000D01*
X145031380Y-104824000D02*
X145031380Y-100936000D01*
X146671380Y-101840000D02*
X146671380Y-99794000D01*
X145911380Y-105622000D02*
X145911380Y-103920000D01*
X146831380Y-106011000D02*
X146831380Y-103920000D01*
X147552380Y-106110000D02*
X147552380Y-99650000D01*
X144711380Y-104312000D02*
X144711380Y-101448000D01*
X144831380Y-104530000D02*
X144831380Y-101230000D01*
X145431380Y-105260000D02*
X145431380Y-103920000D01*
X147512380Y-106108000D02*
X147512380Y-99652000D01*
X146231380Y-101840000D02*
X146231380Y-99964000D01*
X145711380Y-105487000D02*
X145711380Y-103920000D01*
X146151380Y-105756000D02*
X146151380Y-103920000D01*
X146952380Y-101840000D02*
X146952380Y-99721000D01*
X147232380Y-101840000D02*
X147232380Y-99674000D01*
X145391380Y-105223000D02*
X145391380Y-103920000D01*
X145911380Y-101840000D02*
X145911380Y-100138000D01*
X146351380Y-101840000D02*
X146351380Y-99910000D01*
X145231380Y-105062000D02*
X145231380Y-100698000D01*
X145951380Y-105646000D02*
X145951380Y-103920000D01*
X146911380Y-106030000D02*
X146911380Y-103920000D01*
X146031380Y-105692000D02*
X146031380Y-103920000D01*
X146191380Y-101840000D02*
X146191380Y-99984000D01*
X146431380Y-101840000D02*
X146431380Y-99878000D01*
X146151380Y-101840000D02*
X146151380Y-100004000D01*
X147192380Y-106081000D02*
X147192380Y-103920000D01*
X144391380Y-103282000D02*
X144391380Y-102478000D01*
X147072380Y-106062000D02*
X147072380Y-103920000D01*
X146351380Y-105850000D02*
X146351380Y-103920000D01*
X147392380Y-106102000D02*
X147392380Y-103920000D01*
X147032380Y-101840000D02*
X147032380Y-99705000D01*
X146871380Y-106021000D02*
X146871380Y-103920000D01*
X146391380Y-105866000D02*
X146391380Y-103920000D01*
X146751380Y-101840000D02*
X146751380Y-99770000D01*
X147272380Y-106091000D02*
X147272380Y-103920000D01*
X146992380Y-106047000D02*
X146992380Y-103920000D01*
X144911380Y-104656000D02*
X144911380Y-101104000D01*
X147312380Y-106095000D02*
X147312380Y-103920000D01*
X146311380Y-105832000D02*
X146311380Y-103920000D01*
X144751380Y-104389000D02*
X144751380Y-101371000D01*
X147152380Y-101840000D02*
X147152380Y-99685000D01*
X145631380Y-105428000D02*
X145631380Y-103920000D01*
X145351380Y-105185000D02*
X145351380Y-103920000D01*
X145991380Y-101840000D02*
X145991380Y-100090000D01*
X146591380Y-105941000D02*
X146591380Y-103920000D01*
X145191380Y-105017000D02*
X145191380Y-100743000D01*
X146591380Y-101840000D02*
X146591380Y-99819000D01*
X146231380Y-105796000D02*
X146231380Y-103920000D01*
X144671380Y-104230000D02*
X144671380Y-101530000D01*
X147472380Y-106107000D02*
X147472380Y-99653000D01*
X146791380Y-106001000D02*
X146791380Y-103920000D01*
X146311380Y-101840000D02*
X146311380Y-99928000D01*
X147112380Y-106069000D02*
X147112380Y-103920000D01*
X145951380Y-101840000D02*
X145951380Y-100114000D01*
X145591380Y-101840000D02*
X145591380Y-100364000D01*
X146511380Y-101840000D02*
X146511380Y-99847000D01*
X147352380Y-101840000D02*
X147352380Y-99662000D01*
X145671380Y-101840000D02*
X145671380Y-100302000D01*
X146711380Y-101840000D02*
X146711380Y-99782000D01*
X145791380Y-101840000D02*
X145791380Y-100216000D01*
X147032380Y-106055000D02*
X147032380Y-103920000D01*
X146631380Y-105954000D02*
X146631380Y-103920000D01*
X146111380Y-101840000D02*
X146111380Y-100024000D01*
X147352380Y-106098000D02*
X147352380Y-103920000D01*
X145351380Y-101840000D02*
X145351380Y-100575000D01*
X147072380Y-101840000D02*
X147072380Y-99698000D01*
X146911380Y-101840000D02*
X146911380Y-99730000D01*
X144951380Y-104714000D02*
X144951380Y-101046000D01*
X145671380Y-105458000D02*
X145671380Y-103920000D01*
X145151380Y-104972000D02*
X145151380Y-100788000D01*
X145591380Y-105396000D02*
X145591380Y-103920000D01*
X145431380Y-101840000D02*
X145431380Y-100500000D01*
X144791380Y-104461000D02*
X144791380Y-101299000D01*
X146831380Y-101840000D02*
X146831380Y-99749000D01*
X145551380Y-105364000D02*
X145551380Y-103920000D01*
X150817621Y-105034000D02*
X150817621Y-104404000D01*
X146111380Y-105736000D02*
X146111380Y-103920000D01*
X147432380Y-106104000D02*
X147432380Y-99656000D01*
X146551380Y-101840000D02*
X146551380Y-99833000D01*
X145871380Y-105596000D02*
X145871380Y-103920000D01*
X146631380Y-101840000D02*
X146631380Y-99806000D01*
X146551380Y-105927000D02*
X146551380Y-103920000D01*
X144631380Y-104142000D02*
X144631380Y-101618000D01*
X145071380Y-104875000D02*
X145071380Y-100885000D01*
X144551380Y-103939000D02*
X144551380Y-101821000D01*
X147312380Y-101840000D02*
X147312380Y-99665000D01*
X145831380Y-101840000D02*
X145831380Y-100190000D01*
X145471380Y-101840000D02*
X145471380Y-100464000D01*
X146471380Y-101840000D02*
X146471380Y-99862000D01*
X145111380Y-104924000D02*
X145111380Y-100836000D01*
X146952380Y-106039000D02*
X146952380Y-103920000D01*
X150902380Y-102880000D02*
G75*
G03*
X150902380Y-102880000I-3270000J0D01*
G01*
%TO.C,D2*%
X147535000Y-130078400D02*
X147535000Y-133228400D01*
X147535000Y-130078400D02*
X145835000Y-130078400D01*
X145835000Y-130078400D02*
X145835000Y-133228400D01*
%TO.C,C20*%
X104138748Y-109440000D02*
X104661252Y-109440000D01*
X104138748Y-108020000D02*
X104661252Y-108020000D01*
%TO.C,C1*%
X100688000Y-135545381D02*
X102338000Y-135545381D01*
X100566000Y-135745381D02*
X102338000Y-135745381D01*
X104418000Y-136866381D02*
X106573000Y-136866381D01*
X100998000Y-135145381D02*
X102338000Y-135145381D01*
X104418000Y-136305381D02*
X106439000Y-136305381D01*
X101602000Y-134625381D02*
X105154000Y-134625381D01*
X102976000Y-134105381D02*
X103780000Y-134105381D01*
X100183000Y-136866381D02*
X102338000Y-136866381D01*
X104418000Y-136826381D02*
X106567000Y-136826381D01*
X104418000Y-136786381D02*
X106560000Y-136786381D01*
X104418000Y-136425381D02*
X106476000Y-136425381D01*
X104418000Y-135865381D02*
X106254000Y-135865381D01*
X100482000Y-135905381D02*
X102338000Y-135905381D01*
X100462000Y-135945381D02*
X102338000Y-135945381D01*
X104418000Y-135785381D02*
X106212000Y-135785381D01*
X100742000Y-135465381D02*
X102338000Y-135465381D01*
X100502000Y-135865381D02*
X102338000Y-135865381D01*
X100189000Y-136826381D02*
X102338000Y-136826381D01*
X100151000Y-137186381D02*
X106605000Y-137186381D01*
X104418000Y-136946381D02*
X106584000Y-136946381D01*
X100196000Y-136786381D02*
X102338000Y-136786381D01*
X100219000Y-136666381D02*
X102338000Y-136666381D01*
X104418000Y-136025381D02*
X106330000Y-136025381D01*
X104418000Y-135625381D02*
X106120000Y-135625381D01*
X101154000Y-134985381D02*
X105602000Y-134985381D01*
X101728000Y-134545381D02*
X105028000Y-134545381D01*
X104418000Y-135425381D02*
X105985000Y-135425381D01*
X100148000Y-137346381D02*
X106608000Y-137346381D01*
X104418000Y-136345381D02*
X106452000Y-136345381D01*
X100304000Y-136345381D02*
X102338000Y-136345381D01*
X104418000Y-135945381D02*
X106294000Y-135945381D01*
X100160000Y-137066381D02*
X102338000Y-137066381D01*
X100522000Y-135825381D02*
X102338000Y-135825381D01*
X102213000Y-134305381D02*
X104543000Y-134305381D01*
X101224000Y-140531622D02*
X101854000Y-140531622D01*
X100150000Y-137226381D02*
X106606000Y-137226381D01*
X100211000Y-136706381D02*
X102338000Y-136706381D01*
X102576000Y-134185381D02*
X104180000Y-134185381D01*
X101286000Y-134865381D02*
X105470000Y-134865381D01*
X104418000Y-135265381D02*
X105862000Y-135265381D01*
X101196000Y-134945381D02*
X105560000Y-134945381D01*
X100636000Y-135625381D02*
X102338000Y-135625381D01*
X101539000Y-140846622D02*
X101539000Y-140216622D01*
X104418000Y-136385381D02*
X106464000Y-136385381D01*
X100928000Y-135225381D02*
X102338000Y-135225381D01*
X104418000Y-136585381D02*
X106519000Y-136585381D01*
X104418000Y-135145381D02*
X105758000Y-135145381D01*
X100426000Y-136025381D02*
X102338000Y-136025381D01*
X100360000Y-136185381D02*
X102338000Y-136185381D01*
X100800000Y-135385381D02*
X102338000Y-135385381D01*
X104418000Y-137026381D02*
X106593000Y-137026381D01*
X104418000Y-135465381D02*
X106014000Y-135465381D01*
X104418000Y-137066381D02*
X106596000Y-137066381D01*
X100444000Y-135985381D02*
X102338000Y-135985381D01*
X100392000Y-136105381D02*
X102338000Y-136105381D01*
X102028000Y-134385381D02*
X104728000Y-134385381D01*
X100408000Y-136065381D02*
X102338000Y-136065381D01*
X101241000Y-134905381D02*
X105515000Y-134905381D01*
X102116000Y-134345381D02*
X104640000Y-134345381D01*
X101488000Y-134705381D02*
X105268000Y-134705381D01*
X104418000Y-136906381D02*
X106579000Y-136906381D01*
X101334000Y-134825381D02*
X105422000Y-134825381D01*
X104418000Y-135185381D02*
X105794000Y-135185381D01*
X104418000Y-137106381D02*
X106600000Y-137106381D01*
X100830000Y-135345381D02*
X102338000Y-135345381D01*
X100771000Y-135425381D02*
X102338000Y-135425381D01*
X100148000Y-137306381D02*
X106608000Y-137306381D01*
X100588000Y-135705381D02*
X102338000Y-135705381D01*
X100237000Y-136585381D02*
X102338000Y-136585381D01*
X100292000Y-136385381D02*
X102338000Y-136385381D01*
X100167000Y-136986381D02*
X102338000Y-136986381D01*
X100257000Y-136505381D02*
X102338000Y-136505381D01*
X101434000Y-134745381D02*
X105322000Y-134745381D01*
X104418000Y-135745381D02*
X106190000Y-135745381D01*
X104418000Y-135305381D02*
X105894000Y-135305381D01*
X104418000Y-135225381D02*
X105828000Y-135225381D01*
X104418000Y-135985381D02*
X106312000Y-135985381D01*
X104418000Y-136986381D02*
X106589000Y-136986381D01*
X104418000Y-136145381D02*
X106380000Y-136145381D01*
X104418000Y-135105381D02*
X105721000Y-135105381D01*
X104418000Y-135385381D02*
X105956000Y-135385381D01*
X100894000Y-135265381D02*
X102338000Y-135265381D01*
X101869000Y-134465381D02*
X104887000Y-134465381D01*
X104418000Y-136545381D02*
X106509000Y-136545381D01*
X101797000Y-134505381D02*
X104959000Y-134505381D01*
X100612000Y-135665381D02*
X102338000Y-135665381D01*
X104418000Y-136746381D02*
X106553000Y-136746381D01*
X104418000Y-136185381D02*
X106396000Y-136185381D01*
X104418000Y-136706381D02*
X106545000Y-136706381D01*
X104418000Y-136465381D02*
X106488000Y-136465381D01*
X100203000Y-136746381D02*
X102338000Y-136746381D01*
X100345000Y-136225381D02*
X102338000Y-136225381D01*
X100331000Y-136265381D02*
X102338000Y-136265381D01*
X100172000Y-136946381D02*
X102338000Y-136946381D01*
X101383000Y-134785381D02*
X105373000Y-134785381D01*
X104418000Y-135345381D02*
X105926000Y-135345381D01*
X102438000Y-134225381D02*
X104318000Y-134225381D01*
X102745000Y-134145381D02*
X104011000Y-134145381D01*
X104418000Y-135665381D02*
X106144000Y-135665381D01*
X104418000Y-136625381D02*
X106528000Y-136625381D01*
X104418000Y-136105381D02*
X106364000Y-136105381D01*
X100163000Y-137026381D02*
X102338000Y-137026381D01*
X100268000Y-136465381D02*
X102338000Y-136465381D01*
X100662000Y-135585381D02*
X102338000Y-135585381D01*
X104418000Y-135705381D02*
X106168000Y-135705381D01*
X100862000Y-135305381D02*
X102338000Y-135305381D01*
X104418000Y-136265381D02*
X106425000Y-136265381D01*
X100156000Y-137106381D02*
X102338000Y-137106381D01*
X100376000Y-136145381D02*
X102338000Y-136145381D01*
X101035000Y-135105381D02*
X102338000Y-135105381D01*
X104418000Y-136505381D02*
X106499000Y-136505381D01*
X101664000Y-134585381D02*
X105092000Y-134585381D01*
X104418000Y-135585381D02*
X106094000Y-135585381D01*
X100714000Y-135505381D02*
X102338000Y-135505381D01*
X100228000Y-136625381D02*
X102338000Y-136625381D01*
X102319000Y-134265381D02*
X104437000Y-134265381D01*
X104418000Y-135545381D02*
X106068000Y-135545381D01*
X100177000Y-136906381D02*
X102338000Y-136906381D01*
X100154000Y-137146381D02*
X106602000Y-137146381D01*
X100317000Y-136305381D02*
X102338000Y-136305381D01*
X100544000Y-135785381D02*
X102338000Y-135785381D01*
X101073000Y-135065381D02*
X102338000Y-135065381D01*
X104418000Y-135065381D02*
X105683000Y-135065381D01*
X104418000Y-135825381D02*
X106234000Y-135825381D01*
X104418000Y-136666381D02*
X106537000Y-136666381D01*
X100280000Y-136425381D02*
X102338000Y-136425381D01*
X101946000Y-134425381D02*
X104810000Y-134425381D01*
X100148000Y-137266381D02*
X106608000Y-137266381D01*
X104418000Y-135505381D02*
X106042000Y-135505381D01*
X101544000Y-134665381D02*
X105212000Y-134665381D01*
X101113000Y-135025381D02*
X105643000Y-135025381D01*
X104418000Y-135905381D02*
X106274000Y-135905381D01*
X100962000Y-135185381D02*
X102338000Y-135185381D01*
X104418000Y-136065381D02*
X106348000Y-136065381D01*
X104418000Y-136225381D02*
X106411000Y-136225381D01*
X100247000Y-136545381D02*
X102338000Y-136545381D01*
X106648000Y-137346381D02*
G75*
G03*
X106648000Y-137346381I-3270000J0D01*
G01*
%TO.C,R8*%
X151490000Y-96968748D02*
X151490000Y-97491252D01*
X152910000Y-96968748D02*
X152910000Y-97491252D01*
%TO.C,R21*%
X156960000Y-126891252D02*
X156960000Y-126368748D01*
X155540000Y-126891252D02*
X155540000Y-126368748D01*
%TO.C,P3*%
X81728000Y-131766000D02*
X84388000Y-131766000D01*
X84388000Y-131766000D02*
X84388000Y-142046000D01*
X81728000Y-142046000D02*
X84388000Y-142046000D01*
X81728000Y-131766000D02*
X81728000Y-142046000D01*
%TO.C,C17*%
X140105000Y-115828200D02*
X142240000Y-115828200D01*
X140105000Y-115948200D02*
X142260000Y-115948200D01*
X136429000Y-114547200D02*
X138025000Y-114547200D01*
X136149000Y-115027200D02*
X138025000Y-115027200D01*
X140105000Y-114667200D02*
X141781000Y-114667200D01*
X136973000Y-113947200D02*
X141157000Y-113947200D01*
X135843000Y-116188200D02*
X138025000Y-116188200D01*
X140105000Y-115147200D02*
X142035000Y-115147200D01*
X137021000Y-113907200D02*
X141109000Y-113907200D01*
X137070000Y-113867200D02*
X141060000Y-113867200D01*
X140105000Y-114347200D02*
X141549000Y-114347200D01*
X135850000Y-116108200D02*
X138025000Y-116108200D01*
X135854000Y-116068200D02*
X138025000Y-116068200D01*
X140105000Y-114907200D02*
X141921000Y-114907200D01*
X140105000Y-116188200D02*
X142287000Y-116188200D01*
X135859000Y-116028200D02*
X138025000Y-116028200D01*
X135944000Y-115587200D02*
X138025000Y-115587200D01*
X136928000Y-113987200D02*
X141202000Y-113987200D01*
X135835000Y-116428200D02*
X142295000Y-116428200D01*
X140105000Y-114467200D02*
X141643000Y-114467200D01*
X135837000Y-116308200D02*
X142293000Y-116308200D01*
X140105000Y-114307200D02*
X141515000Y-114307200D01*
X136004000Y-115387200D02*
X138025000Y-115387200D01*
X140105000Y-116068200D02*
X142276000Y-116068200D01*
X137900000Y-113387200D02*
X140230000Y-113387200D01*
X140105000Y-114987200D02*
X141961000Y-114987200D01*
X135838000Y-116268200D02*
X142292000Y-116268200D01*
X136685000Y-114227200D02*
X138025000Y-114227200D01*
X138263000Y-113267200D02*
X139867000Y-113267200D01*
X135934000Y-115627200D02*
X138025000Y-115627200D01*
X136095000Y-115147200D02*
X138025000Y-115147200D01*
X136079000Y-115187200D02*
X138025000Y-115187200D01*
X136349000Y-114667200D02*
X138025000Y-114667200D01*
X140105000Y-114147200D02*
X141370000Y-114147200D01*
X140105000Y-115627200D02*
X142196000Y-115627200D01*
X137715000Y-113467200D02*
X140415000Y-113467200D01*
X140105000Y-115587200D02*
X142186000Y-115587200D01*
X135835000Y-116348200D02*
X142295000Y-116348200D01*
X140105000Y-114187200D02*
X141408000Y-114187200D01*
X136517000Y-114427200D02*
X138025000Y-114427200D01*
X135924000Y-115667200D02*
X138025000Y-115667200D01*
X140105000Y-115187200D02*
X142051000Y-115187200D01*
X136131000Y-115067200D02*
X138025000Y-115067200D01*
X140105000Y-115067200D02*
X141999000Y-115067200D01*
X136458000Y-114507200D02*
X138025000Y-114507200D01*
X136032000Y-115307200D02*
X138025000Y-115307200D01*
X137415000Y-113627200D02*
X140715000Y-113627200D01*
X136275000Y-114787200D02*
X138025000Y-114787200D01*
X140105000Y-114227200D02*
X141445000Y-114227200D01*
X136760000Y-114147200D02*
X138025000Y-114147200D01*
X136375000Y-114627200D02*
X138025000Y-114627200D01*
X136323000Y-114707200D02*
X138025000Y-114707200D01*
X135915000Y-115707200D02*
X138025000Y-115707200D01*
X140105000Y-115748200D02*
X142224000Y-115748200D01*
X135898000Y-115788200D02*
X138025000Y-115788200D01*
X140105000Y-114627200D02*
X141755000Y-114627200D01*
X136722000Y-114187200D02*
X138025000Y-114187200D01*
X140105000Y-115387200D02*
X142126000Y-115387200D01*
X135979000Y-115467200D02*
X138025000Y-115467200D01*
X140105000Y-115307200D02*
X142098000Y-115307200D01*
X140105000Y-114747200D02*
X141831000Y-114747200D01*
X140105000Y-114707200D02*
X141807000Y-114707200D01*
X137556000Y-113547200D02*
X140574000Y-113547200D01*
X135841000Y-116228200D02*
X142289000Y-116228200D01*
X137633000Y-113507200D02*
X140497000Y-113507200D01*
X140105000Y-115868200D02*
X142247000Y-115868200D01*
X138125000Y-113307200D02*
X140005000Y-113307200D01*
X137121000Y-113827200D02*
X141009000Y-113827200D01*
X140105000Y-114587200D02*
X141729000Y-114587200D01*
X136231000Y-114867200D02*
X138025000Y-114867200D01*
X140105000Y-115107200D02*
X142017000Y-115107200D01*
X140105000Y-115788200D02*
X142232000Y-115788200D01*
X135906000Y-115748200D02*
X138025000Y-115748200D01*
X135876000Y-115908200D02*
X138025000Y-115908200D01*
X140105000Y-116028200D02*
X142271000Y-116028200D01*
X136401000Y-114587200D02*
X138025000Y-114587200D01*
X140105000Y-114387200D02*
X141581000Y-114387200D01*
X135847000Y-116148200D02*
X138025000Y-116148200D01*
X140105000Y-114427200D02*
X141613000Y-114427200D01*
X140105000Y-115908200D02*
X142254000Y-115908200D01*
X136841000Y-114067200D02*
X141289000Y-114067200D01*
X140105000Y-114547200D02*
X141701000Y-114547200D01*
X140105000Y-115707200D02*
X142215000Y-115707200D01*
X137175000Y-113787200D02*
X140955000Y-113787200D01*
X136209000Y-114907200D02*
X138025000Y-114907200D01*
X138663000Y-113187200D02*
X139467000Y-113187200D01*
X137803000Y-113427200D02*
X140327000Y-113427200D01*
X140105000Y-115267200D02*
X142083000Y-115267200D01*
X140105000Y-116148200D02*
X142283000Y-116148200D01*
X137289000Y-113707200D02*
X140841000Y-113707200D01*
X136047000Y-115267200D02*
X138025000Y-115267200D01*
X135864000Y-115988200D02*
X138025000Y-115988200D01*
X135890000Y-115828200D02*
X138025000Y-115828200D01*
X136018000Y-115347200D02*
X138025000Y-115347200D01*
X136253000Y-114827200D02*
X138025000Y-114827200D01*
X137351000Y-113667200D02*
X140779000Y-113667200D01*
X135991000Y-115427200D02*
X138025000Y-115427200D01*
X136299000Y-114747200D02*
X138025000Y-114747200D01*
X136189000Y-114947200D02*
X138025000Y-114947200D01*
X138006000Y-113347200D02*
X140124000Y-113347200D01*
X140105000Y-115988200D02*
X142266000Y-115988200D01*
X140105000Y-114947200D02*
X141941000Y-114947200D01*
X140105000Y-116108200D02*
X142280000Y-116108200D01*
X135870000Y-115948200D02*
X138025000Y-115948200D01*
X136883000Y-114027200D02*
X141247000Y-114027200D01*
X138432000Y-113227200D02*
X139698000Y-113227200D01*
X140105000Y-115507200D02*
X142163000Y-115507200D01*
X140105000Y-114787200D02*
X141855000Y-114787200D01*
X140105000Y-114827200D02*
X141877000Y-114827200D01*
X140105000Y-114267200D02*
X141481000Y-114267200D01*
X140105000Y-115027200D02*
X141981000Y-115027200D01*
X140105000Y-115667200D02*
X142206000Y-115667200D01*
X136113000Y-115107200D02*
X138025000Y-115107200D01*
X136649000Y-114267200D02*
X138025000Y-114267200D01*
X135967000Y-115507200D02*
X138025000Y-115507200D01*
X136615000Y-114307200D02*
X138025000Y-114307200D01*
X140105000Y-114507200D02*
X141672000Y-114507200D01*
X136169000Y-114987200D02*
X138025000Y-114987200D01*
X136800000Y-114107200D02*
X141330000Y-114107200D01*
X137484000Y-113587200D02*
X140646000Y-113587200D01*
X136911000Y-119613441D02*
X137541000Y-119613441D01*
X135955000Y-115547200D02*
X138025000Y-115547200D01*
X140105000Y-115347200D02*
X142112000Y-115347200D01*
X136581000Y-114347200D02*
X138025000Y-114347200D01*
X140105000Y-115427200D02*
X142139000Y-115427200D01*
X140105000Y-114867200D02*
X141899000Y-114867200D01*
X136063000Y-115227200D02*
X138025000Y-115227200D01*
X135883000Y-115868200D02*
X138025000Y-115868200D01*
X137226000Y-119928441D02*
X137226000Y-119298441D01*
X140105000Y-115467200D02*
X142151000Y-115467200D01*
X140105000Y-115547200D02*
X142175000Y-115547200D01*
X135835000Y-116388200D02*
X142295000Y-116388200D01*
X140105000Y-115227200D02*
X142067000Y-115227200D01*
X136549000Y-114387200D02*
X138025000Y-114387200D01*
X136487000Y-114467200D02*
X138025000Y-114467200D01*
X137231000Y-113747200D02*
X140899000Y-113747200D01*
X142335000Y-116428200D02*
G75*
G03*
X142335000Y-116428200I-3270000J0D01*
G01*
%TO.C,JP4*%
X92983200Y-109083700D02*
X92683200Y-109383700D01*
X92683200Y-109383700D02*
X93283200Y-109383700D01*
X92783200Y-106883700D02*
X95583200Y-106883700D01*
X96233200Y-107583700D02*
X96233200Y-108183700D01*
X95583200Y-108883700D02*
X92783200Y-108883700D01*
X92983200Y-109083700D02*
X93283200Y-109383700D01*
X92133200Y-108183700D02*
X92133200Y-107583700D01*
X92133200Y-107583700D02*
G75*
G02*
X92833200Y-106883700I700000J0D01*
G01*
X95533200Y-106883700D02*
G75*
G02*
X96233200Y-107583700I0J-700000D01*
G01*
X92833200Y-108883700D02*
G75*
G02*
X92133200Y-108183700I0J700000D01*
G01*
X96233200Y-108183700D02*
G75*
G02*
X95533200Y-108883700I-700000J0D01*
G01*
%TO.C,Q1*%
X92954617Y-93052793D02*
X96114617Y-93052793D01*
X92954617Y-89892793D02*
X94414617Y-89892793D01*
X92954617Y-89892793D02*
X92954617Y-90822793D01*
X92954617Y-93052793D02*
X92954617Y-92122793D01*
%TO.C,C23*%
X109960000Y-137641252D02*
X109960000Y-137118748D01*
X108540000Y-137641252D02*
X108540000Y-137118748D01*
%TO.C,Q4*%
X93474000Y-131374000D02*
X93474000Y-130444000D01*
X93474000Y-128214000D02*
X94934000Y-128214000D01*
X93474000Y-128214000D02*
X93474000Y-129144000D01*
X93474000Y-131374000D02*
X96634000Y-131374000D01*
%TO.C,C9*%
X114961252Y-108320000D02*
X114438748Y-108320000D01*
X114961252Y-109740000D02*
X114438748Y-109740000D01*
%TO.C,C19*%
X136156400Y-122865000D02*
X138050400Y-122865000D01*
X138457400Y-121025000D02*
X139723400Y-121025000D01*
X137314400Y-121505000D02*
X140866400Y-121505000D01*
X140130400Y-123265000D02*
X142176400Y-123265000D01*
X140130400Y-123786000D02*
X142291400Y-123786000D01*
X136400400Y-122425000D02*
X138050400Y-122425000D01*
X140130400Y-123185000D02*
X142151400Y-123185000D01*
X137256400Y-121545000D02*
X140924400Y-121545000D01*
X136953400Y-121785000D02*
X141227400Y-121785000D01*
X140130400Y-122385000D02*
X141754400Y-122385000D01*
X137509400Y-121385000D02*
X140671400Y-121385000D01*
X137740400Y-121265000D02*
X140440400Y-121265000D01*
X135980400Y-123345000D02*
X138050400Y-123345000D01*
X140130400Y-122665000D02*
X141924400Y-122665000D01*
X136194400Y-122785000D02*
X138050400Y-122785000D01*
X136674400Y-122065000D02*
X138050400Y-122065000D01*
X135959400Y-123425000D02*
X138050400Y-123425000D01*
X135862400Y-124106000D02*
X142318400Y-124106000D01*
X140130400Y-123145000D02*
X142137400Y-123145000D01*
X136454400Y-122345000D02*
X138050400Y-122345000D01*
X136908400Y-121825000D02*
X141272400Y-121825000D01*
X140130400Y-122025000D02*
X141470400Y-122025000D01*
X136512400Y-122265000D02*
X138050400Y-122265000D01*
X140130400Y-123946000D02*
X142308400Y-123946000D01*
X136426400Y-122385000D02*
X138050400Y-122385000D01*
X136998400Y-121745000D02*
X141182400Y-121745000D01*
X140130400Y-123425000D02*
X142221400Y-123425000D01*
X140130400Y-121945000D02*
X141395400Y-121945000D01*
X135884400Y-123826000D02*
X138050400Y-123826000D01*
X135969400Y-123385000D02*
X138050400Y-123385000D01*
X136542400Y-122225000D02*
X138050400Y-122225000D01*
X137376400Y-121465000D02*
X140804400Y-121465000D01*
X135923400Y-123586000D02*
X138050400Y-123586000D01*
X137828400Y-121225000D02*
X140352400Y-121225000D01*
X140130400Y-122185000D02*
X141606400Y-122185000D01*
X135872400Y-123946000D02*
X138050400Y-123946000D01*
X137658400Y-121305000D02*
X140522400Y-121305000D01*
X136029400Y-123185000D02*
X138050400Y-123185000D01*
X138688400Y-120985000D02*
X139492400Y-120985000D01*
X136374400Y-122465000D02*
X138050400Y-122465000D01*
X138288400Y-121065000D02*
X139892400Y-121065000D01*
X140130400Y-122705000D02*
X141946400Y-122705000D01*
X140130400Y-122985000D02*
X142076400Y-122985000D01*
X135908400Y-123666000D02*
X138050400Y-123666000D01*
X140130400Y-122105000D02*
X141540400Y-122105000D01*
X136104400Y-122985000D02*
X138050400Y-122985000D01*
X140130400Y-122865000D02*
X142024400Y-122865000D01*
X140130400Y-123385000D02*
X142211400Y-123385000D01*
X136174400Y-122825000D02*
X138050400Y-122825000D01*
X135860400Y-124226000D02*
X142320400Y-124226000D01*
X137925400Y-121185000D02*
X140255400Y-121185000D01*
X135895400Y-123746000D02*
X138050400Y-123746000D01*
X137200400Y-121585000D02*
X140980400Y-121585000D01*
X137095400Y-121665000D02*
X141085400Y-121665000D01*
X140130400Y-123626000D02*
X142265400Y-123626000D01*
X140130400Y-123746000D02*
X142285400Y-123746000D01*
X140130400Y-122785000D02*
X141986400Y-122785000D01*
X136214400Y-122745000D02*
X138050400Y-122745000D01*
X136483400Y-122305000D02*
X138050400Y-122305000D01*
X140130400Y-123225000D02*
X142164400Y-123225000D01*
X137440400Y-121425000D02*
X140740400Y-121425000D01*
X135889400Y-123786000D02*
X138050400Y-123786000D01*
X140130400Y-122305000D02*
X141697400Y-122305000D01*
X136072400Y-123065000D02*
X138050400Y-123065000D01*
X135940400Y-123505000D02*
X138050400Y-123505000D01*
X140130400Y-123465000D02*
X142231400Y-123465000D01*
X140130400Y-123345000D02*
X142200400Y-123345000D01*
X135949400Y-123465000D02*
X138050400Y-123465000D01*
X136324400Y-122545000D02*
X138050400Y-122545000D01*
X140130400Y-122465000D02*
X141806400Y-122465000D01*
X136300400Y-122585000D02*
X138050400Y-122585000D01*
X136043400Y-123145000D02*
X138050400Y-123145000D01*
X140130400Y-122945000D02*
X142060400Y-122945000D01*
X135931400Y-123546000D02*
X138050400Y-123546000D01*
X140130400Y-122585000D02*
X141880400Y-122585000D01*
X140130400Y-123586000D02*
X142257400Y-123586000D01*
X136138400Y-122905000D02*
X138050400Y-122905000D01*
X140130400Y-122225000D02*
X141638400Y-122225000D01*
X136234400Y-122705000D02*
X138050400Y-122705000D01*
X135915400Y-123626000D02*
X138050400Y-123626000D01*
X136866400Y-121865000D02*
X141314400Y-121865000D01*
X140130400Y-122345000D02*
X141726400Y-122345000D01*
X136606400Y-122145000D02*
X138050400Y-122145000D01*
X136825400Y-121905000D02*
X141355400Y-121905000D01*
X136016400Y-123225000D02*
X138050400Y-123225000D01*
X135868400Y-123986000D02*
X138050400Y-123986000D01*
X140130400Y-122745000D02*
X141966400Y-122745000D01*
X140130400Y-123986000D02*
X142312400Y-123986000D01*
X140130400Y-123065000D02*
X142108400Y-123065000D01*
X140130400Y-123505000D02*
X142240400Y-123505000D01*
X140130400Y-122905000D02*
X142042400Y-122905000D01*
X138150400Y-121105000D02*
X140030400Y-121105000D01*
X140130400Y-122545000D02*
X141856400Y-122545000D01*
X136747400Y-121985000D02*
X138050400Y-121985000D01*
X140130400Y-122505000D02*
X141832400Y-122505000D01*
X140130400Y-123305000D02*
X142188400Y-123305000D01*
X136004400Y-123265000D02*
X138050400Y-123265000D01*
X138031400Y-121145000D02*
X140149400Y-121145000D01*
X135860400Y-124146000D02*
X142320400Y-124146000D01*
X140130400Y-123906000D02*
X142305400Y-123906000D01*
X136936400Y-127411241D02*
X137566400Y-127411241D01*
X140130400Y-123706000D02*
X142279400Y-123706000D01*
X140130400Y-123866000D02*
X142301400Y-123866000D01*
X135992400Y-123305000D02*
X138050400Y-123305000D01*
X136348400Y-122505000D02*
X138050400Y-122505000D01*
X140130400Y-123105000D02*
X142123400Y-123105000D01*
X140130400Y-123546000D02*
X142249400Y-123546000D01*
X136710400Y-122025000D02*
X138050400Y-122025000D01*
X140130400Y-122625000D02*
X141902400Y-122625000D01*
X137581400Y-121345000D02*
X140599400Y-121345000D01*
X140130400Y-122145000D02*
X141574400Y-122145000D01*
X140130400Y-122065000D02*
X141506400Y-122065000D01*
X140130400Y-122425000D02*
X141780400Y-122425000D01*
X137251400Y-127726241D02*
X137251400Y-127096241D01*
X140130400Y-123025000D02*
X142092400Y-123025000D01*
X140130400Y-122825000D02*
X142006400Y-122825000D01*
X135866400Y-124026000D02*
X142314400Y-124026000D01*
X135860400Y-124186000D02*
X142320400Y-124186000D01*
X135901400Y-123706000D02*
X138050400Y-123706000D01*
X136574400Y-122185000D02*
X138050400Y-122185000D01*
X140130400Y-123826000D02*
X142296400Y-123826000D01*
X140130400Y-121985000D02*
X141433400Y-121985000D01*
X137146400Y-121625000D02*
X141034400Y-121625000D01*
X135863400Y-124066000D02*
X142317400Y-124066000D01*
X136256400Y-122665000D02*
X138050400Y-122665000D01*
X135879400Y-123866000D02*
X138050400Y-123866000D01*
X140130400Y-122265000D02*
X141668400Y-122265000D01*
X136278400Y-122625000D02*
X138050400Y-122625000D01*
X136120400Y-122945000D02*
X138050400Y-122945000D01*
X140130400Y-123666000D02*
X142272400Y-123666000D01*
X137046400Y-121705000D02*
X141134400Y-121705000D01*
X135875400Y-123906000D02*
X138050400Y-123906000D01*
X136057400Y-123105000D02*
X138050400Y-123105000D01*
X136785400Y-121945000D02*
X138050400Y-121945000D01*
X136088400Y-123025000D02*
X138050400Y-123025000D01*
X136640400Y-122105000D02*
X138050400Y-122105000D01*
X142360400Y-124226000D02*
G75*
G03*
X142360400Y-124226000I-3270000J0D01*
G01*
%TO.C,C2*%
X127992000Y-137747621D02*
X125843000Y-137747621D01*
X127992000Y-138588621D02*
X126098000Y-138588621D01*
X131639000Y-139148621D02*
X130072000Y-139148621D01*
X127992000Y-137587621D02*
X125821000Y-137587621D01*
X127992000Y-139148621D02*
X126425000Y-139148621D01*
X132002000Y-138508621D02*
X130072000Y-138508621D01*
X131748000Y-138988621D02*
X130072000Y-138988621D01*
X127992000Y-137627621D02*
X125826000Y-137627621D01*
X132142000Y-138108621D02*
X130072000Y-138108621D01*
X127992000Y-138028621D02*
X125901000Y-138028621D01*
X129665000Y-140428621D02*
X128399000Y-140428621D01*
X132093000Y-138268621D02*
X130072000Y-138268621D01*
X129834000Y-140388621D02*
X128230000Y-140388621D01*
X127992000Y-138268621D02*
X125971000Y-138268621D01*
X132050000Y-138388621D02*
X130072000Y-138388621D01*
X129972000Y-140348621D02*
X128092000Y-140348621D01*
X130866000Y-139908621D02*
X127198000Y-139908621D01*
X127992000Y-139348621D02*
X126582000Y-139348621D01*
X132262000Y-137227621D02*
X125802000Y-137227621D01*
X132034000Y-138428621D02*
X130072000Y-138428621D01*
X127992000Y-138068621D02*
X125911000Y-138068621D01*
X132254000Y-137467621D02*
X130072000Y-137467621D01*
X127992000Y-137827621D02*
X125857000Y-137827621D01*
X127992000Y-139068621D02*
X126368000Y-139068621D01*
X132182000Y-137948621D02*
X130072000Y-137948621D01*
X127992000Y-137907621D02*
X125873000Y-137907621D01*
X131948000Y-138628621D02*
X130072000Y-138628621D01*
X132247000Y-137547621D02*
X130072000Y-137547621D01*
X132221000Y-137747621D02*
X130072000Y-137747621D01*
X131337000Y-139508621D02*
X130072000Y-139508621D01*
X130382000Y-140188621D02*
X127682000Y-140188621D01*
X131798000Y-138908621D02*
X130072000Y-138908621D01*
X127992000Y-139308621D02*
X126548000Y-139308621D01*
X130464000Y-140148621D02*
X127600000Y-140148621D01*
X130541000Y-140108621D02*
X127523000Y-140108621D01*
X127992000Y-138388621D02*
X126014000Y-138388621D01*
X132207000Y-137827621D02*
X130072000Y-137827621D01*
X127992000Y-138828621D02*
X126220000Y-138828621D01*
X127992000Y-138428621D02*
X126030000Y-138428621D01*
X130976000Y-139828621D02*
X127088000Y-139828621D01*
X131186000Y-134042380D02*
X130556000Y-134042380D01*
X127992000Y-138668621D02*
X126136000Y-138668621D01*
X132262000Y-137307621D02*
X125802000Y-137307621D01*
X131256000Y-139588621D02*
X126808000Y-139588621D01*
X132243000Y-137587621D02*
X130072000Y-137587621D01*
X130682000Y-140028621D02*
X127382000Y-140028621D01*
X131448000Y-139388621D02*
X130072000Y-139388621D01*
X127992000Y-138108621D02*
X125922000Y-138108621D01*
X131076000Y-139748621D02*
X126988000Y-139748621D01*
X127992000Y-137547621D02*
X125817000Y-137547621D01*
X131548000Y-139268621D02*
X130072000Y-139268621D01*
X131580000Y-139228621D02*
X130072000Y-139228621D01*
X132118000Y-138188621D02*
X130072000Y-138188621D01*
X132233000Y-137667621D02*
X130072000Y-137667621D01*
X129434000Y-140468621D02*
X128630000Y-140468621D01*
X132065000Y-138348621D02*
X130072000Y-138348621D01*
X132173000Y-137988621D02*
X130072000Y-137988621D01*
X127992000Y-138468621D02*
X126046000Y-138468621D01*
X132079000Y-138308621D02*
X130072000Y-138308621D01*
X130871000Y-133727380D02*
X130871000Y-134357380D01*
X127992000Y-138348621D02*
X125999000Y-138348621D01*
X131888000Y-138748621D02*
X130072000Y-138748621D01*
X130197000Y-140268621D02*
X127867000Y-140268621D01*
X131722000Y-139028621D02*
X130072000Y-139028621D01*
X131169000Y-139668621D02*
X126895000Y-139668621D01*
X127992000Y-137707621D02*
X125837000Y-137707621D01*
X130613000Y-140068621D02*
X127451000Y-140068621D01*
X127992000Y-138308621D02*
X125985000Y-138308621D01*
X132262000Y-137267621D02*
X125802000Y-137267621D01*
X130808000Y-139948621D02*
X127256000Y-139948621D01*
X131908000Y-138708621D02*
X130072000Y-138708621D01*
X127992000Y-137988621D02*
X125891000Y-137988621D01*
X131482000Y-139348621D02*
X130072000Y-139348621D01*
X127992000Y-138228621D02*
X125958000Y-138228621D01*
X131124000Y-139708621D02*
X126940000Y-139708621D01*
X127992000Y-139108621D02*
X126396000Y-139108621D01*
X127992000Y-139468621D02*
X126689000Y-139468621D01*
X132130000Y-138148621D02*
X130072000Y-138148621D01*
X127992000Y-137787621D02*
X125850000Y-137787621D01*
X132106000Y-138228621D02*
X130072000Y-138228621D01*
X127992000Y-138788621D02*
X126198000Y-138788621D01*
X130922000Y-139868621D02*
X127142000Y-139868621D01*
X131516000Y-139308621D02*
X130072000Y-139308621D01*
X131844000Y-138828621D02*
X130072000Y-138828621D01*
X132259000Y-137387621D02*
X125805000Y-137387621D01*
X132163000Y-138028621D02*
X130072000Y-138028621D01*
X131027000Y-139788621D02*
X127037000Y-139788621D01*
X131866000Y-138788621D02*
X130072000Y-138788621D01*
X127992000Y-138868621D02*
X126242000Y-138868621D01*
X127992000Y-139228621D02*
X126484000Y-139228621D01*
X132256000Y-137427621D02*
X125808000Y-137427621D01*
X132238000Y-137627621D02*
X130072000Y-137627621D01*
X127992000Y-138548621D02*
X126080000Y-138548621D01*
X127992000Y-139028621D02*
X126342000Y-139028621D01*
X131214000Y-139628621D02*
X126850000Y-139628621D01*
X127992000Y-138988621D02*
X126316000Y-138988621D01*
X130746000Y-139988621D02*
X127318000Y-139988621D01*
X127992000Y-139388621D02*
X126616000Y-139388621D01*
X127992000Y-139428621D02*
X126652000Y-139428621D01*
X132214000Y-137787621D02*
X130072000Y-137787621D01*
X127992000Y-138148621D02*
X125934000Y-138148621D01*
X131966000Y-138588621D02*
X130072000Y-138588621D01*
X132018000Y-138468621D02*
X130072000Y-138468621D01*
X127992000Y-138908621D02*
X126266000Y-138908621D01*
X127992000Y-137467621D02*
X125810000Y-137467621D01*
X132199000Y-137867621D02*
X130072000Y-137867621D01*
X127992000Y-137667621D02*
X125831000Y-137667621D01*
X127992000Y-138188621D02*
X125946000Y-138188621D01*
X132227000Y-137707621D02*
X130072000Y-137707621D01*
X132260000Y-137347621D02*
X125804000Y-137347621D01*
X127992000Y-138628621D02*
X126116000Y-138628621D01*
X127992000Y-139188621D02*
X126454000Y-139188621D01*
X131696000Y-139068621D02*
X130072000Y-139068621D01*
X132250000Y-137507621D02*
X130072000Y-137507621D01*
X127992000Y-138508621D02*
X126062000Y-138508621D01*
X131297000Y-139548621D02*
X126767000Y-139548621D01*
X130294000Y-140228621D02*
X127770000Y-140228621D01*
X132153000Y-138068621D02*
X130072000Y-138068621D01*
X132191000Y-137907621D02*
X130072000Y-137907621D01*
X127992000Y-138748621D02*
X126176000Y-138748621D01*
X131822000Y-138868621D02*
X130072000Y-138868621D01*
X130091000Y-140308621D02*
X127973000Y-140308621D01*
X131774000Y-138948621D02*
X130072000Y-138948621D01*
X131610000Y-139188621D02*
X130072000Y-139188621D01*
X127992000Y-139268621D02*
X126516000Y-139268621D01*
X127992000Y-137507621D02*
X125814000Y-137507621D01*
X131984000Y-138548621D02*
X130072000Y-138548621D01*
X131412000Y-139428621D02*
X130072000Y-139428621D01*
X127992000Y-138708621D02*
X126156000Y-138708621D01*
X127992000Y-138948621D02*
X126290000Y-138948621D01*
X127992000Y-137867621D02*
X125865000Y-137867621D01*
X127992000Y-137948621D02*
X125882000Y-137948621D01*
X131375000Y-139468621D02*
X130072000Y-139468621D01*
X127992000Y-139508621D02*
X126727000Y-139508621D01*
X131928000Y-138668621D02*
X130072000Y-138668621D01*
X131668000Y-139108621D02*
X130072000Y-139108621D01*
X132302000Y-137227621D02*
G75*
G03*
X132302000Y-137227621I-3270000J0D01*
G01*
%TO.C,R1*%
X103869748Y-92000000D02*
X104392252Y-92000000D01*
X103869748Y-93420000D02*
X104392252Y-93420000D01*
%TO.C,P4*%
X146345000Y-108625000D02*
X151545000Y-108625000D01*
X146345000Y-108625000D02*
X146345000Y-121445000D01*
X146345000Y-121445000D02*
X151545000Y-121445000D01*
X151545000Y-108625000D02*
X151545000Y-121445000D01*
%TO.C,R3*%
X104123748Y-115876000D02*
X104646252Y-115876000D01*
X104123748Y-117296000D02*
X104646252Y-117296000D01*
%TO.C,P6*%
X154870000Y-111170000D02*
X154870000Y-123990000D01*
X154870000Y-111170000D02*
X157530000Y-111170000D01*
X157530000Y-111170000D02*
X157530000Y-123990000D01*
X154870000Y-123990000D02*
X157530000Y-123990000D01*
%TO.C,JP1*%
X92133200Y-97074000D02*
X92133200Y-96474000D01*
X92983200Y-97974000D02*
X93283200Y-98274000D01*
X92983200Y-97974000D02*
X92683200Y-98274000D01*
X92783200Y-95774000D02*
X95583200Y-95774000D01*
X95583200Y-97774000D02*
X92783200Y-97774000D01*
X96233200Y-96474000D02*
X96233200Y-97074000D01*
X92683200Y-98274000D02*
X93283200Y-98274000D01*
X92133200Y-96474000D02*
G75*
G02*
X92833200Y-95774000I700000J0D01*
G01*
X95533200Y-95774000D02*
G75*
G02*
X96233200Y-96474000I0J-700000D01*
G01*
X92833200Y-97774000D02*
G75*
G02*
X92133200Y-97074000I0J700000D01*
G01*
X96233200Y-97074000D02*
G75*
G02*
X95533200Y-97774000I-700000J0D01*
G01*
%TO.C,R7*%
X139111252Y-97120000D02*
X138588748Y-97120000D01*
X139111252Y-98540000D02*
X138588748Y-98540000D01*
%TO.C,C6*%
X114815252Y-91642000D02*
X114292748Y-91642000D01*
X114815252Y-90222000D02*
X114292748Y-90222000D01*
%TD*%
M02*
