M48
; DRILL file {KiCad (5.99.0-11626-g43523df843)} date Wed Aug 18 09:38:05 2021
; FORMAT={-:-/ absolute / metric / decimal}
; #@! TF.CreationDate,2021-08-18T09:38:05+01:00
; #@! TF.GenerationSoftware,Kicad,Pcbnew,(5.99.0-11626-g43523df843)
; #@! TF.FileFunction,Plated,1,2,PTH
FMAT,2
METRIC
; #@! TA.AperFunction,Plated,PTH,ViaDrill
T1C0.400
; #@! TA.AperFunction,Plated,PTH,ComponentDrill
T2C0.800
; #@! TA.AperFunction,Plated,PTH,ComponentDrill
T3C1.000
; #@! TA.AperFunction,Plated,PTH,ComponentDrill
T4C3.200
%
G90
G05
T1
X91.11Y-107.874
X91.135Y-104.115
X91.161Y-96.774
X91.161Y-100.228
X92.558Y-94.793
X97.409Y-123.749
X97.434Y-94.259
X97.587Y-113.868
X97.587Y-118.77
X98.755Y-89.865
X98.781Y-86.385
X99.974Y-97.053
X99.974Y-129.692
X103.251Y-99.593
X104.242Y-93.853
X104.369Y-121.59
X104.445Y-102.845
X105.004Y-99.822
X105.08Y-100.863
X105.435Y-111.811
X106.426Y-90.348
X106.934Y-108.788
X107.086Y-116.586
X108.331Y-96.342
X108.407Y-98.323
X110.338Y-101.27
X113.208Y-124.435
X115.579Y-92.625
X115.7Y-95.88
X115.748Y-96.901
X115.782Y-107.281
X119.0Y-87.68
X119.253Y-104.14
X120.345Y-99.797
X120.8Y-94.48
X120.98Y-108.941
X121.8Y-94.48
X123.8Y-94.43
X124.8Y-95.48
X125.05Y-100.08
X125.956Y-106.525
X126.162Y-102.286
X126.848Y-97.663
X127.3Y-82.605
X127.35Y-84.38
X127.94Y-98.374
X128.1Y-96.58
X129.1Y-81.03
X129.794Y-108.966
X130.25Y-89.28
X130.708Y-93.37
X131.928Y-124.409
X131.95Y-81.98
X131.953Y-102.997
X132.982Y-85.331
X133.341Y-106.188
X134.25Y-95.98
X134.525Y-85.82
X134.6Y-101.08
X134.8Y-94.63
X134.95Y-100.08
X135.35Y-81.03
X135.4Y-89.38
X135.45Y-82.13
X136.6Y-106.13
X136.7Y-101.28
X137.725Y-81.03
X138.151Y-137.795
X139.1Y-92.38
X139.15Y-87.48
X139.65Y-82.88
X140.2Y-93.48
X140.55Y-106.13
X141.3Y-97.78
X141.5Y-86.48
X141.9Y-82.93
X143.3Y-135.28
X144.45Y-87.78
X144.5Y-86.48
X144.5Y-88.88
X145.475Y-94.805
X146.35Y-92.38
X147.175Y-93.48
X150.15Y-96.005
X153.7Y-91.98
X154.05Y-114.53
T2
X87.63Y-85.583
X87.63Y-88.123
X87.63Y-90.663
X87.63Y-93.203
X87.63Y-95.743
X87.63Y-98.283
X87.63Y-100.823
X87.63Y-103.363
X87.63Y-105.903
X87.63Y-109.459
X87.63Y-111.999
X87.63Y-114.539
X87.63Y-117.079
X87.63Y-119.619
X87.63Y-122.159
X87.63Y-124.699
X87.63Y-127.239
X87.63Y-129.779
X103.378Y-136.096
X103.378Y-138.596
X123.19Y-114.3
X128.07Y-114.3
X129.032Y-135.978
X129.032Y-138.478
X139.065Y-115.178
X139.065Y-117.678
X139.09Y-122.976
X139.09Y-125.476
X146.382Y-102.88
X148.882Y-102.88
T3
X80.259Y-85.593
X80.259Y-88.133
X80.259Y-90.673
X80.259Y-93.213
X80.259Y-95.753
X80.259Y-98.293
X80.259Y-100.833
X80.259Y-103.373
X80.259Y-105.913
X80.259Y-108.453
X80.259Y-110.993
X80.259Y-113.533
X80.259Y-116.073
X80.259Y-118.613
X80.259Y-121.153
X80.259Y-123.693
X80.259Y-126.233
X80.264Y-133.096
X80.264Y-135.636
X80.264Y-138.176
X80.264Y-140.716
X82.799Y-85.593
X82.799Y-88.133
X82.799Y-90.673
X82.799Y-93.213
X82.799Y-95.753
X82.799Y-98.293
X82.799Y-100.833
X82.799Y-103.373
X82.799Y-105.913
X82.799Y-108.453
X82.799Y-110.993
X82.799Y-113.533
X82.799Y-116.073
X82.799Y-118.613
X82.799Y-121.153
X82.799Y-123.693
X82.799Y-126.233
X83.058Y-133.096
X83.058Y-135.636
X83.058Y-138.176
X83.058Y-140.716
X147.675Y-109.955
X147.675Y-112.495
X147.675Y-115.035
X147.675Y-117.575
X147.675Y-120.115
X150.215Y-109.955
X150.215Y-112.495
X150.215Y-115.035
X150.215Y-117.575
X150.215Y-120.115
X150.95Y-131.19
X150.95Y-133.73
X153.6Y-131.19
X153.6Y-133.73
X153.76Y-85.08
X153.76Y-87.68
X156.2Y-90.98
X156.2Y-93.52
X156.2Y-96.06
X156.2Y-98.6
X156.2Y-102.362
X156.2Y-104.902
X156.2Y-107.442
X156.2Y-109.982
X156.2Y-112.5
X156.2Y-115.04
X156.2Y-117.58
X156.2Y-120.12
X156.2Y-122.66
X156.25Y-131.19
X156.25Y-133.73
X156.3Y-85.08
X156.3Y-87.68
T4
X87.37Y-140.72
X87.376Y-80.264
X153.42Y-80.514
X153.42Y-140.72
T0
M30
