%TF.GenerationSoftware,KiCad,Pcbnew,(5.99.0-11626-g43523df843)*%
%TF.CreationDate,2021-08-18T09:38:13+01:00*%
%TF.ProjectId,OpenFlopsXT_V0.1,4f70656e-466c-46f7-9073-58545f56302e,rev?*%
%TF.SameCoordinates,Original*%
%TF.FileFunction,Soldermask,Bot*%
%TF.FilePolarity,Negative*%
%FSLAX46Y46*%
G04 Gerber Fmt 4.6, Leading zero omitted, Abs format (unit mm)*
G04 Created by KiCad (PCBNEW (5.99.0-11626-g43523df843)) date 2021-08-18 09:38:13*
%MOMM*%
%LPD*%
G01*
G04 APERTURE LIST*
%ADD10R,1.700000X1.700000*%
%ADD11O,1.700000X1.700000*%
%ADD12C,1.500000*%
%ADD13R,1.600000X1.600000*%
%ADD14O,1.600000X1.600000*%
%ADD15C,1.700000*%
%ADD16C,5.000000*%
%ADD17C,1.600000*%
G04 APERTURE END LIST*
D10*
%TO.C,P1*%
X80259000Y-85593000D03*
D11*
X82799000Y-85593000D03*
X80259000Y-88133000D03*
X82799000Y-88133000D03*
X80259000Y-90673000D03*
X82799000Y-90673000D03*
X80259000Y-93213000D03*
X82799000Y-93213000D03*
X80259000Y-95753000D03*
X82799000Y-95753000D03*
X80259000Y-98293000D03*
X82799000Y-98293000D03*
X80259000Y-100833000D03*
X82799000Y-100833000D03*
X80259000Y-103373000D03*
X82799000Y-103373000D03*
X80259000Y-105913000D03*
X82799000Y-105913000D03*
X80259000Y-108453000D03*
X82799000Y-108453000D03*
X80259000Y-110993000D03*
X82799000Y-110993000D03*
X80259000Y-113533000D03*
X82799000Y-113533000D03*
X80259000Y-116073000D03*
X82799000Y-116073000D03*
X80259000Y-118613000D03*
X82799000Y-118613000D03*
X80259000Y-121153000D03*
X82799000Y-121153000D03*
X80259000Y-123693000D03*
X82799000Y-123693000D03*
X80259000Y-126233000D03*
X82799000Y-126233000D03*
%TD*%
D12*
%TO.C,Y1*%
X123190000Y-114300000D03*
X128070000Y-114300000D03*
%TD*%
D13*
%TO.C,RN2*%
X87630000Y-109459000D03*
D14*
X87630000Y-111999000D03*
X87630000Y-114539000D03*
X87630000Y-117079000D03*
X87630000Y-119619000D03*
X87630000Y-122159000D03*
X87630000Y-124699000D03*
X87630000Y-127239000D03*
X87630000Y-129779000D03*
%TD*%
D10*
%TO.C,J4*%
X156250000Y-133730000D03*
D11*
X156250000Y-131190000D03*
%TD*%
D15*
%TO.C,P2*%
X80264000Y-133096000D03*
D11*
X80264000Y-135636000D03*
X80264000Y-138176000D03*
X80264000Y-140716000D03*
%TD*%
D15*
%TO.C,P7*%
X156200000Y-102362000D03*
D11*
X156200000Y-104902000D03*
X156200000Y-107442000D03*
X156200000Y-109982000D03*
%TD*%
D16*
%TO.C,H2*%
X153420000Y-140720000D03*
%TD*%
%TO.C,H1*%
X153420000Y-80514000D03*
%TD*%
D15*
%TO.C,P8*%
X156200000Y-90980000D03*
D11*
X156200000Y-93520000D03*
X156200000Y-96060000D03*
X156200000Y-98600000D03*
%TD*%
D16*
%TO.C,H3*%
X87376000Y-80264000D03*
%TD*%
D13*
%TO.C,RN1*%
X87630000Y-85583000D03*
D14*
X87630000Y-88123000D03*
X87630000Y-90663000D03*
X87630000Y-93203000D03*
X87630000Y-95743000D03*
X87630000Y-98283000D03*
X87630000Y-100823000D03*
X87630000Y-103363000D03*
X87630000Y-105903000D03*
%TD*%
D10*
%TO.C,J3*%
X153600000Y-133730000D03*
D11*
X153600000Y-131190000D03*
%TD*%
D10*
%TO.C,J1*%
X156300000Y-87680000D03*
D11*
X153760000Y-87680000D03*
%TD*%
D16*
%TO.C,H4*%
X87370000Y-140720000D03*
%TD*%
D13*
%TO.C,C11*%
X148882380Y-102880000D03*
D17*
X146382380Y-102880000D03*
%TD*%
D10*
%TO.C,J2*%
X156300000Y-85080000D03*
D11*
X153760000Y-85080000D03*
%TD*%
D13*
%TO.C,C1*%
X103378000Y-138596381D03*
D17*
X103378000Y-136096381D03*
%TD*%
D10*
%TO.C,P9*%
X150950000Y-133730000D03*
D11*
X150950000Y-131190000D03*
%TD*%
D15*
%TO.C,P3*%
X83058000Y-133096000D03*
D11*
X83058000Y-135636000D03*
X83058000Y-138176000D03*
X83058000Y-140716000D03*
%TD*%
D13*
%TO.C,C17*%
X139065000Y-117678200D03*
D17*
X139065000Y-115178200D03*
%TD*%
D13*
%TO.C,C19*%
X139090400Y-125476000D03*
D17*
X139090400Y-122976000D03*
%TD*%
D13*
%TO.C,C2*%
X129032000Y-135977621D03*
D17*
X129032000Y-138477621D03*
%TD*%
D15*
%TO.C,P4*%
X147675000Y-109955000D03*
D11*
X150215000Y-109955000D03*
X147675000Y-112495000D03*
X150215000Y-112495000D03*
X147675000Y-115035000D03*
X150215000Y-115035000D03*
X147675000Y-117575000D03*
X150215000Y-117575000D03*
X147675000Y-120115000D03*
X150215000Y-120115000D03*
%TD*%
D15*
%TO.C,P6*%
X156200000Y-112500000D03*
D11*
X156200000Y-115040000D03*
X156200000Y-117580000D03*
X156200000Y-120120000D03*
X156200000Y-122660000D03*
%TD*%
M02*
