%TF.GenerationSoftware,KiCad,Pcbnew,(5.99.0-11626-g43523df843)*%
%TF.CreationDate,2021-08-18T09:38:13+01:00*%
%TF.ProjectId,OpenFlopsXT_V0.1,4f70656e-466c-46f7-9073-58545f56302e,rev?*%
%TF.SameCoordinates,Original*%
%TF.FileFunction,Paste,Top*%
%TF.FilePolarity,Positive*%
%FSLAX46Y46*%
G04 Gerber Fmt 4.6, Leading zero omitted, Abs format (unit mm)*
G04 Created by KiCad (PCBNEW (5.99.0-11626-g43523df843)) date 2021-08-18 09:38:13*
%MOMM*%
%LPD*%
G01*
G04 APERTURE LIST*
G04 Aperture macros list*
%AMRoundRect*
0 Rectangle with rounded corners*
0 $1 Rounding radius*
0 $2 $3 $4 $5 $6 $7 $8 $9 X,Y pos of 4 corners*
0 Add a 4 corners polygon primitive as box body*
4,1,4,$2,$3,$4,$5,$6,$7,$8,$9,$2,$3,0*
0 Add four circle primitives for the rounded corners*
1,1,$1+$1,$2,$3*
1,1,$1+$1,$4,$5*
1,1,$1+$1,$6,$7*
1,1,$1+$1,$8,$9*
0 Add four rect primitives between the rounded corners*
20,1,$1+$1,$2,$3,$4,$5,0*
20,1,$1+$1,$4,$5,$6,$7,0*
20,1,$1+$1,$6,$7,$8,$9,0*
20,1,$1+$1,$8,$9,$2,$3,0*%
G04 Aperture macros list end*
%ADD10RoundRect,0.150000X0.825000X0.150000X-0.825000X0.150000X-0.825000X-0.150000X0.825000X-0.150000X0*%
%ADD11RoundRect,0.250000X0.450000X-0.325000X0.450000X0.325000X-0.450000X0.325000X-0.450000X-0.325000X0*%
%ADD12RoundRect,0.250000X-0.325000X-0.450000X0.325000X-0.450000X0.325000X0.450000X-0.325000X0.450000X0*%
%ADD13RoundRect,0.250000X-0.450000X0.325000X-0.450000X-0.325000X0.450000X-0.325000X0.450000X0.325000X0*%
%ADD14R,1.900000X0.800000*%
%ADD15R,0.800000X1.900000*%
%ADD16RoundRect,0.250000X0.325000X0.450000X-0.325000X0.450000X-0.325000X-0.450000X0.325000X-0.450000X0*%
%ADD17R,1.000000X1.000000*%
%ADD18R,0.300000X1.300000*%
%ADD19R,1.800000X2.200000*%
%ADD20R,2.000000X1.500000*%
%ADD21R,2.000000X3.800000*%
%ADD22RoundRect,0.075000X0.075000X-1.075000X0.075000X1.075000X-0.075000X1.075000X-0.075000X-1.075000X0*%
%ADD23RoundRect,0.075000X1.075000X-0.075000X1.075000X0.075000X-1.075000X0.075000X-1.075000X-0.075000X0*%
G04 APERTURE END LIST*
D10*
%TO.C,U1*%
X106665800Y-104673400D03*
X106665800Y-103403400D03*
X106665800Y-102133400D03*
X106665800Y-100863400D03*
X106665800Y-99593400D03*
X106665800Y-98323400D03*
X106665800Y-97053400D03*
X101715800Y-97053400D03*
X101715800Y-98323400D03*
X101715800Y-99593400D03*
X101715800Y-100863400D03*
X101715800Y-102133400D03*
X101715800Y-103403400D03*
X101715800Y-104673400D03*
%TD*%
D11*
%TO.C,R11*%
X140309600Y-139556600D03*
X140309600Y-137506600D03*
%TD*%
D12*
%TO.C,C7*%
X133341000Y-104394000D03*
X135391000Y-104394000D03*
%TD*%
D11*
%TO.C,R9*%
X152200000Y-93755000D03*
X152200000Y-91705000D03*
%TD*%
%TO.C,R20*%
X153050000Y-127655000D03*
X153050000Y-125605000D03*
%TD*%
D13*
%TO.C,C18*%
X122950000Y-136255000D03*
X122950000Y-138305000D03*
%TD*%
D12*
%TO.C,R5*%
X103369000Y-119888000D03*
X105419000Y-119888000D03*
%TD*%
D14*
%TO.C,Q2*%
X95734000Y-115758000D03*
X95734000Y-113858000D03*
X92734000Y-114808000D03*
%TD*%
D12*
%TO.C,R6*%
X103106000Y-89408000D03*
X105156000Y-89408000D03*
%TD*%
D15*
%TO.C,Q7*%
X144465000Y-139269600D03*
X146365000Y-139269600D03*
X145415000Y-136269600D03*
%TD*%
D16*
%TO.C,C4*%
X139861400Y-104380000D03*
X137811400Y-104380000D03*
%TD*%
D12*
%TO.C,R2*%
X103369000Y-113284000D03*
X105419000Y-113284000D03*
%TD*%
D16*
%TO.C,C10*%
X140000000Y-111530000D03*
X137950000Y-111530000D03*
%TD*%
D12*
%TO.C,C5*%
X126483000Y-108966000D03*
X128533000Y-108966000D03*
%TD*%
D16*
%TO.C,R4*%
X105419000Y-127000000D03*
X103369000Y-127000000D03*
%TD*%
D17*
%TO.C,D1*%
X105644000Y-123444000D03*
X103144000Y-123444000D03*
%TD*%
D12*
%TO.C,C8*%
X133341000Y-91186000D03*
X135391000Y-91186000D03*
%TD*%
D16*
%TO.C,C3*%
X124469000Y-108966000D03*
X122419000Y-108966000D03*
%TD*%
D12*
%TO.C,R10*%
X137825000Y-101180000D03*
X139875000Y-101180000D03*
%TD*%
D16*
%TO.C,R13*%
X139925000Y-108130000D03*
X137875000Y-108130000D03*
%TD*%
D14*
%TO.C,Q6*%
X95214617Y-87596793D03*
X95214617Y-85696793D03*
X92214617Y-86646793D03*
%TD*%
D18*
%TO.C,J5*%
X135450000Y-84630000D03*
X135950000Y-84630000D03*
X136450000Y-84630000D03*
X136950000Y-84630000D03*
X137450000Y-84630000D03*
X137950000Y-84630000D03*
X138450000Y-84630000D03*
X138950000Y-84630000D03*
X139450000Y-84630000D03*
X139950000Y-84630000D03*
X140450000Y-84630000D03*
X140950000Y-84630000D03*
X141450000Y-84630000D03*
X141950000Y-84630000D03*
X142450000Y-84630000D03*
X142950000Y-84630000D03*
X143450000Y-84630000D03*
X143950000Y-84630000D03*
X144450000Y-84630000D03*
X144950000Y-84630000D03*
X145450000Y-84630000D03*
X145950000Y-84630000D03*
D19*
X147850000Y-81380000D03*
X133550000Y-81380000D03*
%TD*%
D14*
%TO.C,Q5*%
X95734000Y-125664000D03*
X95734000Y-123764000D03*
X92734000Y-124714000D03*
%TD*%
D20*
%TO.C,U4*%
X112928000Y-134860001D03*
X112928000Y-137160001D03*
D21*
X119228000Y-137160001D03*
D20*
X112928000Y-139460001D03*
%TD*%
D22*
%TO.C,U3*%
X120456000Y-104044000D03*
X120956000Y-104044000D03*
X121456000Y-104044000D03*
X121956000Y-104044000D03*
X122456000Y-104044000D03*
X122956000Y-104044000D03*
X123456000Y-104044000D03*
X123956000Y-104044000D03*
X124456000Y-104044000D03*
X124956000Y-104044000D03*
X125456000Y-104044000D03*
X125956000Y-104044000D03*
X126456000Y-104044000D03*
X126956000Y-104044000D03*
X127456000Y-104044000D03*
X127956000Y-104044000D03*
D23*
X130206000Y-101794000D03*
X130206000Y-101294000D03*
X130206000Y-100794000D03*
X130206000Y-100294000D03*
X130206000Y-99794000D03*
X130206000Y-99294000D03*
X130206000Y-98794000D03*
X130206000Y-98294000D03*
X130206000Y-97794000D03*
X130206000Y-97294000D03*
X130206000Y-96794000D03*
X130206000Y-96294000D03*
X130206000Y-95794000D03*
X130206000Y-95294000D03*
X130206000Y-94794000D03*
X130206000Y-94294000D03*
D22*
X127956000Y-92044000D03*
X127456000Y-92044000D03*
X126956000Y-92044000D03*
X126456000Y-92044000D03*
X125956000Y-92044000D03*
X125456000Y-92044000D03*
X124956000Y-92044000D03*
X124456000Y-92044000D03*
X123956000Y-92044000D03*
X123456000Y-92044000D03*
X122956000Y-92044000D03*
X122456000Y-92044000D03*
X121956000Y-92044000D03*
X121456000Y-92044000D03*
X120956000Y-92044000D03*
X120456000Y-92044000D03*
D23*
X118206000Y-94294000D03*
X118206000Y-94794000D03*
X118206000Y-95294000D03*
X118206000Y-95794000D03*
X118206000Y-96294000D03*
X118206000Y-96794000D03*
X118206000Y-97294000D03*
X118206000Y-97794000D03*
X118206000Y-98294000D03*
X118206000Y-98794000D03*
X118206000Y-99294000D03*
X118206000Y-99794000D03*
X118206000Y-100294000D03*
X118206000Y-100794000D03*
X118206000Y-101294000D03*
X118206000Y-101794000D03*
%TD*%
D14*
%TO.C,Q3*%
X95758000Y-120650000D03*
X95758000Y-118750000D03*
X92758000Y-119700000D03*
%TD*%
D11*
%TO.C,R12*%
X146659600Y-127644000D03*
X146659600Y-125594000D03*
%TD*%
D17*
%TO.C,D2*%
X146685000Y-130728400D03*
X146685000Y-133228400D03*
%TD*%
D12*
%TO.C,C20*%
X103375000Y-108730000D03*
X105425000Y-108730000D03*
%TD*%
D13*
%TO.C,R8*%
X152200000Y-96205000D03*
X152200000Y-98255000D03*
%TD*%
D11*
%TO.C,R21*%
X156250000Y-127655000D03*
X156250000Y-125605000D03*
%TD*%
D14*
%TO.C,Q1*%
X95214617Y-92422793D03*
X95214617Y-90522793D03*
X92214617Y-91472793D03*
%TD*%
D11*
%TO.C,C23*%
X109250000Y-138405000D03*
X109250000Y-136355000D03*
%TD*%
D14*
%TO.C,Q4*%
X95734000Y-130744000D03*
X95734000Y-128844000D03*
X92734000Y-129794000D03*
%TD*%
D16*
%TO.C,C9*%
X115725000Y-109030000D03*
X113675000Y-109030000D03*
%TD*%
D12*
%TO.C,R1*%
X103106000Y-92710000D03*
X105156000Y-92710000D03*
%TD*%
%TO.C,R3*%
X103360000Y-116586000D03*
X105410000Y-116586000D03*
%TD*%
D16*
%TO.C,R7*%
X139875000Y-97830000D03*
X137825000Y-97830000D03*
%TD*%
%TO.C,C6*%
X115579000Y-90932000D03*
X113529000Y-90932000D03*
%TD*%
M02*
